<?xml version="1.0" encoding="UTF-8" standalone="no"?>
<!-- Created with Inkscape (http://www.inkscape.org/) -->

<svg
   xmlns:dc="http://purl.org/dc/elements/1.1/"
   xmlns:cc="http://creativecommons.org/ns#"
   xmlns:rdf="http://www.w3.org/1999/02/22-rdf-syntax-ns#"
   xmlns:svg="http://www.w3.org/2000/svg"
   xmlns="http://www.w3.org/2000/svg"
   xmlns:sodipodi="http://sodipodi.sourceforge.net/DTD/sodipodi-0.dtd"
   xmlns:inkscape="http://www.inkscape.org/namespaces/inkscape"
   width="608"
   height="350"
   viewBox="0 0 160.86667 92.604163"
   version="1.1"
   id="svg8"
   inkscape:version="0.92.4 (5da689c313, 2019-01-14)"
   sodipodi:docname="github.svg">
  <defs
     id="defs2" />
  <sodipodi:namedview
     id="base"
     pagecolor="#ffffff"
     bordercolor="#666666"
     borderopacity="1.0"
     inkscape:pageopacity="0.0"
     inkscape:pageshadow="2"
     inkscape:zoom="0.7"
     inkscape:cx="246.99911"
     inkscape:cy="38.199684"
     inkscape:document-units="mm"
     inkscape:current-layer="layer1"
     showgrid="false"
     showguides="false"
     fit-margin-top="0"
     fit-margin-left="0"
     fit-margin-right="0"
     fit-margin-bottom="0"
     units="px"
     inkscape:window-width="1600"
     inkscape:window-height="837"
     inkscape:window-x="-8"
     inkscape:window-y="-8"
     inkscape:window-maximized="1" />
  <metadata
     id="metadata5">
    <rdf:RDF>
      <cc:Work
         rdf:about="">
        <dc:format>image/svg+xml</dc:format>
        <dc:type
           rdf:resource="http://purl.org/dc/dcmitype/StillImage" />
        <dc:title></dc:title>
      </cc:Work>
    </rdf:RDF>
  </metadata>
  <g
     inkscape:label="Layer 1"
     inkscape:groupmode="layer"
     id="layer1"
     transform="translate(38.383484,-75.192697)">
    <g
       id="g916"
       transform="translate(51.858335,-2.0062866e-6)">
      <g
         id="g905">
        <ellipse
           style="opacity:1;fill:#ffffff;fill-opacity:1;stroke:none;stroke-width:11.90625095;stroke-linecap:round;stroke-linejoin:round;stroke-miterlimit:4;stroke-dasharray:none;stroke-dashoffset:0;stroke-opacity:1"
           id="path842"
           cx="-8.1076727"
           cy="139.69073"
           rx="35.775356"
           ry="17.315807" />
        <path
           inkscape:connector-curvature="0"
           id="path840"
           d="m -27.278971,163.39378 -1.405218,-0.17403 c -3.201485,-0.39647 -10.866424,-4.79318 -13.465249,-5.64504 l -11.629215,-25.66669 c 0.0024,-5.95658 0.48324,-8.74972 2.185773,-12.69878 0.975024,-2.26159 4.042415,-2.9982 5.523368,-4.72215 l 0.785177,-0.91401 -0.487338,-1.38657 c -1.40536,-3.99852 -1.151398,-11.39449 0.566703,-16.503724 0.83829,-2.492888 0.802521,-2.469234 3.472508,-2.296253 4.056306,0.262797 9.877638,2.584884 15.741605,6.27921 l 2.603892,1.640467 4.11621,10.7948 c 1.929499,5.06013 3.433531,-7.19227 10.3990551,-7.18843 6.463954,0.004 9.50662154,0.28376 14.684375,1.35225 l 2.248959,0.4641 2.7781249,-1.67656 c 6.478575,-3.90971 8.255705,-10.410853 11.992876,-10.096977 l 1.058333,0.08889 0.744739,2.248959 c 0.409607,1.236927 0.915622,3.122638 1.124479,4.190458 0.479425,2.45117 0.474631,7.74126 -0.0095,10.45755 l -0.370761,2.0803 0.951135,1.02799 c 4.136356,4.4706 4.858049,3.92593 5.636234,10.58222 l -4.543555,26.76455 c -1.183913,1.50163 -0.243161,5.09457 -2.442223,5.5208 -9.157447,1.77493 -19.5695655,6.29805 -27.4143953,7.17852 l -1.674598,0.18795 z m 0.715875,-12.16744 c 1.506911,-1.03041 2.78507,-2.79304 3.592057,-4.95359 0.482735,-1.29242 0.581557,-2.10278 0.577348,-4.73433 -0.0045,-2.82733 -0.08524,-3.38293 -0.737143,-5.0739 -0.402632,-1.04439 -0.903568,-2.04124 -1.113189,-2.21521 -0.209621,-0.17397 -0.38113,-0.46663 -0.38113,-0.65036 0,-0.18372 -0.26789,-0.51389 -0.595312,-0.73369 -0.327422,-0.2198 -0.865487,-0.65698 -1.1957,-0.9715 -0.889899,-0.84762 -3.194296,-1.26266 -4.730057,-0.8519 -1.597686,0.42732 -2.480222,1.07683 -3.675366,2.70495 -2.677782,3.64786 -3.061891,9.69159 -0.900589,14.17019 0.604028,1.25166 2.435516,3.14665 3.727643,3.8569 1.439902,0.79148 3.824785,0.55105 5.431438,-0.54756 z m -3.929623,-2.32721 c -1.219364,-0.19985 -3.030474,-2.04284 -3.666728,-3.73127 -0.741014,-1.96642 -0.649309,-5.62894 0.186933,-7.4659 1.157713,-2.54313 3.295549,-3.83036 5.342787,-3.21699 1.505987,0.45121 2.284862,1.18298 3.19261,2.99954 0.738413,1.4777 0.811964,1.8569 0.811964,4.1862 0,2.32222 -0.07484,2.71109 -0.801761,4.16578 -1.205426,2.41227 -2.875082,3.4217 -5.065805,3.06264 z m 43.268135,2.81582 c 1.610783,-0.75716 3.174815,-2.55974 4.175646,-4.81253 0.811038,-1.82558 0.855742,-2.09428 0.870366,-5.23171 0.01355,-2.9062 -0.06222,-3.49981 -0.624721,-4.89479 -1.559208,-3.86676 -3.883592,-5.95312 -6.632276,-5.95312 -4.288544,0 -7.505211,4.7366 -7.456742,10.9802 0.01939,2.49888 0.751057,5.55964 1.510554,6.31914 0.214466,0.21447 0.389938,0.46496 0.389938,0.55665 0,0.53453 1.868662,2.34511 3.004502,2.91113 1.63358,0.81404 3.20893,0.8554 4.762733,0.12503 z m -3.001269,-2.83168 c -1.530932,-0.28395 -2.92748,-1.69787 -3.726596,-3.77298 -0.729874,-1.8953 -0.633989,-5.57933 0.192821,-7.40833 1.151649,-2.54757 3.194709,-3.76408 5.347851,-3.1843 1.416658,0.38147 2.177026,1.0483 3.075331,2.69702 0.641257,1.17695 0.788638,1.79999 0.881213,3.72524 0.129122,2.68527 -0.228253,4.41512 -1.206296,5.83904 -1.17425,1.70956 -2.757395,2.43944 -4.564324,2.10431 z"
           style="fill:#fcccb1;stroke-width:1"
           sodipodi:nodetypes="ccccsscscsscscscsccsscccccssccccccsssccccscccsccscccsccsccscccscccscc" />
        <path
           inkscape:connector-curvature="0"
           style="fill:#c35a4d;stroke-width:1"
           d="m -12.056854,158.4518 c -1.454074,-0.75817 -2.755768,-2.41773 -2.377038,-3.03053 0.293129,-0.47429 0.929936,-0.26262 1.236924,0.41115 0.167389,0.36737 0.709999,0.91866 1.205799,1.22509 1.743459,1.07751 3.812863,0.59327 4.787704,-1.12032 0.47039,-0.82687 1.363729,-1.0502 1.363729,-0.34094 0,0.23749 -0.256524,0.84686 -0.570055,1.35416 -1.030793,1.66786 -3.876675,2.4245 -5.647063,1.50139 z"
           id="path873" />
        <path
           inkscape:connector-curvature="0"
           style="fill:#c35a4d;stroke-width:1"
           d="m -11.209,152.51438 c -0.931799,-0.73295 -0.997595,-2.14987 -0.128114,-2.75888 1.845784,-1.29283 4.077449,0.77467 2.653107,2.45795 -0.714057,0.84387 -1.687298,0.95986 -2.524993,0.30093 z"
           id="path871" />
        <path
           inkscape:connector-curvature="0"
           style="fill:#c35a4d;stroke-width:1"
           d="m -31.141279,148.43359 c -1.945347,-0.8466 -3.236746,-3.48182 -3.258675,-6.6496 -0.01736,-2.50722 0.449321,-4.09071 1.626458,-5.51878 1.43298,-1.73845 3.314197,-2.18318 4.968665,-1.1746 1.145985,0.6986 1.46054,1.08087 2.259547,2.746 1.523334,3.17461 0.904894,7.5529 -1.370742,9.70425 -1.330164,1.25751 -2.714808,1.55006 -4.225253,0.89273 z"
           id="path869" />
        <path
           inkscape:connector-curvature="0"
           style="fill:#c35a4d;stroke-width:1"
           d="m 9.088669,148.43959 c -2.717098,-1.18312 -4.159937,-6.11963 -2.898589,-9.91719 0.608613,-1.83236 2.288397,-3.61507 3.645008,-3.86834 1.368497,-0.2555 2.160667,-0.002 3.350215,1.07287 3.041613,2.74791 3.102555,8.99029 0.115337,11.81434 -1.325975,1.25356 -2.715535,1.54992 -4.211971,0.89832 z"
           id="path832" />
        <path
           inkscape:connector-curvature="0"
           style="fill:#b35d52;stroke-width:1"
           d="m -31.118324,137.15519 c -0.09592,-0.1552 -0.117655,-0.33893 -0.0483,-0.40829 0.06935,-0.0694 0.196602,0.0576 0.282774,0.28219 0.178906,0.46623 0.02641,0.54823 -0.234474,0.1261 z"
           id="path845" />
        <path
           inkscape:connector-curvature="0"
           id="path828"
           d="m -23.739142,167.7435 c 1.54669,-1.38926 1.163555,-1.86994 -1.415177,-2.1229 -0.945886,-0.0928 -2.910417,-0.4127 -4.365625,-0.71093 -11.552203,-2.36745 -19.394673,-7.05102 -23.824711,-14.22825 -0.706249,-1.14421 -1.148508,-1.60163 -1.546751,-1.59976 -1.336419,0.006 -8.561126,0.5596 -12.199372,0.93434 -7.228752,0.74455 -17.046575,2.48254 -21.561795,3.81696 -1.117132,0.33016 -1.324663,0.33879 -1.324663,0.0551 0,-0.27537 5.66969,-1.69162 10.197473,-2.54725 6.603153,-1.24782 18.091946,-2.5221 22.7652,-2.525 1.176295,-7.9e-4 2.210694,-0.0733 2.298665,-0.16128 0.08797,-0.088 -0.146616,-0.78502 -0.521306,-1.549 l -0.681254,-1.38905 -3.337203,-0.1582 c -7.105536,-0.33682 -20.531865,0.55938 -28.274179,1.8873 -1.491589,0.25583 -2.711979,0.37886 -2.711979,0.2734 0,-0.26001 0.505891,-0.38831 3.439583,-0.87239 7.007818,-1.15631 11.466261,-1.50596 21.115592,-1.65595 7.981883,-0.12407 9.582689,-0.21062 9.467095,-0.51186 -1.808398,-4.71261 -2.793402,-15.09121 -1.984925,-20.91442 0.709364,-5.10934 3.465886,-11.19611 6.530115,-14.41937 0.688459,-0.72419 0.887669,-1.12967 0.779928,-1.5875 -1.719127,-7.30524 -1.653667,-11.508529 0.271233,-17.415926 l 0.732813,-2.248958 1.31444,-0.08305 c 4.084217,-0.258047 10.743737,2.279982 17.571077,6.696565 l 1.897277,1.227342 2.175073,-0.525939 c 6.082448,-1.470755 11.720277,-2.005542 19.092564,-1.811062 5.715468,0.150773 6.35926,0.226194 14.32011,1.677622 0.65532,0.119479 1.17022,-0.08492 2.689063,-1.067451 2.955896,-1.912159 7.9087,-4.333614 10.655628,-5.209598 1.665113,-0.530998 3.328565,-0.853707 4.928116,-0.956055 l 2.414575,-0.154498 0.533378,1.425978 c 1.690227,4.51878 2.242217,11.16895 1.279041,15.40939 l -0.47181,2.07717 0.647224,0.70096 c 1.657889,1.79554 2.283126,2.61572 3.690059,4.8406 2.200119,3.47919 3.561024,7.2254 4.167052,11.47078 0.608788,4.26472 0.212807,13.40464 -0.79847,18.4301 -0.282789,1.40531 -0.514165,2.6257 -0.514165,2.71198 0,0.0863 3.383918,0.15687 7.519818,0.15687 10.239359,0 20.091809,0.83216 26.809869,2.26442 0.32742,0.0698 0.59531,0.25645 0.59531,0.41477 0,0.16437 -0.1967,0.21236 -0.45856,0.11188 -0.67872,-0.26045 -6.55157,-1.12186 -10.79479,-1.58334 -5.07956,-0.55245 -16.452919,-0.95607 -20.604491,-0.73123 l -3.415133,0.18496 -0.461857,1.36111 -0.461856,1.36112 0.801208,0.16024 c 0.440666,0.0881 1.590001,0.16084 2.554076,0.16157 4.371097,0.003 16.187513,1.34386 22.379353,2.5389 4.89952,0.94562 10.19747,2.25707 10.19747,2.52428 0,0.30051 0.201,0.33325 -3.35508,-0.54643 -6.14476,-1.52005 -12.02935,-2.5201 -19.531378,-3.31922 -3.126672,-0.33306 -11.361743,-0.92894 -12.894628,-0.93305 -0.298005,-7.9e-4 -0.749744,0.57431 -1.286809,1.63823 -1.147696,2.27358 -2.486842,4.01221 -4.686228,6.08421 -3.040169,2.86407 -6.361491,4.71758 -11.520229,6.42899 -2.916883,0.96767 -8.280217,2.12884 -11.019398,2.3857 -3.14016,0.29447 -3.079226,0.17094 -1.075108,2.17945 z m 28.085864,-5.56061 c 15.033366,-1.54 21.354209,-7.79782 21.386893,-21.17364 0.0088,-3.58082 -0.413631,-5.2241 -2.142136,-8.33398 -1.168963,-2.10318 -4.528452,-5.52815 -6.304774,-6.42767 -3.295552,-1.66885 -7.432821,-2.20238 -13.866024,-1.78812 -12.406416,0.79891 -13.449607,0.82964 -18.164742,0.53526 -2.596943,-0.16213 -7.460154,-0.35758 -10.807133,-0.43432 -6.845737,-0.15697 -8.683588,0.0768 -11.699357,1.48803 -3.219688,1.50667 -6.813259,5.70258 -8.241196,9.62253 -0.616493,1.69239 -0.690343,2.27242 -0.679694,5.33827 0.01437,4.13731 0.669258,7.16537 2.165432,10.0126 1.077098,2.04972 3.479927,4.79361 5.285833,6.0361 3.865999,2.65988 9.227664,4.30865 16.608565,5.10733 4.574844,0.49503 21.686581,0.50642 26.458333,0.0176 z"
           style="fill:#020203;stroke-width:1"
           sodipodi:nodetypes="cccccccssccsccsscscsscsccscssscssccscccscsscsccccccccssscccccccccccsscccssccccc" />
      </g>
    </g>
  </g>
</svg>
