<?xml version="1.0" encoding="UTF-8" standalone="no"?>
<svg
   xmlns:dc="http://purl.org/dc/elements/1.1/"
   xmlns:cc="http://creativecommons.org/ns#"
   xmlns:rdf="http://www.w3.org/1999/02/22-rdf-syntax-ns#"
   xmlns:svg="http://www.w3.org/2000/svg"
   xmlns="http://www.w3.org/2000/svg"
   xmlns:sodipodi="http://sodipodi.sourceforge.net/DTD/sodipodi-0.dtd"
   xmlns:inkscape="http://www.inkscape.org/namespaces/inkscape"
   id="b1711ec6-bb87-4a18-ab4e-434cd24277cb"
   data-name="Layer 1"
   width="800"
   height="441.04074"
   viewBox="0 0 800.00003 441.04076"
   version="1.1"
   sodipodi:docname="img2.svg"
   inkscape:version="0.92.4 (5da689c313, 2019-01-14)">
  <metadata
     id="metadata316">
    <rdf:RDF>
      <cc:Work
         rdf:about="">
        <dc:format>image/svg+xml</dc:format>
        <dc:type
           rdf:resource="http://purl.org/dc/dcmitype/StillImage" />
        <dc:title>social dashboard</dc:title>
      </cc:Work>
    </rdf:RDF>
  </metadata>
  <sodipodi:namedview
     pagecolor="#ffffff"
     bordercolor="#666666"
     borderopacity="1"
     objecttolerance="10"
     gridtolerance="10"
     guidetolerance="10"
     inkscape:pageopacity="0"
     inkscape:pageshadow="2"
     inkscape:window-width="1600"
     inkscape:window-height="837"
     id="namedview314"
     showgrid="false"
     fit-margin-top="0"
     fit-margin-left="0"
     fit-margin-right="0"
     fit-margin-bottom="0"
     inkscape:zoom="0.14318808"
     inkscape:cx="-1110.4276"
     inkscape:cy="402.985"
     inkscape:window-x="-8"
     inkscape:window-y="-8"
     inkscape:window-maximized="1"
     inkscape:current-layer="b1711ec6-bb87-4a18-ab4e-434cd24277cb" />
  <defs
     id="defs9">
    <linearGradient
       id="a89cccf1-5da0-4e25-a4c3-8abfdc3a3dc7"
       x1="699.46002"
       y1="848.78003"
       x2="699.46002"
       y2="548.12"
       gradientUnits="userSpaceOnUse">
      <stop
         offset="0"
         stop-color="gray"
         stop-opacity="0.25"
         id="stop2" />
      <stop
         offset="0.54"
         stop-color="gray"
         stop-opacity="0.12"
         id="stop4" />
      <stop
         offset="1"
         stop-color="gray"
         stop-opacity="0.1"
         id="stop6" />
    </linearGradient>
  </defs>
  <title
     id="title11">social dashboard</title>
  <g
     id="g468"
     transform="matrix(0.54721557,0,0,0.54721557,100,0.00141423)"
     style="stroke-width:1.82743335">
    <path
       id="path13"
       transform="translate(-51.77,-49.02)"
       d="M 693.59,160.42 C 628.87,158.17 567.23,137.28 508.37,114.42 449.51,91.56 391.21,66.23 328,54.12 287.41,46.33 240.94,45.23 208.2,67 c -31.5,21 -41.68,57.15 -47.15,90.72 -4.12,25.27 -6.54,51.85 4.74,75.5 7.84,16.42 21.74,30.22 31.36,46 33.47,54.72 9.81,122.2 -26.45,175.63 -17,25.06 -36.75,49 -49.88,75.66 -13.13,26.66 -19.2,57.25 -7.71,84.46 11.38,27 38.51,47.24 67.9,61.5 59.69,28.94 130,37.23 198.61,41.92 151.83,10.39 304.46,5.89 456.69,1.39 56.34,-1.67 112.92,-3.36 168.34,-12.07 30.78,-4.84 62.55,-12.52 84.89,-31 28.37,-23.53 35.4,-63.38 16.39,-92.88 -31.88,-49.49 -120,-61.79 -142.31,-114.9 -12.26,-29.23 0.33,-61.8 18.16,-88.91 38.24,-58.17 102.33,-109.19 105.7,-175.68 2.32,-45.66 -28.49,-91.39 -76.13,-113 -49.93,-22.65 -119.18,-19.8 -156,17.69 -37.95,38.52 -104.61,53.37 -161.76,51.39 z"
       inkscape:connector-curvature="0"
       style="opacity:0.1;fill:#6c63ff;stroke-width:3.33951259" />
    <g
       id="g29"
       style="opacity:0.9;stroke-width:3.33951259">
      <rect
         id="rect15"
         rx="2.29"
         height="73.019997"
         width="8.8599997"
         y="248.78"
         x="708.33002"
         style="fill:#3a3768;stroke-width:1.82743335" />
      <rect
         id="rect17"
         rx="2.29"
         height="24.040001"
         width="4.9699998"
         y="191.58"
         x="413.89001"
         style="fill:#3a3768;stroke-width:1.82743335" />
      <rect
         id="rect19"
         rx="2.29"
         height="41.84"
         width="5.5999999"
         y="235.59"
         x="413.70999"
         style="fill:#3a3768;stroke-width:1.82743335" />
      <rect
         id="rect21"
         rx="2.29"
         height="42.200001"
         width="5.3299999"
         y="292.07001"
         x="413.79999"
         style="fill:#3a3768;stroke-width:1.82743335" />
      <rect
         id="rect23"
         rx="38.990002"
         height="602.39001"
         width="296.39999"
         y="112.14"
         x="416.70999"
         style="fill:#3a3768;stroke-width:1.82743335" />
      <rect
         id="rect25"
         rx="3.8699999"
         height="8.3999996"
         width="41.389999"
         y="130.12"
         x="536.31"
         style="fill:#e6e8ec;stroke-width:1.82743335" />
      <circle
         id="circle27"
         r="4.77"
         cy="134.33"
         cx="588.72998"
         style="fill:#e6e8ec;stroke-width:1.82743335" />
    </g>
    <ellipse
       id="ellipse31"
       ry="20.379999"
       rx="199.97"
       cy="728.39001"
       cx="238.03999"
       style="opacity:0.1;fill:#6c63ff;stroke-width:3.33951259" />
    <ellipse
       id="ellipse33"
       ry="9.5500002"
       rx="93.68"
       cy="796.41998"
       cx="682.67999"
       style="opacity:0.1;fill:#6c63ff;stroke-width:3.33951259" />
    <ellipse
       id="ellipse35"
       ry="9.5500002"
       rx="93.68"
       cy="748.29999"
       cx="1002.78"
       style="opacity:0.1;fill:#6c63ff;stroke-width:3.33951259" />
    <path
       id="path37"
       transform="translate(-51.77,-49.02)"
       d="m 723,176.84 h -33.9 v 4.09 a 19.38,19.38 0 0 1 -19.38,19.38 H 561.54 a 19.38,19.38 0 0 1 -19.38,-19.38 v -4.09 h -31.84 a 23.53,23.53 0 0 0 -23.53,23.54 v 523.93 a 23.53,23.53 0 0 0 23.53,23.54 H 723 a 23.54,23.54 0 0 0 23.54,-23.54 V 200.38 A 23.54,23.54 0 0 0 723,176.84 Z"
       inkscape:connector-curvature="0"
       style="fill:#6c63ff;stroke-width:3.33951259" />
    <path
       id="path39"
       transform="translate(-51.77,-49.02)"
       d="m 867.49,134.73 c 0,0 -84.2,-5.08 -74.27,53.92 0,0 -2,10.43 7.48,15.16 0,0 0.15,-4.37 8.63,-2.89 a 38.44,38.44 0 0 0 9.15,0.44 19,19 0 0 0 11.19,-4.61 v 0 c 0,0 23.66,-9.78 32.87,-48.46 0,0 6.81,-8.44 6.54,-10.61 l -14.21,6.07 c 0,0 4.85,10.25 1,18.77 0,0 -0.46,-18.4 -3.19,-18 -0.56,0.08 -7.39,3.55 -7.39,3.55 0,0 8.36,17.85 2,30.83 0,0 2.39,-22 -4.66,-29.54 l -10,5.84 c 0,0 9.76,18.44 3.15,33.49 0,0 1.69,-23.08 -5.25,-32.07 l -9.06,7.07 c 0,0 9.17,18.17 3.58,30.65 0,0 -0.74,-26.86 -5.55,-28.89 0,0 -7.93,7 -9.14,9.86 0,0 6.28,13.2 2.39,20.16 0,0 -2.39,-17.9 -4.35,-18 0,0 -7.9,11.86 -8.72,20 0,0 0.34,-12.09 6.8,-21.12 0,0 -7.63,1.31 -12.09,6.26 0,0 1.23,-8.38 14,-9.12 0,0 6.53,-9 8.28,-9.54 0,0 -12.75,-1.07 -20.48,2.36 0,0 6.8,-7.91 22.82,-4.31 l 8.94,-7.31 c 0,0 -16.78,-2.29 -23.9,0.24 0,0 8.2,-7 26.32,-1.9 l 9.74,-5.82 c 0,0 -14.31,-3.09 -22.84,-2 0,0 9,-4.85 25.69,0.41 l 7,-3.13 c 0,0 -10.49,-2.06 -13.56,-2.39 -3.07,-0.33 -3.23,-1.17 -3.23,-1.17 a 36.35,36.35 0 0 1 19.83,2.26 c 0,0 14.74,-5.53 14.49,-6.46 z"
       inkscape:connector-curvature="0"
       style="fill:#6c63ff;stroke-width:3.33951259" />
    <path
       id="path41"
       transform="translate(-51.77,-49.02)"
       d="m 781.13,108.49 c 0,0 -38,-2.29 -33.56,24.37 0,0 -0.89,4.71 3.38,6.85 0,0 0.07,-2 3.9,-1.31 a 17.51,17.51 0 0 0 4.13,0.2 8.62,8.62 0 0 0 5.06,-2.08 v 0 c 0,0 10.69,-4.42 14.85,-21.9 0,0 3.08,-3.81 3,-4.79 l -6.42,2.74 c 0,0 2.19,4.63 0.46,8.48 0,0 -0.2,-8.31 -1.44,-8.12 -0.25,0 -3.33,1.61 -3.33,1.61 0,0 3.77,8.06 0.92,13.93 0,0 1.08,-9.94 -2.1,-13.35 l -4.52,2.64 c 0,0 4.41,8.33 1.42,15.13 0,0 0.77,-10.43 -2.37,-14.49 l -4.1,3.2 c 0,0 4.15,8.21 1.62,13.85 0,0 -0.33,-12.14 -2.5,-13.06 0,0 -3.59,3.16 -4.13,4.46 0,0 2.83,6 1.07,9.11 0,0 -1.08,-8.09 -2,-8.13 0,0 -3.57,5.36 -3.94,9 a 19.46,19.46 0 0 1 3.07,-9.54 10.71,10.71 0 0 0 -5.46,2.83 c 0,0 0.55,-3.79 6.34,-4.12 0,0 2.95,-4.07 3.74,-4.32 0,0 -5.76,-0.48 -9.25,1.07 0,0 3.07,-3.57 10.31,-2 l 4,-3.3 c 0,0 -7.58,-1 -10.8,0.11 0,0 3.71,-3.16 11.89,-0.86 l 4.4,-2.63 c 0,0 -6.46,-1.39 -10.31,-0.89 0,0 4.06,-2.19 11.6,0.18 l 3.15,-1.41 c 0,0 -4.73,-0.93 -6.12,-1.08 -1.39,-0.15 -1.46,-0.53 -1.46,-0.53 a 16.36,16.36 0 0 1 8.89,1 c 0,0 6.72,-2.43 6.61,-2.85 z"
       inkscape:connector-curvature="0"
       style="fill:#6c63ff;stroke-width:3.33951259" />
    <ellipse
       id="ellipse43"
       ry="6.8000002"
       rx="40.209999"
       cy="678.57001"
       cx="40.209999"
       style="fill:#6c63ff;stroke-width:3.33951259" />
    <path
       id="path45"
       transform="translate(-51.77,-49.02)"
       d="m 108.6,716.46 a 11.63,11.63 0 0 0 3.84,-5.78 c 0.49,-2.3 -0.49,-5 -2.68,-5.89 -2.46,-0.95 -5.09,0.76 -7.08,2.48 -1.99,1.72 -4.28,3.69 -6.89,3.32 a 10.47,10.47 0 0 0 3.21,-9.81 4,4 0 0 0 -0.9,-2 c -1.36,-1.46 -3.84,-0.83 -5.48,0.32 -5.2,3.66 -6.65,10.72 -6.67,17.08 -0.53,-2.3 -0.09,-4.69 -0.1,-7 -0.01,-2.31 -0.66,-5 -2.64,-6.22 a 8,8 0 0 0 -4,-0.95 c -2.34,-0.08 -4.94,0.15 -6.54,1.86 -2,2.12 -1.47,5.69 0.26,8 1.73,2.31 4.35,3.8 6.76,5.42 a 14.92,14.92 0 0 1 4.84,4.61 4.41,4.41 0 0 1 0.36,0.82 h 14.65 a 40.77,40.77 0 0 0 9.06,-6.26 z"
       inkscape:connector-curvature="0"
       style="fill:#6c63ff;stroke-width:3.33951259" />
    <path
       id="path47"
       transform="translate(-51.77,-49.02)"
       d="m 882.34,632.54 c 0,0 8.65,11.32 -4,28.4 -12.65,17.08 -23.07,31.5 -18.85,42.15 0,0 19.08,-31.72 34.61,-32.17 15.53,-0.45 5.32,-19.3 -11.76,-38.38 z"
       inkscape:connector-curvature="0"
       style="fill:#6c63ff;stroke-width:3.33951259" />
    <path
       id="path49"
       transform="translate(-51.77,-49.02)"
       d="m 882.34,632.54 a 14.25,14.25 0 0 1 1.77,3.55 c 15.15,17.8 23.22,34.42 8.65,34.83 -13.56,0.39 -29.84,24.65 -33.73,30.77 a 11.46,11.46 0 0 0 0.46,1.4 c 0,0 19.08,-31.72 34.61,-32.17 15.53,-0.45 5.32,-19.3 -11.76,-38.38 z"
       inkscape:connector-curvature="0"
       style="opacity:0.1;stroke-width:3.33951259" />
    <path
       id="path51"
       transform="translate(-51.77,-49.02)"
       d="m 898.42,647 c 0,4 -0.45,7.21 -1,7.21 -0.55,0 -1,-3.23 -1,-7.21 0,-3.98 0.56,-2.1 1.11,-2.1 0.55,0 0.89,-1.9 0.89,2.1 z"
       inkscape:connector-curvature="0"
       style="fill:#ffd037;stroke-width:3.33951259" />
    <path
       id="path53"
       transform="translate(-51.77,-49.02)"
       d="m 903.94,651.72 c -3.5,1.9 -6.54,3.06 -6.81,2.57 -0.27,-0.49 2.36,-2.42 5.86,-4.33 3.5,-1.91 2.11,-0.51 2.38,0 0.27,0.51 2.07,-0.15 -1.43,1.76 z"
       inkscape:connector-curvature="0"
       style="fill:#ffd037;stroke-width:3.33951259" />
    <path
       id="path55"
       transform="translate(-51.77,-49.02)"
       d="m 836.64,632.54 c 0,0 -8.65,11.32 4,28.4 12.65,17.08 23.07,31.5 18.86,42.15 0,0 -19.08,-31.72 -34.61,-32.17 -15.53,-0.45 -5.33,-19.3 11.75,-38.38 z"
       inkscape:connector-curvature="0"
       style="fill:#6c63ff;stroke-width:3.33951259" />
    <path
       id="path57"
       transform="translate(-51.77,-49.02)"
       d="m 836.64,632.54 a 13.85,13.85 0 0 0 -1.77,3.55 c -15.15,17.8 -23.22,34.42 -8.66,34.83 13.57,0.39 29.84,24.65 33.74,30.77 a 13.48,13.48 0 0 1 -0.46,1.4 c 0,0 -19.08,-31.72 -34.61,-32.17 -15.53,-0.45 -5.32,-19.3 11.76,-38.38 z"
       inkscape:connector-curvature="0"
       style="opacity:0.1;stroke-width:3.33951259" />
    <path
       id="path59"
       transform="translate(-51.77,-49.02)"
       d="m 820.55,647 c 0,4 0.45,7.21 1,7.21 0.55,0 1,-3.23 1,-7.21 0,-3.98 -0.56,-2.1 -1.11,-2.1 -0.55,0 -0.89,-1.9 -0.89,2.1 z"
       inkscape:connector-curvature="0"
       style="fill:#ffd037;stroke-width:3.33951259" />
    <path
       id="path61"
       transform="translate(-51.77,-49.02)"
       d="m 815,651.72 c 3.49,1.9 6.54,3.06 6.8,2.57 0.26,-0.49 -2.35,-2.42 -5.85,-4.33 -3.5,-1.91 -2.12,-0.51 -2.38,0 -0.26,0.51 -2.03,-0.15 1.43,1.76 z"
       inkscape:connector-curvature="0"
       style="fill:#ffd037;stroke-width:3.33951259" />
    <path
       id="path63"
       transform="translate(-51.77,-49.02)"
       d="m 823.31,701.61 c 0,0 24.19,-0.75 31.48,-5.94 7.29,-5.19 37.21,-11.39 39,-3.06 1.79,8.33 36.35,41.41 9,41.63 -27.35,0.22 -63.46,-4.26 -70.73,-8.69 -7.27,-4.43 -8.75,-23.94 -8.75,-23.94 z"
       inkscape:connector-curvature="0"
       style="fill:#a8a8a8;stroke-width:3.33951259" />
    <path
       id="path65"
       transform="translate(-51.77,-49.02)"
       d="m 903.34,731.34 c -27.31,0.22 -63.46,-4.26 -70.73,-8.69 -5.55,-3.37 -7.75,-15.48 -8.49,-21.07 h -0.81 c 0,0 1.53,19.51 8.81,23.94 7.28,4.43 43.42,8.91 70.73,8.69 7.88,-0.07 10.61,-2.87 10.46,-7 -1.1,2.51 -4.1,4.08 -9.97,4.13 z"
       inkscape:connector-curvature="0"
       style="opacity:0.2;stroke-width:3.33951259" />
    <rect
       id="rect67"
       height="78.029999"
       width="78.029999"
       y="487.87"
       x="584.53003"
       style="opacity:0.3;fill:#3a3768;stroke-width:3.33951259" />
    <rect
       id="rect69"
       height="78.029999"
       width="78.029999"
       y="384.87"
       x="469.53"
       style="opacity:0.3;fill:#3a3768;stroke-width:3.33951259" />
    <rect
       id="rect71"
       height="78.029999"
       width="78.029999"
       y="589.10999"
       x="477.03"
       style="opacity:0.3;fill:#3a3768;stroke-width:3.33951259" />
    <rect
       id="rect73"
       height="78.029999"
       width="78.029999"
       y="193.28"
       x="459.62"
       style="fill:#ffffff;stroke-width:3.33951259" />
    <rect
       id="rect75"
       transform="rotate(-42.14,606.53556,606.51045)"
       height="78.029999"
       width="78.029999"
       y="524.77002"
       x="656.91998"
       style="fill:#ffffff;stroke-width:3.33951259" />
    <rect
       id="rect77"
       height="78.029999"
       width="78.029999"
       y="287.31"
       x="583.23999"
       style="fill:#ffffff;stroke-width:3.33951259" />
    <rect
       id="rect79"
       height="78.029999"
       width="78.029999"
       y="374.31"
       x="484.60001"
       style="fill:#ffffff;stroke-width:3.33951259" />
    <path
       id="path81"
       transform="translate(-51.77,-49.02)"
       d="m 1023.61,781.61 c 4.54,0.59 9.25,1 13.6,-0.46 0.67,-0.21 1.44,-0.67 1.35,-1.36 a 1.6,1.6 0 0 0 -0.31,-0.66 42.41,42.41 0 0 1 -4.13,-7.83 0.64,0.64 0 0 0 -0.25,-0.35 0.61,0.61 0 0 0 -0.44,0 c -2,0.52 -3.74,1.82 -5.74,2.37 a 8.2,8.2 0 0 1 -3.12,0.24 c -0.9,-0.1 -2.14,-0.85 -2.95,-0.76 0.5,2.97 1.64,5.78 1.99,8.81 z"
       inkscape:connector-curvature="0"
       style="fill:#6c63ff;stroke-width:3.33951259" />
    <path
       id="path83"
       transform="translate(-51.77,-49.02)"
       d="m 1109.54,774 c 3,-2 6.1,-4.22 7.87,-7.39 a 1.21,1.21 0 0 0 0.21,-0.63 1.3,1.3 0 0 0 -0.25,-0.62 25.62,25.62 0 0 0 -6.39,-6.9 18.89,18.89 0 0 0 -3.57,3.29 c -0.75,0.79 -2.83,2.09 -2.85,3.27 0,0.71 0.79,1.48 1.16,2 0.5,0.74 1,1.5 1.43,2.26 0.23,0.46 2.61,4.6 2.39,4.72 z"
       inkscape:connector-curvature="0"
       style="fill:#6c63ff;stroke-width:3.33951259" />
    <path
       id="path85"
       transform="translate(-51.77,-49.02)"
       d="m 1041.41,790.79 a 3,3 0 0 1 -0.54,2 2.67,2.67 0 0 1 -1.15,0.67 c -6.36,2.27 -13.68,-0.57 -20,1.68 -1.31,0.46 -2.54,1.12 -3.85,1.56 a 20.85,20.85 0 0 1 -4.77,0.85 c -2.25,0.22 -4.5,0.35 -6.75,0.41 a 16.33,16.33 0 0 1 -5.08,-0.44 6.15,6.15 0 0 1 -3.9,-3.09 3,3 0 0 1 -0.19,-2.2 2.49,2.49 0 0 1 0.41,-0.71 6.09,6.09 0 0 1 1.5,-1.21 l 2.34,-1.51 a 15.63,15.63 0 0 1 3.54,-1.88 c 0.92,-0.3 1.91,-0.43 2.84,-0.7 3.29,-1 5.79,-3.57 8.12,-6.07 l 3.18,-3.39 a 3.11,3.11 0 0 1 1.1,-0.88 3,3 0 0 1 1.36,-0.14 18.37,18.37 0 0 1 8.67,2.92 12.51,12.51 0 0 0 2.14,1.26 7.64,7.64 0 0 0 6,-0.75 c 0.82,-0.43 0.64,-0.7 1,-1.47 0.36,-0.77 1.18,-1.27 1.9,-0.56 a 2.09,2.09 0 0 1 0.45,0.86 c 0.7,2.27 0.43,4.7 0.43,7.07 a 3.14,3.14 0 0 0 0.14,1.1 6.69,6.69 0 0 0 0.62,1 1.58,1.58 0 0 1 0.13,0.26 6.94,6.94 0 0 1 0.36,3.36 z"
       inkscape:connector-curvature="0"
       style="fill:#514e7f;stroke-width:3.33951259" />
    <path
       id="path87"
       transform="translate(-51.77,-49.02)"
       d="m 1041.41,790.79 a 3,3 0 0 1 -0.54,2 2.67,2.67 0 0 1 -1.15,0.67 c -6.36,2.27 -13.68,-0.57 -20,1.68 -1.31,0.46 -2.54,1.12 -3.85,1.56 a 20.85,20.85 0 0 1 -4.77,0.85 c -2.25,0.22 -4.5,0.35 -6.75,0.41 a 16.33,16.33 0 0 1 -5.08,-0.44 6.15,6.15 0 0 1 -3.9,-3.09 3,3 0 0 1 -0.19,-2.2 2.49,2.49 0 0 1 0.41,-0.71 c 0.38,0.78 0.65,1.8 0.88,2.17 a 4.44,4.44 0 0 0 3,2.15 7.61,7.61 0 0 0 2.71,-0.35 c 5.76,-1.43 11.88,-1.45 17.4,-3.61 a 41.57,41.57 0 0 1 5.7,-2.19 45.28,45.28 0 0 1 6.16,-0.5 c 3.25,-0.26 6.39,-1.24 9.6,-1.75 a 6.94,6.94 0 0 1 0.37,3.35 z"
       inkscape:connector-curvature="0"
       style="fill:#464353;stroke-width:3.33951259" />
    <path
       id="path89"
       transform="translate(-51.77,-49.02)"
       d="m 1124.06,773.61 c -0.3,2.41 -1.83,4.49 -3.51,6.25 a 40.07,40.07 0 0 0 -4.9,5.37 c -1.66,2.52 -2.39,5.63 -4.53,7.76 a 12.27,12.27 0 0 1 -2.72,2 18.8,18.8 0 0 1 -3.53,1.62 c -3.19,1 -6.63,0.79 -10,0.55 a 8.89,8.89 0 0 1 -3.16,-0.62 9.18,9.18 0 0 1 -1.34,-0.81 6.36,6.36 0 0 1 -2,-2.07 2.08,2.08 0 0 1 -0.19,-1.49 3.4,3.4 0 0 1 1,-1.46 22.6,22.6 0 0 1 2.41,-2.17 14.31,14.31 0 0 0 3.14,-2.76 9,9 0 0 0 1.21,-2.76 24.73,24.73 0 0 0 0.88,-5.25 16.54,16.54 0 0 1 0.37,-3.51 c 0.51,-1.8 1.85,-3.43 1.69,-5.3 a 1.36,1.36 0 0 1 0.07,-0.8 1.25,1.25 0 0 1 0.63,-0.39 11.4,11.4 0 0 1 3.28,-0.75 3.78,3.78 0 0 1 3,1.19 c 0.47,0.56 0.77,1.34 1.46,1.59 a 2.42,2.42 0 0 0 1,0 c 1.68,-0.17 3.47,-0.38 4.76,-1.47 a 6,6 0 0 0 2,-4.37 c 0,-0.62 -0.28,-1.27 0.67,-1.4 0.73,-0.1 1.3,0.66 1.67,1.16 a 16.32,16.32 0 0 1 3.21,5.85 1.62,1.62 0 0 1 0.61,-0.12 2.61,2.61 0 0 1 2.18,1.12 4.32,4.32 0 0 1 0.64,3.04 z"
       inkscape:connector-curvature="0"
       style="fill:#514e7f;stroke-width:3.33951259" />
    <path
       id="path91"
       transform="translate(-51.77,-49.02)"
       d="m 1124.06,773.61 c -0.3,2.41 -1.83,4.49 -3.51,6.25 a 40.07,40.07 0 0 0 -4.9,5.37 c -1.66,2.52 -2.39,5.63 -4.53,7.76 a 12.27,12.27 0 0 1 -2.72,2 18.8,18.8 0 0 1 -3.53,1.62 c -3.19,1 -6.63,0.79 -10,0.55 a 8.89,8.89 0 0 1 -3.16,-0.62 9.18,9.18 0 0 1 -1.34,-0.81 6.36,6.36 0 0 1 -2,-2.07 4.87,4.87 0 0 1 2.06,-0.49 c 1.49,0.08 2.57,1.48 4,1.91 2,0.61 4,-0.82 6.09,-1.31 1.34,-0.31 2.76,-0.22 4.07,-0.65 a 10.05,10.05 0 0 0 3,-1.82 15.23,15.23 0 0 0 3.21,-3.1 19.76,19.76 0 0 0 1.89,-3.76 53.71,53.71 0 0 1 3.81,-7.29 4.84,4.84 0 0 1 0.78,-1 c 0.31,-0.29 0.7,-0.5 1,-0.76 1.37,-1 1.94,-2.77 2.42,-4.41 a 7.38,7.38 0 0 1 0.54,-1.47 2.61,2.61 0 0 1 2.18,1.12 4.32,4.32 0 0 1 0.64,2.98 z"
       inkscape:connector-curvature="0"
       style="fill:#464353;stroke-width:3.33951259" />
    <path
       id="path93"
       transform="translate(-51.77,-49.02)"
       d="m 980.4,560 a 14.52,14.52 0 0 1 4.08,4.77 c 1,1.88 6.49,16.48 6.17,18.57 1.8,-1.82 8.94,-2.12 10.73,-3.93 0.76,-0.76 4.87,-4.56 5.48,-5.44 0.61,-0.88 5.19,-2.77 5.69,-3.67 1.87,-3.35 -13.26,-16 -11.33,-19.36 a 0.82,0.82 0 0 0 0.16,-0.52 0.8,0.8 0 0 0 -0.25,-0.4 24.08,24.08 0 0 0 -4.38,-3 7,7 0 0 1 -3.34,-4 14.37,14.37 0 0 0 -3.87,2.62 q -4.15,3.55 -8.18,7.28 c -1.06,1 -3.08,2.27 -3.57,3.66 -0.49,1.39 1.6,2.6 2.61,3.42 z"
       inkscape:connector-curvature="0"
       style="fill:#a1616a;stroke-width:3.33951259" />
    <path
       id="path95"
       transform="translate(-51.77,-49.02)"
       d="m 1004.89,554.61 a 43.84,43.84 0 0 0 -6.48,5.3 c -1.88,1.85 -3.66,4 -4.13,6.61 -0.19,1 -0.16,2.06 -0.32,3.09 -0.67,4.48 -4.56,7.77 -6.27,12 a 20.52,20.52 0 0 0 -1.1,4 47.15,47.15 0 0 0 -0.78,7.86 c 0,2.56 2.46,4.32 3.38,6.71 a 40.7,40.7 0 0 1 1.63,7.27 88.58,88.58 0 0 0 4.09,13.5 c 3.38,9.33 14.33,35.13 17.71,44.47 10.35,-2.6 37.91,-8.57 47.07,-14 3.06,-1.82 -21.2,-22.38 -17.93,-23.8 a 1.65,1.65 0 0 0 0.91,-0.69 1.58,1.58 0 0 0 0,-1 c -3.26,-14.29 -13.49,-26 -18.12,-40 -1.61,-4.83 -4.5,-8.95 -6.7,-13.55 -2,-4.16 -3.05,-8.75 -5.42,-12.7 a 8.49,8.49 0 0 0 -1.73,-2.17 10.61,10.61 0 0 0 -1.92,-1.15 c -1.31,-0.7 -2.57,-1.09 -3.89,-1.75 z"
       inkscape:connector-curvature="0"
       style="fill:#514e7f;stroke-width:3.33951259" />
    <circle
       id="circle97"
       r="16.200001"
       cy="493.14999"
       cx="929.17999"
       style="fill:#a1616a;stroke-width:3.33951259" />
    <path
       id="path99"
       transform="translate(-51.77,-49.02)"
       d="m 997.43,549.78 a 5.43,5.43 0 0 1 6.09,-0.87 3,3 0 0 1 1.81,2.92 l 8,0.12 a 16.74,16.74 0 0 1 3.81,0.35 5.54,5.54 0 0 1 3.18,2 c 0.1,0.13 0.21,0.28 0.37,0.31 a 0.64,0.64 0 0 0 0.37,-0.13 7.05,7.05 0 0 1 4,-0.72 c 4.34,0.28 8.36,2.46 11.76,5.17 a 3.81,3.81 0 0 1 1.4,1.71 c 0.28,0.91 0,2.08 0.66,2.7 0,7.55 2.59,14.58 4.32,21.93 0.3,1.31 1.56,2.46 2.43,3.49 a 14,14 0 0 1 2.6,3.88 c 1.46,3.81 -0.56,8.28 0.87,12.11 a 19.5,19.5 0 0 0 2.76,4.35 11.21,11.21 0 0 1 2.35,5.62 c 0.06,0.92 -0.06,1.84 0,2.77 a 16.88,16.88 0 0 0 0.66,3.64 c 0.58,2.21 1.2,4.42 1.84,6.62 1,3.56 2.4,7.41 5.59,9.31 -7.71,1.31 -15.83,2.58 -23.18,-0.09 a 12,12 0 0 1 -2.89,-1.45 c -2.65,-1.89 -3.93,-5.13 -5.07,-8.18 -1.28,-3.43 -2.58,-6.91 -2.84,-10.56 a 12.08,12.08 0 0 0 -0.48,-3.45 c -0.75,-2 -2.73,-3.19 -4.55,-4.29 a 21.89,21.89 0 0 1 -5.47,-4.26 8.5,8.5 0 0 1 -2.22,-6.4 c 0.14,-1.13 0.58,-2.22 0.63,-3.36 a 2.69,2.69 0 0 0 -1.56,-2.77 c -5.61,-1.7 -8.29,-8.34 -9.54,-14.07 a 44.89,44.89 0 0 1 -0.72,-9 l -0.07,-5.79 a 7.68,7.68 0 0 1 -2.52,-5.54 6.22,6.22 0 0 0 0,-1.83 5.13,5.13 0 0 0 -1.28,-2 16.9,16.9 0 0 1 -3.11,-4.24 z"
       inkscape:connector-curvature="0"
       style="fill:#464353;stroke-width:3.33951259" />
    <path
       id="path101"
       transform="translate(-51.77,-49.02)"
       d="m 980.17,568.31 c -0.18,1.81 0.23,3.66 -0.18,5.44 -0.16,0.68 -0.43,1.33 -0.63,2 a 11.8,11.8 0 0 0 0.75,7.62 42.35,42.35 0 0 0 3.89,6.75 10.28,10.28 0 0 1 1.25,2.33 12.07,12.07 0 0 1 0.48,2.67 81.32,81.32 0 0 0 1.91,10.74 c 0.76,3.08 1.75,6.19 3.78,8.63 a 2.62,2.62 0 0 0 1.56,1.06 2.82,2.82 0 0 0 1.33,-0.28 l 4.14,-1.57 a 2.89,2.89 0 0 0 1,-0.52 2.51,2.51 0 0 0 0.58,-1.62 c 0.29,-3.34 -0.71,-6.65 -1.82,-9.81 -3.36,-9.54 -7.82,-18.73 -10,-28.6 -0.61,-2.76 -0.93,-7 -2.94,-9.15 -0.83,-0.9 -0.55,-0.52 -1.54,0 a 12.54,12.54 0 0 0 -1.45,0.77 4.75,4.75 0 0 0 -2.11,3.54 z"
       inkscape:connector-curvature="0"
       style="fill:#464353;stroke-width:3.33951259" />
    <path
       id="path103"
       transform="translate(-51.77,-49.02)"
       d="M 1059.24,627.68"
       inkscape:connector-curvature="0"
       style="fill:#464353;stroke-width:3.33951259" />
    <path
       id="path105"
       transform="translate(-51.77,-49.02)"
       d="m 992.65,586.41 q 1.65,8.73 3.37,17.47 l 16.08,-4.22 c 0.13,-1.68 -0.77,-3.24 -1.39,-4.81 -1.47,-3.68 -1.5,-7.77 -2.69,-11.55 -0.9,-2.88 -2.46,-5.53 -3.3,-8.43 -0.49,-1.68 -0.73,-3.44 -1.21,-5.13 a 39.19,39.19 0 0 0 -1.89,-4.89 31.16,31.16 0 0 0 -3.51,-6.51 c -2.06,0.77 -4.25,1.66 -5.42,3.51 a 7.46,7.46 0 0 0 -1,3.46 c -0.28,3.62 1,7.25 0.59,10.83 a 32,32 0 0 0 0.37,10.27 z"
       inkscape:connector-curvature="0"
       style="fill:#6c63ff;stroke-width:3.33951259" />
    <path
       id="path107"
       transform="translate(-51.77,-49.02)"
       d="m 1012.37,664 c 0.9,3.44 -0.41,7 -1.47,10.42 a 80.92,80.92 0 0 0 -3.28,15.69 13,13 0 0 1 -0.81,4 37.42,37.42 0 0 1 -1.95,3.2 c -1.62,2.86 -1.58,6.36 -1.23,9.63 0.23,2.16 0.58,4.31 1,6.44 0.53,2.59 1.18,5.31 0.42,7.84 1.27,-0.28 2.14,1.36 2.09,2.67 -0.05,1.31 -0.51,2.71 0.11,3.86 1.58,0.57 1.6,2.74 1.55,4.41 a 37.19,37.19 0 0 0 1.09,8.64 q 3.58,17.19 7.6,34.29 c 5.79,1.8 12.55,3.67 18.07,1.18 a 3.55,3.55 0 0 0 2.29,-2.3 4.14,4.14 0 0 0 -0.22,-1.77 l -2.62,-9.52 a 17.53,17.53 0 0 1 -0.94,-7 c 0.26,-1.77 1,-3.67 0.16,-5.22 -0.3,-0.53 -0.76,-1 -1.1,-1.46 -1.38,-2 -0.66,-4.69 -0.54,-7.13 a 5.58,5.58 0 0 0 -0.12,-1.63 8.56,8.56 0 0 0 -0.77,-1.79 27.33,27.33 0 0 1 -3,-13.6 3.34,3.34 0 0 0 -0.24,-1.78 4.08,4.08 0 0 1 -0.44,-0.72 1.93,1.93 0 0 1 0.14,-1.31 11.38,11.38 0 0 1 -2.11,-2 3,3 0 0 0 0.5,-4.62 1.54,1.54 0 0 0 0.74,-2.65 c -0.34,-0.24 -0.78,-0.34 -1,-0.68 -0.37,-0.5 -0.07,-1.21 0.23,-1.75 l 1.6,-2.89 c 1.19,-2.14 1.46,-4.79 2.74,-6.88 a 51.62,51.62 0 0 0 4.22,-9.63 l 4.56,-12.7 3.1,2.69 a 9.71,9.71 0 0 1 2.55,2.91 12.28,12.28 0 0 1 0.82,3.48 c 1.14,6.9 5.49,12.88 7.1,19.69 a 13.27,13.27 0 0 0 1.46,4.4 9.52,9.52 0 0 1 0.84,1.26 6.64,6.64 0 0 1 0.35,2.09 9.74,9.74 0 0 0 4.11,7 c 1.52,1 3.45,1.77 4.25,3.43 a 6.77,6.77 0 0 0 0.7,1.46 c 0.74,0.89 2.34,1 2.66,2.11 0.17,0.63 -0.16,1.37 0.2,1.92 a 1.75,1.75 0 0 0 0.75,0.56 l 4.47,2.24 c 5,2.49 7.52,8.2 11.21,12.39 a 25.73,25.73 0 0 1 3.35,4.44 c 1.59,2.84 2.33,6.41 5,8.24 a 7.77,7.77 0 0 1 1.94,1.44 c 0.85,1.11 0.54,2.67 0.61,4.07 0.07,1.4 1.15,3.06 2.48,2.64 a 9.65,9.65 0 0 0 0,5.17 26.06,26.06 0 0 0 15.8,-6.4 c 1.3,-1.14 2.56,-2.59 2.57,-4.31 a 1.67,1.67 0 0 0 -0.19,-0.86 2.34,2.34 0 0 0 -1,-0.76 c -4.17,-2.26 -5.43,-7.5 -7.52,-11.76 -1.85,-3.75 -4.57,-7 -6.88,-10.48 -5,-7.5 -8.34,-16.57 -15.85,-21.53 -1.65,-1.09 -3.57,-2.06 -4.39,-3.86 a 30.79,30.79 0 0 1 -0.88,-3.2 2.69,2.69 0 0 0 -2.35,-2 14.27,14.27 0 0 0 0.54,-5 6.22,6.22 0 0 0 -0.25,-2.15 10.16,10.16 0 0 0 -1.1,-2.12 20.55,20.55 0 0 1 -2.83,-11 c 0.06,-2 0.41,-4 -0.19,-5.91 -0.3,-1 -0.82,-1.83 -1.19,-2.76 a 17.21,17.21 0 0 1 -0.86,-5.15 l -0.41,-6.59 a 31.55,31.55 0 0 0 -0.85,-6.51 c -1.39,-5.11 -2.72,-26.52 -7.43,-28.93 -4.71,-2.41 -12.75,14.06 -18,14.39 a 24,24 0 0 0 -6.88,1.32 c -3.51,1.32 -6.46,3.78 -9.33,6.19 l -9.72,8.16 a 35.42,35.42 0 0 1 -6.03,4.35 z"
       inkscape:connector-curvature="0"
       style="fill:#464353;stroke-width:3.33951259" />
    <path
       id="path109"
       transform="translate(-51.77,-49.02)"
       d="m 965.74,524.18 a 12.22,12.22 0 0 1 9.43,-4.6 22,22 0 0 1 10.42,2.62 13.43,13.43 0 0 0 3,1.25 c 1.72,0.35 3.62,-0.12 5.17,0.7 2.06,1.09 2.45,3.87 2.27,6.19 -0.18,2.32 -0.61,4.86 0.62,6.85 a 19,19 0 0 1 1.19,1.78 5.94,5.94 0 0 1 -0.11,3.81 30.6,30.6 0 0 1 -2,-2.51 c -0.72,-0.79 -1.95,-1.33 -2.83,-0.74 -0.88,0.59 -0.88,1.68 -0.92,2.65 -0.04,0.97 -0.3,2.14 -1.22,2.46 a 2,2 0 0 1 -2,-0.8 c -1.57,-1.92 -0.94,-5 -2.49,-6.92 -0.89,-1.1 -2.36,-1.63 -3.18,-2.78 -0.64,-0.9 -0.8,-2.07 -1.36,-3 -0.56,-0.93 -1.87,-1.69 -2.75,-1 a 3.74,3.74 0 0 0 -0.73,1 4.21,4.21 0 0 1 -5,1.5 8.77,8.77 0 0 0 -2.17,-0.93 2.67,2.67 0 0 0 -2.47,1.34 5.32,5.32 0 0 0 -0.65,2.86 c 0,1.35 0.24,2.83 -0.54,3.93 a 4.06,4.06 0 0 1 -1.16,1 c -1.15,0.73 -2.72,1.22 -3.8,0.39 a 2.86,2.86 0 0 1 -0.85,-2.66 21.88,21.88 0 0 1 0.81,-2.81 c 0.6,-2.12 -0.18,-4.51 0.48,-6.51 a 20.49,20.49 0 0 1 2.84,-5.07 z"
       inkscape:connector-curvature="0"
       style="fill:#464353;stroke-width:3.33951259" />
    <path
       id="path111"
       transform="translate(-51.77,-49.02)"
       d="m 974.42,572.51 a 2.5,2.5 0 0 0 0.15,1.49 2.42,2.42 0 0 0 0.81,0.78 16.78,16.78 0 0 0 7.64,2.47 2.3,2.3 0 0 1 1,0.27 1.89,1.89 0 0 1 0.45,2.13 5.67,5.67 0 0 0 -0.48,2.26 c 0.2,1.43 1.89,2.08 3.33,2.26 a 7.72,7.72 0 0 0 5.79,-1.12 8.93,8.93 0 0 0 2.39,-3.59 c 3.93,-9 5.31,-19 9.29,-28 a 5.69,5.69 0 0 0 0.6,-1.87 1.86,1.86 0 0 0 -0.74,-1.73 c -0.74,-0.46 -1.89,-0.2 -2.39,-0.91 -0.25,-0.37 -0.22,-0.86 -0.44,-1.24 -0.46,-0.82 -1.66,-0.72 -2.49,-1.16 -0.64,-0.35 -1.09,-1 -1.8,-1.19 a 2.3,2.3 0 0 0 -1.88,0.81 c -2.33,2.18 -3.56,5.27 -4.86,8.19 a 97.27,97.27 0 0 1 -7,12.91 c 0.31,-0.48 -1.48,-4.13 -2.18,-4.27 -1.22,-0.25 -2.8,1.9 -3.46,2.71 a 17.16,17.16 0 0 0 -3.73,8.8 z"
       inkscape:connector-curvature="0"
       style="fill:#6c63ff;stroke-width:3.33951259" />
    <rect
       id="rect113"
       height="78.029999"
       width="78.029999"
       y="536.28998"
       x="930.83002"
       style="fill:#ffffff;stroke-width:3.33951259" />
    <path
       id="path115"
       transform="translate(-51.77,-49.02)"
       d="m 1060,628.29 a 31.53,31.53 0 0 0 -3.7,3.88 7.73,7.73 0 0 0 -1.7,5 2.57,2.57 0 0 0 0.48,1.46 1.25,1.25 0 0 0 1.39,0.43 2,2 0 0 0 0.68,-0.61 32,32 0 0 1 2.3,-2.5 c 0.3,-0.29 0.68,-0.6 1.08,-0.49 a 1.14,1.14 0 0 1 0.47,0.31 3.18,3.18 0 0 1 1,1.51 3.58,3.58 0 0 1 -1.06,2.91 7.54,7.54 0 0 0 -1.79,2.65 1.13,1.13 0 0 0 0,0.85 1.39,1.39 0 0 0 0.53,0.46 7.72,7.72 0 0 0 6.47,0.42 c 1.39,-0.55 2.59,-1.51 4,-2 a 9.61,9.61 0 0 0 1.77,-0.66 3.64,3.64 0 0 0 1.57,-2.34 10,10 0 0 0 0.11,-2.89 33,33 0 0 0 -2.41,-10.9 1.3,1.3 0 0 0 -0.39,-0.58 1.37,1.37 0 0 0 -0.66,-0.19 c -1.75,-0.18 -4.63,-1.08 -6.32,-0.43 a 4.32,4.32 0 0 0 -1.49,1.33 c -0.39,0.35 -2.33,1.92 -2.33,2.38 z"
       inkscape:connector-curvature="0"
       style="fill:#a1616a;stroke-width:3.33951259" />
    <path
       id="path117"
       transform="translate(-51.77,-49.02)"
       d="m 1059.4,626.74 c 0,-1.68 -2.08,-5.71 1.21,-6 0,-1.78 -2.53,-2.9 -2.07,-4.78 0.16,-0.64 0.67,-1.15 0.75,-1.79 0.21,-1.83 -3.09,-2.82 -2.55,-4.58 0.2,-0.67 0.93,-1.08 1.09,-1.76 0.37,-1.58 -2.46,-2.29 -2.51,-3.91 0,-0.55 0.3,-1.07 0.28,-1.61 0,-0.69 -0.6,-1.21 -0.93,-1.8 -0.85,-1.53 -0.44,-3.9 -2,-4.68 1,0.08 1.39,-1.45 0.95,-2.39 -0.44,-0.94 -1.3,-1.75 -1.3,-2.79 a 4.43,4.43 0 0 0 0,-1.15 c -0.29,-1 -1.93,-1.07 -2.2,-2.07 a 10.67,10.67 0 0 1 0,-1.13 c -0.1,-0.78 -0.9,-1.26 -1.65,-1.49 a 6.56,6.56 0 0 1 -2.2,-0.78 c -0.48,-0.37 -1,-1 -1.55,-0.65 -0.19,0.11 -0.29,0.33 -0.44,0.5 -0.61,0.71 -1.78,0.4 -2.56,-0.13 -2.29,-1.55 -3.42,-4.34 -3.92,-7.06 -0.5,-2.72 -0.47,-5.53 -1.07,-8.23 A 18.85,18.85 0 0 0 1036,566 a 12.73,12.73 0 0 1 -1.16,-2.46 c -0.12,-1.57 3.14,-0.5 4.38,-0.34 a 19.44,19.44 0 0 1 3.56,0.67 37.65,37.65 0 0 1 3.63,1.59 c 5,2.19 10.92,2.46 14.9,6.13 1.31,1.21 2.41,2.79 4.1,3.33 a 20.93,20.93 0 0 1 2.3,0.6 c 1.89,0.89 2.18,3.39 3.21,5.2 a 11.11,11.11 0 0 1 0.85,1.5 5.91,5.91 0 0 1 0.27,1.92 l 0.14,4.75 c 0.23,8 0.47,15.93 -0.38,23.84 -0.28,2.6 -0.67,5.29 0.09,7.8 0.2,0.68 0.49,1.33 0.66,2 a 13.62,13.62 0 0 1 0.26,2.47 l 0.11,3.07 a 1,1 0 0 1 -0.15,0.71 1,1 0 0 1 -0.83,0.2 c -4.29,-0.38 -8.61,-2.8 -12.66,-1.34"
       inkscape:connector-curvature="0"
       style="fill:#464353;stroke-width:3.33951259" />
    <path
       id="path119"
       transform="translate(-51.77,-49.02)"
       d="m 979.66,614.21 a 1.32,1.32 0 0 0 -0.48,0.4 3.41,3.41 0 0 0 0,4.06 1.37,1.37 0 0 1 0.24,0.4 1.18,1.18 0 0 1 -0.12,0.68 2.25,2.25 0 0 0 0.31,2.52 c 0.31,0.26 0.73,0.39 0.93,0.73 0.35,0.58 -0.14,1.32 -0.06,2 0.1,0.89 1.15,1.33 2,1.44 a 2.13,2.13 0 0 0 1.95,-0.52 1.62,1.62 0 0 0 0,-1.77 4.74,4.74 0 0 0 -1.32,-1.32 2,2 0 0 0 1.89,-1.83 2.84,2.84 0 0 0 -1.14,-2.49 c -0.18,-0.15 -0.4,-0.3 -0.45,-0.54 -0.05,-0.24 0.19,-0.57 0.41,-0.8 1,-1 1.77,-3.45 -0.11,-4 a 4.63,4.63 0 0 0 -2,0.09 c -0.48,0.15 -0.48,0.44 -0.85,0.64 -0.37,0.2 -0.78,0.1 -1.2,0.31 z"
       inkscape:connector-curvature="0"
       style="fill:#a1616a;stroke-width:3.33951259" />
    <path
       id="path121"
       transform="translate(-51.77,-49.02)"
       d="m 999.31,545.14 a 3.3,3.3 0 0 0 -2.54,1.28 7.31,7.31 0 0 0 -1.06,3.4 29.81,29.81 0 0 1 -4,10.86"
       inkscape:connector-curvature="0"
       style="opacity:0.1;stroke-width:3.33951259" />
    <path
       id="path123"
       transform="translate(-51.77,-49.02)"
       d="m 1002.81,547.88 a 3.88,3.88 0 0 0 -3.32,2 11.1,11.1 0 0 0 -0.84,3.39 18.42,18.42 0 0 1 -3.33,7.11"
       inkscape:connector-curvature="0"
       style="opacity:0.1;stroke-width:3.33951259" />
    <path
       id="path125"
       transform="translate(-51.77,-49.02)"
       d="m 357.66,611.59 c 0.58,6.32 -4.19,12.44 -2.8,18.62 0.3,1.32 0.87,2.57 1.08,3.9 0.57,3.67 -1.62,7.15 -3.71,10.22 l -17.94,26.34 a 17.07,17.07 0 0 1 -2.57,3.17 c -3.44,3 -8.58,2.73 -13.09,3.64 a 22.45,22.45 0 0 0 -8.76,3.88 0.57,0.57 0 0 0 -0.12,0.79 7.55,7.55 0 0 0 6.52,3.06 c 0.47,0.62 0,1.53 -0.65,2 -1,0.67 -2.29,0.84 -2.48,2.48 a 2.68,2.68 0 0 0 0.33,1.64 5.07,5.07 0 0 0 3.14,2.18 c 6.21,1.9 12.93,-1.43 17.57,-6 4.64,-4.57 8,-10.27 12.56,-14.9 2.53,-2.55 5.4,-4.75 8,-7.23 5.2,-4.94 9.23,-11 13.13,-17 a 18.87,18.87 0 0 0 2.84,-5.78 c 0.48,-2.06 0.26,-4.23 0.82,-6.27 0.72,-2.66 2.68,-4.79 4.3,-7 3.19,-4.38 5.31,-9.75 4.89,-15.15 -0.42,-5.4 -3.76,-10.74 -8.86,-12.57 a 7.93,7.93 0 0 0 -5,-0.31 c -2.09,0.65 -3.63,2.38 -5.06,4 l -3.4,3.94 a 9.08,9.08 0 0 0 -2,3 3.15,3.15 0 0 0 0.7,3.35"
       inkscape:connector-curvature="0"
       style="fill:#fbbebe;stroke-width:3.33951259" />
    <path
       id="path127"
       transform="translate(-51.77,-49.02)"
       d="m 357.66,611.59 c 0.58,6.32 -4.19,12.44 -2.8,18.62 0.3,1.32 0.87,2.57 1.08,3.9 0.57,3.67 -1.62,7.15 -3.71,10.22 l -17.94,26.34 a 17.07,17.07 0 0 1 -2.57,3.17 c -3.44,3 -8.58,2.73 -13.09,3.64 a 22.45,22.45 0 0 0 -8.76,3.88 0.57,0.57 0 0 0 -0.12,0.79 7.55,7.55 0 0 0 6.52,3.06 c 0.47,0.62 0,1.53 -0.65,2 -1,0.67 -2.29,0.84 -2.48,2.48 a 2.68,2.68 0 0 0 0.33,1.64 5.07,5.07 0 0 0 3.14,2.18 c 6.21,1.9 12.93,-1.43 17.57,-6 4.64,-4.57 8,-10.27 12.56,-14.9 2.53,-2.55 5.4,-4.75 8,-7.23 5.2,-4.94 9.23,-11 13.13,-17 a 18.87,18.87 0 0 0 2.84,-5.78 c 0.48,-2.06 0.26,-4.23 0.82,-6.27 0.72,-2.66 2.68,-4.79 4.3,-7 3.19,-4.38 5.31,-9.75 4.89,-15.15 -0.42,-5.4 -3.76,-10.74 -8.86,-12.57 a 7.93,7.93 0 0 0 -5,-0.31 c -2.09,0.65 -3.63,2.38 -5.06,4 l -3.4,3.94 a 9.08,9.08 0 0 0 -2,3 3.15,3.15 0 0 0 0.7,3.35"
       inkscape:connector-curvature="0"
       style="opacity:0.05;stroke-width:3.33951259" />
    <path
       id="path129"
       transform="translate(-51.77,-49.02)"
       d="m 221,638.44 c 1,3.16 2,6.32 3.21,9.4 a 79.54,79.54 0 0 0 8.31,15.16 109.23,109.23 0 0 0 6.87,9 c 3.06,3.61 6.48,7.24 7.56,11.85 0.63,2.66 0.42,5.45 0.68,8.17 0.26,2.72 1.15,5.61 3.35,7.24 a 12.45,12.45 0 0 0 5.52,1.82 c 1.38,0.22 3.11,0.29 3.83,-0.91 a 3.41,3.41 0 0 0 0.38,-1.58 l 0.34,-4 c 0.07,-0.86 0.37,-2 1.23,-2 0.86,0 1.3,1.11 2,1.62 a 2.17,2.17 0 0 0 3,-1 5,5 0 0 0 0.08,-3.5 16.62,16.62 0 0 0 -8.53,-10.57 25.64,25.64 0 0 1 -4.16,-2.17 14.15,14.15 0 0 1 -3.27,-4.12 c -7.56,-12.45 -15.16,-25 -20.5,-38.51 a 28.49,28.49 0 0 1 -2.11,-7.59 49,49 0 0 1 0.33,-8 45.79,45.79 0 0 0 -1.32,-14.28 11.23,11.23 0 0 0 -1.37,-3.47 c -2.19,-3.34 -7.36,-3.83 -10.62,-1.53 a 10.94,10.94 0 0 0 -4.22,7.72 c -0.24,2.69 1.32,5.5 2.11,8 q 3.67,11.62 7.3,23.25 z"
       inkscape:connector-curvature="0"
       style="fill:#a1616a;stroke-width:3.33951259" />
    <path
       id="path131"
       transform="translate(-51.77,-49.02)"
       d="m 221,638.44 c 1,3.16 2,6.32 3.21,9.4 a 79.54,79.54 0 0 0 8.31,15.16 109.23,109.23 0 0 0 6.87,9 c 3.06,3.61 6.48,7.24 7.56,11.85 0.63,2.66 0.42,5.45 0.68,8.17 0.26,2.72 1.15,5.61 3.35,7.24 a 12.45,12.45 0 0 0 5.52,1.82 c 1.38,0.22 3.11,0.29 3.83,-0.91 a 3.41,3.41 0 0 0 0.38,-1.58 l 0.34,-4 c 0.07,-0.86 0.37,-2 1.23,-2 0.86,0 1.3,1.11 2,1.62 a 2.17,2.17 0 0 0 3,-1 5,5 0 0 0 0.08,-3.5 16.62,16.62 0 0 0 -8.53,-10.57 25.64,25.64 0 0 1 -4.16,-2.17 14.15,14.15 0 0 1 -3.27,-4.12 c -7.56,-12.45 -15.16,-25 -20.5,-38.51 a 28.49,28.49 0 0 1 -2.11,-7.59 49,49 0 0 1 0.33,-8 45.79,45.79 0 0 0 -1.32,-14.28 11.23,11.23 0 0 0 -1.37,-3.47 c -2.19,-3.34 -7.36,-3.83 -10.62,-1.53 a 10.94,10.94 0 0 0 -4.22,7.72 c -0.24,2.69 1.32,5.5 2.11,8 q 3.67,11.62 7.3,23.25 z"
       inkscape:connector-curvature="0"
       style="opacity:0.05;stroke-width:3.33951259" />
    <path
       id="path133"
       transform="translate(-51.77,-49.02)"
       d="m 372.75,757.18 c -3.92,2.39 -8.8,2.53 -13.36,2 -0.73,-0.09 -1.6,-0.15 -2.07,0.42 -0.68,0.82 0.12,2 0.95,2.7 a 19.88,19.88 0 0 0 9.18,3.77 62.62,62.62 0 0 0 9,0.6 c 8.19,0.14 16.42,0.27 24.53,-0.91 a 3.25,3.25 0 0 0 1.34,-0.39 2.54,2.54 0 0 0 1,-1.54 6.13,6.13 0 0 0 -2.14,-5.84 18,18 0 0 0 -5.72,-3.07 l -7.12,-2.77 c -1.67,-0.65 -4.36,-2.38 -6.17,-2.24 -3.36,0.22 -6.59,5.61 -9.42,7.27 z"
       inkscape:connector-curvature="0"
       style="fill:#3f3d56;stroke-width:3.33951259" />
    <path
       id="path135"
       transform="translate(-51.77,-49.02)"
       d="m 390.64,773.91 a 17.49,17.49 0 0 1 -11.95,4.46 c -1.12,0 -2.68,0.21 -2.68,1.33 a 1.76,1.76 0 0 0 0.32,0.93 11,11 0 0 0 6.18,4.84 22,22 0 0 0 7.46,0.47 l 7.3,-0.38 c 1.38,-0.07 2.77,-0.14 4.14,-0.31 1.37,-0.17 2.86,-0.45 4.29,-0.67 a 57.22,57.22 0 0 1 10.63,-0.5 3.09,3.09 0 0 0 2.62,-0.7 c 0.65,-0.82 0.27,-2 0.06,-3 -0.44,-2.11 0,-4.33 -0.41,-6.46 -0.7,-3.72 -3.9,-6.58 -7.45,-7.93 -3.28,-1.25 -9.1,-2.68 -12.21,-0.6 -3.34,2.21 -5.35,5.85 -8.3,8.52 z"
       inkscape:connector-curvature="0"
       style="fill:#3f3d56;stroke-width:3.33951259" />
    <path
       id="path137"
       transform="translate(-51.77,-49.02)"
       d="m 376.22,679.45 c -3,3.95 -6,8.51 -5.3,13.39 0.4,2.63 1.87,4.95 2.95,7.39 a 52.09,52.09 0 0 1 3,10.38 c 1.11,5.17 2.22,10.35 2.91,15.59 a 97.36,97.36 0 0 1 0.65,17.9 c -0.09,1.44 -0.25,3 -1.25,4 -0.4,0.4 -0.92,0.73 -1.09,1.27 a 2.15,2.15 0 0 0 0.23,1.5 16.61,16.61 0 0 0 8.9,8.19 34.09,34.09 0 0 0 12.1,2.26 3.4,3.4 0 0 0 1.62,-0.21 3.12,3.12 0 0 0 1.25,-1.43 c 3,-5.7 1.33,-12.58 1.38,-19 0,-5.37 1.3,-10.69 1.07,-16.06 -0.19,-4.3 -1.34,-8.5 -1.76,-12.79 -0.69,-7 0.6,-14.1 1.89,-21.05 1,-5.32 2,-10.65 3.25,-15.92 a 30.36,30.36 0 0 1 3.44,-9.24 c 1.4,-2.21 3.3,-4.06 4.9,-6.14 a 27.87,27.87 0 0 0 5.48,-20.37 c -0.1,-0.72 -10.3,2.58 -11.18,3 a 34.66,34.66 0 0 0 -10,6.41 c -2.36,2.24 -4.21,5.24 -6.28,7.76 q -4.38,5.33 -8.62,10.72 -4.84,6.18 -9.54,12.45 z"
       inkscape:connector-curvature="0"
       style="fill:#464353;stroke-width:3.33951259" />
    <path
       id="path139"
       transform="translate(-51.77,-49.02)"
       d="m 376.22,679.45 c -3,3.95 -6,8.51 -5.3,13.39 0.4,2.63 1.87,4.95 2.95,7.39 a 52.09,52.09 0 0 1 3,10.38 c 1.11,5.17 2.22,10.35 2.91,15.59 a 97.36,97.36 0 0 1 0.65,17.9 c -0.09,1.44 -0.25,3 -1.25,4 -0.4,0.4 -0.92,0.73 -1.09,1.27 a 2.15,2.15 0 0 0 0.23,1.5 16.61,16.61 0 0 0 8.9,8.19 34.09,34.09 0 0 0 12.1,2.26 3.4,3.4 0 0 0 1.62,-0.21 3.12,3.12 0 0 0 1.25,-1.43 c 3,-5.7 1.33,-12.58 1.38,-19 0,-5.37 1.3,-10.69 1.07,-16.06 -0.19,-4.3 -1.34,-8.5 -1.76,-12.79 -0.69,-7 0.6,-14.1 1.89,-21.05 1,-5.32 2,-10.65 3.25,-15.92 a 30.36,30.36 0 0 1 3.44,-9.24 c 1.4,-2.21 3.3,-4.06 4.9,-6.14 a 27.87,27.87 0 0 0 5.48,-20.37 c -0.1,-0.72 -10.3,2.58 -11.18,3 a 34.66,34.66 0 0 0 -10,6.41 c -2.36,2.24 -4.21,5.24 -6.28,7.76 q -4.38,5.33 -8.62,10.72 -4.84,6.18 -9.54,12.45 z"
       inkscape:connector-curvature="0"
       style="opacity:0.05;stroke-width:3.33951259" />
    <path
       id="path141"
       transform="translate(-51.77,-49.02)"
       d="m 397.88,649.07 c 0.64,3.06 3.61,5.4 3.69,8.53 0.07,2.5 -1.71,4.6 -3,6.75 a 45.27,45.27 0 0 0 -3.06,6.94 105.82,105.82 0 0 1 -9,17.87 c -1.71,2.72 -3.63,5.67 -3.23,8.86 a 13.08,13.08 0 0 0 1.55,4.23 l 5.14,10.21 a 29.3,29.3 0 0 1 2.62,6.45 c 0.45,1.94 0.49,4 0.75,5.92 0.81,6.26 3.74,12.56 2,18.63 -0.15,0.52 -0.7,1.15 -1.11,0.79 1.7,3.17 3.07,6.37 2.93,10 -0.06,1.89 -0.64,3.85 0.06,5.61 A 6.12,6.12 0 0 1 398,762 c 0,0.51 -0.24,1 -0.29,1.51 -0.14,1.44 1.18,2.65 2.56,3.11 1.38,0.46 2.88,0.43 4.27,0.84 2.68,0.8 4.58,3.1 6.88,4.7 a 14.45,14.45 0 0 0 7.89,2.57 2,2 0 0 0 1.16,-0.23 1.9,1.9 0 0 0 0.65,-1.41 7.84,7.84 0 0 0 -2.83,-6.81 3.15,3.15 0 0 1 -1,-1.1 2.67,2.67 0 0 1 -0.1,-1.23 91.21,91.21 0 0 0 -0.3,-16.85 26,26 0 0 1 -0.26,-5.36 21.91,21.91 0 0 0 0.43,-4.47 22.82,22.82 0 0 0 -1.37,-4.27 c -0.79,-2.55 -0.57,-5.29 -0.65,-8 a 70.12,70.12 0 0 0 -2.26,-13.69 10.39,10.39 0 0 0 -2.13,-4.94 c -1.07,-1.12 -2.8,-2.18 -2.39,-3.67 a 4.24,4.24 0 0 1 1,-1.46 5.86,5.86 0 0 0 1.23,-4.47 2,2 0 0 0 2.3,-1.08 36,36 0 0 0 18.08,-20.56 6.68,6.68 0 0 1 0.81,-1.83 c 0.77,-1.08 2.12,-1.55 3.31,-2.15 3.74,-1.88 6.32,-5.41 8.69,-8.86 a 20.61,20.61 0 0 0 3.36,-6.43 21.18,21.18 0 0 0 0.46,-4.64 l 0.21,-8 a 4.59,4.59 0 0 0 -0.15,-1.57 4,4 0 0 0 -0.87,-1.28 15.53,15.53 0 0 0 -8.54,-4.6 c -2.19,-0.39 -4.43,-0.32 -6.65,-0.5 -4.3,-0.36 -8.55,-1.69 -12.86,-1.38 -6.76,0.5 -12.78,5.19 -16,11.17 -1.18,2.14 -2.36,3.94 -4.76,4.01 z"
       inkscape:connector-curvature="0"
       style="fill:#464353;stroke-width:3.33951259" />
    <path
       id="path143"
       transform="translate(-51.77,-49.02)"
       d="m 173.49,771.54 a 10.89,10.89 0 0 0 4.6,0.55 c 0.11,-1.27 1.82,-1.55 3.09,-1.49 A 3.55,3.55 0 0 1 183,771 c 0.32,0.2 0.56,0.5 0.87,0.71 a 3.74,3.74 0 0 0 1.8,0.46 l 6.62,0.56 c 2.95,0.25 6,0.48 8.78,-0.58 a 2.87,2.87 0 0 0 1.41,-0.94 c 0.75,-1.07 0,-2.61 -1,-3.39 -1,-0.78 -2.37,-1.14 -3.41,-1.94 -2.3,-1.75 -2.61,-5 -3.83,-7.64 a 22.05,22.05 0 0 0 -3.16,-4.59 17.57,17.57 0 0 0 -3.13,-3.2 c -2.65,-1.92 -5.71,-1.88 -8.82,-2.15 -2.2,-0.2 -4.27,-0.33 -5.85,1.62 -1.95,2.42 -1.17,7.3 -1.05,10.19 a 72.94,72.94 0 0 0 1.26,11.43 z"
       inkscape:connector-curvature="0"
       style="fill:#514e7f;stroke-width:3.33951259" />
    <path
       id="path145"
       transform="translate(-51.77,-49.02)"
       d="m 173.49,771.54 a 10.89,10.89 0 0 0 4.6,0.55 c 0.11,-1.27 1.82,-1.55 3.09,-1.49 A 3.55,3.55 0 0 1 183,771 c 0.32,0.2 0.56,0.5 0.87,0.71 a 3.74,3.74 0 0 0 1.8,0.46 l 6.62,0.56 c 2.95,0.25 6,0.48 8.78,-0.58 a 2.87,2.87 0 0 0 1.41,-0.94 c 0.75,-1.07 0,-2.61 -1,-3.39 -1,-0.78 -2.37,-1.14 -3.41,-1.94 -2.3,-1.75 -2.61,-5 -3.83,-7.64 a 22.05,22.05 0 0 0 -3.16,-4.59 17.57,17.57 0 0 0 -3.13,-3.2 c -2.65,-1.92 -5.71,-1.88 -8.82,-2.15 -2.2,-0.2 -4.27,-0.33 -5.85,1.62 -1.95,2.42 -1.17,7.3 -1.05,10.19 a 72.94,72.94 0 0 0 1.26,11.43 z"
       inkscape:connector-curvature="0"
       style="opacity:0.05;stroke-width:3.33951259" />
    <path
       id="path147"
       transform="translate(-51.77,-49.02)"
       d="m 176.17,642.86 c -2,0.65 -2.9,3.17 -2.53,5.27 0.37,2.1 1.63,3.9 2.67,5.75 2.94,5.27 4.22,11.3 6.69,16.8 1.85,4.11 4.35,7.91 6.18,12 1.83,4.09 3,8.77 1.85,13.14 -0.54,2.13 -1.58,4.09 -2.28,6.17 a 35,35 0 0 0 -1.34,7 132.68,132.68 0 0 0 -0.48,24.16 7.34,7.34 0 0 0 0.61,2.86 c 0.41,0.8 1.13,1.64 0.78,2.47 -0.14,0.33 -0.44,0.57 -0.59,0.9 -0.42,0.92 0.43,1.88 1.2,2.53 a 2.07,2.07 0 0 1 -1.3,1 3.07,3.07 0 0 1 1.31,3.42 c -0.69,0.1 -0.73,1.15 -0.29,1.7 0.44,0.55 1.11,0.9 1.42,1.52 a 2.13,2.13 0 0 1 -1.17,2.68 5.48,5.48 0 0 1 -3.19,0.24 34.58,34.58 0 0 1 -5.34,-1.17 4.8,4.8 0 0 1 -1.64,-0.75 4.87,4.87 0 0 1 -1.47,-3.24 58.55,58.55 0 0 1 -0.37,-10 c 0.29,-16.16 0,-32.34 -0.7,-48.49 -0.29,-6.5 -2.24,-12.84 -4.76,-18.84 a 96.67,96.67 0 0 0 -4.64,-9 c -3.62,-6.66 -6.84,-14 -6,-21.55 0.09,-0.81 0.39,-1.79 1.19,-1.92 a 1.73,1.73 0 0 1 0.92,0.15 42.53,42.53 0 0 1 4.85,2.68 18.38,18.38 0 0 0 8.42,2.52 z"
       inkscape:connector-curvature="0"
       style="fill:#464353;stroke-width:3.33951259" />
    <path
       id="path149"
       transform="translate(-51.77,-49.02)"
       d="m 176.17,642.86 c -2,0.65 -2.9,3.17 -2.53,5.27 0.37,2.1 1.63,3.9 2.67,5.75 2.94,5.27 4.22,11.3 6.69,16.8 1.85,4.11 4.35,7.91 6.18,12 1.83,4.09 3,8.77 1.85,13.14 -0.54,2.13 -1.58,4.09 -2.28,6.17 a 35,35 0 0 0 -1.34,7 132.68,132.68 0 0 0 -0.48,24.16 7.34,7.34 0 0 0 0.61,2.86 c 0.41,0.8 1.13,1.64 0.78,2.47 -0.14,0.33 -0.44,0.57 -0.59,0.9 -0.42,0.92 0.43,1.88 1.2,2.53 a 2.07,2.07 0 0 1 -1.3,1 3.07,3.07 0 0 1 1.31,3.42 c -0.69,0.1 -0.73,1.15 -0.29,1.7 0.44,0.55 1.11,0.9 1.42,1.52 a 2.13,2.13 0 0 1 -1.17,2.68 5.48,5.48 0 0 1 -3.19,0.24 34.58,34.58 0 0 1 -5.34,-1.17 4.8,4.8 0 0 1 -1.64,-0.75 4.87,4.87 0 0 1 -1.47,-3.24 58.55,58.55 0 0 1 -0.37,-10 c 0.29,-16.16 0,-32.34 -0.7,-48.49 -0.29,-6.5 -2.24,-12.84 -4.76,-18.84 a 96.67,96.67 0 0 0 -4.64,-9 c -3.62,-6.66 -6.84,-14 -6,-21.55 0.09,-0.81 0.39,-1.79 1.19,-1.92 a 1.73,1.73 0 0 1 0.92,0.15 42.53,42.53 0 0 1 4.85,2.68 18.38,18.38 0 0 0 8.42,2.52 z"
       inkscape:connector-curvature="0"
       style="opacity:0.05;stroke-width:3.33951259" />
    <path
       id="path151"
       transform="translate(-51.77,-49.02)"
       d="m 148.85,623.21 a 7.11,7.11 0 0 0 -3.52,-1.11 7.14,7.14 0 0 0 -3.83,1.9 40.17,40.17 0 0 0 -3.8,3.34 20.33,20.33 0 0 0 -4.54,20.11 c 1.21,3.59 3.4,6.76 5.56,9.86 l 4.4,6.32 c 6.71,9.64 13.43,19.28 20.46,28.69 a 1.08,1.08 0 0 0 0.76,1 c 0.26,0.07 0.57,0.06 0.73,0.27 a 0.78,0.78 0 0 1 0.09,0.43 6.53,6.53 0 0 1 -0.39,2 0.93,0.93 0 0 0 -0.08,0.69 c 0.22,0.53 1.19,0.23 1.49,0.73 0.21,0.32 0,0.75 -0.32,1 -0.32,0.25 -0.6,0.59 -0.55,1 0.05,0.41 0.72,0.79 0.69,1.29 0,0.28 -0.24,0.49 -0.41,0.71 a 1.81,1.81 0 0 0 0.22,2.31 c 0.46,4.6 -2,8.95 -2.53,13.55 -0.79,7.23 2.48,14.29 2.88,21.55 a 5.77,5.77 0 0 0 0.45,2.38 c 0.68,1.25 2.42,2 2.36,3.43 a 13.09,13.09 0 0 1 -0.49,1.73 13.91,13.91 0 0 0 0.26,2.47 c 0,0.83 -0.7,1.82 -1.47,1.5 q 0.87,2.88 1.54,5.81 l 15.4,1.27 a 13.83,13.83 0 0 0 -0.14,-4.16 c -0.32,-1.48 -1,-2.87 -1.34,-4.35 a 5.13,5.13 0 0 1 0.61,-4.35 1.7,1.7 0 0 1 -1.7,-1.4 6.86,6.86 0 0 1 0,-2.39 c 0.41,-4 -1.28,-8 -1.23,-12 0.05,-3.18 1.16,-6.23 1.73,-9.35 1.2,-6.68 -0.05,-13.93 2.92,-20 1.8,-3.68 4.29,-7.76 2.27,-11.32 -1,-1.76 -2.75,-3 -3.89,-4.62 a 18.77,18.77 0 0 1 -2.09,-5 c -2.38,-7.36 -6.21,-14.15 -9.58,-21.12 a 22.23,22.23 0 0 1 -2.06,-5.55 28.21,28.21 0 0 1 -0.25,-5.12 78.48,78.48 0 0 0 -0.57,-9.2 8.61,8.61 0 0 0 -1.12,-3.81 8.53,8.53 0 0 0 -2.4,-2.19 c -5.05,-3.44 -11.07,-5.43 -16.52,-8.3 z"
       inkscape:connector-curvature="0"
       style="fill:#464353;stroke-width:3.33951259" />
    <path
       id="path153"
       transform="translate(-51.77,-49.02)"
       d="m 167.3,777.18 a 10.89,10.89 0 0 0 4.6,0.55 c 0.12,-1.27 1.82,-1.55 3.09,-1.49 a 3.55,3.55 0 0 1 1.77,0.41 c 0.32,0.2 0.56,0.5 0.88,0.71 a 3.68,3.68 0 0 0 1.8,0.46 l 6.61,0.56 c 2.95,0.25 6,0.48 8.79,-0.58 a 2.89,2.89 0 0 0 1.4,-0.94 c 0.75,-1.07 0,-2.61 -1,-3.39 -1,-0.78 -2.37,-1.14 -3.42,-1.94 -2.29,-1.75 -2.61,-5 -3.83,-7.64 a 22.05,22.05 0 0 0 -3.16,-4.59 17.52,17.52 0 0 0 -3.12,-3.2 c -2.66,-1.92 -5.71,-1.88 -8.82,-2.15 -2.21,-0.2 -4.28,-0.33 -5.85,1.62 -2,2.42 -1.18,7.3 -1.06,10.19 a 74.3,74.3 0 0 0 1.32,11.42 z"
       inkscape:connector-curvature="0"
       style="fill:#514e7f;stroke-width:3.33951259" />
    <rect
       id="rect155"
       height="78.029999"
       width="78.029999"
       y="612.16998"
       x="199.03"
       style="fill:#ffffff;stroke-width:3.33951259" />
    <circle
       id="circle157"
       r="15.25"
       cy="532.28003"
       cx="183.77"
       style="fill:#a1616a;stroke-width:3.33951259" />
    <path
       id="path159"
       transform="translate(-51.77,-49.02)"
       d="m 221.16,585.82 c -2.19,1.89 -5.32,2 -8.19,2.32 a 51.19,51.19 0 0 0 -17.62,5.1 6.29,6.29 0 0 0 -2,1.4 5.77,5.77 0 0 0 -1,2.18 14.42,14.42 0 0 0 -0.58,5.3 15.28,15.28 0 0 0 1.47,5 26.84,26.84 0 0 0 9.46,10.78 6.87,6.87 0 0 0 2.3,1.1 c 2,0.42 3.95,-0.75 5.92,-1.27 a 9.7,9.7 0 0 1 5.47,0.18 c 1.66,0.55 3.41,1.56 5,0.89 a 5.22,5.22 0 0 0 2.28,-2.59 87.89,87.89 0 0 0 4.16,-9.11 34.52,34.52 0 0 1 1.51,-3.54 c 1.77,-3.37 4.83,-6 6.35,-9.46 a 2.08,2.08 0 0 0 0.14,-1.78 2.47,2.47 0 0 0 -1.12,-0.86 26.73,26.73 0 0 1 -6.09,-4.78 c -1,-1 -2.85,-3.56 -4.29,-3.79 -1.58,-0.21 -2.07,1.99 -3.17,2.93 z"
       inkscape:connector-curvature="0"
       style="fill:#a1616a;stroke-width:3.33951259" />
    <path
       id="path161"
       transform="translate(-51.77,-49.02)"
       d="m 221.52,616.81 c -1.77,0.85 -3.85,0.47 -5.77,0.07 -4.94,-1 -9.93,-2.08 -14.5,-4.22 a 7.76,7.76 0 0 1 -3.56,-2.73 8.73,8.73 0 0 1 -1,-3.42 l -0.84,-5.67 c -0.29,-2 0.22,-3.82 0.26,-5.82 a 1.7,1.7 0 0 0 -0.33,-1.27 1.37,1.37 0 0 0 -1,-0.31 c -2.29,0 -3.67,2.43 -5.28,4.06 a 9.75,9.75 0 0 1 -3.24,2.18 c -1.47,0.6 -3.28,1 -3.87,2.49 -0.25,0.61 -0.22,1.31 -0.47,1.92 -1,2.44 -5.4,1.63 -6.51,4 -0.32,0.68 -0.3,1.54 -0.83,2.08 -0.53,0.54 -1.5,0.52 -2.3,0.66 -3.18,0.52 -4.73,4.2 -7.45,5.93 -2.29,1.46 -5.24,1.43 -7.7,2.57 a 29.48,29.48 0 0 1 -4,2 18.9,18.9 0 0 1 -4.64,0.23 1.25,1.25 0 0 0 -0.93,0.3 1.28,1.28 0 0 0 -0.15,1 28.07,28.07 0 0 0 17.35,21.73 6.12,6.12 0 0 1 1.48,0.71 c 1.39,1 1.63,3.27 3.2,4 a 3.31,3.31 0 0 0 3.34,-0.72 29.05,29.05 0 0 0 2.41,-2.66 9.6,9.6 0 0 1 5.37,-2.82 c 1.89,-0.3 4,-0.08 5.53,-1.24 a 17,17 0 0 0 1.74,-1.86 10.91,10.91 0 0 1 4,-2.36 40,40 0 0 1 12.5,-2.64 c 4,-0.23 8.15,0.14 11.94,-1.17 a 7,7 0 0 0 2.66,-1.5 8,8 0 0 0 1.78,-3.09 23.59,23.59 0 0 0 0.81,-12.43 z"
       inkscape:connector-curvature="0"
       style="fill:#514e7f;stroke-width:3.33951259" />
    <path
       id="path163"
       transform="translate(-51.77,-49.02)"
       d="m 201.86,594.34 c 1.13,-0.1 2.26,0 3.39,0 1.33,0 2.64,-0.32 4,-0.33 a 9.86,9.86 0 0 1 9.3,7.08 1.8,1.8 0 0 1 0.06,1 0.71,0.71 0 0 1 -0.77,0.52 16.9,16.9 0 0 0 -1.71,-3.43 9.71,9.71 0 0 0 -5.12,-3.56 13.29,13.29 0 0 0 -6.3,-0.23 c -0.86,0.16 -1.71,0.39 -2.56,0.63 l -4.15,1.12 c -0.75,0.2 -1.5,0.41 -2.23,0.68 -0.56,0.2 -1.53,1 -2.08,1 -0.75,0 -0.14,-0.65 0.19,-1.09 a 5.34,5.34 0 0 1 2.66,-1.93 22.38,22.38 0 0 1 5.32,-1.46 z"
       inkscape:connector-curvature="0"
       style="fill:#514e7f;stroke-width:3.33951259" />
    <path
       id="path165"
       transform="translate(-51.77,-49.02)"
       d="m 212.14,640.15 c 1,3.16 2,6.32 3.21,9.4 a 79.54,79.54 0 0 0 8.32,15.16 109.23,109.23 0 0 0 6.87,9 c 3.06,3.61 6.48,7.24 7.56,11.85 0.63,2.66 0.42,5.45 0.68,8.17 0.26,2.72 1.15,5.61 3.35,7.24 a 12.45,12.45 0 0 0 5.52,1.82 c 1.38,0.22 3.11,0.29 3.83,-0.91 a 3.41,3.41 0 0 0 0.38,-1.58 l 0.33,-4 c 0.08,-0.86 0.38,-2 1.24,-2 0.86,0 1.3,1.11 2,1.62 a 2.17,2.17 0 0 0 3,-1 5.07,5.07 0 0 0 0.08,-3.5 16.62,16.62 0 0 0 -8.51,-10.58 25.64,25.64 0 0 1 -4.16,-2.17 14,14 0 0 1 -3.27,-4.12 c -7.57,-12.45 -15.17,-25 -20.5,-38.51 a 28.49,28.49 0 0 1 -2.11,-7.59 49,49 0 0 1 0.33,-8 45.79,45.79 0 0 0 -1.29,-14.3 11.23,11.23 0 0 0 -1.37,-3.47 c -2.19,-3.34 -7.36,-3.83 -10.62,-1.53 a 10.94,10.94 0 0 0 -4.22,7.72 c -0.24,2.69 1.32,5.5 2.11,8 q 3.62,11.65 7.24,23.28 z"
       inkscape:connector-curvature="0"
       style="fill:#a1616a;stroke-width:3.33951259" />
    <path
       id="path167"
       transform="translate(-51.77,-49.02)"
       d="m 257.73,570.52 c 0.12,-1.27 -1,-2.42 -2.31,-3.23 a 32.25,32.25 0 0 1 -3.92,-2.4 c -1.16,-1 -1.79,-2.31 -2.95,-3.31 a 13,13 0 0 0 -4.4,-2.19 33.4,33.4 0 0 0 -10.52,-1.89 18.53,18.53 0 0 0 -10.07,2.66 6,6 0 0 0 -1.71,1.59 7,7 0 0 0 -0.83,2.53 50,50 0 0 1 -2.63,8 c -1.13,2.88 -2.34,5.86 -5,8.08 -2.85,2.38 -7.22,3.75 -9.1,6.62 a 2.15,2.15 0 0 0 -0.41,1.85 c 0.27,0.72 1.14,1.21 1.93,1.67 4.63,2.66 8.62,6.1 10.68,10.22 a 11.85,11.85 0 0 1 -0.94,12.75 c -1.07,1.4 -2.55,3.06 -1.5,4.47 1.59,2.14 7.08,0.92 8.34,3.18 a 4.52,4.52 0 0 1 0.17,2.34 c 0,2.37 2.29,4.49 5.07,5.58 a 28.27,28.27 0 0 0 9.12,1.5 7.88,7.88 0 0 0 0.23,-5.9 2.36,2.36 0 0 1 -0.23,-1.34 3.22,3.22 0 0 1 1,-1.29 c 3.35,-3.16 2.64,-7.81 0.63,-11.56 -2.01,-3.75 -5.13,-7.19 -6.29,-11.14 -0.58,-2 -0.59,-4.17 1,-5.8 a 20.2,20.2 0 0 1 2.87,-2.1 10.91,10.91 0 0 0 4,-5 c 0.93,-2.6 0.79,-5.73 3.53,-7.45 2.74,-1.72 6.29,-1.16 9.18,-2.27 2.33,-0.93 4.88,-4.32 5.06,-6.17 z"
       inkscape:connector-curvature="0"
       style="fill:#464353;stroke-width:3.33951259" />
    <circle
       id="circle169"
       r="16.629999"
       cy="526.89001"
       cx="291.47"
       style="fill:#fbbebe;stroke-width:3.33951259" />
    <path
       id="path171"
       transform="translate(-51.77,-49.02)"
       d="m 358.21,575.21 a 21.56,21.56 0 0 0 13.8,9.65 l -1.25,4.54 c -2.16,7.82 -4.6,16.1 -10.64,21.52 a 10.06,10.06 0 0 0 -1.69,-7.78 29.46,29.46 0 0 0 -5.64,-5.9 l -9.57,-8.33 a 2.61,2.61 0 0 1 -0.72,-0.8 2.44,2.44 0 0 1 0,-1.82 c 1.22,-3.8 4.7,-6.17 7.52,-8.73 a 26.52,26.52 0 0 0 3.79,-4.41 c 1.96,-2.7 3.19,0.03 4.4,2.06 z"
       inkscape:connector-curvature="0"
       style="fill:#fbbebe;stroke-width:3.33951259" />
    <path
       id="path173"
       transform="translate(-51.77,-49.02)"
       d="m 360.33,596.72 a 9,9 0 0 1 -0.49,3.67 2.58,2.58 0 0 1 -3,1.54 c 0.35,-0.79 -0.57,-1.69 -1.43,-1.59 a 2.69,2.69 0 0 0 -1.9,1.61 6,6 0 0 0 -0.55,3.72 c 0.27,1.58 1.18,3.09 0.94,4.67 -0.19,1.31 -1.16,2.62 -0.64,3.85 a 6.18,6.18 0 0 0 1.24,1.48 4.2,4.2 0 0 1 -0.45,5.76 l 13,0.25 c -0.48,2.17 0.5,4.39 1.61,6.31 a 39.73,39.73 0 0 0 29.62,19.34 2.58,2.58 0 0 0 -0.62,3.94 c 1.06,1.05 2.84,0.92 4.16,0.24 a 31.58,31.58 0 0 0 3.57,-2.67 10.91,10.91 0 0 1 7.32,-2 c 1.63,0.15 3.2,0.67 4.83,0.76 4.8,0.26 8.93,-3.2 13.52,-4.61 3.37,-1 7.18,-1 10,-3.14 1.22,-0.9 2.22,-2.38 1.86,-3.86 a 6.29,6.29 0 0 0 -1.4,-2.26 c -1.63,-2.11 -2.58,-4.64 -3.75,-7 a 41.79,41.79 0 0 0 -9.37,-12.54 82.71,82.71 0 0 0 -9.28,-7.05 15.71,15.71 0 0 0 -2.52,-1.51 25.81,25.81 0 0 1 -3.44,-1.4 c -1.53,-1 -2.4,-2.65 -3.57,-4 -2.57,-3 -6.52,-4.37 -9.69,-6.73 -2.12,-1.58 -4,-3.66 -6.53,-4.43 -1.23,-0.37 -2.55,-0.4 -3.78,-0.77 -2.8,-0.85 -4.84,-3.34 -7.59,-4.34 -2.17,-0.8 -4.57,-0.59 -6.87,-0.88 a 16,16 0 0 1 -7.06,-2.67 8.49,8.49 0 0 0 -2.28,-1.34 c -3.47,-1 -3.75,5.42 -4.08,7.66 -0.52,3.27 -1.38,6.62 -1.38,9.99 z"
       inkscape:connector-curvature="0"
       style="fill:#3f3d56;stroke-width:3.33951259" />
    <path
       id="path175"
       transform="translate(-51.77,-49.02)"
       d="m 363.72,618.43 c 0.58,6.31 -4.19,12.43 -2.8,18.62 0.3,1.32 0.86,2.57 1.07,3.9 0.58,3.67 -1.61,7.14 -3.7,10.21 l -18,26.34 a 16,16 0 0 1 -2.56,3.17 c -3.44,3.05 -8.58,2.73 -13.09,3.65 a 22.41,22.41 0 0 0 -8.77,3.88 0.57,0.57 0 0 0 -0.11,0.78 7.52,7.52 0 0 0 6.52,3.06 c 0.47,0.62 0,1.54 -0.65,2 -1,0.67 -2.29,0.85 -2.48,2.48 a 2.78,2.78 0 0 0 0.32,1.65 5.12,5.12 0 0 0 3.15,2.18 c 6.21,1.9 12.92,-1.44 17.57,-6 4.65,-4.56 8,-10.27 12.56,-14.9 2.53,-2.56 5.4,-4.75 8,-7.23 5.19,-5 9.23,-11 13.13,-17 a 18.92,18.92 0 0 0 2.84,-5.79 c 0.48,-2.05 0.26,-4.23 0.82,-6.26 0.72,-2.67 2.67,-4.8 4.3,-7 3.19,-4.39 5.31,-9.75 4.89,-15.16 -0.42,-5.41 -3.77,-10.73 -8.86,-12.57 a 7.93,7.93 0 0 0 -5,-0.3 c -2.09,0.64 -3.63,2.37 -5.06,4 l -3.41,3.94 a 9.36,9.36 0 0 0 -2,3 3.15,3.15 0 0 0 0.7,3.35"
       inkscape:connector-curvature="0"
       style="fill:#fbbebe;stroke-width:3.33951259" />
    <path
       id="path177"
       transform="translate(-51.77,-49.02)"
       d="m 372.8,592.5 c -2.36,0.14 -5,0.37 -6.63,2 a 9.26,9.26 0 0 0 -1.66,2.62 c -1.62,3.29 -3.2,6.74 -3.31,10.41 -0.1,2.93 0.75,5.8 1.2,8.7 0.37,2.41 -0.57,4.87 -0.75,7.31 a 49.91,49.91 0 0 0 9.44,-3.63 31.56,31.56 0 0 1 5.53,-2.87 c 2.81,-0.94 7.55,0.67 10.21,2 0.15,-1.88 -1.26,-5.15 -1.11,-7 a 7.67,7.67 0 0 1 0.42,-2.33 13.89,13.89 0 0 1 1.41,-2.25 9.21,9.21 0 0 0 -0.83,-10.81 c -2.37,-2.67 -6.09,-3.67 -9.64,-4.09 a 42.16,42.16 0 0 0 -6.74,-0.23"
       inkscape:connector-curvature="0"
       style="fill:#3f3d56;stroke-width:3.33951259" />
    <path
       id="path179"
       transform="translate(-51.77,-49.02)"
       d="m 321.33,559.19 -0.38,-3.13 c 2.63,0.67 5.12,-1.55 6.8,-3.86 1.68,-2.31 3.23,-5 5.78,-6 3.11,-1.17 6.4,0.7 9.37,2.24 a 29.33,29.33 0 0 0 10.75,3.56 7.61,7.61 0 0 1 1.78,0.29 c 1.93,0.69 2.85,3.11 3.13,5.31 0.28,2.2 0.2,4.54 1.15,6.5 0.73,1.48 2,2.59 2.72,4 2,3.93 0.07,9.31 2.22,13.17 l -5.33,-4.88 c -0.49,-0.45 -1.18,-0.92 -1.71,-0.54 -0.53,0.38 -0.46,1 -0.64,1.47 a 2.79,2.79 0 0 1 -3.79,1.38 10.39,10.39 0 0 1 -3.39,-3.1 20.72,20.72 0 0 0 -8.46,-6.41 10.81,10.81 0 0 0 -8.95,0.53 c -2.49,1.41 -4.31,4.68 -7.36,4.79 -4.18,0.16 -5.92,-7.62 -7.85,-10.69 a 3.79,3.79 0 0 0 1.1,-4.72 c 0.29,-0.1 3,-0.39 3.06,0.09 z"
       inkscape:connector-curvature="0"
       style="fill:#464353;stroke-width:3.33951259" />
    <path
       id="path181"
       transform="translate(-51.77,-49.02)"
       d="m 697.55,361.29 a 18.35,18.35 0 0 1 -5.22,1.43 9.15,9.15 0 0 0 4,-5 18.29,18.29 0 0 1 -5.78,2.21 9.08,9.08 0 0 0 -15.73,6.21 8.9,8.9 0 0 0 0.23,2.08 25.75,25.75 0 0 1 -18.74,-9.52 9.13,9.13 0 0 0 2.82,12.16 8.86,8.86 0 0 1 -4.13,-1.14 v 0.11 a 9.11,9.11 0 0 0 7.3,8.93 9.45,9.45 0 0 1 -2.4,0.32 8.85,8.85 0 0 1 -1.71,-0.17 9.13,9.13 0 0 0 8.5,6.32 18.24,18.24 0 0 1 -11.3,3.9 19.59,19.59 0 0 1 -2.17,-0.13 25.47,25.47 0 0 0 13.92,4.11 c 16.75,0 25.9,-13.87 25.9,-25.91 q 0,-0.59 0,-1.17 a 18.48,18.48 0 0 0 4.51,-4.74 z"
       inkscape:connector-curvature="0"
       style="fill:#6c63ff;stroke-width:3.33951259" />
    <path
       id="path183"
       transform="translate(-51.77,-49.02)"
       d="m 664.5,557.08 3,7.53 19.59,20.77 6.56,-6.18 4.13,4.37 4.37,-4.13 0.25,-8.49 5.46,-5.16 0.44,-14.87 -17.53,-18.58 z m 39.5,-4.16 -0.25,8.5 -6.56,6.18 -0.25,8.5 -4.12,-4.37 -5.47,5.16 -17.57,-18.59 20.77,-19.59 z"
       inkscape:connector-curvature="0"
       style="fill:#6c63ff;stroke-width:3.33951259" />
    <path
       id="path185"
       transform="translate(-51.77,-49.02)"
       d="m 688.05,549.2 3.28,-3.09 8.32,8.81 -3.28,3.08 z m -7.65,7.22 3.28,-3.1 8.31,8.82 -3.28,3.09 z"
       inkscape:connector-curvature="0"
       style="fill:#6c63ff;stroke-width:3.33951259" />
    <path
       id="path187"
       transform="translate(-51.77,-49.02)"
       d="m 302,676 h -32.08 a 2,2 0 0 0 -2,2 v 32.09 a 2,2 0 0 0 2,2 h 16 V 697.8 h -4.31 v -5.26 H 286 v -3.89 c 0,-4.65 3.23,-7.19 7.39,-7.19 2,0 4.14,0.15 4.63,0.22 v 4.86 h -3.31 c -2.26,0 -2.7,1.07 -2.7,2.65 v 3.35 h 5.39 l -0.7,5.26 H 292 v 14.28 h 10 a 2,2 0 0 0 2,-2 V 678 a 2,2 0 0 0 -2,-2 z"
       inkscape:connector-curvature="0"
       style="fill:#6c63ff;stroke-width:3.33951259" />
    <path
       id="path189"
       transform="translate(-51.77,-49.02)"
       d="m 582.48,447 a 7.53,7.53 0 0 1 7.51,7.51 v 15 a 7.53,7.53 0 0 1 -7.51,7.51 h -15 a 7.54,7.54 0 0 1 -5.31,-2.2 7.45,7.45 0 0 1 -2.21,-5.31 v -15 a 7.53,7.53 0 0 1 7.52,-7.51 h 15 m 0,-3 h -15 a 10.55,10.55 0 0 0 -10.52,10.52 v 15 a 10.55,10.55 0 0 0 10.52,10.52 h 15 A 10.55,10.55 0 0 0 593,469.56 v -15 A 10.56,10.56 0 0 0 582.48,444 Z"
       inkscape:connector-curvature="0"
       style="fill:#6c63ff;stroke-width:3.33951259" />
    <path
       id="path191"
       transform="translate(-51.77,-49.02)"
       d="m 584.73,454.53 a 2.26,2.26 0 1 1 2.25,-2.25 2.24,2.24 0 0 1 -2.25,2.25 z M 575,456 a 6,6 0 1 1 -6,6 6,6 0 0 1 6,-6 m 0,-3 a 9,9 0 1 0 9,9 9,9 0 0 0 -9,-9 z"
       inkscape:connector-curvature="0"
       style="fill:#6c63ff;stroke-width:3.33951259" />
    <path
       id="path193"
       transform="translate(-51.77,-49.02)"
       d="m 1046.69,613.88 c 0,-4.22 -3.11,-7.62 -7,-7.62 -5.21,-0.25 -10.51,-0.34 -15.93,-0.34 h -1.69 c -5.41,0 -10.73,0.09 -15.93,0.34 -3.83,0 -6.94,3.41 -6.94,7.64 -0.24,3.35 -0.34,6.69 -0.33,10 0.01,3.31 0.09,6.69 0.32,10 0,4.23 3.11,7.66 6.94,7.66 5.46,0.25 11.07,0.36 16.77,0.36 5.7,0 11.3,-0.1 16.78,-0.36 3.84,0 7,-3.43 7,-7.66 0.22,-3.35 0.33,-6.69 0.32,-10.05 -0.01,-3.36 -0.09,-6.68 -0.31,-10 z m -28.33,19.27 v -18.46 l 13.62,9.22 z"
       inkscape:connector-curvature="0"
       style="fill:#6c63ff;stroke-width:3.33951259" />
    <path
       id="path195"
       transform="translate(-51.77,-49.02)"
       d="m 550,260 a 21,21 0 0 0 -8.44,40.31 18.72,18.72 0 0 1 0.36,-4.83 c 0.41,-1.71 2.71,-11.47 2.71,-11.47 a 8,8 0 0 1 -0.68,-3.32 c 0,-3.12 1.81,-5.45 4.06,-5.45 1.92,0 2.84,1.44 2.84,3.16 0,1.92 -1.23,4.8 -1.86,7.46 a 3.25,3.25 0 0 0 3.32,4.05 c 4,0 6.67,-5.12 6.67,-11.19 0,-4.61 -3.11,-8.05 -8.75,-8.05 a 10,10 0 0 0 -10.36,10.07 6.05,6.05 0 0 0 1.39,4.13 1,1 0 0 1 0.3,1.17 c -0.1,0.39 -0.33,1.32 -0.43,1.69 a 0.73,0.73 0 0 1 -1.06,0.53 c -2.94,-1.2 -4.31,-4.42 -4.31,-8 0,-6 5,-13.14 15,-13.14 8,0 13.32,5.81 13.32,12.05 0,8.25 -4.59,14.42 -11.36,14.42 a 6,6 0 0 1 -5.13,-2.62 c 0,0 -1.23,4.84 -1.49,5.78 a 17.34,17.34 0 0 1 -2.11,4.51 21.31,21.31 0 0 0 6,0.86 A 21.060001,21.060001 0 0 0 550,260 Z"
       inkscape:connector-curvature="0"
       style="fill:#6c63ff;stroke-width:3.33951259" />
    <path
       id="path197"
       transform="translate(-51.77,-49.02)"
       d="m 770.23,842.52 c -0.81,-3.43 -1.3,-6.43 -1.3,-6.43 a 13.32,13.32 0 0 0 -1.49,-6.53 v -0.94 0 -6.9 a 22.81,22.81 0 0 1 1.74,-3.61 c 1.24,-2.16 0,-10.1 0,-10.1 0,0 -4.6,-11.19 -3.49,-18.29 1.11,-7.1 -9.44,-31.53 -9.44,-31.53 a 31.15,31.15 0 0 1 1,-7 5.05,5.05 0 0 0 0.13,-1.46 1.09,1.09 0 0 0 0,-0.18 v 0.06 c -0.16,-4.68 -3.86,-13.46 -3.86,-13.46 l 0.5,-16.72 c 0,0 2.36,-9.87 -1.49,-23.11 -1.35,-4.62 -2.21,-8.31 -2.76,-11.17 -0.06,-0.32 -0.12,-0.63 -0.17,-0.93 7.93,-1.21 14,-2.22 14,-2.22 0,0 -4.6,-19.25 -7.71,-22.62 -3.11,-3.37 -5.59,-13.95 -5.59,-13.95 0,0 -1.62,-13.6 1,-17.57 2.62,-3.97 3,-10.83 3,-10.83 0,0 6,-4.33 6.71,-6.26 a 31.7,31.7 0 0 0 2,-8.54 c 0,-2.29 -0.75,-4.33 -0.5,-5.54 0.25,-1.21 -1.74,-5.77 -0.74,-7.94 a 5.81,5.81 0 0 0 0.39,-2.09 0.13,0.13 0 0 0 0,-0.06 v 0 a 29.73,29.73 0 0 0 -0.53,-5.65 16,16 0 0 0 -5.9,-3.16 l -0.13,-0.51 -0.34,-1.35 a 4.56,4.56 0 0 0 -0.59,-0.35 v -0.5 -2 l 0.93,-4.4 c 1.84,-7.63 -8.36,-8.77 -8.36,-8.77 a 5.38,5.38 0 0 0 -2.89,-2.54 c -2,-0.72 -0.34,11.5 0.62,12.28 0.72,0.58 3,4.42 4,6.3 v 0 l 0.18,0.31 a 4.06,4.06 0 0 0 -0.47,0.49 l 0.39,2.65 0.06,0.41 a 10.89,10.89 0 0 0 -1.63,2.77 c 0,0 1.87,2.05 1.49,4.34 a 13.6,13.6 0 0 0 0.62,5.29 c -0.11,-0.13 -1.42,-1.55 -2.73,-1.2 -1.31,0.35 -5,1.44 -5,1.44 0,0 -2.74,0.48 -2.49,1.08 0.25,0.6 -1.86,3.25 -1.86,3.25 l -7.35,-7 c -0.08,-0.21 -0.15,-0.42 -0.22,-0.63 a 16.8,16.8 0 0 1 -0.63,-3 16.33,16.33 0 0 0 2.34,-0.75 5.07,5.07 0 0 0 2,-1.3 7.94,7.94 0 0 0 1.18,-3.17 c 0.58,-2.14 1.83,-4.05 2.73,-6.08 A 19.78,19.78 0 0 0 739,564 a 7.22,7.22 0 0 0 -1.12,-3.2 c -1.2,-1.65 -3.38,-2.32 -5,-3.64 -1.62,-1.32 -2.6,-3.32 -4.45,-4.31 a 8.77,8.77 0 0 0 -5.58,-0.48 29.82,29.82 0 0 0 -10.41,3.78 c -1.08,0.64 -2.25,1.37 -3.49,1.15 a 4.71,4.71 0 0 1 -2.51,-1.84 0.49,0.49 0 0 1 0,-0.11 l -0.09,-0.09 a 13.17,13.17 0 0 0 -1.14,5.5 c 0,0.29 0,0.58 0,0.88 0,0.1 0,0.2 0,0.3 a 2.26,2.26 0 0 1 0,0.26 v 0 a 1.76,1.76 0 0 1 -0.06,0.39 2.83,2.83 0 0 1 -0.68,1 4.43,4.43 0 0 0 -0.6,0.82 c 0,-0.1 0.06,-0.2 0.1,-0.3 a 4.34,4.34 0 0 0 -0.77,2.31 2.3,2.3 0 0 0 0.56,1.66 8,8 0 0 0 1.19,1 14,14 0 0 0 -0.21,2.44 14.22,14.22 0 0 0 6.92,12.13 l 0.25,0.63 a 17.49,17.49 0 0 1 1.33,8 c 0,0.2 0,0.39 -0.09,0.59 l -0.26,0.3 v 0 c 0,0 -12.14,0.12 -15,-2.47 -2.86,-2.59 -7.21,6.32 -7.21,6.32 0,0 -4.35,0.85 -5.22,0 -0.87,-0.85 -6,-0.12 -6,-0.12 a 11,11 0 0 0 -7.58,-2.76 22.27,22.27 0 0 0 -5.57,-3.1 v 0 l -0.14,-0.05 v 0 a 6.22,6.22 0 0 0 -2.74,-0.34 c 0,0 -6,-4.94 -7.7,-7.58 -1.7,-2.64 -10,-12.47 -10.07,-12.52 v -0.47 l -0.1,-1.43 a 5.58,5.58 0 0 1 -0.74,0.07 c 0,-0.15 -0.1,-0.31 -0.17,-0.5 a 27,27 0 0 0 -1.76,-4 c 0,0 0,-1.8 0.53,-2.25 0.53,-0.45 -0.22,-7.07 -0.22,-7.07 0,0 -5.38,-12.57 -10.19,-3.19 0,0 -9.11,6.07 -1.47,13.15 0,0 3,1.47 3.48,2.64 0.29,0.76 1.32,2.89 2,4.3 l 0.31,0.63 -0.09,0.07 0.12,1.18 v 0.46 c -1.44,0.81 -2.41,1.62 -2.18,2.24 a 13.16,13.16 0 0 1 0.87,3.25 c 0,0 10.57,13.23 11.94,18.89 0,0 28.34,16.84 37.66,18.05 l -1.61,8.42 a 66.59,66.59 0 0 0 -0.37,6.86 c 0.12,1.8 -1.12,10 -1.12,10 0,0 -1.62,12 -3,13.71 -1.38,1.71 -1.12,8.91 -1.12,8.91 a 60.09,60.09 0 0 1 -1.86,10.22 c -1.37,4.58 -0.37,10.23 -0.37,10.23 0,0 -4.73,10.83 6.59,3.49 0,0 5.55,-0.34 12,-0.56 0,0.21 0,0.42 0,0.64 0,0.82 0,1.71 0,2.65 -0.08,6.2 -0.12,14.75 0.16,21.22 0.5,11.43 4,34 4,34 v 11.36 a 15.89,15.89 0 0 0 -0.32,3.25 21.06,21.06 0 0 0 3.06,11.38 l 0.87,7.58 c 0,0 2,5 2.08,8 a 3.93,3.93 0 0 1 -0.09,0.72 5.38,5.38 0 0 0 -0.1,1.16 c -0.11,3.44 2,11.68 2,11.68 0,0 0.13,8.3 1.37,8.78 1.06,0.41 -1.42,4.79 -2.16,6 a 2,2 0 0 1 -0.05,-0.24 c -0.09,0.16 -0.15,0.25 -0.15,0.25 a 5.83,5.83 0 0 0 -0.39,2.1 3,3 0 0 0 1.38,2.92 c 2.36,1.45 3.63,2.65 1.63,3.13 a 19.86,19.86 0 0 0 -2.19,0.46 c 0,-0.09 -0.08,-0.19 -0.11,-0.28 A 1.34,1.34 0 0 0 705,826 a 6.15,6.15 0 0 0 0.75,2.81 30,30 0 0 0 3.36,6.14 l 1,-0.11 a 4.72,4.72 0 0 1 -0.56,1 3.87,3.87 0 0 1 -1.4,1.24 4.48,4.48 0 0 1 -1.7,0.59 4.74,4.74 0 0 0 -3.52,1.71 c -1.24,1.6 -2,3.79 0.43,5.71 l 8.89,3.06 c 0,0 15.29,2 14.48,-1.44 -0.81,-3.44 -1.3,-6.43 -1.3,-6.43 a 13.57,13.57 0 0 0 -1.25,-6.09 6,6 0 0 0 -0.54,-0.9 l 0.54,-0.06 c 0,0 1.12,-7.58 2.61,-9 0.35,-0.33 0.43,-0.59 0.34,-0.79 0.16,-0.41 -0.23,-0.65 -0.73,-0.79 l -0.11,0.3 a 7.5,7.5 0 0 0 -1.48,-0.16 c 0,0 -0.5,-4 1.11,-5.42 a 1.53,1.53 0 0 0 0.32,-1.18 6.8,6.8 0 0 0 -0.17,-1.62 l -0.06,0.1 a 57.75,57.75 0 0 0 -3.57,-9.33 c 0,0 -0.12,-3.61 0.87,-5.06 0.99,-1.45 -0.12,-19.61 -0.12,-19.61 0,0 0.37,-8.78 -0.75,-12.87 -1.12,-4.09 1.37,-8.91 1.37,-8.91 v -0.26 -0.06 c 0,0 -0.06,-0.54 -0.15,-1.39 v 0.09 c -0.25,-2.33 -0.72,-6.54 -1.07,-8.48 -0.5,-2.77 0.12,-16 0.12,-16 l 2.24,-5.65 4,9.74 4.22,13 a 11.05,11.05 0 0 1 2.15,5.52 c 0,0.14 0,0.28 0,0.41 a 6.53,6.53 0 0 0 0,0.87 7.76,7.76 0 0 0 1.29,4.63 c 0,0 1.12,6.14 2.86,7.7 1.74,1.56 1.74,4.57 1.74,4.57 0,0 2.11,8.91 3.11,10.47 0.84,1.32 0.88,4.94 0.87,6 v 0 0.33 c 0,0 0.29,3.18 0.28,5.86 0,0.32 0,0.65 0,1 v -0.07 a 9.32,9.32 0 0 1 -0.26,2.16 v 0.13 c 0,-0.15 0,-0.31 0,-0.45 a 22.26,22.26 0 0 0 -0.64,5.55 c -0.06,3.2 0.43,7 2.37,9.21 3.36,3.85 5.47,3.37 5.47,3.37 0,0 -1.62,4.81 -3.61,5.78 a 1.2,1.2 0 0 0 -0.21,0.13 c 0,-0.09 0,-0.19 -0.05,-0.28 a 2.35,2.35 0 0 0 -0.58,1.8 12.88,12.88 0 0 0 2.46,7.13 3.94,3.94 0 0 0 1.68,1 l -0.31,0.19 a 7,7 0 0 1 -0.69,0.33 3.26,3.26 0 0 1 -1,0.26 4.74,4.74 0 0 0 -3.52,1.71 c -1.24,1.6 -2,3.79 0.43,5.71 l 8.89,3.06 c 0,0 15.1,2.04 14.33,-1.44 z"
       inkscape:connector-curvature="0"
       style="fill:url(#a89cccf1-5da0-4e25-a4c3-8abfdc3a3dc7);stroke-width:3.33951259" />
    <path
       id="path199"
       transform="translate(-51.77,-49.02)"
       d="m 711.83,848.2 -8.61,-3.06 c -2.37,-1.92 -1.61,-4.11 -0.41,-5.71 a 4.53,4.53 0 0 1 3.4,-1.71 4.21,4.21 0 0 0 1.65,-0.59 3.9,3.9 0 0 0 1.36,-1.24 6.33,6.33 0 0 0 1,-3.33 c 0,0 9.45,-2.76 12,0 a 7.06,7.06 0 0 1 1.15,1.68 14,14 0 0 1 1.2,6.09 c 0,0 0.48,3 1.26,6.43 0.78,3.43 -14,1.44 -14,1.44 z"
       inkscape:connector-curvature="0"
       style="fill:#2d293d;stroke-width:3.33951259" />
    <path
       id="path201"
       transform="translate(-51.77,-49.02)"
       d="m 753.94,844 -8.6,-3.06 c -2.38,-1.92 -1.62,-4.11 -0.42,-5.7 a 4.52,4.52 0 0 1 3.41,-1.72 3.11,3.11 0 0 0 1,-0.26 5.06,5.06 0 0 0 0.66,-0.33 c 2.41,-1.32 2.35,-4.57 2.35,-4.57 0,0 9.44,-2.77 12,0 a 6.69,6.69 0 0 1 0.9,1.23 13.74,13.74 0 0 1 1.45,6.54 c 0,0 0.48,3 1.26,6.43 0.78,3.43 -14.01,1.44 -14.01,1.44 z"
       inkscape:connector-curvature="0"
       style="fill:#2d293d;stroke-width:3.33951259" />
    <path
       id="path203"
       transform="translate(-51.77,-49.02)"
       d="m 722.23,832.56 a 7.06,7.06 0 0 1 1.15,1.68 v 0 l -14.16,1.64 a 6.33,6.33 0 0 0 1,-3.33 c 0,0 9.43,-2.75 12.01,0.01 z"
       inkscape:connector-curvature="0"
       style="opacity:0.1;stroke-width:3.33951259" />
    <path
       id="path205"
       transform="translate(-51.77,-49.02)"
       d="m 765.25,829.55 v 2.65 c -2.2,3.63 -12.85,2.84 -15.94,1 a 5.06,5.06 0 0 0 0.66,-0.33 c 2.41,-1.32 2.35,-4.57 2.35,-4.57 0,0 9.44,-2.77 12,0 a 6.69,6.69 0 0 1 0.93,1.25 z"
       inkscape:connector-curvature="0"
       style="opacity:0.1;stroke-width:3.33951259" />
    <path
       id="path207"
       transform="translate(-51.77,-49.02)"
       d="m 766.94,818.12 a 23.62,23.62 0 0 0 -1.69,3.61 v 9.51 c -2.4,4 -14.92,2.65 -16.6,0.48 -1.68,-2.17 -3.49,-7.82 -1.57,-8.78 1.92,-0.96 3.49,-5.78 3.49,-5.78 0,0 -2,0.48 -5.29,-3.37 -3.29,-3.85 -2.28,-12.39 -1.68,-14.44 0.6,-2.05 0,-8.9 0,-8.9 0,0 0.12,-4.81 -0.84,-6.38 -0.96,-1.57 -3,-10.47 -3,-10.47 0,0 0,-3 -1.68,-4.57 -1.68,-1.57 -2.77,-7.7 -2.77,-7.7 a 7.89,7.89 0 0 1 -1.2,-5.17 c 0.36,-3 -2.05,-6.26 -2.05,-6.26 l -4.09,-13 -3.85,-9.75 -2.16,5.65 c 0,0 -0.61,13.24 -0.12,16 0.49,2.76 1.2,10.1 1.2,10.1 0,0 -2.41,4.82 -1.32,8.91 1.09,4.09 0.72,12.87 0.72,12.87 0,0 1.08,18.17 0.12,19.62 -0.96,1.45 -0.84,5 -0.84,5 0,0 4.93,10.59 3.36,12 -1.57,1.41 -1.08,5.42 -1.08,5.42 0,0 3.37,0 1.93,1.44 -1.44,1.44 -2.53,9 -2.53,9 L 708.83,835 a 30.8,30.8 0 0 1 -3.26,-6.14 c -1.92,-4.45 0.36,-4 2.3,-4.45 1.94,-0.45 0.71,-1.68 -1.58,-3.13 -2.29,-1.45 -1,-4.69 -1,-4.69 0,0 3.49,-5.9 2.29,-6.38 -1.2,-0.48 -1.33,-8.78 -1.33,-8.78 0,0 -2.4,-9.87 -1.8,-12.51 0.6,-2.64 -1.93,-9 -1.93,-9 l -0.84,-7.58 A 20.84,20.84 0 0 1 699.08,758 v -11.71 c 0,0 -3.37,-22.62 -3.86,-34 -0.3,-7.32 -0.22,-17.31 -0.12,-23.55 0.06,-3.49 0.12,-5.81 0.12,-5.81 l 52,-5.41 a 43.08,43.08 0 0 0 0.95,7.72 c 0.53,2.85 1.36,6.55 2.66,11.17 3.73,13.23 1.45,23.1 1.45,23.1 l -0.48,16.72 c 0,0 4.57,11.19 3.61,15 a 31.76,31.76 0 0 0 -1,7 c 0,0 10.23,24.43 9.15,31.53 -1.08,7.1 3.38,18.24 3.38,18.24 0,0 1.2,8 0,10.12 z"
       inkscape:connector-curvature="0"
       style="fill:#464353;stroke-width:3.33951259" />
    <path
       id="path209"
       transform="translate(-51.77,-49.02)"
       d="M 737.22,755.44 753,753.33 c 0,0 -8.92,9.14 -15.78,2.11 z"
       inkscape:connector-curvature="0"
       style="opacity:0.05;stroke-width:3.33951259" />
    <path
       id="path211"
       transform="translate(-51.77,-49.02)"
       d="m 750.75,737.87 c 0,0 0.55,5.59 -2.88,7.7 0,0 6.13,-0.96 2.88,-7.7 z"
       inkscape:connector-curvature="0"
       style="opacity:0.1;stroke-width:3.33951259" />
    <path
       id="path213"
       transform="translate(-51.77,-49.02)"
       d="m 749.78,720.06 c 0,0 -13.22,10.89 -18,10 -4.78,-0.89 18,-10 18,-10 z"
       inkscape:connector-curvature="0"
       style="opacity:0.1;stroke-width:3.33951259" />
    <path
       id="path215"
       transform="translate(-51.77,-49.02)"
       d="m 717.6,760.55 c 0,0 -10,2.29 -10.34,6.32 -0.34,4.03 10.34,-6.32 10.34,-6.32 z"
       inkscape:connector-curvature="0"
       style="opacity:0.1;stroke-width:3.33951259" />
    <path
       id="path217"
       transform="translate(-51.77,-49.02)"
       d="m 719.81,810.72 c 0,0 -14.19,2.65 -10.16,4.46 a 68.8,68.8 0 0 0 10.65,3.24 c 0,0 4.57,0.24 -0.49,-7.7 z"
       inkscape:connector-curvature="0"
       style="opacity:0.05;stroke-width:3.33951259" />
    <g
       id="g241"
       style="opacity:0.05;stroke-width:3.33951259">
      <path
         id="path219"
         transform="translate(-51.77,-49.02)"
         d="m 706.78,818 a 2.81,2.81 0 0 1 -1.3,-2.06 l -0.14,0.26 c 0,0 -1.33,3.24 1,4.69 0.26,0.16 0.51,0.33 0.74,0.49 0.42,-0.08 0.88,-0.14 1.31,-0.25 1.9,-0.44 0.68,-1.65 -1.61,-3.13 z"
         inkscape:connector-curvature="0"
         style="stroke-width:1.82743335" />
      <path
         id="path221"
         transform="translate(-51.77,-49.02)"
         d="m 725.07,817.08 c 0.39,-0.36 0.37,-1.29 0.14,-2.48 a 6.71,6.71 0 0 0 -0.81,3.49 2.67,2.67 0 0 1 0.67,-1.01 z"
         inkscape:connector-curvature="0"
         style="stroke-width:1.82743335" />
      <path
         id="path223"
         transform="translate(-51.77,-49.02)"
         d="m 722.88,757.22 a 16.56,16.56 0 0 0 -1,4.42 17.48,17.48 0 0 1 1.1,-3 c 0,0 0.02,-0.58 -0.1,-1.42 z"
         inkscape:connector-curvature="0"
         style="stroke-width:1.82743335" />
      <path
         id="path225"
         transform="translate(-51.77,-49.02)"
         d="m 755.39,750.9 a 5.72,5.72 0 0 0 0.13,-1.32 c -0.18,0.9 -0.3,1.74 -0.39,2.47 0.08,-0.38 0.16,-0.76 0.26,-1.15 z"
         inkscape:connector-curvature="0"
         style="stroke-width:1.82743335" />
      <path
         id="path227"
         transform="translate(-51.77,-49.02)"
         d="m 722.54,800 a 7.57,7.57 0 0 0 0.36,-2.67 8.81,8.81 0 0 0 -0.69,3.37 3.24,3.24 0 0 1 0.33,-0.7 z"
         inkscape:connector-curvature="0"
         style="stroke-width:1.82743335" />
      <path
         id="path229"
         transform="translate(-51.77,-49.02)"
         d="m 725.52,822.68 a 48.12,48.12 0 0 0 -1.65,7.39 l -14.55,1.69 a 30.14,30.14 0 0 1 -3.26,-6.14 10.72,10.72 0 0 1 -0.41,-1.06 c -0.87,0.4 -1.22,1.3 -0.07,4 a 29.79,29.79 0 0 0 3.26,6.13 L 723.38,833 c 0,0 1.09,-7.58 2.53,-9 0.71,-0.77 0.26,-1.13 -0.39,-1.32 z"
         inkscape:connector-curvature="0"
         style="stroke-width:1.82743335" />
      <path
         id="path231"
         transform="translate(-51.77,-49.02)"
         d="m 706.3,801.07 c 0,0 0.12,8.31 1.32,8.79 v 0 c 0.61,-1.37 1,-2.67 0.47,-2.89 -1.2,-0.48 -1.32,-8.78 -1.32,-8.78 0,0 -2.41,-9.87 -1.8,-12.52 0.61,-2.65 -1.93,-9 -1.93,-9 l -0.84,-7.58 a 20.88,20.88 0 0 1 -2.65,-14.32 v -11.69 c 0,0 -3.37,-22.62 -3.85,-34.05 -0.31,-7.32 -0.22,-17.31 -0.12,-23.55 0,-1.12 0,-2.12 0,-3 h -0.41 c 0,0 -0.06,2.31 -0.12,5.81 -0.1,6.23 -0.19,16.23 0.12,23.55 0.48,11.43 3.85,34.05 3.85,34.05 v 11.67 a 20.81,20.81 0 0 0 2.71,14.44 l 0.84,7.58 c 0,0 2.53,6.37 1.92,9 -0.61,2.63 1.81,12.49 1.81,12.49 z"
         inkscape:connector-curvature="0"
         style="stroke-width:1.82743335" />
      <path
         id="path233"
         transform="translate(-51.77,-49.02)"
         d="m 749.13,828.51 a 14,14 0 0 1 -2.3,-5.72 c -1.49,1.34 0.22,6.55 1.82,8.61 1.6,2.06 14.2,3.49 16.61,-0.49 v -2.29 c -3.26,3.23 -14.53,1.94 -16.13,-0.11 z"
         inkscape:connector-curvature="0"
         style="stroke-width:1.82743335" />
      <path
         id="path235"
         transform="translate(-51.77,-49.02)"
         d="m 767.42,814.91 a 24.05,24.05 0 0 0 -1.68,3.61 v 1.69 c 0.27,-0.62 0.66,-1.44 1.2,-2.41 a 7.29,7.29 0 0 0 0.53,-3 z"
         inkscape:connector-curvature="0"
         style="stroke-width:1.82743335" />
      <path
         id="path237"
         transform="translate(-51.77,-49.02)"
         d="m 749.87,816.81 a 23.17,23.17 0 0 0 1.19,-2.86 c 0,0 -2,0.48 -5.3,-3.37 -2.36,-2.8 -2.49,-8.09 -2.16,-11.55 -0.6,2.05 -1.57,10.59 1.68,14.44 2.13,2.53 3.72,3.18 4.59,3.34 z"
         inkscape:connector-curvature="0"
         style="stroke-width:1.82743335" />
      <path
         id="path239"
         transform="translate(-51.77,-49.02)"
         d="m 743.6,790.13 a 66.12,66.12 0 0 1 0.24,7.13 c 0.08,-0.47 0.17,-0.85 0.24,-1.12 0.61,-2 0,-8.9 0,-8.9 0,0 0.12,-4.82 -0.84,-6.38 -0.96,-1.56 -3,-10.47 -3,-10.47 0,0 0,-3 -1.68,-4.57 -1.68,-1.57 -2.77,-7.7 -2.77,-7.7 a 7.89,7.89 0 0 1 -1.21,-5.17 c 0.37,-3 -2,-6.26 -2,-6.26 l -4.09,-13 -3.9,-9.69 -2.17,5.65 c 0,0 0,0.71 -0.07,1.83 l 1.76,-4.59 3.85,9.74 4.09,13 c 0,0 2.4,3.25 2,6.25 a 7.91,7.91 0 0 0 1.25,5.12 c 0,0 1.08,6.13 2.76,7.7 1.68,1.57 1.69,4.57 1.69,4.57 0,0 2,8.9 3,10.47 1,1.57 0.85,6.39 0.85,6.39 z"
         inkscape:connector-curvature="0"
         style="stroke-width:1.82743335" />
    </g>
    <path
       id="path243"
       transform="translate(-51.77,-49.02)"
       d="m 753.7,568.75 -0.9,4.4 0.05,2 v 1.44 l -5,0.52 -0.56,-1 v 0 c -1,-1.88 -3.2,-5.71 -3.9,-6.3 -0.93,-0.78 -2.58,-13 -0.6,-12.27 a 5.24,5.24 0 0 1 2.8,2.53 c 0,0 9.89,1.04 8.11,8.68 z"
       inkscape:connector-curvature="0"
       style="fill:#ffcdd3;stroke-width:3.33951259" />
    <path
       id="path245"
       transform="translate(-51.77,-49.02)"
       d="m 752.89,576.54 -5,0.52 -0.56,-1 v 0 a 4.42,4.42 0 0 1 5.54,-0.91 z"
       inkscape:connector-curvature="0"
       style="opacity:0.1;stroke-width:3.33951259" />
    <path
       id="path247"
       transform="translate(-51.77,-49.02)"
       d="m 754.15,578.92 -6.61,1.54 -0.14,-1 -0.38,-2.65 a 4.55,4.55 0 0 1 6.41,-0.88 l 0.33,1.35 z"
       inkscape:connector-curvature="0"
       style="fill:#dce6f2;stroke-width:3.33951259" />
    <path
       id="path249"
       transform="translate(-51.77,-49.02)"
       d="m 646.91,569.23 -7.06,3.8 -0.64,-1.34 c -0.68,-1.41 -1.68,-3.53 -2,-4.29 -0.42,-1.17 -3.37,-2.65 -3.37,-2.65 -7.4,-7.07 1.41,-13.14 1.41,-13.14 4.67,-9.39 9.87,3.18 9.87,3.18 0,0 0.72,6.63 0.21,7.07 -0.51,0.44 -0.51,2.26 -0.51,2.26 a 27.49,27.49 0 0 1 1.71,4 c 0.27,0.7 0.38,1.11 0.38,1.11 z"
       inkscape:connector-curvature="0"
       style="fill:#ffcdd3;stroke-width:3.33951259" />
    <path
       id="path251"
       transform="translate(-51.77,-49.02)"
       d="m 646.91,569.23 -7.06,3.8 -0.64,-1.34 c 1,-0.83 4.53,-3.7 5.69,-3.57 a 8.28,8.28 0 0 0 1.68,0 c 0.22,0.7 0.33,1.11 0.33,1.11 z"
       inkscape:connector-curvature="0"
       style="opacity:0.1;stroke-width:3.33951259" />
    <path
       id="path253"
       transform="translate(-51.77,-49.02)"
       d="m 647.63,571.37 -7.94,3.91 -0.16,-1.71 -0.11,-1.17 c 0,0 4.6,-3.95 6,-3.8 a 7.38,7.38 0 0 0 2.08,0 l 0.09,1.43 z"
       inkscape:connector-curvature="0"
       style="fill:#dce6f2;stroke-width:3.33951259" />
    <path
       id="path255"
       transform="translate(-51.77,-49.02)"
       d="m 734.45,597.93 c 0,0 -34.63,3.91 -28.16,1.81 4.51,-1.47 6.3,-4.33 6.68,-7.51 a 18.29,18.29 0 0 0 -1.29,-8 34.77,34.77 0 0 0 -3.1,-6.26 c 0,0 26.47,-14.56 21.18,-1.32 a 20.76,20.76 0 0 0 -1.5,6.27 17.68,17.68 0 0 0 0.67,6.34 18.91,18.91 0 0 0 5.52,8.67 z"
       inkscape:connector-curvature="0"
       style="fill:#ffcdd3;stroke-width:3.33951259" />
    <path
       id="path257"
       transform="translate(-51.77,-49.02)"
       d="m 729.76,576.64 a 20.76,20.76 0 0 0 -1.5,6.27 c -2.5,2.09 -5.23,2 -8.74,2 -2.7,0 -5.69,0.66 -7.84,-0.64 a 34.77,34.77 0 0 0 -3.1,-6.26 c 0,0 26.47,-14.61 21.18,-1.37 z"
       inkscape:connector-curvature="0"
       style="opacity:0.1;stroke-width:3.33951259" />
    <circle
       id="circle259"
       r="14.32"
       cy="522.45001"
       cx="667.28003"
       style="fill:#ffcdd3;stroke-width:3.33951259" />
    <path
       id="path261"
       transform="translate(-51.77,-49.02)"
       d="m 734.45,597.93 c 0,0 -34.63,3.91 -28.16,1.81 4.51,-1.47 6.3,-4.33 6.68,-7.51 1.72,-1.87 5.18,-3.22 7.41,-3.93 a 10.33,10.33 0 0 1 6.27,-0.1 8.36,8.36 0 0 1 2.28,1 18.91,18.91 0 0 0 5.52,8.73 z"
       inkscape:connector-curvature="0"
       style="opacity:0.1;stroke-width:3.33951259" />
    <path
       id="path263"
       transform="translate(-51.77,-49.02)"
       d="m 754.15,578.92 -6.61,1.54 -0.14,-1 a 5.84,5.84 0 0 1 6.36,-2.18 z"
       inkscape:connector-curvature="0"
       style="opacity:0.1;stroke-width:3.33951259" />
    <path
       id="path265"
       transform="translate(-51.77,-49.02)"
       d="m 647.63,571.37 -7.94,3.91 -0.16,-1.71 a 58.44,58.44 0 0 1 8,-3.54 z"
       inkscape:connector-curvature="0"
       style="opacity:0.1;stroke-width:3.33951259" />
    <path
       id="path267"
       transform="translate(-51.77,-49.02)"
       d="m 748.15,685.19 c -13.41,2.11 -32.5,4.87 -35.53,3.95 -2.51,-0.77 -10.53,-0.69 -17.52,-0.45 0.06,-3.49 0.12,-5.81 0.12,-5.81 l 52,-5.41 a 43.08,43.08 0 0 0 0.93,7.72 z"
       inkscape:connector-curvature="0"
       style="opacity:0.1;stroke-width:3.33951259" />
    <path
       id="path269"
       transform="translate(-51.77,-49.02)"
       d="m 761.52,682 c 0,0 -44.16,7.58 -48.9,6.13 -4.74,-1.45 -29.07,0.13 -29.07,0.13 -10.95,7.33 -6.37,-3.49 -6.37,-3.49 0,0 -1,-5.66 0.36,-10.23 a 62.65,62.65 0 0 0 1.8,-10.23 c 0,0 -0.24,-7.22 1.08,-8.9 1.32,-1.68 2.89,-13.72 2.89,-13.72 0,0 1.21,-8.18 1.09,-10 -0.12,-1.82 0.36,-6.85 0.36,-6.85 l 1.56,-8.43 c -9,-1.2 -36.46,-18.05 -36.46,-18.05 -1.32,-5.65 -11.55,-18.89 -11.55,-18.89 a 13.93,13.93 0 0 0 -0.84,-3.25 c -0.72,-1.92 10.11,-5.77 10.11,-5.77 0,0 8.06,9.87 9.74,12.51 1.68,2.64 7.46,7.58 7.46,7.58 a 5.83,5.83 0 0 1 2.65,0.35 h 0.14 v 0 a 21.34,21.34 0 0 1 5.38,3.09 10.43,10.43 0 0 1 7.34,2.77 c 0,0 4.94,-0.72 5.78,0.12 0.84,0.84 5,0 5,0 0,0 4.22,-8.9 7,-6.32 2.78,2.58 14.51,2.47 14.51,2.47 1.57,-2.08 5.37,-3.57 7.76,-4.34 a 10.33,10.33 0 0 1 6.27,-0.1 7.76,7.76 0 0 1 2.48,1.2 l 7.12,7 c 0,0 2,-2.65 1.81,-3.25 -0.19,-0.6 2.41,-1.08 2.41,-1.08 0,0 3.49,-1.08 4.81,-1.45 1.32,-0.37 2.54,1.08 2.64,1.2 a 14.09,14.09 0 0 1 -0.6,-5.29 6,6 0 0 0 -1.44,-4.33 C 750.09,572.3 759.6,581 759.6,581 c 0,0 1.08,5.65 0.12,7.82 -0.96,2.17 1,6.74 0.72,7.94 -0.28,1.2 0.48,3.25 0.48,5.53 a 32.9,32.9 0 0 1 -1.92,8.55 c -0.73,1.92 -6.5,6.25 -6.5,6.25 0,0 -0.36,6.86 -2.89,10.83 -2.53,3.97 -1,17.57 -1,17.57 0,0 2.4,10.59 5.41,14 3.01,3.41 7.5,22.51 7.5,22.51 z"
       inkscape:connector-curvature="0"
       style="fill:#3f3d56;stroke-width:3.33951259" />
    <path
       id="path271"
       transform="translate(-51.77,-49.02)"
       d="m 697.15,602.87 c 0,0 -1.32,-4 -2.53,-4.34 a 28.49,28.49 0 0 1 -3.49,-1.56 l 0.78,-1.48 c 0,0 4.52,1.24 5.24,2.56 0.72,1.32 0,4.82 0,4.82 z"
       inkscape:connector-curvature="0"
       style="opacity:0.1;stroke-width:3.33951259" />
    <path
       id="path273"
       transform="translate(-51.77,-49.02)"
       d="m 673,594.08 c -0.24,1.21 -10.94,2.29 -10.94,2.29 l 5.41,-5.43 v 0 l 0.14,0.05 v 0 a 21.34,21.34 0 0 1 5.39,3.09 z"
       inkscape:connector-curvature="0"
       style="opacity:0.1;stroke-width:3.33951259" />
    <circle
       id="circle275"
       r="0.95999998"
       cy="528.54999"
       cx="590.21002"
       style="fill:#575988;stroke-width:3.33951259" />
    <circle
       id="circle277"
       r="0.95999998"
       cy="530.47998"
       cx="591.44"
       style="fill:#575988;stroke-width:3.33951259" />
    <circle
       id="circle279"
       r="0.95999998"
       cy="532.25"
       cx="592.65002"
       style="fill:#575988;stroke-width:3.33951259" />
    <circle
       id="circle281"
       r="0.95999998"
       cy="534.17999"
       cx="593.90997"
       style="fill:#575988;stroke-width:3.33951259" />
    <circle
       id="circle283"
       r="0.77999997"
       cy="534.07001"
       cx="707.33002"
       style="fill:#575988;stroke-width:3.33951259" />
    <circle
       id="circle285"
       r="0.77999997"
       cy="535.84998"
       cx="707.45001"
       style="fill:#575988;stroke-width:3.33951259" />
    <circle
       id="circle287"
       r="0.77999997"
       cy="537.62"
       cx="707.54999"
       style="fill:#575988;stroke-width:3.33951259" />
    <path
       id="path289"
       transform="translate(-51.77,-49.02)"
       d="m 697.21,635.47 c -0.11,-0.14 27,34.11 48.07,14.32 0,0 -33.28,4.51 -48.07,-14.32 z"
       inkscape:connector-curvature="0"
       style="opacity:0.1;stroke-width:3.33951259" />
    <path
       id="path291"
       transform="translate(-51.77,-49.02)"
       d="m 681.63,653.28 c 0,0 16.23,0.44 17.93,5.11 v 4.86 a 3.11,3.11 0 0 1 -3,0 c -1.64,-0.88 -11.45,-5.87 -14.91,-3.47 z"
       inkscape:connector-curvature="0"
       style="opacity:0.1;stroke-width:3.33951259" />
    <path
       id="path293"
       transform="translate(-51.77,-49.02)"
       d="m 681.93,653.28 c 0,0 15.52,0.42 17.15,4.87 v 4.64 a 3,3 0 0 1 -2.89,0 c -1.57,-0.85 -11,-5.6 -14.26,-3.31 z"
       inkscape:connector-curvature="0"
       style="fill:#3f3d56;stroke-width:3.33951259" />
    <path
       id="path295"
       transform="translate(-51.77,-49.02)"
       d="m 690.49,618 a 52.28,52.28 0 0 0 6.29,10.79 42.15,42.15 0 0 0 9.86,9.52 c 0,0 -15.88,-18.04 -16.15,-20.31 z"
       inkscape:connector-curvature="0"
       style="opacity:0.1;stroke-width:3.33951259" />
    <path
       id="path297"
       transform="translate(-51.77,-49.02)"
       d="m 685.18,599.18 c 0,0 2.71,11.69 9.68,15.66 z"
       inkscape:connector-curvature="0"
       style="opacity:0.1;stroke-width:3.33951259" />
    <path
       id="path299"
       transform="translate(-51.77,-49.02)"
       d="m 681,600.36 c -0.07,-0.22 -2.41,9.24 9,14.48 0,0 -4.82,-1.64 -9,-14.48 z"
       inkscape:connector-curvature="0"
       style="opacity:0.1;stroke-width:3.33951259" />
    <path
       id="path301"
       transform="translate(-51.77,-49.02)"
       d="m 751.9,592.52 c -0.18,0 5.62,3.7 7.2,5.41 0,0 -3.77,-5.65 -7.2,-5.41 z"
       inkscape:connector-curvature="0"
       style="opacity:0.1;stroke-width:3.33951259" />
    <path
       id="path303"
       transform="translate(-51.77,-49.02)"
       d="m 715.18,584.44 a 3.05,3.05 0 0 0 1.11,1.94 3.13,3.13 0 0 0 1.35,0.3 c 4.37,0.27 8.91,0.46 13,-1.22 a 4.84,4.84 0 0 0 2,-1.31 7.79,7.79 0 0 0 1.06,-3.15 c 0.57,-2.14 1.78,-4 2.65,-6.08 a 20.43,20.43 0 0 0 1.41,-10.92 7.31,7.31 0 0 0 -1.09,-3.2 c -1.16,-1.65 -3.27,-2.32 -4.8,-3.64 -1.53,-1.32 -2.52,-3.33 -4.3,-4.32 a 8.36,8.36 0 0 0 -5.4,-0.48 28.53,28.53 0 0 0 -10.08,3.79 c -1,0.64 -2.18,1.37 -3.37,1.15 a 4.63,4.63 0 0 1 -2.48,-1.9 13.32,13.32 0 0 0 -1.07,6.23 3,3 0 0 1 0,0.94 3,3 0 0 1 -0.67,1 c -1.08,1.25 -1.75,3.23 -0.69,4.49 0.47,0.55 1.18,0.85 1.63,1.41 0.81,1 0.53,2.45 0.51,3.74 a 2,2 0 0 0 0.32,1.27 1.86,1.86 0 0 0 1.77,0.42 4.84,4.84 0 0 1 1.88,-0.18 3.17,3.17 0 0 1 1.64,1.26 c 1.98,2.56 2.77,5.37 3.62,8.46 z"
       inkscape:connector-curvature="0"
       style="fill:#2d293d;stroke-width:3.33951259" />
    <g
       id="g307"
       style="opacity:0.1;stroke-width:3.33951259">
      <path
         id="path305"
         transform="translate(-51.77,-49.02)"
         d="m 733,583.05 a 4.73,4.73 0 0 1 -2,1.3 c -4,1.69 -8.58,1.49 -12.94,1.22 a 2.94,2.94 0 0 1 -1.35,-0.3 3,3 0 0 1 -1.12,-1.93 c -0.85,-3.09 -1.63,-5.91 -3.65,-8.47 a 3.12,3.12 0 0 0 -1.64,-1.26 4.84,4.84 0 0 0 -1.88,0.18 1.86,1.86 0 0 1 -1.77,-0.42 1.94,1.94 0 0 1 -0.31,-1.27 c 0,-1.29 0.29,-2.74 -0.52,-3.74 -0.45,-0.56 -1.16,-0.86 -1.63,-1.41 a 2.82,2.82 0 0 1 -0.27,-2.88 c -0.77,1.22 -1.1,2.78 -0.21,3.84 0.47,0.55 1.18,0.85 1.63,1.41 0.81,1 0.53,2.45 0.51,3.74 a 2,2 0 0 0 0.32,1.27 1.85,1.85 0 0 0 1.77,0.42 4.84,4.84 0 0 1 1.88,-0.18 3.17,3.17 0 0 1 1.64,1.26 c 2,2.57 2.8,5.38 3.65,8.47 a 3.05,3.05 0 0 0 1.11,1.94 3.13,3.13 0 0 0 1.35,0.3 c 4.37,0.27 8.91,0.46 13,-1.22 a 4.91,4.91 0 0 0 2,-1.31 3.81,3.81 0 0 0 0.62,-1.16 c -0.06,0.07 -0.1,0.15 -0.19,0.2 z"
         inkscape:connector-curvature="0"
         style="stroke-width:1.82743335" />
    </g>
    <path
       id="path309"
       transform="translate(-51.77,-49.02)"
       d="m 712.62,593.12 c 0,0 17.89,2.37 19.5,-0.32"
       inkscape:connector-curvature="0"
       style="opacity:0.1;stroke-width:3.33951259" />
    <path
       id="path311"
       transform="translate(-51.77,-49.02)"
       d="m 747.4,585.72 c 0,0 9.93,0 12.12,3.74"
       inkscape:connector-curvature="0"
       style="opacity:0.1;stroke-width:3.33951259" />
  </g>
</svg>
