<?xml version="1.0" encoding="UTF-8" standalone="no"?>
<svg
   xmlns:dc="http://purl.org/dc/elements/1.1/"
   xmlns:cc="http://creativecommons.org/ns#"
   xmlns:rdf="http://www.w3.org/1999/02/22-rdf-syntax-ns#"
   xmlns:svg="http://www.w3.org/2000/svg"
   xmlns="http://www.w3.org/2000/svg"
   xmlns:xlink="http://www.w3.org/1999/xlink"
   xmlns:sodipodi="http://sodipodi.sourceforge.net/DTD/sodipodi-0.dtd"
   xmlns:inkscape="http://www.inkscape.org/namespaces/inkscape"
   id="ea878d0f-c60d-4637-874b-f3bcf7dfa137"
   data-name="Layer 1"
   width="1200"
   height="452.70837"
   viewBox="0 0 1200 452.70835"
   version="1.1"
   sodipodi:docname="img3.svg"
   inkscape:version="0.92.4 (5da689c313, 2019-01-14)">
  <metadata
     id="metadata115">
    <rdf:RDF>
      <cc:Work
         rdf:about="">
        <dc:format>image/svg+xml</dc:format>
        <dc:type
           rdf:resource="http://purl.org/dc/dcmitype/StillImage" />
        <dc:title>annotation</dc:title>
      </cc:Work>
    </rdf:RDF>
  </metadata>
  <defs
     id="defs113">
    <linearGradient
       id="bb74ba87-0e24-4c9d-a373-e17481b146a7"
       x1="345.70001"
       y1="823.95001"
       x2="345.70001"
       y2="606.19"
       gradientTransform="translate(636.4)"
       gradientUnits="userSpaceOnUse">
      <stop
         offset="0"
         stop-color="gray"
         stop-opacity="0.25"
         id="stop2" />
      <stop
         offset="0.54"
         stop-color="gray"
         stop-opacity="0.12"
         id="stop4" />
      <stop
         offset="1"
         stop-color="gray"
         stop-opacity="0.1"
         id="stop6" />
    </linearGradient>
    <linearGradient
       id="9ace95f1-7a40-47d7-848c-20f8f7c52f52"
       x1="-254.27"
       y1="469.69"
       x2="-254.27"
       y2="232.12"
       gradientTransform="rotate(-2.2,1080.6588,-27397.33)"
       xlink:href="#bb74ba87-0e24-4c9d-a373-e17481b146a7" />
    <linearGradient
       id="9ace95f1-7a40-47d7-848c-20f8f7c52f52-2"
       x1="-254.27"
       y1="469.69"
       x2="-254.27"
       y2="232.12"
       gradientTransform="matrix(0.79189853,-0.03042168,0.03042168,0.79189853,808.63577,-0.19812)"
       xlink:href="#bb74ba87-0e24-4c9d-a373-e17481b146a7" />
  </defs>
  <sodipodi:namedview
     pagecolor="#ffffff"
     bordercolor="#666666"
     borderopacity="1"
     objecttolerance="10"
     gridtolerance="10"
     guidetolerance="10"
     inkscape:pageopacity="0"
     inkscape:pageshadow="2"
     inkscape:window-width="1440"
     inkscape:window-height="837"
     id="namedview111"
     showgrid="false"
     fit-margin-top="0"
     fit-margin-left="0"
     fit-margin-right="0"
     fit-margin-bottom="0"
     inkscape:zoom="0.42753667"
     inkscape:cx="317.2299"
     inkscape:cy="332.51329"
     inkscape:window-x="-8"
     inkscape:window-y="-8"
     inkscape:window-maximized="1"
     inkscape:current-layer="ea878d0f-c60d-4637-874b-f3bcf7dfa137" />
  <title
     id="title2">annotation</title>
  <circle
     cx="607.46875"
     cy="197.56845"
     r="189.70776"
     id="circle4"
     style="fill:#14b8f5;stroke-width:0.99999994;fill-opacity:0.09803922" />
  <ellipse
     cx="600"
     cy="389.14395"
     rx="208.37988"
     ry="12.323542"
     id="ellipse14"
     style="fill:#3f3d56;stroke-width:0.99999994" />
  <ellipse
     cx="558.17462"
     cy="389.56888"
     rx="156.09819"
     ry="8.4989939"
     id="ellipse16"
     style="opacity:0.1;stroke-width:0.99999994" />
  <ellipse
     cx="682.24725"
     cy="438.81155"
     rx="119.41071"
     ry="6.0361457"
     id="ellipse22"
     style="fill:#3f3d56;stroke-width:0.99999994" />
  <rect
     x="430.45795"
     y="246.11617"
     width="239.00201"
     height="141.90744"
     id="rect24"
     style="fill:#3f3d56;stroke-width:0.99999994" />
  <circle
     cx="507.38672"
     cy="318.56366"
     r="53.775452"
     id="circle26"
     style="fill:#167af0;stroke-width:0.99999994;fill-opacity:1" />
  <rect
     x="577.59357"
     y="268.52261"
     width="17.925152"
     height="17.925152"
     id="rect28"
     style="fill:#1666f0;stroke-width:0.99999994;fill-opacity:1" />
  <rect
     x="600"
     y="268.52261"
     width="17.925152"
     height="17.925152"
     id="rect30"
     style="opacity:0.5;fill:#167af0;stroke-width:0.99999994;fill-opacity:1" />
  <rect
     x="622.40643"
     y="268.52261"
     width="17.925152"
     height="17.925152"
     id="rect32"
     style="opacity:0.2;fill:#1140bc;stroke-width:0.99999994;fill-opacity:1" />
  <rect
     x="577.59357"
     y="290.92905"
     width="17.925152"
     height="17.925152"
     id="rect34"
     style="fill:#2f2e41;stroke-width:0.99999994" />
  <rect
     x="600"
     y="290.92905"
     width="17.925152"
     height="17.925152"
     id="rect36"
     style="opacity:0.5;fill:#2f2e41;stroke-width:0.99999994" />
  <rect
     x="622.40643"
     y="290.92905"
     width="17.925152"
     height="17.925152"
     id="rect38"
     style="opacity:0.2;fill:#2f2e41;stroke-width:0.99999994" />
  <rect
     x="577.59357"
     y="313.33548"
     width="17.925152"
     height="17.925152"
     id="rect40"
     style="fill:#16b6f0;stroke-width:0.99999994;fill-opacity:1" />
  <rect
     x="600"
     y="313.33548"
     width="17.925152"
     height="17.925152"
     id="rect42"
     style="opacity:0.5;fill:#169af0;stroke-width:0.99999994;fill-opacity:1" />
  <rect
     x="622.40643"
     y="313.33548"
     width="17.925152"
     height="17.925152"
     id="rect44"
     style="opacity:0.2;fill:#16b6f0;stroke-width:0.99999994;fill-opacity:1" />
  <path
     d="m 507.38672,264.7882 v 107.55091 c 29.69938,0 55.26922,-24.07612 55.26922,-53.77545 0,-29.69934 -25.56986,-53.77546 -55.26922,-53.77546 z"
     id="path46-7"
     inkscape:connector-curvature="0"
     style="opacity:0.5;fill:#1652f0;stroke-width:0.99999994;fill-opacity:1" />
  <path
     d="m 720.62133,256.19907 c 0,0 31.36901,14.19074 20.16579,30.62213 -11.20322,16.43139 -44.81287,47.8004 -45.55976,54.52234 -0.74688,6.72193 -5.22816,12.69698 -5.22816,12.69698 0,0 -14.93763,-15.68451 -13.44387,-17.17827 1.49377,-1.49377 16.43139,-15.68451 17.17827,-19.41892 0.74688,-3.7344 23.15332,-32.86277 23.15332,-32.86277 l -20.16579,-17.92515 z"
     id="path48-7"
     inkscape:connector-curvature="0"
     style="fill:#ffb9b9;stroke-width:0.99999994" />
  <path
     d="m 720.62133,256.19907 c 0,0 31.36901,14.19074 20.16579,30.62213 -11.20322,16.43139 -44.81287,47.8004 -45.55976,54.52234 -0.74688,6.72193 -5.22816,12.69698 -5.22816,12.69698 0,0 -14.93763,-15.68451 -13.44387,-17.17827 1.49377,-1.49377 16.43139,-15.68451 17.17827,-19.41892 0.74688,-3.7344 23.15332,-32.86277 23.15332,-32.86277 l -20.16579,-17.92515 z"
     id="path50-2"
     inkscape:connector-curvature="0"
     style="opacity:0.1;stroke-width:0.99999994" />
  <path
     d="m 681.03662,287.56808 c 0,0 21.65956,8.96258 20.1658,23.15332 -1.49377,14.19075 26.14084,54.52234 26.14084,54.52234 0,0 2.98753,9.70945 2.24064,12.69698 -0.74688,2.98752 19.41892,2.24064 19.41892,2.24064 v -6.72193 c 0,0 -15.68451,-26.88773 -17.17827,-34.35654 -1.49376,-7.46881 -10.45634,-36.59718 -10.45634,-36.59718 0,0 -2.98753,-26.14085 -17.92515,-26.14085 a 28.008048,28.008048 0 0 0 -22.40644,11.20322 z"
     id="path52-0"
     inkscape:connector-curvature="0"
     style="fill:#ffb9b9;stroke-width:0.99999994" />
  <path
     d="m 682.15694,219.97533 c 0,0 44.81288,36.59718 43.31912,39.5847 -1.49377,2.98753 -23.15332,14.19075 -26.88773,14.93763 -3.73441,0.74688 -30.15753,-54.52233 -30.15753,-54.52233 z"
     id="path54-9"
     inkscape:connector-curvature="0"
     style="fill:#2f2e41;stroke-width:0.99999994" />
  <path
     d="m 682.15694,219.97533 c 0,0 44.81288,36.59718 43.31912,39.5847 -1.49377,2.98753 -23.15332,14.19075 -26.88773,14.93763 -3.73441,0.74688 -30.15753,-54.52233 -30.15753,-54.52233 z"
     id="path56-1"
     inkscape:connector-curvature="0"
     style="opacity:0.1;stroke-width:0.99999994" />
  <path
     d="m 633.60966,227.44414 c 0,0 -4.48129,20.16579 7.46881,28.38149 11.9501,8.21569 32.1159,40.33159 34.35654,40.33159 2.24064,0 34.35654,-17.17827 32.86278,-20.1658 -1.49377,-2.98752 -17.92515,-29.12837 -17.92515,-29.12837 l -5.22817,-27.63461 c 0,0 -45.55976,-1.49376 -51.53481,8.2157 z"
     id="path58-4"
     inkscape:connector-curvature="0"
     style="fill:#2f2e41;stroke-width:0.99999994" />
  <path
     d="m 682.15694,161.71859 6.72193,43.31911 11.9501,30.62213 c 0,0 17.92516,18.67203 7.46882,20.1658 -10.45634,1.49376 -16.43139,-20.1658 -16.43139,-20.1658 l -9.70946,-17.92515 z"
     id="path60-5"
     inkscape:connector-curvature="0"
     style="fill:#ffb9b9;stroke-width:0.99999994" />
  <path
     d="m 682.15694,161.71859 6.72193,43.31911 11.9501,30.62213 c 0,0 17.92516,18.67203 7.46882,20.1658 -10.45634,1.49376 -16.43139,-20.1658 -16.43139,-20.1658 l -9.70946,-17.92515 z"
     id="path62-0"
     inkscape:connector-curvature="0"
     style="opacity:0.1;stroke-width:0.99999994" />
  <path
     d="m 657.13642,113.54474 c 0,0 0,15.68451 -5.22817,17.17827 -5.22817,1.49376 20.91268,21.65956 20.91268,21.65956 0,0 -2.98753,-26.14085 7.46881,-32.86278 z"
     id="path64-2"
     inkscape:connector-curvature="0"
     style="fill:#ffb9b9;stroke-width:0.99999994" />
  <path
     d="m 657.13642,113.54474 c 0,0 0,15.68451 -5.22817,17.17827 -5.22817,1.49376 20.91268,21.65956 20.91268,21.65956 0,0 -2.98753,-26.14085 7.46881,-32.86278 z"
     id="path66-9"
     inkscape:connector-curvature="0"
     style="opacity:0.1;stroke-width:0.99999994" />
  <circle
     cx="669.08655"
     cy="109.06345"
     r="17.17827"
     id="circle68"
     style="fill:#ffb9b9;stroke-width:0.99999994" />
  <path
     d="m 669.8334,144.91376 c 0,0 -15.68451,-19.41892 -17.92515,-18.67204 -2.24064,0.74689 -18.67203,17.17827 -20.16579,22.40644 -1.49377,5.22817 -4.48129,42.57224 -2.24065,50.04105 2.24065,7.46881 2.24065,26.88773 1.49376,28.38149 -0.74688,1.49376 -5.22817,5.22817 -0.74688,5.22817 4.48129,0 20.1658,-11.20322 30.62214,-8.96258 10.45633,2.24065 24.64708,-0.74688 25.39396,-2.24064 0.74688,-1.49377 -0.74688,-40.33159 0,-43.31912 0.74688,-2.98752 -1.49376,-17.92515 -2.24064,-20.91267 -0.74689,-2.98753 -0.74689,-14.93763 -8.2157,-17.92515 l -3.1847,-0.31471 -0.17837,7.38783 z"
     id="path70"
     inkscape:connector-curvature="0"
     style="fill:#1652f0;stroke-width:0.99999994;fill-opacity:1" />
  <path
     d="m 636.97062,183.75158 c 0,0 1.49377,23.15332 12.69699,32.86278 11.20322,9.70946 35.10342,26.14084 36.59718,29.12837 1.49376,2.98753 15.68451,18.67203 18.67203,11.9501 a 11.174696,11.174696 0 0 0 0.59893,-6.62241 16.471078,16.471078 0 0 0 -7.39667,-10.76464 l -6.64612,-4.27251 -32.86278,-34.35654 -1.49376,-17.92515 z"
     id="path72-5"
     inkscape:connector-curvature="0"
     style="fill:#ffb9b9;stroke-width:0.99999994" />
  <path
     d="m 679.9163,334.24816 c 0,0 -8.58914,-1.8672 -11.57666,3.36097 -2.98753,5.22817 2.98752,19.41891 2.98752,19.41891 0,0 17.17827,35.8503 20.1658,31.36902 2.98752,-4.48129 -2.24065,-20.91268 -2.24065,-20.91268 0,0 7.46882,-16.43139 4.48129,-17.17827 -2.98752,-0.74688 -13.8173,-7.09537 -13.8173,-16.05795 z"
     id="path74"
     inkscape:connector-curvature="0"
     style="fill:#2f2e41;stroke-width:0.99999994" />
  <path
     d="m 732.57143,377.19384 c 0,0 -4.48129,-2.24065 -5.22817,0 -0.74688,2.24064 -5.22817,13.44386 0,14.93762 5.22817,1.49377 56.76298,2.98753 55.26922,0 -1.49377,-2.98752 -9.70946,-6.72193 -14.93763,-8.21569 -5.22817,-1.49376 -18.67203,-12.69698 -18.67203,-12.69698 0,0 -7.46882,9.70945 -16.43139,5.97505 z"
     id="path76-0"
     inkscape:connector-curvature="0"
     style="fill:#2f2e41;stroke-width:0.99999994" />
  <path
     d="m 686.39117,95.429689 a 4.6003257,4.6003257 0 0 0 -1.99523,-2.604338 10.557653,10.557653 0 0 0 -0.42125,-3.436916 c -1.09755,-3.244781 -3.69765,-3.058793 -6.15091,-4.493372 -1.06437,-0.622414 -0.99863,-1.172514 -1.55272,-2.194816 a 8.1458832,8.1458832 0 0 0 -3.1388,-3.202522 c -1.57391,-1.002793 -3.23534,-2.035528 -5.09727,-2.162445 -3.91291,-0.266704 -6.91293,3.41365 -10.65276,4.594813 -1.64845,0.520577 -3.41974,0.542072 -5.07689,1.034252 -1.65714,0.492179 -3.31044,1.66739 -3.55739,3.37833 -0.11401,0.789887 0.0871,1.600209 -0.0285,2.389879 -0.2299,1.569489 -1.60688,2.668711 -2.52867,3.959628 -2.03841,2.8547 -1.80526,6.887597 -0.17515,9.993618 a 14.048523,14.048523 0 0 0 1.17544,1.83941 11.314908,11.314908 0 0 0 1.24107,4.20185 c 1.63011,3.10602 4.43514,5.42702 7.36535,7.35532 a 17.385156,17.385156 0 0 1 -0.43462,-3.13648 2.1635807,2.1635807 0 0 1 0.13338,-1.03923 c 0.32632,-0.68214 1.18859,-0.86355 1.84603,-1.23715 1.36172,-0.77382 1.89571,-2.4863 1.93509,-4.05203 0.0394,-1.56574 -0.29243,-3.13405 -0.12839,-4.69164 a 2.5635431,2.5635431 0 0 1 0.87759,-1.88575 3.0312551,3.0312551 0 0 1 1.65452,-0.394468 c 2.79002,-0.113825 5.70515,-0.165061 8.16612,-1.484464 a 12.102069,12.102069 0 0 1 2.54173,-1.285756 c 2.09142,-0.545388 4.22898,0.920494 5.43431,2.714577 1.20532,1.794081 1.80628,3.929071 2.91837,5.782411 1.1121,1.85334 3.03331,3.5061 5.18348,3.28651 a 0.86044459,0.86044459 0 0 0 0.64214,-0.28554 0.96257314,0.96257314 0 0 0 0.11829,-0.54708 l 0.12014,-8.219115 a 12.423347,12.423347 0 0 0 -0.41449,-4.177486 z"
     id="path78"
     inkscape:connector-curvature="0"
     style="fill:#2f2e41;stroke-width:0.99999994" />
  <path
     d="m 643.69256,145.66064 c 0,0 16.43138,7.46881 15.6845,23.15332 -0.74688,15.6845 4.48129,17.17827 -8.21569,18.67203 -12.69698,1.49376 -15.68451,0 -16.43139,1.49376 -0.74688,1.49376 -5.22817,-34.35654 -2.24064,-38.09094 2.98752,-3.73441 11.20322,-5.22817 11.20322,-5.22817 z"
     id="path80"
     inkscape:connector-curvature="0"
     style="fill:#1652f0;stroke-width:0.99999994;fill-opacity:1" />
  <path
     d="m 709.79155,422.32984 c 0,15.20378 -9.03719,20.51202 -20.18686,20.51202 -0.25827,0 -0.51654,-0.004 -0.77294,-0.009 -0.51647,-0.0111 -1.0293,-0.0353 -1.53467,-0.0706 -10.06277,-0.71161 -17.87926,-6.29296 -17.87926,-20.43212 0,-14.62968 18.69492,-33.09235 20.10322,-34.46167 v -0.002 c 0.0538,-0.0539 0.0818,-0.0799 0.0818,-0.0799 0,0 20.18685,19.34151 20.18685,34.54344 z"
     id="path142-8"
     inkscape:connector-curvature="0"
     style="fill:#1652f0;stroke-width:0.99999994;fill-opacity:1" />
  <path
     d="m 688.86894,440.51567 7.38352,-10.31547 -7.40212,11.44883 -0.0187,1.18352 c -0.51654,-0.0111 -1.02932,-0.0353 -1.53468,-0.0706 l 0.7952,-15.20937 -0.005,-0.1189 0.013,-0.0205 0.0762,-1.43807 -7.42073,-11.47669 7.44303,10.39907 0.0186,0.30473 0.60012,-11.49157 -6.35303,-11.85943 6.43108,9.84354 0.62611,-23.82664 v -0.0817 0.0799 l -0.10404,18.7878 6.32452,-7.44861 -6.35051,9.06691 -0.16723,10.28945 5.90649,-9.87513 -5.93061,11.38937 -0.0929,5.7207 8.57083,-13.74528 -8.60429,15.74075 z"
     id="path144-8"
     inkscape:connector-curvature="0"
     style="fill:#3f3d56;stroke-width:0.99999994" />
</svg>
