<?xml version="1.0" encoding="UTF-8" standalone="no"?>
<svg
   xmlns:dc="http://purl.org/dc/elements/1.1/"
   xmlns:cc="http://creativecommons.org/ns#"
   xmlns:rdf="http://www.w3.org/1999/02/22-rdf-syntax-ns#"
   xmlns:svg="http://www.w3.org/2000/svg"
   xmlns="http://www.w3.org/2000/svg"
   xmlns:xlink="http://www.w3.org/1999/xlink"
   xmlns:sodipodi="http://sodipodi.sourceforge.net/DTD/sodipodi-0.dtd"
   xmlns:inkscape="http://www.inkscape.org/namespaces/inkscape"
   id="ea878d0f-c60d-4637-874b-f3bcf7dfa137"
   data-name="Layer 1"
   width="1200"
   height="452.70837"
   viewBox="0 0 1200 452.70835"
   version="1.1"
   sodipodi:docname="img3.svg"
   inkscape:version="0.92.4 (5da689c313, 2019-01-14)">
  <metadata
     id="metadata115">
    <rdf:RDF>
      <cc:Work
         rdf:about="">
        <dc:format>image/svg+xml</dc:format>
        <dc:type
           rdf:resource="http://purl.org/dc/dcmitype/StillImage" />
        <dc:title>annotation</dc:title>
      </cc:Work>
    </rdf:RDF>
  </metadata>
  <defs
     id="defs113">
    <linearGradient
       id="bb74ba87-0e24-4c9d-a373-e17481b146a7"
       x1="345.70001"
       y1="823.95001"
       x2="345.70001"
       y2="606.19"
       gradientTransform="translate(636.4)"
       gradientUnits="userSpaceOnUse">
      <stop
         offset="0"
         stop-color="gray"
         stop-opacity="0.25"
         id="stop2" />
      <stop
         offset="0.54"
         stop-color="gray"
         stop-opacity="0.12"
         id="stop4" />
      <stop
         offset="1"
         stop-color="gray"
         stop-opacity="0.1"
         id="stop6" />
    </linearGradient>
    <linearGradient
       id="9ace95f1-7a40-47d7-848c-20f8f7c52f52"
       x1="-254.27"
       y1="469.69"
       x2="-254.27"
       y2="232.12"
       gradientTransform="rotate(-2.2,1080.6588,-27397.33)"
       xlink:href="#bb74ba87-0e24-4c9d-a373-e17481b146a7" />
  </defs>
  <sodipodi:namedview
     pagecolor="#ffffff"
     bordercolor="#666666"
     borderopacity="1"
     objecttolerance="10"
     gridtolerance="10"
     guidetolerance="10"
     inkscape:pageopacity="0"
     inkscape:pageshadow="2"
     inkscape:window-width="1600"
     inkscape:window-height="837"
     id="namedview111"
     showgrid="false"
     fit-margin-top="0"
     fit-margin-left="0"
     fit-margin-right="0"
     fit-margin-bottom="0"
     inkscape:zoom="0.30231408"
     inkscape:cx="361.09716"
     inkscape:cy="332.51329"
     inkscape:window-x="-8"
     inkscape:window-y="-8"
     inkscape:window-maximized="1"
     inkscape:current-layer="ea878d0f-c60d-4637-874b-f3bcf7dfa137" />
  <title
     id="title2">annotation</title>
  <g
     transform="matrix(0.74688129,0,0,0.74688129,-29.47601,-77.283428)"
     id="g192"
     style="stroke-width:1.3389008">
    <circle
       style="fill:#f2f2f2;stroke-width:1.3389008"
       id="circle4"
       r="253.99989"
       cy="367.99942"
       cx="852.80585" />
    <ellipse
       style="fill:#3f3d56;stroke-width:1.3389008"
       id="ellipse14"
       ry="16.5"
       rx="279"
       cy="624.5"
       cx="842.80597" />
    <ellipse
       style="opacity:0.1;stroke-width:1.3389008"
       id="ellipse16"
       ry="11.37931"
       rx="209"
       cy="625.06897"
       cx="786.80597" />
    <ellipse
       style="fill:#3f3d56;stroke-width:1.3389008"
       id="ellipse22"
       ry="8.0818005"
       rx="159.8791"
       cy="691"
       cx="952.92688" />
    <rect
       style="fill:#3f3d56;stroke-width:1.3389008"
       id="rect24"
       height="190"
       width="320"
       y="433"
       x="615.80597" />
    <circle
       style="fill:#6c63ff;stroke-width:1.3389008"
       id="circle26"
       r="72"
       cy="530"
       cx="718.80597" />
    <rect
       style="fill:#6c63ff;stroke-width:1.3389008"
       id="rect28"
       height="24"
       width="24"
       y="463"
       x="812.80597" />
    <rect
       style="opacity:0.5;fill:#6c63ff;stroke-width:1.3389008"
       id="rect30"
       height="24"
       width="24"
       y="463"
       x="842.80597" />
    <rect
       style="opacity:0.2;fill:#6c63ff;stroke-width:1.3389008"
       id="rect32"
       height="24"
       width="24"
       y="463"
       x="872.80597" />
    <rect
       style="fill:#2f2e41;stroke-width:1.3389008"
       id="rect34"
       height="24"
       width="24"
       y="493"
       x="812.80597" />
    <rect
       style="opacity:0.5;fill:#2f2e41;stroke-width:1.3389008"
       id="rect36"
       height="24"
       width="24"
       y="493"
       x="842.80597" />
    <rect
       style="opacity:0.2;fill:#2f2e41;stroke-width:1.3389008"
       id="rect38"
       height="24"
       width="24"
       y="493"
       x="872.80597" />
    <rect
       style="fill:#ff6584;stroke-width:1.3389008"
       id="rect40"
       height="24"
       width="24"
       y="523"
       x="812.80597" />
    <rect
       style="opacity:0.5;fill:#ff6584;stroke-width:1.3389008"
       id="rect42"
       height="24"
       width="24"
       y="523"
       x="842.80597" />
    <rect
       style="opacity:0.2;fill:#ff6584;stroke-width:1.3389008"
       id="rect44"
       height="24"
       width="24"
       y="523"
       x="872.80597" />
    <path
       style="opacity:0.5;fill:#3f3d56;stroke-width:1.3389008"
       inkscape:connector-curvature="0"
       id="path46-7"
       transform="translate(-39.09703,-100.4591)"
       d="m 757.903,558.4591 v 144 c 39.76453,0 74,-32.23553 74,-72 0,-39.76447 -34.2355,-72 -74,-72 z" />
    <path
       style="fill:#ffb9b9;stroke-width:1.3389008"
       inkscape:connector-curvature="0"
       id="path48-7"
       transform="translate(-39.09703,-100.4591)"
       d="m 1043.403,546.9591 c 0,0 42,19 27,41 -15,22 -60,64 -61,73 -1,9 -7,17 -7,17 0,0 -20,-21 -18,-23 2,-2 22,-21 23,-26 1,-5 31,-44 31,-44 l -27,-24 z" />
    <path
       style="opacity:0.1;stroke-width:1.3389008"
       inkscape:connector-curvature="0"
       id="path50-2"
       transform="translate(-39.09703,-100.4591)"
       d="m 1043.403,546.9591 c 0,0 42,19 27,41 -15,22 -60,64 -61,73 -1,9 -7,17 -7,17 0,0 -20,-21 -18,-23 2,-2 22,-21 23,-26 1,-5 31,-44 31,-44 l -27,-24 z" />
    <path
       style="fill:#ffb9b9;stroke-width:1.3389008"
       inkscape:connector-curvature="0"
       id="path52-0"
       transform="translate(-39.09703,-100.4591)"
       d="m 990.403,588.9591 c 0,0 29,12 27,31 -2,19 35,73 35,73 0,0 4,13 3,17 -1,4 26,3 26,3 v -9 c 0,0 -21,-36 -23,-46 -2,-10 -14,-49 -14,-49 0,0 -4,-35 -24,-35 a 37.5,37.5 0 0 0 -30,15 z" />
    <path
       style="fill:#2f2e41;stroke-width:1.3389008"
       inkscape:connector-curvature="0"
       id="path54-9"
       transform="translate(-39.09703,-100.4591)"
       d="m 991.903,498.4591 c 0,0 60,49 58,53 -2,4 -31,19 -36,20 -5,1 -40.37795,-73 -40.37795,-73 z" />
    <path
       style="opacity:0.1;stroke-width:1.3389008"
       inkscape:connector-curvature="0"
       id="path56-1"
       transform="translate(-39.09703,-100.4591)"
       d="m 991.903,498.4591 c 0,0 60,49 58,53 -2,4 -31,19 -36,20 -5,1 -40.37795,-73 -40.37795,-73 z" />
    <path
       style="fill:#2f2e41;stroke-width:1.3389008"
       inkscape:connector-curvature="0"
       id="path58-4"
       transform="translate(-39.09703,-100.4591)"
       d="m 926.903,508.4591 c 0,0 -6,27 10,38 16,11 43,54 46,54 3,0 46,-23 44,-27 -2,-4 -24,-39 -24,-39 l -7,-37 c 0,0 -61,-2 -69,11 z" />
    <path
       style="fill:#ffb9b9;stroke-width:1.3389008"
       inkscape:connector-curvature="0"
       id="path60-5"
       transform="translate(-39.09703,-100.4591)"
       d="m 991.903,420.4591 9,58 16,41 c 0,0 24,25 10,27 -14,2 -22,-27 -22,-27 l -13,-24 z" />
    <path
       style="opacity:0.1;stroke-width:1.3389008"
       inkscape:connector-curvature="0"
       id="path62-0"
       transform="translate(-39.09703,-100.4591)"
       d="m 991.903,420.4591 9,58 16,41 c 0,0 24,25 10,27 -14,2 -22,-27 -22,-27 l -13,-24 z" />
    <path
       style="fill:#ffb9b9;stroke-width:1.3389008"
       inkscape:connector-curvature="0"
       id="path64-2"
       transform="translate(-39.09703,-100.4591)"
       d="m 958.403,355.9591 c 0,0 0,21 -7,23 -7,2 28,29 28,29 0,0 -4,-35 10,-44 z" />
    <path
       style="opacity:0.1;stroke-width:1.3389008"
       inkscape:connector-curvature="0"
       id="path66-9"
       transform="translate(-39.09703,-100.4591)"
       d="m 958.403,355.9591 c 0,0 0,21 -7,23 -7,2 28,29 28,29 0,0 -4,-35 10,-44 z" />
    <circle
       style="fill:#ffb9b9;stroke-width:1.3389008"
       id="circle68"
       r="23"
       cy="249.5"
       cx="935.30597" />
    <path
       style="fill:#6c63ff;stroke-width:1.3389008"
       inkscape:connector-curvature="0"
       id="path70"
       transform="translate(-39.09703,-100.4591)"
       d="m 975.403,397.9591 c 0,0 -21,-26 -24,-25 -3,1 -25,23 -27,30 -2,7 -6,57 -3,67 3,10 3,36 2,38 -1,2 -7,7 -1,7 6,0 27,-15 41,-12 14,3 33,-1 34,-3 1,-2 -1,-54 0,-58 1,-4 -2,-24 -3,-28 -1,-4 -1,-20 -11,-24 l -4.264,-0.42136 -0.23882,9.89157 z" />
    <path
       style="fill:#ffb9b9;stroke-width:1.3389008"
       inkscape:connector-curvature="0"
       id="path72-5"
       transform="translate(-39.09703,-100.4591)"
       d="m 931.403,449.9591 c 0,0 2,31 17,44 15,13 47,35 49,39 2,4 21,25 25,16 a 14.96181,14.96181 0 0 0 0.8019,-8.86675 22.05314,22.05314 0 0 0 -9.9034,-14.41279 l -8.8985,-5.72046 -44,-46 -2,-24 z" />
    <path
       style="fill:#2f2e41;stroke-width:1.3389008"
       inkscape:connector-curvature="0"
       id="path74"
       transform="translate(-39.09703,-100.4591)"
       d="m 988.903,651.4591 c 0,0 -11.5,-2.5 -15.5,4.5 -4,7 4,26 4,26 0,0 23,48 27,42 4,-6 -3,-28 -3,-28 0,0 10,-22 6,-23 -4,-1 -18.5,-9.5 -18.5,-21.5 z" />
    <path
       style="fill:#2f2e41;stroke-width:1.3389008"
       inkscape:connector-curvature="0"
       id="path76-0"
       transform="translate(-39.09703,-100.4591)"
       d="m 1059.403,708.9591 c 0,0 -6,-3 -7,0 -1,3 -7,18 0,20 7,2 76,4 74,0 -2,-4 -13,-9 -20,-11 -7,-2 -25,-17 -25,-17 0,0 -10,13 -22,8 z" />
    <path
       style="fill:#2f2e41;stroke-width:1.3389008"
       inkscape:connector-curvature="0"
       id="path78"
       transform="translate(-39.09703,-100.4591)"
       d="m 997.57221,331.70484 a 6.15938,6.15938 0 0 0 -2.67142,-3.48695 14.13565,14.13565 0 0 0 -0.564,-4.60169 c -1.46952,-4.34444 -4.95079,-4.09542 -8.23546,-6.01618 -1.42509,-0.83335 -1.33707,-1.56988 -2.07894,-2.93864 a 10.90653,10.90653 0 0 0 -4.20254,-4.28786 c -2.10732,-1.34264 -4.3318,-2.72537 -6.82474,-2.8953 -5.239,-0.35709 -9.25573,4.57054 -14.263,6.152 -2.2071,0.697 -4.57869,0.72578 -6.79744,1.38476 -2.21875,0.65898 -4.43236,2.23247 -4.763,4.52325 -0.15265,1.05758 0.11666,2.14252 -0.0382,3.19981 -0.30781,2.10139 -2.15145,3.57314 -3.38563,5.30155 -2.72923,3.82216 -2.41707,9.22181 -0.23451,13.38047 a 18.80958,18.80958 0 0 0 1.57379,2.46278 15.14954,15.14954 0 0 0 1.66167,5.62586 c 2.18256,4.15865 5.93822,7.26624 9.86148,9.84805 a 23.277,23.277 0 0 1 -0.58191,-4.19944 2.89682,2.89682 0 0 1 0.17857,-1.39142 c 0.43691,-0.91332 1.59141,-1.15622 2.47166,-1.65643 1.8232,-1.03606 2.53817,-3.32891 2.59089,-5.42527 0.0527,-2.09636 -0.39154,-4.19618 -0.1719,-6.28163 a 3.43233,3.43233 0 0 1 1.175,-2.52484 4.05855,4.05855 0 0 1 2.21524,-0.52815 c 3.73556,-0.1524 7.63864,-0.221 10.93363,-1.98755 a 16.20347,16.20347 0 0 1 3.40312,-1.7215 c 2.80021,-0.73022 5.66219,1.23245 7.276,3.63455 1.61381,2.4021 2.41844,5.26063 3.90742,7.74207 1.48898,2.48144 4.0613,4.69432 6.94016,4.40032 a 1.15205,1.15205 0 0 0 0.85976,-0.38231 1.28879,1.28879 0 0 0 0.15838,-0.73249 l 0.16085,-11.00458 a 16.63363,16.63363 0 0 0 -0.55496,-5.59324 z" />
    <path
       style="fill:#6c63ff;stroke-width:1.3389008"
       inkscape:connector-curvature="0"
       id="path80"
       transform="translate(-39.09703,-100.4591)"
       d="m 940.403,398.9591 c 0,0 22,10 21,31 -1,21 6,23 -11,25 -17,2 -21,0 -22,2 -1,2 -7,-46 -3,-51 4,-5 15,-7 15,-7 z" />
    <path
       style="fill:#6c63ff;stroke-width:1.3389008"
       inkscape:connector-curvature="0"
       id="path142-8"
       transform="translate(-39.09703,-100.4591)"
       d="m 1028.903,769.39173 c 0,20.35636 -12.0999,27.46356 -27.0282,27.46356 -0.3458,0 -0.6916,-0.005 -1.0349,-0.0125 -0.6915,-0.0149 -1.37813,-0.0473 -2.05476,-0.0945 -13.47306,-0.95277 -23.93856,-8.42565 -23.93856,-27.35659 0,-19.58768 25.03064,-44.30737 26.91622,-46.14076 v -0.002 c 0.072,-0.0721 0.1095,-0.107 0.1095,-0.107 0,0 27.0282,25.89637 27.0282,46.25025 z" />
    <path
       style="fill:#3f3d56;stroke-width:1.3389008"
       inkscape:connector-curvature="0"
       id="path144-8"
       transform="translate(-39.09703,-100.4591)"
       d="m 1000.8897,793.74075 9.8858,-13.81138 -9.9107,15.32884 -0.025,1.58462 c -0.6916,-0.0149 -1.37816,-0.0473 -2.05479,-0.0945 l 1.0647,-20.36384 -0.007,-0.1592 0.0174,-0.0274 0.102,-1.92543 -9.93562,-15.36616 9.96547,13.92333 0.0249,0.408 0.8035,-15.38607 -8.50604,-15.8786 8.61054,13.17952 0.8383,-31.90151 v -0.10945 0.107 l -0.1393,25.155 8.4679,-9.97295 -8.5027,12.1397 -0.2239,13.77655 7.9082,-13.22182 -7.9405,15.24924 -0.1244,7.65945 11.4755,-18.40357 -11.5203,21.0753 z" />
  </g>
</svg>
