<?xml version="1.0" encoding="UTF-8" standalone="no"?>
<svg
   xmlns:dc="http://purl.org/dc/elements/1.1/"
   xmlns:cc="http://creativecommons.org/ns#"
   xmlns:rdf="http://www.w3.org/1999/02/22-rdf-syntax-ns#"
   xmlns:svg="http://www.w3.org/2000/svg"
   xmlns="http://www.w3.org/2000/svg"
   xmlns:xlink="http://www.w3.org/1999/xlink"
   xmlns:sodipodi="http://sodipodi.sourceforge.net/DTD/sodipodi-0.dtd"
   xmlns:inkscape="http://www.inkscape.org/namespaces/inkscape"
   id="ea878d0f-c60d-4637-874b-f3bcf7dfa137"
   data-name="Layer 1"
   width="1200"
   height="452.70837"
   viewBox="0 0 1200 452.70835"
   version="1.1"
   sodipodi:docname="img4.svg"
   inkscape:version="0.92.4 (5da689c313, 2019-01-14)">
  <metadata
     id="metadata115">
    <rdf:RDF>
      <cc:Work
         rdf:about="">
        <dc:format>image/svg+xml</dc:format>
        <dc:type
           rdf:resource="http://purl.org/dc/dcmitype/StillImage" />
        <dc:title>annotation</dc:title>
      </cc:Work>
    </rdf:RDF>
  </metadata>
  <defs
     id="defs113">
    <linearGradient
       id="bb74ba87-0e24-4c9d-a373-e17481b146a7"
       x1="345.70001"
       y1="823.95001"
       x2="345.70001"
       y2="606.19"
       gradientTransform="translate(636.4)"
       gradientUnits="userSpaceOnUse">
      <stop
         offset="0"
         stop-color="gray"
         stop-opacity="0.25"
         id="stop2" />
      <stop
         offset="0.54"
         stop-color="gray"
         stop-opacity="0.12"
         id="stop4" />
      <stop
         offset="1"
         stop-color="gray"
         stop-opacity="0.1"
         id="stop6" />
    </linearGradient>
    <linearGradient
       id="9ace95f1-7a40-47d7-848c-20f8f7c52f52"
       x1="-254.27"
       y1="469.69"
       x2="-254.27"
       y2="232.12"
       gradientTransform="rotate(-2.2,1080.6588,-27397.33)"
       xlink:href="#bb74ba87-0e24-4c9d-a373-e17481b146a7" />
    <linearGradient
       id="9ace95f1-7a40-47d7-848c-20f8f7c52f52-7"
       x1="-254.27"
       y1="469.69"
       x2="-254.27"
       y2="232.12"
       gradientTransform="matrix(0.79189853,-0.03042168,0.03042168,0.79189853,808.63577,-0.19812)"
       xlink:href="#bb74ba87-0e24-4c9d-a373-e17481b146a7" />
  </defs>
  <sodipodi:namedview
     pagecolor="#ffffff"
     bordercolor="#666666"
     borderopacity="1"
     objecttolerance="10"
     gridtolerance="10"
     guidetolerance="10"
     inkscape:pageopacity="0"
     inkscape:pageshadow="2"
     inkscape:window-width="1440"
     inkscape:window-height="837"
     id="namedview111"
     showgrid="false"
     fit-margin-top="0"
     fit-margin-left="0"
     fit-margin-right="0"
     fit-margin-bottom="0"
     inkscape:zoom="0.85507334"
     inkscape:cx="394.60045"
     inkscape:cy="332.51329"
     inkscape:window-x="-8"
     inkscape:window-y="-8"
     inkscape:window-maximized="1"
     inkscape:current-layer="ea878d0f-c60d-4637-874b-f3bcf7dfa137" />
  <title
     id="title2">annotation</title>
  <circle
     cx="488.61072"
     cy="79.100609"
     r="71.239922"
     id="circle6"
     style="fill:#167af0;fill-opacity:1;stroke-width:1" />
  <circle
     cx="616.40179"
     cy="203.95358"
     r="186.54564"
     id="circle8"
     style="fill:#14b8f5;stroke-width:1;fill-opacity:0.09803922" />
  <ellipse
     cx="607.58868"
     cy="389.76529"
     rx="204.90651"
     ry="11.016479"
     id="ellipse10"
     style="fill:#3f3d56;stroke-width:1" />
  <ellipse
     cx="566.46051"
     cy="390.14514"
     rx="153.49628"
     ry="7.5975733"
     id="ellipse12"
     style="opacity:0.1;stroke-width:1" />
  <ellipse
     cx="681.83759"
     cy="438.23779"
     rx="130.76082"
     ry="6.6098876"
     id="ellipse18"
     style="fill:#3f3d56;stroke-width:1" />
  <ellipse
     cx="450.49149"
     cy="416.20483"
     rx="63.089882"
     ry="3.1891606"
     id="ellipse20"
     style="fill:#3f3d56;stroke-width:1" />
  <circle
     cx="724.36334"
     cy="79.100586"
     r="23.501822"
     id="circle82"
     style="fill:#2f2e41;stroke-width:1" />
  <path
     d="m 740.15365,336.51898 -13.21978,35.98716 c 0,0 -11.01648,8.81318 -4.40659,11.75091 6.60989,2.93773 19.82966,-2.93773 19.82966,-2.93773 l 10.28205,-26.43955 -1.46886,-18.36079 z"
     id="path84"
     inkscape:connector-curvature="0"
     style="fill:#2f2e41;stroke-width:1" />
  <path
     d="m 740.15365,336.51898 -13.21978,35.98716 c 0,0 -11.01648,8.81318 -4.40659,11.75091 6.60989,2.93773 19.82966,-2.93773 19.82966,-2.93773 l 10.28205,-26.43955 -1.46886,-18.36079 z"
     id="path86"
     inkscape:connector-curvature="0"
     style="opacity:0.1;stroke-width:1" />
  <path
     d="m 741.2553,123.1665 11.01647,1.46886 c 0,0 5.14103,40.39376 2.93773,43.33149 -2.20329,2.93773 -13.21977,14.68864 -17.62636,11.75091 -4.4066,-2.93773 3.67216,-56.55126 3.67216,-56.55126 z"
     id="path88"
     inkscape:connector-curvature="0"
     style="fill:#4776b4;stroke-width:1;fill-opacity:1" />
  <path
     d="m 635.86431,196.97691 c 0,0 -15.42307,6.60989 -18.36079,7.34432 -2.93773,0.73443 -7.34432,8.07875 -2.2033,9.54761 5.14102,1.46887 24.97069,-13.21977 24.97069,-13.21977 z"
     id="path90"
     inkscape:connector-curvature="0"
     style="fill:#a0616a;stroke-width:1" />
  <path
     d="m 745.29467,351.20761 8.07875,30.11171 c 0,0 0.73443,11.01648 4.40659,11.75091 3.67216,0.73444 14.68864,-3.67215 14.68864,-5.14102 0,-1.46886 -4.40659,-13.21977 -4.40659,-13.21977 0,0 0,-8.81319 -4.40659,-12.48535 -4.40659,-3.67216 -8.37657,-15.97359 -8.37657,-15.97359 z"
     id="path92"
     inkscape:connector-curvature="0"
     style="fill:#2f2e41;stroke-width:1" />
  <path
     d="m 755.57672,282.17101 c 1.48355,3.45918 1.29994,28.55472 -0.32311,45.2557 -0.78589,8.11547 -1.90959,14.24798 -3.34905,14.96772 l -10.52446,-2.62926 -4.16418,-1.0429 -0.11016,-9.13633 -0.62427,-50.35265 -12.48534,-52.14467 v -13.21978 l 31.58057,2.93773 5.00888,7.86577 0.13214,0.21298 c 0,0 -7.34432,52.14467 -5.14102,57.28569 z"
     id="path94"
     inkscape:connector-curvature="0"
     style="fill:#2f2e41;stroke-width:1" />
  <path
     d="m 748.96683,298.32852 c 1.57169,2.35752 4.19361,16.4733 6.28678,29.09819 -0.78589,8.11547 -1.90959,14.24798 -3.34905,14.96772 l -10.52446,-2.62926 c -0.16158,-0.33784 -0.32311,-0.69037 -0.49202,-1.0429 -1.34406,-2.82022 -2.60723,-5.93421 -3.78232,-9.13633 l -0.62427,-50.35265 -12.48534,-52.14467 v -13.21978 l 31.58057,2.93773 5.00888,7.86577 -29.24514,-1.99031 6.60989,28.64284 8.07875,30.11171 c 0,0 0,12.48534 2.93773,16.89194 z"
     id="path96"
     inkscape:connector-curvature="0"
     style="opacity:0.1;stroke-width:1" />
  <path
     d="m 696.82216,184.49157 c 0,0 -10.28204,22.76739 4.4066,54.34796 a 641.95903,641.95903 0 0 1 24.23625,60.22342 c 0,0 5.14102,24.23625 12.48534,39.65932 7.34432,15.42307 5.87546,16.1575 5.87546,16.1575 l 11.75091,-6.60988 c 0,0 -6.60989,-45.53478 -9.54762,-49.94137 -2.93772,-4.4066 -2.93772,-16.89194 -2.93772,-16.89194 l -8.07876,-30.11171 -6.60988,-28.64284 32.315,2.20329 c 0,0 0,-41.86262 -14.68864,-49.94137 z"
     id="path98"
     inkscape:connector-curvature="0"
     style="fill:#2f2e41;stroke-width:1" />
  <path
     d="m 708.94029,90.117064 c 0,0 0,11.750906 -3.67216,12.485346 -3.67216,0.73443 -11.01648,0.73443 -13.21977,4.40659 -2.2033,3.67216 16.89193,52.14467 16.89193,52.14467 l 19.82966,-12.48535 6.60989,-33.04943 c 0,0 -9.54761,-5.87546 -9.54761,-8.81319 V 91.585928 Z"
     id="path100"
     inkscape:connector-curvature="0"
     style="fill:#a0616a;stroke-width:1" />
  <path
     d="m 708.94029,90.117064 c 0,0 0,11.750906 -3.67216,12.485346 -3.67216,0.73443 -11.01648,0.73443 -13.21977,4.40659 -2.2033,3.67216 16.89193,52.14467 16.89193,52.14467 l 19.82966,-12.48535 6.60989,-33.04943 c 0,0 -9.54761,-5.87546 -9.54761,-8.81319 V 91.585928 Z"
     id="path102"
     inkscape:connector-curvature="0"
     style="opacity:0.1;stroke-width:1" />
  <circle
     cx="720.32397"
     cy="85.343254"
     r="17.626366"
     id="circle104"
     style="fill:#a0616a;stroke-width:1" />
  <path
     d="m 711.14359,144.46503 c 0,0 -6.60989,-41.86262 -8.07875,-41.86262 -1.46887,0 -22.03296,4.40659 -23.50183,5.14102 -1.46886,0.73443 -6.60988,7.34432 -6.60988,7.34432 l 10.28204,29.37728 c 0,0 4.40659,20.56409 7.34432,24.23625 2.93773,3.67216 8.81319,13.95421 5.87546,15.42307 -2.93773,1.46886 -5.87546,3.67216 -2.93773,3.67216 2.93773,0 27.17398,-4.40659 28.64285,-2.2033 1.46886,2.2033 25.70511,-8.07875 25.70511,-8.81318 0,-0.73443 -2.93772,-35.25273 -2.93772,-35.25273 l 7.34431,-16.89194 -22.03295,-15.42307 z"
     id="path106"
     inkscape:connector-curvature="0"
     style="fill:#4776b4;stroke-width:1;fill-opacity:1" />
  <path
     d="m 680.29745,111.41559 -7.34432,3.67216 c 0,0 -20.5641,47.00364 -22.03296,47.73807 -1.46887,0.73444 -8.81318,14.68864 -9.54762,17.62637 -0.73443,2.93773 -2.20329,12.48534 -4.40659,13.95421 a 38.155942,38.155942 0 0 1 -3.67216,2.20329 c 0,0 4.40659,7.34432 6.60989,7.34432 2.2033,0 9.54761,-10.28204 9.54761,-10.28204 0,0 16.15751,10.28204 20.5641,2.20329 4.40659,-8.07875 15.42307,-59.48898 15.42307,-59.48898 z"
     id="path108"
     inkscape:connector-curvature="0"
     style="fill:#4776b4;stroke-width:1;fill-opacity:1" />
  <path
     d="m 737.95035,133.81576 c 0,0 -10.28205,-24.97068 -16.1575,-22.03295 -5.87546,2.93772 4.40659,20.56409 11.01648,23.50182 z"
     id="path110"
     inkscape:connector-curvature="0"
     style="fill:#a0616a;stroke-width:1" />
  <path
     d="m 727.6683,134.5502 10.30446,-2.32943 2.18089,11.14261 c 0,0 9.54761,16.89193 7.34432,24.23625 -2.2033,7.34432 -15.42307,19.09523 -19.82967,12.48535 -4.40659,-6.60989 -8.07875,-16.89194 -5.14102,-22.76739 2.93773,-5.87546 7.34432,-19.82967 5.14102,-22.76739 z"
     id="path112"
     inkscape:connector-curvature="0"
     style="opacity:0.1;stroke-width:1" />
  <path
     d="m 729.8716,133.08133 10.30446,-2.32943 2.18088,11.14261 c 0,0 9.54762,16.89194 7.34432,24.23626 -2.20329,7.34432 -15.42307,19.09523 -19.82966,12.48534 -4.40659,-6.60989 -8.07875,-16.89193 -5.14102,-22.76739 2.93772,-5.87545 7.34432,-19.82966 5.14102,-22.76739 z"
     id="path114"
     inkscape:connector-curvature="0"
     style="fill:#4776b4;stroke-width:1;fill-opacity:1" />
  <ellipse
     cx="240.29369"
     cy="688.14984"
     rx="8.4459667"
     ry="17.626366"
     transform="rotate(-64.8987)"
     id="ellipse116"
     style="fill:#2f2e41;stroke-width:1" />
  <circle
     cx="738.31757"
     cy="59.270924"
     r="10.282047"
     id="circle118"
     style="fill:#2f2e41;stroke-width:1" />
  <path
     d="m 728.76995,55.598763 a 10.281834,10.281834 0 0 1 9.1804,-10.221265 10.282047,10.282047 0 1 0 0,20.442531 10.281834,10.281834 0 0 1 -9.1804,-10.221266 z"
     id="path120"
     inkscape:connector-curvature="0"
     style="fill:#2f2e41;stroke-width:1" />
  <rect
     x="434.99716"
     y="211.29834"
     width="257.05118"
     height="178.46696"
     id="rect122"
     style="fill:#3f3d56;stroke-width:1" />
  <rect
     x="455.56125"
     y="228.9247"
     width="33.783867"
     height="33.783867"
     id="rect124"
     style="fill:#f2f2f2;stroke-width:1" />
  <rect
     x="455.56125"
     y="284.00708"
     width="33.783867"
     height="33.783867"
     id="rect126"
     style="fill:#1652f0;stroke-width:1;fill-opacity:1" />
  <rect
     x="455.56125"
     y="339.08948"
     width="33.783867"
     height="33.783867"
     id="rect128"
     style="fill:#f2f2f2;stroke-width:1" />
  <rect
     x="505.50262"
     y="239.57396"
     width="160.84059"
     height="2.9377277"
     id="rect130"
     style="fill:#f2f2f2;stroke-width:1" />
  <rect
     x="505.50262"
     y="249.12158"
     width="49.941372"
     height="2.9377277"
     id="rect132"
     style="fill:#f2f2f2;stroke-width:1" />
  <rect
     x="505.50262"
     y="294.65634"
     width="160.84059"
     height="2.9377277"
     id="rect134"
     style="fill:#f2f2f2;stroke-width:1" />
  <rect
     x="505.50262"
     y="304.20398"
     width="49.941372"
     height="2.9377277"
     id="rect136"
     style="fill:#f2f2f2;stroke-width:1" />
  <rect
     x="505.50262"
     y="349.73874"
     width="160.84059"
     height="2.9377277"
     id="rect138"
     style="fill:#f2f2f2;stroke-width:1" />
  <rect
     x="505.50262"
     y="359.28638"
     width="49.941372"
     height="2.9377277"
     id="rect140"
     style="fill:#f2f2f2;stroke-width:1" />
  <path
     d="m 470.24991,397.06013 c 0,14.95036 -8.88653,20.17012 -19.85038,20.17012 -0.25396,0 -0.5079,-0.004 -0.76003,-0.009 -0.50791,-0.0109 -1.01217,-0.0347 -1.5091,-0.0694 -9.89505,-0.69974 -17.58125,-6.18806 -17.58125,-20.09155 0,-14.38582 18.3833,-32.54075 19.76816,-33.88725 l 10e-4,-10e-4 c 0.053,-0.0529 0.0804,-0.0786 0.0804,-0.0786 0,0 19.85038,19.01912 19.85038,33.96766 z"
     id="path146"
     inkscape:connector-curvature="0"
     style="fill:#1652f0;stroke-width:1;fill-opacity:1" />
  <path
     d="m 449.67602,414.94283 7.26051,-10.14352 -7.27879,11.25799 -0.0183,1.1638 c -0.50791,-0.0109 -1.01216,-0.0347 -1.5091,-0.0694 l 0.78195,-14.95585 -0.005,-0.11692 0.0128,-0.0201 0.0749,-1.41409 -7.29704,-11.2854 7.31896,10.22574 0.0183,0.29964 0.59012,-11.30002 -6.24652,-11.66175 6.32325,9.67946 0.6157,-23.42949 10e-4,-0.0804 v 0.0786 l -0.10231,18.47463 6.21913,-7.32445 -6.24471,8.91578 -0.16443,10.11794 5.80804,-9.71053 -5.83179,11.19953 -0.0914,5.62535 8.42797,-13.51617 -8.46085,15.47837 z"
     id="path148"
     inkscape:connector-curvature="0"
     style="fill:#3f3d56;stroke-width:1" />
</svg>
