<?xml version="1.0" encoding="UTF-8" standalone="no"?>
<svg
   xmlns:dc="http://purl.org/dc/elements/1.1/"
   xmlns:cc="http://creativecommons.org/ns#"
   xmlns:rdf="http://www.w3.org/1999/02/22-rdf-syntax-ns#"
   xmlns:svg="http://www.w3.org/2000/svg"
   xmlns="http://www.w3.org/2000/svg"
   xmlns:xlink="http://www.w3.org/1999/xlink"
   xmlns:sodipodi="http://sodipodi.sourceforge.net/DTD/sodipodi-0.dtd"
   xmlns:inkscape="http://www.inkscape.org/namespaces/inkscape"
   id="ea878d0f-c60d-4637-874b-f3bcf7dfa137"
   data-name="Layer 1"
   width="1200"
   height="452.70837"
   viewBox="0 0 1200 452.70835"
   version="1.1"
   sodipodi:docname="img4.svg"
   inkscape:version="0.92.4 (5da689c313, 2019-01-14)">
  <metadata
     id="metadata115">
    <rdf:RDF>
      <cc:Work
         rdf:about="">
        <dc:format>image/svg+xml</dc:format>
        <dc:type
           rdf:resource="http://purl.org/dc/dcmitype/StillImage" />
        <dc:title>annotation</dc:title>
      </cc:Work>
    </rdf:RDF>
  </metadata>
  <defs
     id="defs113">
    <linearGradient
       id="bb74ba87-0e24-4c9d-a373-e17481b146a7"
       x1="345.70001"
       y1="823.95001"
       x2="345.70001"
       y2="606.19"
       gradientTransform="translate(636.4)"
       gradientUnits="userSpaceOnUse">
      <stop
         offset="0"
         stop-color="gray"
         stop-opacity="0.25"
         id="stop2" />
      <stop
         offset="0.54"
         stop-color="gray"
         stop-opacity="0.12"
         id="stop4" />
      <stop
         offset="1"
         stop-color="gray"
         stop-opacity="0.1"
         id="stop6" />
    </linearGradient>
    <linearGradient
       id="9ace95f1-7a40-47d7-848c-20f8f7c52f52"
       x1="-254.27"
       y1="469.69"
       x2="-254.27"
       y2="232.12"
       gradientTransform="rotate(-2.2,1080.6588,-27397.33)"
       xlink:href="#bb74ba87-0e24-4c9d-a373-e17481b146a7" />
  </defs>
  <sodipodi:namedview
     pagecolor="#ffffff"
     bordercolor="#666666"
     borderopacity="1"
     objecttolerance="10"
     gridtolerance="10"
     guidetolerance="10"
     inkscape:pageopacity="0"
     inkscape:pageshadow="2"
     inkscape:window-width="1600"
     inkscape:window-height="837"
     id="namedview111"
     showgrid="false"
     fit-margin-top="0"
     fit-margin-left="0"
     fit-margin-right="0"
     fit-margin-bottom="0"
     inkscape:zoom="0.85507334"
     inkscape:cx="171.05498"
     inkscape:cy="332.51329"
     inkscape:window-x="-8"
     inkscape:window-y="-8"
     inkscape:window-maximized="1"
     inkscape:current-layer="ea878d0f-c60d-4637-874b-f3bcf7dfa137" />
  <title
     id="title2">annotation</title>
  <g
     id="g276"
     transform="matrix(0.73443193,0,0,0.73443193,387.40161,7.8606878)"
     style="stroke-width:1.36159658">
    <circle
       style="fill:#1652f0;stroke-width:1.36159658;fill-opacity:1"
       id="circle6"
       r="97.000031"
       cy="97.000031"
       cx="137.80597" />
    <circle
       style="fill:#f2f2f2;stroke-width:1.36159658"
       id="circle8"
       r="253.99989"
       cy="266.99942"
       cx="311.80585" />
    <ellipse
       style="fill:#3f3d56;stroke-width:1.36159658"
       id="ellipse10"
       ry="15"
       rx="279"
       cy="520"
       cx="299.80594" />
    <ellipse
       style="opacity:0.1;stroke-width:1.36159658"
       id="ellipse12"
       ry="10.34483"
       rx="209"
       cy="520.51721"
       cx="243.80595" />
    <ellipse
       style="fill:#3f3d56;stroke-width:1.36159658"
       id="ellipse18"
       ry="9"
       rx="178.04349"
       cy="586"
       cx="400.90298" />
    <ellipse
       style="fill:#3f3d56;stroke-width:1.36159658"
       id="ellipse20"
       ry="4.34235"
       rx="85.902969"
       cy="556"
       cx="85.902969" />
    <circle
       style="fill:#2f2e41;stroke-width:1.36159658"
       id="circle82"
       r="32"
       cy="97"
       cx="458.80594" />
    <path
       style="fill:#2f2e41;stroke-width:1.36159658"
       inkscape:connector-curvature="0"
       id="path84"
       transform="translate(-39.09703,-100.4591)"
       d="m 519.403,547.9591 -18,49 c 0,0 -15,12 -6,16 9,4 27,-4 27,-4 l 14,-36 -2,-25 z" />
    <path
       style="opacity:0.1;stroke-width:1.36159658"
       inkscape:connector-curvature="0"
       id="path86"
       transform="translate(-39.09703,-100.4591)"
       d="m 519.403,547.9591 -18,49 c 0,0 -15,12 -6,16 9,4 27,-4 27,-4 l 14,-36 -2,-25 z" />
    <path
       style="fill:#575a89;stroke-width:1.36159658"
       inkscape:connector-curvature="0"
       id="path88"
       transform="translate(-39.09703,-100.4591)"
       d="m 520.903,257.4591 15,2 c 0,0 7,55 4,59 -3,4 -18,20 -24,16 -6,-4 5,-77 5,-77 z" />
    <path
       style="fill:#a0616a;stroke-width:1.36159658"
       inkscape:connector-curvature="0"
       id="path90"
       transform="translate(-39.09703,-100.4591)"
       d="m 377.403,357.9591 c 0,0 -21,9 -25,10 -4,1 -10,11 -3,13 7,2 34,-18 34,-18 z" />
    <path
       style="fill:#2f2e41;stroke-width:1.36159658"
       inkscape:connector-curvature="0"
       id="path92"
       transform="translate(-39.09703,-100.4591)"
       d="m 526.403,567.9591 11,41 c 0,0 1,15 6,16 5,1 20,-5 20,-7 0,-2 -6,-18 -6,-18 0,0 0,-12 -6,-17 -6,-5 -11.40551,-21.74959 -11.40551,-21.74959 z" />
    <path
       style="fill:#2f2e41;stroke-width:1.36159658"
       inkscape:connector-curvature="0"
       id="path94"
       transform="translate(-39.09703,-100.4591)"
       d="m 540.403,473.9591 c 2.02,4.71 1.77,38.88 -0.43994,61.62 -1.07007,11.05 -2.60009,19.4 -4.56006,20.38 l -14.33007,-3.58 -5.66993,-1.42 -0.15,-12.44 -0.85,-68.56 -17,-71 v -18 l 43,4 6.82007,10.71 0.17993,0.29 c 0,0 -10,71 -7,78 z" />
    <path
       style="opacity:0.1;stroke-width:1.36159658"
       inkscape:connector-curvature="0"
       id="path96"
       transform="translate(-39.09703,-100.4591)"
       d="m 531.403,495.9591 c 2.14,3.21 5.71,22.43 8.56006,39.62 -1.07007,11.05 -2.60009,19.4 -4.56006,20.38 l -14.33007,-3.58 c -0.22,-0.46 -0.43994,-0.94 -0.66993,-1.42 -1.83007,-3.84 -3.55,-8.08 -5.15,-12.44 l -0.85,-68.56 -17,-71 v -18 l 43,4 6.82007,10.71 -39.82007,-2.71 9,39 11,41 c 0,0 0,17 4,23 z" />
    <path
       style="fill:#2f2e41;stroke-width:1.36159658"
       inkscape:connector-curvature="0"
       id="path98"
       transform="translate(-39.09703,-100.4591)"
       d="m 460.403,340.9591 c 0,0 -14,31 6,74 a 874.08921,874.08921 0 0 1 33,82 c 0,0 7,33 17,54 10,21 8,22 8,22 l 16,-9 c 0,0 -9,-62 -13,-68 -4,-6 -4,-23 -4,-23 l -11,-41 -9,-39 44,3 c 0,0 0,-57 -20,-68 z" />
    <path
       style="fill:#a0616a;stroke-width:1.36159658"
       inkscape:connector-curvature="0"
       id="path100"
       transform="translate(-39.09703,-100.4591)"
       d="m 476.903,212.4591 c 0,0 0,16 -5,17 -5,1 -15,1 -18,6 -3,5 23,71 23,71 l 27,-17 9,-45 c 0,0 -13,-8 -13,-12 v -18 z" />
    <path
       style="opacity:0.1;stroke-width:1.36159658"
       inkscape:connector-curvature="0"
       id="path102"
       transform="translate(-39.09703,-100.4591)"
       d="m 476.903,212.4591 c 0,0 0,16 -5,17 -5,1 -15,1 -18,6 -3,5 23,71 23,71 l 27,-17 9,-45 c 0,0 -13,-8 -13,-12 v -18 z" />
    <circle
       style="fill:#a0616a;stroke-width:1.36159658"
       id="circle104"
       r="24"
       cy="105.5"
       cx="453.30594" />
    <path
       style="fill:#575a89;stroke-width:1.36159658"
       inkscape:connector-curvature="0"
       id="path106"
       transform="translate(-39.09703,-100.4591)"
       d="m 479.903,286.4591 c 0,0 -9,-57 -11,-57 -2,0 -30,6 -32,7 -2,1 -9,10 -9,10 l 14,40 c 0,0 6,28 10,33 4,5 12,19 8,21 -4,2 -8,5 -4,5 4,0 37,-6 39,-3 2,3 35,-11 35,-12 0,-1 -4,-48 -4,-48 l 10,-23 -30,-21 z" />
    <path
       style="fill:#575a89;stroke-width:1.36159658"
       inkscape:connector-curvature="0"
       id="path108"
       transform="translate(-39.09703,-100.4591)"
       d="m 437.903,241.4591 -10,5 c 0,0 -28,64 -30,65 -2,1 -12,20 -13,24 -1,4 -3,17 -6,19 a 51.953,51.953 0 0 1 -5,3 c 0,0 6,10 9,10 3,0 13,-14 13,-14 0,0 22,14 28,3 6,-11 21,-81 21,-81 z" />
    <path
       style="fill:#a0616a;stroke-width:1.36159658"
       inkscape:connector-curvature="0"
       id="path110"
       transform="translate(-39.09703,-100.4591)"
       d="m 516.403,271.9591 c 0,0 -14,-34 -22,-30 -8,4 6,28 15,32 z" />
    <path
       style="opacity:0.1;stroke-width:1.36159658"
       inkscape:connector-curvature="0"
       id="path112"
       transform="translate(-39.09703,-100.4591)"
       d="m 502.403,272.9591 14.03051,-3.17174 2.96949,15.17174 c 0,0 13,23 10,33 -3,10 -21,26 -27,17 -6,-9 -11,-23 -7,-31 4,-8 10,-27 7,-31 z" />
    <path
       style="fill:#575a89;stroke-width:1.36159658"
       inkscape:connector-curvature="0"
       id="path114"
       transform="translate(-39.09703,-100.4591)"
       d="m 505.403,270.9591 14.03051,-3.17174 2.96949,15.17174 c 0,0 13,23 10,33 -3,10 -21,26 -27,17 -6,-9 -11,-23 -7,-31 4,-8 10,-27 7,-31 z" />
    <ellipse
       style="fill:#2f2e41;stroke-width:1.36159658"
       id="ellipse116"
       transform="rotate(-64.8987,400.35582,171.47451)"
       ry="24"
       rx="11.5"
       cy="190.95911"
       cx="498.90298" />
    <circle
       style="fill:#2f2e41;stroke-width:1.36159658"
       id="circle118"
       r="14"
       cy="70"
       cx="477.80594" />
    <path
       style="fill:#2f2e41;stroke-width:1.36159658"
       inkscape:connector-curvature="0"
       id="path120"
       transform="translate(-39.09703,-100.4591)"
       d="m 503.903,165.4591 a 13.99971,13.99971 0 0 1 12.5,-13.91724 14,14 0 1 0 0,27.83448 13.99971,13.99971 0 0 1 -12.5,-13.91724 z" />
    <rect
       style="fill:#3f3d56;stroke-width:1.36159658"
       id="rect122"
       height="243"
       width="350"
       y="277"
       x="64.805946" />
    <rect
       style="fill:#f2f2f2;stroke-width:1.36159658"
       id="rect124"
       height="46"
       width="46"
       y="301"
       x="92.805946" />
    <rect
       style="fill:#6c63ff;stroke-width:1.36159658"
       id="rect126"
       height="46"
       width="46"
       y="376"
       x="92.805946" />
    <rect
       style="fill:#f2f2f2;stroke-width:1.36159658"
       id="rect128"
       height="46"
       width="46"
       y="451"
       x="92.805946" />
    <rect
       style="fill:#f2f2f2;stroke-width:1.36159658"
       id="rect130"
       height="4"
       width="219"
       y="315.5"
       x="160.80595" />
    <rect
       style="fill:#f2f2f2;stroke-width:1.36159658"
       id="rect132"
       height="4"
       width="68"
       y="328.5"
       x="160.80595" />
    <rect
       style="fill:#f2f2f2;stroke-width:1.36159658"
       id="rect134"
       height="4"
       width="219"
       y="390.5"
       x="160.80595" />
    <rect
       style="fill:#f2f2f2;stroke-width:1.36159658"
       id="rect136"
       height="4"
       width="68"
       y="403.5"
       x="160.80595" />
    <rect
       style="fill:#f2f2f2;stroke-width:1.36159658"
       id="rect138"
       height="4"
       width="219"
       y="465.5"
       x="160.80595" />
    <rect
       style="fill:#f2f2f2;stroke-width:1.36159658"
       id="rect140"
       height="4"
       width="68"
       y="478.5"
       x="160.80595" />
    <path
       style="fill:#6c63ff;stroke-width:1.36159658"
       inkscape:connector-curvature="0"
       id="path146"
       transform="translate(-39.09703,-100.4591)"
       d="m 151.903,630.39173 c 0,20.35636 -12.09988,27.46356 -27.02822,27.46356 -0.34578,0 -0.69155,-0.005 -1.03485,-0.0125 -0.69157,-0.0149 -1.37816,-0.0473 -2.05479,-0.0945 -13.47306,-0.95277 -23.93856,-8.42565 -23.93856,-27.35659 0,-19.58768 25.03064,-44.30737 26.91626,-46.14076 l 0.002,-0.002 c 0.0721,-0.0721 0.10945,-0.107 0.10945,-0.107 0,0 27.02822,25.89637 27.02822,46.25025 z" />
    <path
       style="fill:#3f3d56;stroke-width:1.36159658"
       inkscape:connector-curvature="0"
       id="path148"
       transform="translate(-39.09703,-100.4591)"
       d="m 123.88966,654.74075 9.88588,-13.81138 -9.91077,15.32884 -0.0249,1.58462 c -0.69157,-0.0149 -1.37816,-0.0473 -2.05479,-0.0945 l 1.0647,-20.36384 -0.007,-0.1592 0.0174,-0.0274 0.102,-1.92543 -9.93562,-15.36616 9.96547,13.92333 0.0249,0.408 0.80351,-15.38607 -8.50525,-15.8786 8.60972,13.17952 0.83834,-31.90151 0.002,-0.10945 v 0.107 l -0.13931,25.155 8.46794,-9.97295 -8.50277,12.1397 -0.22388,13.77655 7.9082,-13.22182 -7.94054,15.24924 -0.12438,7.65945 11.47549,-18.40357 -11.52027,21.0753 z" />
  </g>
</svg>
