<?xml version="1.0" encoding="UTF-8" standalone="no"?>
<svg
   xmlns:dc="http://purl.org/dc/elements/1.1/"
   xmlns:cc="http://creativecommons.org/ns#"
   xmlns:rdf="http://www.w3.org/1999/02/22-rdf-syntax-ns#"
   xmlns:svg="http://www.w3.org/2000/svg"
   xmlns="http://www.w3.org/2000/svg"
   xmlns:xlink="http://www.w3.org/1999/xlink"
   xmlns:sodipodi="http://sodipodi.sourceforge.net/DTD/sodipodi-0.dtd"
   xmlns:inkscape="http://www.inkscape.org/namespaces/inkscape"
   id="f241e7b9-92bc-4a39-8e1f-dd6f59c49ece"
   data-name="Layer 1"
   width="600"
   height="600"
   viewBox="0 0 600.00002 600.00003"
   version="1.1"
   sodipodi:docname="img5.svg"
   inkscape:version="0.92.4 (5da689c313, 2019-01-14)">
  <metadata
     id="metadata144">
    <rdf:RDF>
      <cc:Work
         rdf:about="">
        <dc:format>image/svg+xml</dc:format>
        <dc:type
           rdf:resource="http://purl.org/dc/dcmitype/StillImage" />
        <dc:title />
      </cc:Work>
    </rdf:RDF>
  </metadata>
  <defs
     id="defs142">
    <linearGradient
       id="bb74ba87-0e24-4c9d-a373-e17481b146a7"
       x1="345.70001"
       y1="823.95001"
       x2="345.70001"
       y2="606.19"
       gradientTransform="translate(636.4)"
       gradientUnits="userSpaceOnUse">
      <stop
         offset="0"
         stop-color="gray"
         stop-opacity="0.25"
         id="stop2" />
      <stop
         offset="0.54"
         stop-color="gray"
         stop-opacity="0.12"
         id="stop4" />
      <stop
         offset="1"
         stop-color="gray"
         stop-opacity="0.1"
         id="stop6" />
    </linearGradient>
    <linearGradient
       id="9ace95f1-7a40-47d7-848c-20f8f7c52f52"
       x1="-254.27"
       y1="469.69"
       x2="-254.27"
       y2="232.12"
       gradientTransform="matrix(0.79189853,-0.03042168,0.03042168,0.79189853,808.63577,-0.19812)"
       xlink:href="#bb74ba87-0e24-4c9d-a373-e17481b146a7" />
  </defs>
  <sodipodi:namedview
     pagecolor="#ffffff"
     bordercolor="#666666"
     borderopacity="1"
     objecttolerance="10"
     gridtolerance="10"
     guidetolerance="10"
     inkscape:pageopacity="0"
     inkscape:pageshadow="2"
     inkscape:window-width="1440"
     inkscape:window-height="837"
     id="namedview140"
     showgrid="false"
     fit-margin-top="0"
     fit-margin-left="0"
     fit-margin-right="0"
     fit-margin-bottom="0"
     inkscape:zoom="0.7147407"
     inkscape:cx="-130.92558"
     inkscape:cy="340.46639"
     inkscape:window-x="-8"
     inkscape:window-y="-8"
     inkscape:window-maximized="1"
     inkscape:current-layer="f241e7b9-92bc-4a39-8e1f-dd6f59c49ece" />
  <path
     style="fill:#cccccc;stroke-width:1.4643935"
     inkscape:connector-curvature="0"
     d="M 572.15517,488.54724 H 65.028097 A 17.004241,17.004241 0 0 1 48.023856,471.543 v 0 q 275.750204,-32.04746 541.135564,0 v 0 a 17.004248,17.004248 0 0 1 -17.00425,17.00424 z"
     id="path2" />
  <path
     style="fill:#e6e6e6;stroke-width:1.4643935"
     inkscape:connector-curvature="0"
     d="m 589.15942,472.54323 -541.135564,-1.00026 62.715714,-105.52643 0.30007,-0.50012 V 132.94815 a 21.493581,21.493581 0 0 1 21.49537,-21.49538 H 501.6475 a 21.493581,21.493581 0 0 1 21.49538,21.49538 v 234.16862 z"
     id="path4" />
  <path
     style="fill:#ffffff;stroke-width:1.4643935"
     inkscape:connector-curvature="0"
     d="m 132.0449,126.45653 a 7.0096187,7.0096187 0 0 0 -7.00175,7.00175 V 345.5114 a 7.0099329,7.0099329 0 0 0 7.00175,7.00176 h 373.09347 a 7.0102401,7.0102401 0 0 0 7.00175,-7.00176 V 133.45828 a 7.009926,7.009926 0 0 0 -7.00175,-7.00175 z"
     id="path6" />
  <path
     style="fill:#cccccc;stroke-width:1.4643935"
     inkscape:connector-curvature="0"
     d="m 134.4969,380.52017 a 3.0090478,3.0090478 0 0 0 -2.72627,1.74653 l -19.32466,42.01053 a 3.0006143,3.0006143 0 0 0 2.72577,4.255 H 521.5592 a 3.0004094,3.0004094 0 0 0 2.68329,-4.34288 L 503.2372,382.17882 a 2.9855364,2.9855364 0 0 0 -2.68329,-1.65861 z"
     id="path8" />
  <circle
     style="fill:#ffffff;stroke-width:1.4643935"
     cx="317.09128"
     cy="118.45452"
     r="4.5011263"
     id="circle10" />
  <path
     style="fill:#cccccc;stroke-width:1.4643935"
     inkscape:connector-curvature="0"
     d="m 277.14668,436.53421 a 3.0053398,3.0053398 0 0 0 -2.89721,2.22028 l -4.8474,18.00451 a 3.000464,3.000464 0 0 0 2.8972,3.78122 h 92.18667 a 3.0000748,3.0000748 0 0 0 2.8347,-3.98245 l -6.23203,-18.0045 a 3.0023215,3.0023215 0 0 0 -2.83568,-2.01906 z"
     id="path12" />
  <polygon
     style="fill:#cccccc;stroke-width:2.14444828"
     points="766.09,366.922 766.09,372.782 162.169,372.782 162.623,372.049 162.623,366.922 "
     id="polygon14"
     transform="matrix(0.68287657,0,0,0.68287657,-0.00180739,111.45277)" />
  <path
     style="fill:#cccccc;stroke-width:1.4643935"
     inkscape:connector-curvature="0"
     d="m 472.23965,371.18076 a 0.73184565,0.73184565 0 0 0 -0.70551,0.54066 l -1.18042,4.38438 a 0.73067793,0.73067793 0 0 0 0.70552,0.92078 h 22.44884 a 0.73056184,0.73056184 0 0 0 0.69029,-0.96979 l -1.51759,-4.38436 a 0.73111497,0.73111497 0 0 0 -0.69053,-0.49167 z"
     id="path16" />
  <path
     style="fill:#cccccc;stroke-width:1.4643935"
     inkscape:connector-curvature="0"
     d="m 439.46158,371.18076 a 0.73184565,0.73184565 0 0 0 -0.70552,0.54066 l -1.18042,4.38438 a 0.73067793,0.73067793 0 0 0 0.70552,0.92078 h 22.44885 a 0.73056184,0.73056184 0 0 0 0.69028,-0.96979 l -1.51759,-4.38436 a 0.73111497,0.73111497 0 0 0 -0.69053,-0.49167 z"
     id="path18" />
  <path
     style="fill:#3f3d56;stroke-width:1.4643935"
     inkscape:connector-curvature="0"
     d="m 344.4967,399.03913 h 1.75941 l -3.51886,-235.17466 h -1.75942 l 0.0702,4.69177 h -39.43384 l 0.0702,-4.69177 h -1.75941 l -3.51887,235.17466 h 1.75942 l 0.22816,-15.24823 h 45.87485 z m -2.53603,-169.48997 h -41.2591 l 0.42996,-28.73704 h 40.39917 z m 0.0263,1.75942 0.42996,28.73704 h -42.17172 l 0.42997,-28.73704 z m 0.45631,30.49646 0.42997,28.73704 h -43.08433 l 0.42996,-28.73704 z m 0.4563,30.49645 0.42997,28.73705 h -43.99694 l 0.42997,-28.73705 z m 0.45631,30.49646 0.42997,28.73708 h -44.9096 l 0.42997,-28.73708 z m -2.28153,-152.48229 0.42996,28.73704 h -40.34648 l 0.42997,-28.73704 z M 298.42,382.03149 l 0.42996,-28.73705 h 44.96224 l 0.42997,28.73705 z"
     id="path20" />
  <circle
     style="fill:#2f2e41;stroke-width:1.4643935"
     cx="312.61526"
     cy="216.17708"
     r="28.689236"
     id="circle22" />
  <rect
     style="fill:#2f2e41;stroke-width:1.4643935"
     x="273.46484"
     y="290.92252"
     width="8.7157173"
     height="15.615674"
     transform="rotate(-10.26106)"
     id="rect24" />
  <rect
     style="fill:#2f2e41;stroke-width:1.4643935"
     x="256.03345"
     y="290.92245"
     width="8.7157173"
     height="15.615674"
     transform="rotate(-10.26106)"
     id="rect26" />
  <ellipse
     style="fill:#2f2e41;stroke-width:1.4643935"
     cx="69.846779"
     cy="396.17288"
     rx="7.2630887"
     ry="2.7236736"
     transform="rotate(-40.26106)"
     id="ellipse28" />
  <ellipse
     style="fill:#2f2e41;stroke-width:1.4643935"
     cx="84.62838"
     cy="404.707"
     rx="7.2631097"
     ry="2.7236736"
     transform="rotate(-40.26106)"
     id="ellipse30" />
  <circle
     style="fill:#ffffff;stroke-width:1.4643935"
     cx="310.60678"
     cy="209.15953"
     r="9.8051786"
     id="circle32" />
  <circle
     style="fill:#3f3d56;stroke-width:1.4643935"
     cx="306.57687"
     cy="205.64491"
     r="3.2683976"
     id="circle34" />
  <path
     style="fill:#167af0;stroke-width:1.4643935;fill-opacity:1"
     inkscape:connector-curvature="0"
     d="m 335.24705,184.96627 c 0.43142,-10.62118 -8.72247,-19.61741 -20.44587,-20.0936 -11.7234,-0.47619 -21.57679,7.74792 -22.00824,18.36911 -0.43145,10.62119 7.71781,13.03438 19.44119,13.51061 11.72338,0.47623 22.5815,-1.16494 23.01292,-11.78612 z"
     id="path36" />
  <ellipse
     style="fill:#2f2e41;stroke-width:1.4643935"
     cx="-141.69141"
     cy="326.02292"
     rx="4.5032158"
     ry="14.344615"
     transform="rotate(-77.0899)"
     id="ellipse38" />
  <ellipse
     style="fill:#2f2e41;stroke-width:1.4643935"
     cx="-138.23775"
     cy="383.00769"
     rx="4.5032158"
     ry="14.344615"
     transform="rotate(-77.0899)"
     id="ellipse40" />
  <path
     style="fill:#ffffff;stroke-width:1.4643935"
     inkscape:connector-curvature="0"
     d="m 320.49477,227.48317 a 6.5367885,6.5367885 0 1 1 -12.86219,2.34147 l -0.002,-0.0126 c -0.6431,-3.55242 2.10351,-4.8095 5.65596,-5.45259 3.55245,-0.64309 6.56544,-0.42867 7.20851,3.12375 z"
     id="path42" />
  <ellipse
     style="fill:#2f2e41;stroke-width:1.4643935"
     cx="-216.02666"
     cy="308.60052"
     rx="14.704852"
     ry="4.6162934"
     transform="rotate(-69.08217)"
     id="ellipse44" />
  <circle
     style="fill:#2f2e41;stroke-width:1.4643935"
     cx="-300.39615"
     cy="235.1046"
     r="29.409683"
     transform="rotate(-80.78252)"
     id="circle46" />
  <rect
     style="fill:#2f2e41;stroke-width:1.4643935"
     x="170.54877"
     y="357.25787"
     width="8.9345798"
     height="16.007793"
     id="rect48" />
  <rect
     style="fill:#2f2e41;stroke-width:1.4643935"
     x="188.41792"
     y="357.25787"
     width="8.9345798"
     height="16.007793"
     id="rect50" />
  <ellipse
     style="fill:#2f2e41;stroke-width:1.4643935"
     cx="177.99426"
     cy="373.45181"
     rx="7.4454989"
     ry="2.7920637"
     id="ellipse52" />
  <ellipse
     style="fill:#2f2e41;stroke-width:1.4643935"
     cx="195.86342"
     cy="373.07953"
     rx="7.4454989"
     ry="2.7920637"
     id="ellipse54" />
  <path
     style="fill:#167af0;stroke-width:1.4643935;fill-opacity:1"
     inkscape:connector-curvature="0"
     d="m 155.42228,306.82672 c -2.37468,-10.63498 5.21627,-21.38118 16.95488,-24.00232 11.73861,-2.62114 23.17971,3.87538 25.5544,14.51036 2.37468,10.63499 -5.40491,14.55733 -17.14352,17.17845 -11.73861,2.62112 -22.99107,2.94848 -25.36576,-7.68649 z"
     id="path56" />
  <ellipse
     style="fill:#2f2e41;stroke-width:1.4643935"
     cx="-224.97523"
     cy="273.63187"
     rx="4.6162934"
     ry="14.704845"
     transform="rotate(-64.62574)"
     id="ellipse58" />
  <circle
     style="fill:#2f2e41;stroke-width:1.4643935"
     cx="56.609207"
     cy="363.95538"
     r="29.40967"
     id="circle60" />
  <rect
     style="fill:#2f2e41;stroke-width:1.4643935"
     x="43.207336"
     y="387.03641"
     width="8.9345798"
     height="16.007793"
     id="rect62" />
  <rect
     style="fill:#2f2e41;stroke-width:1.4643935"
     x="61.0765"
     y="387.03641"
     width="8.9345798"
     height="16.007793"
     id="rect64" />
  <ellipse
     style="fill:#2f2e41;stroke-width:1.4643935"
     cx="50.652794"
     cy="403.23035"
     rx="7.4454989"
     ry="2.7920637"
     id="ellipse66" />
  <ellipse
     style="fill:#2f2e41;stroke-width:1.4643935"
     cx="68.521996"
     cy="402.85806"
     rx="7.4454989"
     ry="2.7920637"
     id="ellipse68" />
  <circle
     style="fill:#ffffff;stroke-width:1.4643935"
     cx="57.353764"
     cy="356.50992"
     r="10.051411"
     id="circle70" />
  <circle
     style="fill:#3f3d56;stroke-width:1.4643935"
     cx="57.353764"
     cy="356.50992"
     r="3.3504794"
     id="circle72" />
  <path
     style="fill:#16b6f0;stroke-width:1.4643935;fill-opacity:1"
     inkscape:connector-curvature="0"
     d="m 28.080814,336.60525 c -2.37469,-10.63497 5.216269,-21.38116 16.954876,-24.0023 11.738607,-2.62114 23.179706,3.8754 25.554395,14.51038 2.37469,10.63498 -5.404913,14.55735 -17.14352,17.17844 -11.738608,2.6211 -22.991027,2.9485 -25.365751,-7.68652 z"
     id="path74" />
  <ellipse
     style="fill:#2f2e41;stroke-width:1.4643935"
     cx="-213.95905"
     cy="160.72342"
     rx="14.704852"
     ry="4.6162934"
     transform="rotate(-69.08217)"
     id="ellipse76" />
  <circle
     style="fill:#2f2e41;stroke-width:1.4643935"
     cx="-268.383"
     cy="90.719429"
     r="29.409683"
     transform="rotate(-80.78252)"
     id="circle78" />
  <rect
     style="fill:#2f2e41;stroke-width:1.4643935"
     x="33.155914"
     y="302.53012"
     width="8.9345798"
     height="16.007793"
     id="rect80" />
  <rect
     style="fill:#2f2e41;stroke-width:1.4643935"
     x="51.02507"
     y="302.53012"
     width="8.9345798"
     height="16.007793"
     id="rect82" />
  <ellipse
     style="fill:#2f2e41;stroke-width:1.4643935"
     cx="40.601414"
     cy="318.72406"
     rx="7.4454989"
     ry="2.7920637"
     id="ellipse84" />
  <ellipse
     style="fill:#2f2e41;stroke-width:1.4643935"
     cx="58.470573"
     cy="318.35181"
     rx="7.4454989"
     ry="2.7920637"
     id="ellipse86" />
  <circle
     style="fill:#ffffff;stroke-width:1.4643935"
     cx="47.302341"
     cy="272.00363"
     r="10.051411"
     id="circle88" />
  <circle
     style="fill:#3f3d56;stroke-width:1.4643935"
     cx="47.302341"
     cy="272.00363"
     r="3.3504794"
     id="circle90" />
  <path
     style="fill:#167af0;stroke-width:1.4643935;fill-opacity:1"
     inkscape:connector-curvature="0"
     d="m 18.029431,252.09894 c -2.37469,-10.63497 5.216269,-21.38118 16.954876,-24.00232 11.738607,-2.62114 23.179712,3.87538 25.554395,14.51037 2.374683,10.63498 -5.404906,14.55732 -17.143514,17.17844 -11.738607,2.62112 -22.991067,2.94853 -25.365757,-7.68649 z"
     id="path92" />
  <ellipse
     style="fill:#2f2e41;stroke-width:1.4643935"
     cx="-234.40407"
     cy="126.04115"
     rx="4.6162934"
     ry="14.704845"
     transform="rotate(-64.62574)"
     id="ellipse94" />
  <path
     style="fill:#ffffff;stroke-width:1.4643935"
     inkscape:connector-curvature="0"
     d="m 32.111841,290.05895 c 0,2.87842 7.411444,8.56229 15.635518,8.56229 8.224074,0 15.93502,-8.10369 15.93502,-10.98208 0,-2.87839 -7.710994,0.55842 -15.93502,0.55842 -8.224026,0 -15.635518,-1.01706 -15.635518,1.86137 z"
     id="path96" />
  <path
     style="fill:#167af0;stroke-width:1.4643935;fill-opacity:1"
     inkscape:connector-curvature="0"
     d="m 75.472277,167.15412 a 2.0508695,2.0508695 0 0 0 -2.048629,2.04863 v 84.67669 a 2.0508695,2.0508695 0 0 0 2.048629,2.04863 H 271.45785 a 2.0508695,2.0508695 0 0 0 2.04863,-2.04863 v -84.67669 a 2.0508695,2.0508695 0 0 0 -2.04863,-2.04863 z"
     id="path98" />
  <circle
     style="fill:#ffffff;stroke-width:1.4643935"
     cx="128.39139"
     cy="211.54109"
     r="19.886116"
     id="circle100" />
  <path
     style="fill:#ffffff;stroke-width:1.4643935"
     inkscape:connector-curvature="0"
     id="b71acdfd-6a55-428e-917a-53f192cb0203"
     data-name="Path 40"
     d="m 173.27375,208.89528 a 2.3253928,2.3253928 0 0 0 0,4.65015 h 62.78754 a 2.3253928,2.3253928 0 1 0 0.0763,-4.65015 q -0.0382,-6.5e-4 -0.0763,0 z" />
  <path
     style="fill:#ffffff;stroke-width:1.4643935"
     inkscape:connector-curvature="0"
     id="ad4fbcfa-41b0-45f9-a593-23b6dc3fe165"
     data-name="Path 40"
     d="m 173.27375,195.42403 a 2.3253928,2.3253928 0 0 0 0,4.65016 h 31.35467 a 2.325393,2.325393 0 1 0 0.0763,-4.65016 q -0.0382,-6.5e-4 -0.0763,0 z" />
  <path
     style="fill:#ffffff;stroke-width:1.4643935"
     inkscape:connector-curvature="0"
     id="bce2a7cd-a325-424d-9b3a-f63d1dad5aba"
     data-name="Path 40"
     d="m 173.27375,223.00801 a 2.3253928,2.3253928 0 0 0 0,4.65015 h 62.78754 a 2.3253928,2.3253928 0 1 0 0.0763,-4.65015 q -0.0382,-6.9e-4 -0.0763,0 z" />
  <ellipse
     style="fill:#2f2e41;stroke-width:1.4643935"
     cx="311.1525"
     cy="510.64471"
     rx="4.6162934"
     ry="14.704852"
     transform="rotate(-20.91783)"
     id="ellipse105" />
  <circle
     style="fill:#2f2e41;stroke-width:1.4643935"
     cx="424.46658"
     cy="468.29269"
     r="29.40967"
     transform="rotate(-9.21747)"
     id="circle107" />
  <polygon
     style="fill:#2f2e41;stroke-width:2.14444828"
     points="743.035,447.932 729.952,447.932 732.512,476.005 743.058,473.14 "
     id="polygon109"
     transform="matrix(0.68287657,0,0,0.68287657,-0.00180739,111.45277)" />
  <polygon
     style="fill:#2f2e41;stroke-width:2.14444828"
     points="714.512,448.005 701.428,448.005 703.988,476.078 714.058,473.14 "
     id="polygon111"
     transform="matrix(0.68287657,0,0,0.68287657,-0.00180739,111.45277)" />
  <ellipse
     style="fill:#2f2e41;stroke-width:1.4643935"
     cx="447.30344"
     cy="468.53534"
     rx="7.4454989"
     ry="2.7920637"
     transform="rotate(-4.1816399)"
     id="ellipse113" />
  <circle
     style="fill:#ffffff;stroke-width:1.4643935"
     cx="493.25327"
     cy="386.80838"
     r="10.051411"
     id="circle115" />
  <circle
     style="fill:#3f3d56;stroke-width:1.4643935"
     cx="493.25327"
     cy="386.80838"
     r="3.3504794"
     id="circle117" />
  <ellipse
     style="fill:#2f2e41;stroke-width:1.4643935"
     cx="11.300169"
     cy="644.42688"
     rx="14.704845"
     ry="4.6162934"
     transform="rotate(-53.5499)"
     id="ellipse119" />
  <path
     style="fill:#ffffff;stroke-width:1.4643935"
     inkscape:connector-curvature="0"
     d="m 479.64863,409.41822 c 0,-2.37232 6.10833,-7.05685 12.88643,-7.05685 6.7781,0 13.13327,6.67888 13.13327,9.05117 0,2.3723 -6.35522,-0.46025 -13.13327,-0.46025 -6.77805,0 -12.88643,0.83825 -12.88643,-1.53407 z"
     id="path121" />
  <path
     style="fill:#167af0;stroke-width:1.4643935;fill-opacity:1"
     inkscape:connector-curvature="0"
     d="M 576.46666,369.95004 415.48158,347.6329 a 4.7859404,4.7859404 0 0 1 -4.07847,-5.39124 l 18.09752,-130.54673 a 4.7857287,4.7857287 0 0 1 5.39124,-4.07848 l 160.98508,22.31715 a 4.7857219,4.7857219 0 0 1 4.07848,5.39125 L 581.8579,365.87157 a 4.7859268,4.7859268 0 0 1 -5.39124,4.07847 z"
     id="path123" />
  <path
     style="fill:#ffffff;stroke-width:1.4643935"
     inkscape:connector-curvature="0"
     d="m 518.79476,329.20816 -82.18725,-11.39352 a 1.6913897,1.6913897 0 0 1 -0.30376,-0.0669 l 48.20462,-61.94118 a 2.7476631,2.7476631 0 0 1 4.73761,0.65676 l 19.82344,48.79995 0.95007,2.33529 z"
     id="path125" />
  <polygon
     points="742.864,286.679 744.609,284.77 745.481,283.815 746.872,287.235 759.722,318.879 718.63,313.183 "
     style="opacity:0.2;isolation:isolate;stroke-width:2.14444828"
     id="polygon127"
     transform="matrix(0.68287657,0,0,0.68287657,-0.00180739,111.45277)" />
  <path
     style="fill:#ffffff;stroke-width:1.4643935"
     inkscape:connector-curvature="0"
     d="m 564.55602,335.55198 -71.08522,-9.85445 16.54869,-18.09896 1.19111,-1.30394 21.5647,-23.58664 a 3.6668013,3.6668013 0 0 1 5.43605,0.42508 3.2753355,3.2753355 0 0 1 0.21381,0.35815 z"
     id="path129" />
  <circle
     style="fill:#ffffff;stroke-width:1.4643935"
     cx="519.79431"
     cy="264.54245"
     r="12.291779"
     id="circle131" />
  <rect
     style="fill:#3f3d56;stroke-width:1.46439826"
     x="463.38"
     y="155.49373"
     width="15.023334"
     height="15.023334"
     transform="rotate(7.89277)"
     id="rect133" />
  <path
     style="fill:#16b6f0;stroke-width:1.4643935;fill-opacity:1"
     inkscape:connector-curvature="0"
     d="m 522.52616,366.9037 c 2.37469,-10.63497 -5.21627,-21.38118 -16.95488,-24.00232 -11.73861,-2.62114 -23.1797,3.87538 -25.55439,14.51036 -2.37469,10.63497 5.40491,14.55733 17.14352,17.17844 11.7386,2.62111 22.99107,2.94852 25.36575,-7.68648 z"
     id="path135" />
  <ellipse
     style="fill:#2f2e41;stroke-width:1.4643935"
     cx="466.84814"
     cy="469.91693"
     rx="7.4454989"
     ry="2.7920637"
     transform="rotate(-4.1816399)"
     id="ellipse137" />
</svg>
