<?xml version="1.0" encoding="UTF-8" standalone="no"?>
<svg
   xmlns:dc="http://purl.org/dc/elements/1.1/"
   xmlns:cc="http://creativecommons.org/ns#"
   xmlns:rdf="http://www.w3.org/1999/02/22-rdf-syntax-ns#"
   xmlns:svg="http://www.w3.org/2000/svg"
   xmlns="http://www.w3.org/2000/svg"
   xmlns:sodipodi="http://sodipodi.sourceforge.net/DTD/sodipodi-0.dtd"
   xmlns:inkscape="http://www.inkscape.org/namespaces/inkscape"
   id="ad97e2e6-c06f-4161-a008-15821dcd6927"
   data-name="Layer 1"
   width="800"
   height="500.18137"
   viewBox="0 0 799.99999 500.18135"
   version="1.1"
   sodipodi:docname="img6.svg"
   inkscape:version="0.92.4 (5da689c313, 2019-01-14)">
  <metadata
     id="metadata93">
    <rdf:RDF>
      <cc:Work
         rdf:about="">
        <dc:format>image/svg+xml</dc:format>
        <dc:type
           rdf:resource="http://purl.org/dc/dcmitype/StillImage" />
        <dc:title>drag</dc:title>
      </cc:Work>
    </rdf:RDF>
  </metadata>
  <defs
     id="defs91" />
  <sodipodi:namedview
     pagecolor="#ffffff"
     bordercolor="#666666"
     borderopacity="1"
     objecttolerance="10"
     gridtolerance="10"
     guidetolerance="10"
     inkscape:pageopacity="0"
     inkscape:pageshadow="2"
     inkscape:window-width="1600"
     inkscape:window-height="837"
     id="namedview89"
     showgrid="false"
     inkscape:zoom="0.5868792"
     inkscape:cx="277.35136"
     inkscape:cy="250.09069"
     inkscape:window-x="-8"
     inkscape:window-y="-8"
     inkscape:window-maximized="1"
     inkscape:current-layer="ad97e2e6-c06f-4161-a008-15821dcd6927"
     fit-margin-top="0"
     fit-margin-left="0"
     fit-margin-right="0"
     fit-margin-bottom="0" />
  <title
     id="title2">drag</title>
  <g
     id="g1046"
     transform="matrix(0.63111368,0,0,0.63111368,33.473758,0.09068484)"
     style="stroke-width:1.58450055">
    <path
       id="path844"
       transform="translate(-19.23898,-53.87484)"
       d="m 584.62145,93.57415 h -1.34574 v -2.355 h 1.0093 a 0.6729,0.6729 0 0 0 0.67287,-0.67287 v -12.1117 a 0.67288,0.67288 0 0 0 -0.67287,-0.67287 h -1.0093 V 70.88332 A 14.65339,14.65339 0 0 0 568.62223,56.22988 h -1.49539 v -1.68217 a 0.67287,0.67287 0 0 0 -0.67287,-0.67287 h -12.11166 a 0.67287,0.67287 0 0 0 -0.67287,0.67287 v 1.68217 H 334.83712 a 14.65339,14.65339 0 0 0 -14.65348,14.65344 v 311.838 a 14.65343,14.65343 0 0 0 14.65348,14.65348 h 233.78511 a 14.65343,14.65343 0 0 0 14.65348,-14.65348 V 107.03154 h 1.34574 a 0.6729,0.6729 0 0 0 0.67287,-0.67287 V 94.247 a 0.67288,0.67288 0 0 0 -0.67287,-0.67285 z"
       inkscape:connector-curvature="0"
       style="fill:#3f3d56;stroke-width:1.58450055" />
    <rect
       id="rect846"
       height="319.62"
       width="240.89001"
       y="11.94"
       x="313.05499"
       style="fill:#f2f2f2;stroke-width:1.58450055" />
    <rect
       id="rect848"
       height="2"
       width="1161.5221"
       y="668"
       x="0"
       style="fill:#3f3d56;stroke-width:1.58450055" />
    <path
       id="path850"
       transform="translate(-19.23898,-53.87484)"
       d="m 290.49114,622.12231 c 2.2427,76.79367 -42.62747,104.93685 -98.93825,106.58136 q -1.962,0.0573 -3.90636,0.0702 -3.91709,0.0299 -7.75808,-0.13046 c -50.92746,-2.1142 -91.23951,-29.14763 -93.32521,-100.56557 -2.15845,-73.90872 89.5781,-169.93874 96.46088,-177.04212 0.006,-1.8e-4 0.006,-1.8e-4 0.0123,-0.007 0.26146,-0.27069 0.39536,-0.40611 0.39536,-0.40611 0,0 104.81686,94.71185 107.05939,171.49929 z"
       inkscape:connector-curvature="0"
       style="fill:#6c63ff;stroke-width:1.58450055" />
    <path
       id="path852"
       transform="translate(-19.23898,-53.87484)"
       d="m 187.49873,717.0655 35.77056,-53.19441 -35.6974,58.91711 0.0746,5.98571 q -3.91709,0.0299 -7.75808,-0.13046 l 1.77414,-76.94233 -0.0486,-0.59358 0.0655,-0.11469 0.16981,-7.27058 -39.173,-56.87462 39.12677,51.433 0.13885,1.53678 1.34,-58.13294 -33.83488,-58.96594 33.93127,48.75366 -0.35417,-120.43645 7.6e-4,-0.40086 0.0115,0.39423 2.246,94.92013 30.83647,-38.55661 -30.73552,46.73377 0.673,51.99856 28.37589,-50.74862 -28.27161,58.3933 0.37465,28.91381 41.26621,-70.69222 -41.14076,80.779 z"
       inkscape:connector-curvature="0"
       style="fill:#3f3d56;stroke-width:1.58450055" />
    <path
       id="path854"
       transform="translate(-19.23898,-53.87484)"
       d="m 886.239,160.20719 h -1.48962 V 119.3996 A 23.61832,23.61832 0 0 0 861.131,95.78124 h -86.4564 a 23.61833,23.61833 0 0 0 -23.61841,23.61836 v 223.87366 a 23.61833,23.61833 0 0 0 23.61841,23.61836 h 86.4564 a 23.61832,23.61832 0 0 0 23.6184,-23.61836 V 189.25474 h 1.4896 z"
       inkscape:connector-curvature="0"
       style="fill:#3f3d56;stroke-width:1.58450055" />
    <path
       id="path856"
       transform="translate(-19.23898,-53.87484)"
       d="M 879.71974,120.78771 V 344.3349 a 17.63854,17.63854 0 0 1 -17.63537,17.64153 H 775.21065 A 17.63848,17.63848 0 0 1 757.57535,344.3349 V 120.78771 a 17.63714,17.63714 0 0 1 17.6353,-17.63526 h 10.5398 a 8.37878,8.37878 0 0 0 7.75928,11.54184 h 49.53035 a 8.37869,8.37869 0 0 0 7.75924,-11.54184 h 11.28505 a 17.6372,17.6372 0 0 1 17.63537,17.63526 z"
       inkscape:connector-curvature="0"
       style="fill:#f2f2f2;stroke-width:1.58450055" />
    <rect
       id="rect858"
       height="2.7272699"
       width="73.396362"
       y="79"
       x="774.34772"
       style="fill:#cccccc;stroke-width:1.58450055" />
    <rect
       id="rect860"
       height="2.7272699"
       width="73.396362"
       y="87.63636"
       x="774.34772"
       style="fill:#cccccc;stroke-width:1.58450055" />
    <rect
       id="rect862"
       height="2.7272699"
       width="73.396362"
       y="96.272728"
       x="774.34772"
       style="fill:#cccccc;stroke-width:1.58450055" />
    <rect
       id="rect864"
       height="16.62899"
       width="16.62899"
       y="80.685501"
       x="751.07312"
       style="fill:#cccccc;stroke-width:1.58450055" />
    <rect
       id="rect866"
       height="2.7272699"
       width="73.396362"
       y="273"
       x="774.34772"
       style="fill:#cccccc;stroke-width:1.58450055" />
    <rect
       id="rect868"
       height="2.7272699"
       width="73.396362"
       y="281.63635"
       x="774.34772"
       style="fill:#cccccc;stroke-width:1.58450055" />
    <rect
       id="rect870"
       height="2.7272699"
       width="73.396362"
       y="290.27274"
       x="774.34772"
       style="fill:#cccccc;stroke-width:1.58450055" />
    <rect
       id="rect872"
       height="16.62899"
       width="16.62899"
       y="274.68549"
       x="751.07312"
       style="fill:#cccccc;stroke-width:1.58450055" />
    <path
       id="path874"
       transform="translate(-19.23898,-53.87484)"
       d="M 859.14669,434.44284 H 650.42537 v -4.30193 H 555.783 v 4.30193 H 346.20131 a 14.11841,14.11841 0 0 0 -14.11843,14.11842 v 285.80366 a 14.11846,14.11846 0 0 0 14.11843,14.11848 h 512.94538 a 14.11846,14.11846 0 0 0 14.11843,-14.11848 V 448.56126 a 14.11841,14.11841 0 0 0 -14.11843,-14.11842 z"
       inkscape:connector-curvature="0"
       style="fill:#3f3d56;stroke-width:1.58450055" />
    <rect
       id="rect876"
       height="283.92709"
       width="503.32529"
       y="405.51917"
       x="331.77237"
       style="fill:#f2f2f2;stroke-width:1.58450055" />
    <circle
       id="circle878"
       r="5.1623101"
       cy="392.6134"
       cx="583.00482"
       style="fill:#6c63ff;stroke-width:1.58450055" />
    <path
       id="path880"
       transform="translate(-19.23898,-53.87484)"
       d="m 887.3974,738.15876 h -49.12128 v -3.53915 a 0.70171,0.70171 0 0 0 -0.70173,-0.70174 h -16.84158 a 0.70171,0.70171 0 0 0 -0.70173,0.70174 v 3.53915 h -10.526 v -3.53915 a 0.70171,0.70171 0 0 0 -0.70173,-0.70174 h -16.84158 a 0.70171,0.70171 0 0 0 -0.70173,0.70174 v 3.53915 h -10.526 v -3.53915 a 0.70171,0.70171 0 0 0 -0.70173,-0.70174 h -16.84157 a 0.70171,0.70171 0 0 0 -0.70173,0.70174 v 3.53915 H 751.963 v -3.53915 a 0.70171,0.70171 0 0 0 -0.70173,-0.70174 h -16.84156 a 0.70171,0.70171 0 0 0 -0.70174,0.70174 v 3.53915 H 723.192 v -3.53915 a 0.70171,0.70171 0 0 0 -0.70174,-0.70174 h -16.84159 a 0.70171,0.70171 0 0 0 -0.70173,0.70174 v 3.53915 h -10.526 v -3.53915 a 0.70171,0.70171 0 0 0 -0.70173,-0.70174 h -16.84157 a 0.70171,0.70171 0 0 0 -0.70173,0.70174 v 3.53915 h -10.526 v -3.53915 a 0.70171,0.70171 0 0 0 -0.70173,-0.70174 H 533.02247 a 0.70171,0.70171 0 0 0 -0.70173,0.70174 v 3.53915 h -10.526 v -3.53915 a 0.70171,0.70171 0 0 0 -0.70173,-0.70174 h -16.84157 a 0.70171,0.70171 0 0 0 -0.70174,0.70174 v 3.53915 h -10.526 v -3.53915 a 0.70172,0.70172 0 0 0 -0.70174,-0.70174 H 475.4804 a 0.70171,0.70171 0 0 0 -0.70173,0.70174 v 3.53915 h -10.526 v -3.53915 a 0.70171,0.70171 0 0 0 -0.70173,-0.70174 h -16.84157 a 0.70171,0.70171 0 0 0 -0.70173,0.70174 v 3.53915 h -10.526 v -3.53915 a 0.70171,0.70171 0 0 0 -0.70174,-0.70174 h -16.84157 a 0.70171,0.70171 0 0 0 -0.70173,0.70174 v 3.53915 h -10.526 v -3.53915 a 0.70171,0.70171 0 0 0 -0.70173,-0.70174 H 389.1673 a 0.70171,0.70171 0 0 0 -0.70173,0.70174 v 3.53915 h -10.526 v -3.53915 a 0.70171,0.70171 0 0 0 -0.70173,-0.70174 h -16.84157 a 0.70171,0.70171 0 0 0 -0.70174,0.70174 v 3.53915 h -32.27969 a 16.84159,16.84159 0 0 0 -16.84158,16.84158 v 7.61537 a 16.84158,16.84158 0 0 0 16.84158,16.84154 H 887.3974 a 16.84158,16.84158 0 0 0 16.8416,-16.84154 v -7.61537 a 16.84159,16.84159 0 0 0 -16.8416,-16.84158 z"
       inkscape:connector-curvature="0"
       style="fill:#3f3d56;stroke-width:1.58450055" />
    <rect
       id="rect882"
       height="5.24823"
       width="141.24028"
       y="427.7565"
       x="534.78845"
       style="fill:#e6e6e6;stroke-width:1.58450055" />
    <rect
       id="rect884"
       height="5.24823"
       width="141.24028"
       y="444.37589"
       x="534.78845"
       style="fill:#e6e6e6;stroke-width:1.58450055" />
    <rect
       id="rect886"
       height="5.24823"
       width="141.24028"
       y="460.99527"
       x="534.78845"
       style="fill:#e6e6e6;stroke-width:1.58450055" />
    <rect
       id="rect888"
       height="5.24823"
       width="141.24028"
       y="427.7565"
       x="534.78845"
       style="fill:#cccccc;stroke-width:1.58450055" />
    <rect
       id="rect890"
       height="5.24823"
       width="141.24028"
       y="444.37589"
       x="534.78845"
       style="fill:#cccccc;stroke-width:1.58450055" />
    <rect
       id="rect892"
       height="5.24823"
       width="141.24028"
       y="460.99527"
       x="534.78845"
       style="fill:#cccccc;stroke-width:1.58450055" />
    <rect
       id="rect894"
       height="32"
       width="32"
       y="431"
       x="490"
       style="fill:#cccccc;stroke-width:1.58450055" />
    <rect
       id="rect896"
       height="5.24823"
       width="141.24028"
       y="614.75647"
       x="534.78845"
       style="fill:#cccccc;stroke-width:1.58450055" />
    <rect
       id="rect898"
       height="5.24823"
       width="141.24028"
       y="631.37592"
       x="534.78845"
       style="fill:#cccccc;stroke-width:1.58450055" />
    <rect
       id="rect900"
       height="5.24823"
       width="141.24028"
       y="647.9953"
       x="534.78845"
       style="fill:#cccccc;stroke-width:1.58450055" />
    <rect
       id="rect902"
       height="32"
       width="32"
       y="618"
       x="490"
       style="fill:#cccccc;stroke-width:1.58450055" />
    <path
       id="path904"
       transform="translate(-19.23898,-53.87484)"
       d="m 943.51144,362.9222 a 53.19709,53.19709 0 0 0 -31.60589,-16.67841 l 5.1983,-4.6958 -5.75067,-0.2904 -7.11457,6.4306 6.43061,7.11462 5.75067,0.29041 -4.30878,-4.76428 a 49.359,49.359 0 0 1 -7.87213,98.08691 v 4 a 53.36418,53.36418 0 0 0 39.27246,-89.49365 z"
       inkscape:connector-curvature="0"
       style="fill:#3f3d56;stroke-width:1.58450055" />
    <path
       id="path906"
       transform="translate(-19.23898,-53.87484)"
       d="m 252.96652,362.9222 a 53.19709,53.19709 0 0 1 31.6059,-16.67841 l -5.19831,-4.6958 5.75067,-0.2904 7.11457,6.4306 -6.43061,7.11462 -5.75067,0.29041 4.30878,-4.76428 a 49.359,49.359 0 0 0 7.87213,98.08691 v 4 A 53.36418,53.36418 0 0 1 252.96652,362.9222 Z"
       inkscape:connector-curvature="0"
       style="fill:#3f3d56;stroke-width:1.58450055" />
    <rect
       id="rect908"
       height="5.24823"
       width="141.24028"
       y="27.7565"
       x="385.27408"
       style="fill:#cccccc;stroke-width:1.58450055" />
    <rect
       id="rect910"
       height="5.24823"
       width="141.24028"
       y="44.375889"
       x="385.27408"
       style="fill:#cccccc;stroke-width:1.58450055" />
    <rect
       id="rect912"
       height="5.24823"
       width="141.24028"
       y="60.99527"
       x="385.27408"
       style="fill:#cccccc;stroke-width:1.58450055" />
    <rect
       id="rect914"
       height="32"
       width="32"
       y="31"
       x="340.48563"
       style="fill:#cccccc;stroke-width:1.58450055" />
    <rect
       id="rect916"
       height="5.24823"
       width="141.24028"
       y="276.7565"
       x="384.78848"
       style="fill:#cccccc;stroke-width:1.58450055" />
    <rect
       id="rect918"
       height="5.24823"
       width="141.24028"
       y="293.37589"
       x="384.78848"
       style="fill:#cccccc;stroke-width:1.58450055" />
    <rect
       id="rect920"
       height="5.24823"
       width="141.24028"
       y="309.99527"
       x="384.78848"
       style="fill:#cccccc;stroke-width:1.58450055" />
    <rect
       id="rect922"
       height="32"
       width="32"
       y="280"
       x="340"
       style="fill:#cccccc;stroke-width:1.58450055" />
    <path
       id="path924"
       transform="translate(-19.23898,-53.87484)"
       d="m 985.771,381.79661 31.894,-46.30584 c 0,0 27.7727,-22.26912 19.8127,-26.60525 -7.9601,-4.33613 -28.8002,15.99258 -28.8002,15.99258 0,0 -60.12445,46.09338 -50.20994,52.52635 9.91451,6.43297 27.30344,4.39216 27.30344,4.39216 z"
       inkscape:connector-curvature="0"
       style="fill:#ffb8b8;stroke-width:1.58450055" />
    <path
       id="path926"
       transform="translate(-19.23898,-53.87484)"
       d="m 990.40617,320.98636 h 41.30363 a 144.46152,144.46152 0 0 0 0,-49.24667 h -41.30363 a 88.61132,88.61132 0 0 1 0,49.24667 z"
       inkscape:connector-curvature="0"
       style="fill:#6c63ff;stroke-width:1.58450055" />
    <path
       id="path928"
       transform="translate(-19.23898,-53.87484)"
       d="m 1097.7913,323.33578 c -12.4123,-20.9729 -36.969,-21.95033 -36.969,-21.95033 0,0 -23.9291,-3.06 -39.2795,28.882 -14.3078,29.77255 -34.05429,58.51855 -3.179,65.48809 l 5.577,-17.358 3.4538,18.65031 a 120.80742,120.80742 0 0 0 13.2104,0.22578 c 33.0649,-1.06753 64.5542,0.31233 63.5403,-11.55275 -1.3478,-15.77303 5.589,-42.20499 -6.354,-62.3851 z"
       inkscape:connector-curvature="0"
       style="fill:#2f2e41;stroke-width:1.58450055" />
    <path
       id="path930"
       transform="translate(-19.23898,-53.87484)"
       d="m 1031.7958,452.61588 -15.9002,36.57041 55.6506,8.7451 c 0,0 26.2353,-35.7754 28.6203,-38.16043 z"
       inkscape:connector-curvature="0"
       style="fill:#ffb8b8;stroke-width:1.58450055" />
    <circle
       id="circle932"
       r="29.415331"
       cy="289.82483"
       cx="1038.7921"
       style="fill:#ffb8b8;stroke-width:1.58450055" />
    <path
       id="path934"
       transform="translate(-19.23898,-53.87484)"
       d="m 1050.876,365.1649 c 0,0 13.5152,30.21034 11.9251,33.39037 -1.59,3.18003 28.6204,-16.69518 28.6204,-16.69518 0,0 -12.7202,-21.46524 -11.9252,-24.64528 z"
       inkscape:connector-curvature="0"
       style="fill:#ffb8b8;stroke-width:1.58450055" />
    <path
       id="path936"
       transform="translate(-19.23898,-53.87484)"
       d="m 1095.3965,377.885 c 0,0 23.8502,-13.51515 37.3654,23.85027 0,0 44.5205,52.47059 36.5704,62.0107 -7.9501,9.54011 -38.1604,-23.05526 -38.1604,-23.05526 l -19.0802,-19.87523 c 0,0 -27.0303,-7.15508 -24.6453,-22.26025 2.385,-15.10517 7.9501,-20.67023 7.9501,-20.67023 z"
       inkscape:connector-curvature="0"
       style="fill:#ffb8b8;stroke-width:1.58450055" />
    <path
       id="path938"
       transform="translate(-19.23898,-53.87484)"
       d="m 1039.7458,396.17025 -55.65059,-15.90018 c 0,0 -29.41533,-11.92513 -28.62032,-4.77 0.79501,7.15513 54.06061,47.70053 71.55081,45.3155 17.4902,-2.38503 12.7201,-24.64532 12.7201,-24.64532 z"
       inkscape:connector-curvature="0"
       style="fill:#ffb8b8;stroke-width:1.58450055" />
    <path
       id="path940"
       transform="translate(-19.23898,-53.87484)"
       d="m 1071.5462,390.60519 c 0,0 -18.2852,-2.385 -22.2602,1.59 -3.9751,3.975 -11.5277,0.39751 -11.5277,0.39751 l -12.7201,23.0553 c 0,0 -9.1426,13.11764 -1.9875,25.83779 7.155,12.72015 -3.18,29.41533 -3.18,29.41533 0,0 57.2406,0 69.1657,6.36007 11.9252,6.36007 26.2978,-53.068 26.2978,-53.068 0,0 -14.7701,-18.08528 -10.7951,-29.21541 3.9751,-11.13013 1.59,-19.87522 1.59,-19.87522 l -17.4902,1.59 z"
       inkscape:connector-curvature="0"
       style="fill:#d0cde1;stroke-width:1.58450055" />
    <polygon
       id="polygon942"
       points="990.297,749.34 1014.942,736.62 1006.992,683.354 983.936,688.124 "
       style="fill:#ffb8b8;stroke-width:1.58450055" />
    <polygon
       id="polygon944"
       points="1097.648,742.67 1117.523,728.36 1092.853,674.609 1076.952,687.329 "
       style="fill:#ffb8b8;stroke-width:1.58450055" />
    <path
       id="path946"
       transform="translate(-19.23898,-53.87484)"
       d="m 1034.1808,769.82445 a 49.64912,49.64912 0 0 1 -5.5651,12.72014 c -3.975,6.36007 -13.5151,3.18 -13.5151,3.18 0,0 -11.1302,-8.7451 -13.5152,-4.77006 -2.38502,3.97504 -15.10516,23.85027 -15.10516,23.85027 0,0 -42.13547,34.98039 -6.36007,40.54546 35.77543,5.56507 42.93053,-20.67024 42.93053,-20.67024 0,0 27.0303,-9.5401 27.8253,-19.08021 0.795,-9.54011 -16.6952,-35.77536 -16.6952,-35.77536 z"
       inkscape:connector-curvature="0"
       style="fill:#2f2e41;stroke-width:1.58450055" />
    <path
       id="path948"
       transform="translate(-19.23898,-53.87484)"
       d="m 1117.6567,781.41446 c 0,0 -12.7201,-3.975 -11.9251,2.385 0.795,6.36 5.565,31.80036 5.565,31.80036 0,0 -8.745,35.7754 15.9002,29.41533 24.6453,-6.36007 25.4403,-40.54546 25.4403,-40.54546 0,0 12.7201,-45.31551 3.18,-46.11051 -9.5401,-0.795 -32.5953,-3.18 -32.5953,-3.18 0,0 14.3101,23.05525 -5.5651,26.23528 z"
       inkscape:connector-curvature="0"
       style="fill:#2f2e41;stroke-width:1.58450055" />
    <polygon
       id="polygon950"
       points="1045.916,290.545 1074.22,289.967 1073.065,267.439 1048.804,254.731 1015.301,259.93 1008.369,290.545 1025.624,289.881 1030.444,278.634 1030.444,289.696 1038.406,289.389 1043.027,271.483 "
       style="fill:#2f2e41;stroke-width:1.58450055" />
    <path
       id="path952"
       transform="translate(-19.23898,-53.87484)"
       d="m 1080.2913,495.54636 -66.7807,-15.10517 c 0,0 -33.39043,57.24065 -38.16048,104.94118 -4.77005,47.70053 -26.2353,162.18183 7.95009,163.77184 34.18539,1.59001 54.06059,1.59 55.65059,-1.59 1.5901,-3.18 -16.6952,-128.79145 -16.6952,-128.79145 0,0 38.9555,154.23173 60.4207,143.89662 21.4653,-10.33511 45.3155,-23.85027 44.5205,-31.80036 -0.795,-7.95009 -52.4706,-92.221 -52.4706,-92.221 l 7.1551,-73.14082 c 0,0 8.7451,-29.41533 -6.3601,-56.44563 z"
       inkscape:connector-curvature="0"
       style="fill:#2f2e41;stroke-width:1.58450055" />
    <path
       id="path954"
       transform="translate(-19.23898,-53.87484)"
       d="m 1032.162,475.67161 h 41.3037 a 144.46158,144.46158 0 0 0 0,-49.24668 h -41.3037 a 88.61154,88.61154 0 0 1 0,49.24668 z"
       inkscape:connector-curvature="0"
       style="fill:#6c63ff;stroke-width:1.58450055" />
    <path
       id="path956"
       transform="translate(-19.23898,-53.87484)"
       d="m 1152.6371,439.89574 -69.9608,-1.59 c 0,0 -31.0053,-23.85027 -31.8003,-9.54011 -0.795,14.31016 32.5953,22.26025 32.5953,22.26025 0,0 71.7824,25.75844 82.7968,14.46924 z"
       inkscape:connector-curvature="0"
       style="fill:#ffb8b8;stroke-width:1.58450055" />
    <circle
       id="circle958"
       r="23.86364"
       cy="174.03149"
       cx="375.86365"
       style="fill:#6c63ff;stroke-width:1.58450055" />
    <circle
       id="circle960"
       r="19.5"
       cy="174.03149"
       cx="439.5"
       style="fill:#6c63ff;stroke-width:1.58450055" />
    <circle
       id="circle962"
       r="11.86364"
       cy="174.03149"
       cx="503.13635"
       style="fill:#6c63ff;stroke-width:1.58450055" />
    <circle
       id="circle964"
       r="12.53648"
       cy="177.02031"
       cx="768.97797"
       style="fill:#6c63ff;stroke-width:1.58450055" />
    <circle
       id="circle966"
       r="9.9671097"
       cy="177.02031"
       cx="802.40863"
       style="fill:#6c63ff;stroke-width:1.58450055" />
    <circle
       id="circle968"
       r="6.5364799"
       cy="177.02031"
       cx="835.83923"
       style="fill:#6c63ff;stroke-width:1.58450055" />
    <circle
       id="circle970"
       r="56"
       cy="538.03149"
       cx="583"
       style="fill:#6c63ff;stroke-width:1.58450055" />
    <polygon
       id="polygon972"
       points="562.166,550.401 573.908,550.386 573.908,567.904 592.083,567.904 592.083,550.362 603.834,550.347 582.946,508.159 "
       style="fill:#d0cde1;stroke-width:1.58450055" />
  </g>
</svg>
