<?xml version="1.0" encoding="UTF-8" standalone="no"?>
<svg
   xmlns:dc="http://purl.org/dc/elements/1.1/"
   xmlns:cc="http://creativecommons.org/ns#"
   xmlns:rdf="http://www.w3.org/1999/02/22-rdf-syntax-ns#"
   xmlns:svg="http://www.w3.org/2000/svg"
   xmlns="http://www.w3.org/2000/svg"
   xmlns:xlink="http://www.w3.org/1999/xlink"
   xmlns:sodipodi="http://sodipodi.sourceforge.net/DTD/sodipodi-0.dtd"
   xmlns:inkscape="http://www.inkscape.org/namespaces/inkscape"
   id="ad97e2e6-c06f-4161-a008-15821dcd6927"
   data-name="Layer 1"
   width="800"
   height="500.18137"
   viewBox="0 0 799.99999 500.18135"
   version="1.1"
   sodipodi:docname="img7.svg"
   inkscape:version="0.92.4 (5da689c313, 2019-01-14)">
  <metadata
     id="metadata93">
    <rdf:RDF>
      <cc:Work
         rdf:about="">
        <dc:format>image/svg+xml</dc:format>
        <dc:type
           rdf:resource="http://purl.org/dc/dcmitype/StillImage" />
        <dc:title>drag</dc:title>
      </cc:Work>
    </rdf:RDF>
  </metadata>
  <defs
     id="defs91">
    <linearGradient
       id="bb74ba87-0e24-4c9d-a373-e17481b146a7"
       x1="345.70001"
       y1="823.95001"
       x2="345.70001"
       y2="606.19"
       gradientTransform="translate(636.4)"
       gradientUnits="userSpaceOnUse">
      <stop
         offset="0"
         stop-color="gray"
         stop-opacity="0.25"
         id="stop2" />
      <stop
         offset="0.54"
         stop-color="gray"
         stop-opacity="0.12"
         id="stop4" />
      <stop
         offset="1"
         stop-color="gray"
         stop-opacity="0.1"
         id="stop6" />
    </linearGradient>
    <linearGradient
       id="9ace95f1-7a40-47d7-848c-20f8f7c52f52"
       x1="-254.27"
       y1="469.69"
       x2="-254.27"
       y2="232.12"
       gradientTransform="matrix(0.79189853,-0.03042168,0.03042168,0.79189853,808.63577,-0.19812)"
       xlink:href="#bb74ba87-0e24-4c9d-a373-e17481b146a7" />
  </defs>
  <sodipodi:namedview
     pagecolor="#ffffff"
     bordercolor="#666666"
     borderopacity="1"
     objecttolerance="10"
     gridtolerance="10"
     guidetolerance="10"
     inkscape:pageopacity="0"
     inkscape:pageshadow="2"
     inkscape:window-width="1440"
     inkscape:window-height="837"
     id="namedview89"
     showgrid="false"
     inkscape:zoom="0.5868792"
     inkscape:cx="283.80542"
     inkscape:cy="213.45006"
     inkscape:window-x="-8"
     inkscape:window-y="-8"
     inkscape:window-maximized="1"
     inkscape:current-layer="ad97e2e6-c06f-4161-a008-15821dcd6927"
     fit-margin-top="0"
     fit-margin-left="0"
     fit-margin-right="0"
     fit-margin-bottom="0" />
  <title
     id="title2">drag</title>
  <g
     id="g1102"
     transform="matrix(0.53571429,0,0,0.5351541,100,28.287229)"
     style="stroke-width:1.86764336">
    <ellipse
       id="ellipse933"
       ry="18.74165"
       rx="144.42094"
       cy="811.05902"
       cx="975.57904"
       style="fill:#3f3d56;stroke-width:1.86764336" />
    <rect
       id="rect935"
       height="272"
       width="436"
       y="27.5"
       x="0"
       style="fill:#f2f2f2;stroke-width:1.86764336" />
    <rect
       id="rect937"
       stroke-miterlimit="10"
       height="272"
       width="436"
       y="1"
       x="27.5"
       style="fill:none;stroke:#3f3d56;stroke-width:3.73528671;stroke-miterlimit:10" />
    <path
       id="path939"
       transform="translate(-40,-34.59967)"
       d="M 352.468,237.56768 A 94,94 0 0 0 286,77.09967 v 94 z"
       inkscape:connector-curvature="0"
       style="fill:#3f3d56;stroke-width:1.86764336" />
    <path
       id="path941"
       transform="translate(-40,-34.59967)"
       d="M 286,77.09967 A 94.01123,94.01123 0 0 0 241.032,253.66381 L 286,171.09967 Z"
       inkscape:connector-curvature="0"
       style="fill:#1652f0;stroke-width:1.86764336;fill-opacity:1" />
    <path
       id="path943"
       transform="translate(-40,-34.59967)"
       d="M 352.468,237.56768 286,171.09967 241.032,253.66381 a 94.04908,94.04908 0 0 0 111.436,-16.09613 z"
       inkscape:connector-curvature="0"
       style="fill:#575a89;stroke-width:1.86764336" />
    <rect
       id="rect945"
       height="18"
       width="18"
       y="216.5"
       x="44"
       style="fill:#1652f0;stroke-width:1.86764336;fill-opacity:1" />
    <rect
       id="rect947"
       height="18"
       width="18"
       y="216.5"
       x="70"
       style="fill:#3f3d56;stroke-width:1.86764336" />
    <rect
       id="rect949"
       height="18"
       width="18"
       y="216.5"
       x="96"
       style="fill:#575a89;stroke-width:1.86764336" />
    <rect
       id="rect951"
       height="3"
       width="74"
       y="220.5"
       x="355"
       style="fill:#3f3d56;stroke-width:1.86764336" />
    <rect
       id="rect953"
       height="3"
       width="74"
       y="229.5"
       x="355"
       style="fill:#3f3d56;stroke-width:1.86764336" />
    <rect
       id="rect955"
       height="3"
       width="74"
       y="238.5"
       x="355"
       style="fill:#3f3d56;stroke-width:1.86764336" />
    <rect
       id="rect957"
       height="272"
       width="248"
       y="406.5"
       x="137"
       style="fill:#f2f2f2;stroke-width:1.86764336" />
    <rect
       id="rect959"
       stroke-miterlimit="10"
       height="272"
       width="248"
       y="380.5"
       x="162"
       style="fill:none;stroke:#3f3d56;stroke-width:3.73528671;stroke-miterlimit:10" />
    <rect
       id="rect961"
       height="13.37143"
       width="13.37143"
       y="621.81427"
       x="175"
       style="fill:#1652f0;stroke-width:1.86764336;fill-opacity:1" />
    <rect
       id="rect963"
       height="13.37143"
       width="13.37143"
       y="621.81427"
       x="194.31429"
       style="fill:#3f3d56;stroke-width:1.86764336" />
    <rect
       id="rect965"
       height="13.37143"
       width="13.37143"
       y="621.81427"
       x="213.62857"
       style="fill:#575a89;stroke-width:1.86764336" />
    <rect
       id="rect967"
       height="2.10811"
       width="52"
       y="627.62164"
       x="325"
       style="fill:#3f3d56;stroke-width:1.86764336" />
    <rect
       id="rect969"
       height="2.10811"
       width="52"
       y="633.94592"
       x="325"
       style="fill:#3f3d56;stroke-width:1.86764336" />
    <rect
       id="rect971"
       height="2.10811"
       width="52"
       y="640.27026"
       x="325"
       style="fill:#3f3d56;stroke-width:1.86764336" />
    <path
       id="path973"
       transform="translate(-40,-34.59967)"
       d="m 326,463.09967 v 22 a 66,66 0 0 1 46.66907,112.66906 l 15.55633,15.55634 A 88,88 0 0 0 326,463.09967 Z"
       inkscape:connector-curvature="0"
       style="fill:#3f3d56;stroke-width:1.86764336" />
    <path
       id="path975"
       transform="translate(-40,-34.59967)"
       d="m 388.2254,613.32507 -15.55633,-15.55634 a 65.98344,65.98344 0 0 1 -86.6,5.87165 l -13.31577,17.52075 a 87.99775,87.99775 0 0 0 115.4721,-7.83606 z"
       inkscape:connector-curvature="0"
       style="fill:#575a89;stroke-width:1.86764336" />
    <path
       id="path977"
       transform="translate(-40,-34.59967)"
       d="m 260,551.09967 a 66,66 0 0 1 66,-66 v -22 a 87.99914,87.99914 0 0 0 -53.2467,158.06146 l 13.31579,-17.52075 A 65.885,65.885 0 0 1 260,551.09967 Z"
       inkscape:connector-curvature="0"
       style="fill:#1652f0;stroke-width:1.86764336;fill-opacity:1" />
    <path
       id="path979"
       transform="translate(-40,-34.59967)"
       d="m 971.62443,175.593 c 0,0 -4.08028,30.31061 6.41186,33.808 10.49214,3.49739 7.57765,30.31062 7.57765,30.31062 l -31.47641,23.89875 -27.979,2.33159 -6.99476,-36.13958 4.08023,-9.32638 c 0,0 15.73821,-18.65268 4.66318,-37.88826 -11.07503,-19.23558 43.71725,-6.99474 43.71725,-6.99474 z"
       inkscape:connector-curvature="0"
       style="fill:#ffb9b9;stroke-width:1.86764336" />
    <path
       id="path981"
       transform="translate(-40,-34.59967)"
       d="m 971.62443,175.593 c 0,0 -4.08028,30.31061 6.41186,33.808 10.49214,3.49739 7.57765,30.31062 7.57765,30.31062 l -31.47641,23.89875 -27.979,2.33159 -6.99476,-36.13958 4.08023,-9.32638 c 0,0 15.73821,-18.65268 4.66318,-37.88826 -11.07503,-19.23558 43.71725,-6.99474 43.71725,-6.99474 z"
       inkscape:connector-curvature="0"
       style="opacity:0.1;stroke-width:1.86764336" />
    <path
       id="path983"
       transform="translate(-40,-34.59967)"
       d="m 942.47961,411.666 -36.72248,86.2687 c 0,0 -28.56192,-16.3211 -45.46592,-14.57241 -16.904,1.74869 -37.88827,-18.65268 -37.88827,-18.65268 l 20.98427,-101.424 39.05406,-107.83584 54.20937,34.39089 z"
       inkscape:connector-curvature="0"
       style="fill:#575a89;stroke-width:1.86764336" />
    <path
       id="path985"
       transform="translate(-40,-34.59967)"
       d="m 942.47961,411.666 -36.72248,86.2687 c 0,0 -28.56192,-16.3211 -45.46592,-14.57241 -16.904,1.74869 -37.88827,-18.65268 -37.88827,-18.65268 l 20.98427,-101.424 39.05406,-107.83584 54.20937,34.39089 z"
       inkscape:connector-curvature="0"
       style="opacity:0.1;stroke-width:1.86764336" />
    <polygon
       id="polygon987"
       points="960.186,771.687 933.956,771.687 938.036,739.045 960.186,743.708 "
       style="fill:#575a89;stroke-width:1.86764336" />
    <polygon
       id="polygon989"
       points="1005.069,717.478 1028.385,695.328 1047.621,706.986 1033.631,739.045 1019.059,737.296 "
       style="fill:#575a89;stroke-width:1.86764336" />
    <path
       id="path991"
       transform="translate(-40,-34.59967)"
       d="m 1005.4324,403.50548 34.3909,81.02261 c 0,0 -12.2408,89.766 -11.6579,97.3437 0.5829,7.5777 1.1658,10.49214 -1.7487,16.904 -2.9145,6.41186 -4.0803,10.49213 -2.3316,18.06979 1.7487,7.57766 2.3316,10.49213 1.1658,13.40661 -1.1658,2.91448 -9.3263,122.99115 -13.4066,131.1517 -4.0803,8.16055 2.3316,21.56717 -1.7487,22.733 -4.0803,1.16583 -34.3909,-1.74869 -36.13959,-8.74344 -1.74869,-6.99475 5.829,-23.89876 1.74869,-29.14483 -4.08031,-5.24607 0.5829,-194.10451 -5.24607,-206.92823 -5.82897,-12.82372 -69.94757,-24.48165 -69.94757,-24.48165 0,0 -5.829,-37.30537 -2.33158,-43.13433 3.49742,-5.82896 8.16052,-42.55148 8.16052,-42.55148 z"
       inkscape:connector-curvature="0"
       style="fill:#2f2e41;stroke-width:1.86764336" />
    <path
       id="path993"
       transform="translate(-40,-34.59967)"
       d="m 971.62443,801.62374 c 0,0 16.3211,-19.23558 30.31057,0 0,0 1.1658,22.733 11.075,27.39614 9.9093,4.66314 5.2461,23.31585 -8.7434,23.89875 -13.98951,0.5829 -32.05931,2.91448 -32.6422,-4.66317 -0.58289,-7.57765 2.33158,-12.24083 -2.91448,-14.57241 -5.24606,-2.33158 0,-15.7382 0,-15.7382 z"
       inkscape:connector-curvature="0"
       style="fill:#2f2e41;stroke-width:1.86764336" />
    <path
       id="path995"
       transform="translate(-40,-34.59967)"
       d="m 973.37312,522.99925 c 0,0 -0.5829,41.96854 -4.66317,47.79751 -4.08027,5.82897 -6.41187,9.32634 -4.08028,15.7382 2.33159,6.41186 5.829,18.06979 4.08028,20.40138 -1.74872,2.33159 1.74868,14.57241 1.74868,14.57241 0,0 44.88297,21.56717 65.86727,66.45019 0,0 21.5672,35.55668 27.979,36.13958 6.4119,0.5829 13.9895,-4.08028 10.4922,9.32634 -3.4974,13.40662 -16.904,30.89351 -26.8133,29.14482 -9.9092,-1.74869 -17.4868,-18.65268 -17.4868,-18.65268 0,0 -77.52523,-78.691 -85.68578,-81.02261 -8.16055,-2.33161 -31.47641,-20.98427 -35.55668,-32.6422 -4.08027,-11.65793 -12.82372,-109.00163 -8.74345,-115.41349 4.08027,-6.41186 19.23559,-15.15531 19.23559,-15.15531 z"
       inkscape:connector-curvature="0"
       style="fill:#2f2e41;stroke-width:1.86764336" />
    <path
       id="path997"
       transform="translate(-40,-34.59967)"
       d="m 1074.2142,727.5959 c 0,0 36.1396,1.16579 36.7225,9.90924 0.5829,8.74345 -15.1553,60.62123 -12.8238,72.86205 2.3316,12.24082 -18.0697,40.21986 -31.4764,34.39089 -13.4066,-5.82897 -2.9144,-36.13958 -2.9144,-36.13958 0,0 -13.4067,-41.38564 -11.075,-41.96854 2.3316,-0.5829 25.6474,-7.57765 24.4816,-14.57241 -1.1658,-6.99476 -2.9145,-24.48165 -2.9145,-24.48165 z"
       inkscape:connector-curvature="0"
       style="fill:#2f2e41;stroke-width:1.86764336" />
    <circle
       id="circle999"
       r="36.13958"
       cy="136.0387"
       cx="904.51971"
       style="fill:#ffb9b9;stroke-width:1.86764336" />
    <path
       id="path1001"
       transform="translate(-40,-34.59967)"
       d="m 980.95077,226.305 c 0,0 -19.81848,20.98427 -34.39089,17.48689 -14.57241,-3.49738 -22.15006,-28.56192 -22.15006,-28.56192 l -26.23034,-4.66318 c 0,0 -18.65269,82.7713 -18.65269,90.93185 0,8.16055 18.65269,96.17791 18.65269,111.91611 0,15.7382 -15.15531,25.06455 8.16055,24.48165 23.31586,-0.5829 12.24082,-8.16055 46.04882,-8.74344 33.808,-0.58289 39.05406,6.99475 46.04881,-5.24607 a 97.52308,97.52308 0 0 1 17.48694,-21.56717 L 1003.6837,359.20538 1001.935,237.38 c 0,0 -14.94433,-29.14482 -21.75313,-26.81324 4e-5,0 3.68338,12.82373 0.7689,15.73824 z"
       inkscape:connector-curvature="0"
       style="fill:#1652f0;stroke-width:1.86764336;fill-opacity:1" />
    <path
       id="path1003"
       transform="translate(-40,-34.59967)"
       d="m 973.7711,205.41135 c 0,0 31.0784,3.40672 39.8219,9.81859 8.7434,6.41187 33.2251,11.075 32.6422,15.7382 -0.5829,4.6632 -28.562,71.11336 -28.562,71.11336 0,0 -12.8237,52.46068 -1.7486,64.70151 11.075,12.24083 52.4606,145.72411 45.4659,156.79914 -6.9948,11.07503 -29.1448,-33.808 -29.1448,-33.808 0,0 -29.7278,-96.17791 -46.04886,-112.499 C 969.87574,360.95406 968.71,272.93668 968.71,268.85641 c 0,-4.08027 5.0611,-63.44506 5.0611,-63.44506 z"
       inkscape:connector-curvature="0"
       style="fill:#575a89;stroke-width:1.86764336" />
    <path
       id="path1005"
       transform="translate(-40,-34.59967)"
       d="m 928.31275,212.17213 c 0,0 -38.29382,-14.42913 -51.70044,-8.60013 -13.40662,5.829 -21.56717,6.99475 -21.56717,6.99475 l -4.66314,57.12386 c 0,0 -1.74869,82.1884 -16.904,102.00688 -15.15531,19.81848 -25.06454,102.58977 -22.733,110.75032 2.33154,8.16055 -4.08027,22.15007 5.829,18.65269 9.90927,-3.49738 37.30537,-83.93709 37.30537,-83.93709 0,0 0,-46.04882 16.3211,-58.87254 16.3211,-12.82372 43.13433,-65.86729 44.30013,-78.691 1.1658,-12.82371 12.24082,-48.3804 12.24082,-48.3804 z"
       inkscape:connector-curvature="0"
       style="fill:#575a89;stroke-width:1.86764336" />
    <path
       id="path1007"
       transform="translate(-40,-34.59967)"
       d="m 1059.6418,395.92783 c 0,0 -17.4869,32.64217 -19.8185,38.47117 -2.3316,5.829 -18.6527,45.46593 -41.96853,36.72248 -23.31585,-8.74345 22.73303,-51.29489 22.73303,-51.29489 l 10.4921,-35.55668 c 0,0 27.3961,-5.82897 28.5619,11.65792 z"
       inkscape:connector-curvature="0"
       style="fill:#ffb9b9;stroke-width:1.86764336" />
    <path
       id="path1009"
       transform="translate(-40,-34.59967)"
       d="m 860.87411,210.56676 h -5.829 c 0,0 -5.829,-4.66317 -12.82372,-1.74869 -6.99472,2.91448 -23.31586,-1.16579 -23.31586,0.5829 0,1.74869 -18.06979,-5.24607 -25.64744,-1.74869 -7.57765,3.49738 -34.97379,4.66317 -34.97379,4.66317 0,0 -11.075,27.979 -3.49737,33.2251 7.57763,5.2461 18.65268,1.16579 23.89875,5.24607 5.24607,4.08028 15.15531,-0.5829 18.65268,4.66317 3.49737,5.24607 16.3211,14.57241 19.23559,8.74345 2.91449,-5.82896 -2.91449,-11.075 9.32634,-4.66318 12.24083,6.41182 31.47641,6.41187 31.47641,6.41187 z"
       inkscape:connector-curvature="0"
       style="fill:#575a89;stroke-width:1.86764336" />
    <path
       id="path1011"
       transform="translate(-40,-34.59967)"
       d="m 947.77766,143.93681 c -4.89044,-1.13 -9.96711,0.1222 -14.92033,0.93394 -4.95322,0.81174 -10.41184,1.07935 -14.60177,-1.6843 -3.0943,-2.041 -4.99673,-5.41753 -6.78315,-8.66544 a 9.97336,9.97336 0 0 1 -1.45909,-3.82348 c -0.21032,-2.40206 1.31768,-4.59363 2.94029,-6.37723 7.537,-8.28481 18.55107,-12.81929 29.65825,-14.25967 9.13047,-1.184 18.64965,-0.3911 27.08125,3.307 8.4316,3.6981 15.67956,10.47034 18.99451,19.05978 a 54.12707,54.12707 0 0 1 2.83686,13.61089 40.65711,40.65711 0 0 1 0.19122,10.30794 44.18819,44.18819 0 0 1 -1.99761,7.46792 l -5.49117,16.58084 a 10.92419,10.92419 0 0 1 -2.15919,4.27407 3.73555,3.73555 0 0 1 -4.37439,0.95837 13.61344,13.61344 0 0 0 0.19684,-5.50046 4.64127,4.64127 0 0 0 -3.66213,-3.69318 c -2.024,-0.21479 -3.753,1.35417 -5.673,2.02989 a 6.979,6.979 0 0 1 -8.811,-5.24475 c -0.30309,-1.89562 0.20582,-3.92494 -0.51269,-5.7051 -0.84183,-2.08568 -3.07419,-3.17852 -4.7513,-4.67723 a 10.93629,10.93629 0 0 1 -3.00075,-11.3656 c 0.449,-1.37991 1.717,-2.00722 1.46331,-3.59244 -0.33281,-2.07969 -3.39898,-3.5337 -5.16496,-3.94176 z"
       inkscape:connector-curvature="0"
       style="fill:#2f2e41;stroke-width:1.86764336" />
    <rect
       id="rect1013"
       height="272"
       width="248"
       y="236.5"
       x="507"
       style="fill:#f2f2f2;stroke-width:1.86764336" />
    <rect
       id="rect1015"
       stroke-miterlimit="10"
       height="272"
       width="248"
       y="210.5"
       x="532"
       style="fill:none;stroke:#3f3d56;stroke-width:3.73528671;stroke-miterlimit:10" />
    <polyline
       id="polyline1017"
       stroke-miterlimit="10"
       points="556 227.5 556 435.5 757 435.5"
       style="fill:none;stroke:#3f3d56;stroke-width:3.73528671;stroke-miterlimit:10" />
    <rect
       id="rect1019"
       height="72"
       width="45"
       y="362.5"
       x="567"
       style="fill:#575a89;stroke-width:1.86764336" />
    <rect
       id="rect1021"
       height="121"
       width="45"
       y="313.5"
       x="632"
       style="fill:#3f3d56;stroke-width:1.86764336" />
    <rect
       id="rect1023"
       height="178"
       width="45"
       y="256.5"
       x="697"
       style="fill:#1652f0;stroke-width:1.86764336;fill-opacity:1" />
    <rect
       id="rect1025"
       height="13.37143"
       width="13.37143"
       y="451.8143"
       x="553"
       style="fill:#1652f0;stroke-width:1.86764336;fill-opacity:1" />
    <rect
       id="rect1027"
       height="13.37143"
       width="13.37143"
       y="451.8143"
       x="572.31427"
       style="fill:#3f3d56;stroke-width:1.86764336" />
    <rect
       id="rect1029"
       height="13.37143"
       width="13.37143"
       y="451.8143"
       x="591.62854"
       style="fill:#575a89;stroke-width:1.86764336" />
    <rect
       id="rect1031"
       height="2.10811"
       width="52"
       y="457.62161"
       x="703"
       style="fill:#3f3d56;stroke-width:1.86764336" />
    <rect
       id="rect1033"
       height="2.10811"
       width="52"
       y="463.94595"
       x="703"
       style="fill:#3f3d56;stroke-width:1.86764336" />
    <rect
       id="rect1035"
       height="2.10811"
       width="52"
       y="470.27026"
       x="703"
       style="fill:#3f3d56;stroke-width:1.86764336" />
    <path
       id="path1037"
       transform="translate(-40,-34.59967)"
       d="m 764.3076,212.28192 c 10.62848,0.46211 18.52575,10.10069 17.376,20.67691 -1.04159,9.58175 -4.884,21.50465 -16.98745,26.08434 -21.56716,8.16055 -20.40137,-37.88827 -16.3211,-39.637 2.72023,-1.16575 6.9948,-7.51284 15.93255,-7.12425 z"
       inkscape:connector-curvature="0"
       style="fill:#ffb9b9;stroke-width:1.86764336" />
    <path
       id="path1039"
       transform="translate(-40,-34.59967)"
       d="m 1039.8233,227.854 6.4119,3.11414 c 0,0 13.9895,28.56192 14.5724,32.6422 0.5829,4.08028 9.9092,19.23558 6.4118,23.31586 -3.4973,4.08028 -8.7434,14.57241 -5.246,18.65268 3.4973,4.08027 11.6579,20.40138 11.6579,26.23034 0,5.82896 -8.7434,21.56717 -2.9145,23.31586 5.829,1.74869 4.0803,24.48165 2.9145,26.23034 -1.1658,1.74869 -16.3211,30.31061 -16.3211,30.31061 0,0 -2.9145,-32.6422 -31.4764,-19.23558 0,0 -2.3316,-16.3211 0,-17.48689 2.3316,-1.16579 8.1606,-8.16055 3.4974,-9.32635 -4.6632,-1.1658 -11.075,-15.1553 -9.9093,-16.904 1.1658,-1.7487 4.0803,-4.08028 1.1658,-5.829 -2.9145,-1.74872 -5.246,-11.65792 -4.6631,-13.40661 0.5829,-1.74869 -6.4119,-9.90924 -6.4119,-9.90924 z"
       inkscape:connector-curvature="0"
       style="fill:#575a89;stroke-width:1.86764336" />
  </g>
</svg>
