<?xml version="1.0" encoding="UTF-8" standalone="no"?>
<svg
   xmlns:dc="http://purl.org/dc/elements/1.1/"
   xmlns:cc="http://creativecommons.org/ns#"
   xmlns:rdf="http://www.w3.org/1999/02/22-rdf-syntax-ns#"
   xmlns:svg="http://www.w3.org/2000/svg"
   xmlns="http://www.w3.org/2000/svg"
   xmlns:xlink="http://www.w3.org/1999/xlink"
   xmlns:sodipodi="http://sodipodi.sourceforge.net/DTD/sodipodi-0.dtd"
   xmlns:inkscape="http://www.inkscape.org/namespaces/inkscape"
   id="ad97e2e6-c06f-4161-a008-15821dcd6927"
   data-name="Layer 1"
   width="800"
   height="500.18137"
   viewBox="0 0 799.99999 500.18135"
   version="1.1"
   sodipodi:docname="img8.svg"
   inkscape:version="0.92.4 (5da689c313, 2019-01-14)">
  <metadata
     id="metadata93">
    <rdf:RDF>
      <cc:Work
         rdf:about="">
        <dc:format>image/svg+xml</dc:format>
        <dc:type
           rdf:resource="http://purl.org/dc/dcmitype/StillImage" />
        <dc:title>drag</dc:title>
      </cc:Work>
    </rdf:RDF>
  </metadata>
  <defs
     id="defs91">
    <linearGradient
       id="bb74ba87-0e24-4c9d-a373-e17481b146a7"
       x1="345.70001"
       y1="823.95001"
       x2="345.70001"
       y2="606.19"
       gradientTransform="translate(636.4)"
       gradientUnits="userSpaceOnUse">
      <stop
         offset="0"
         stop-color="gray"
         stop-opacity="0.25"
         id="stop2" />
      <stop
         offset="0.54"
         stop-color="gray"
         stop-opacity="0.12"
         id="stop4" />
      <stop
         offset="1"
         stop-color="gray"
         stop-opacity="0.1"
         id="stop6" />
    </linearGradient>
    <linearGradient
       id="9ace95f1-7a40-47d7-848c-20f8f7c52f52"
       x1="-254.27"
       y1="469.69"
       x2="-254.27"
       y2="232.12"
       gradientTransform="matrix(0.79189853,-0.03042168,0.03042168,0.79189853,808.63577,-0.19812)"
       xlink:href="#bb74ba87-0e24-4c9d-a373-e17481b146a7" />
  </defs>
  <sodipodi:namedview
     pagecolor="#ffffff"
     bordercolor="#666666"
     borderopacity="1"
     objecttolerance="10"
     gridtolerance="10"
     guidetolerance="10"
     inkscape:pageopacity="0"
     inkscape:pageshadow="2"
     inkscape:window-width="1440"
     inkscape:window-height="837"
     id="namedview89"
     showgrid="false"
     inkscape:zoom="0.5868792"
     inkscape:cx="44.755756"
     inkscape:cy="213.45006"
     inkscape:window-x="-8"
     inkscape:window-y="-8"
     inkscape:window-maximized="1"
     inkscape:current-layer="ad97e2e6-c06f-4161-a008-15821dcd6927"
     fit-margin-top="0"
     fit-margin-left="0"
     fit-margin-right="0"
     fit-margin-bottom="0" />
  <title
     id="title2">drag</title>
  <g
     id="g1251"
     transform="matrix(0.58129547,0,0,0.58129547,124.1753,7.0815002)"
     style="stroke-width:1.72029555">
    <polygon
       id="polygon1106"
       points="214,219.205 27,219.205 27,96.205 198.889,96.205 "
       style="fill:#efefef;stroke-width:1.72029555" />
    <circle
       id="circle1108"
       r="17"
       cy="134.04758"
       cx="141.5"
       style="fill:#3f3d56;stroke-width:1.72029555" />
    <path
       id="path1110"
       transform="translate(-125.5,-31.95243)"
       d="m 314.45,93.40106 c 1.61169,-1.82887 3.28094,-3.64879 4.96184,-5.40977 l 1.7601,1.67991 c -1.65995,1.73773 -3.30725,3.53352 -4.89714,5.3377 z"
       inkscape:connector-curvature="0"
       style="fill:#3f3d56;stroke-width:1.72029555" />
    <path
       id="path1112"
       transform="translate(-125.5,-31.95243)"
       d="m 330.18119,77.61075 c 3.717,-3.29835 7.61542,-6.47946 11.58771,-9.45459 l 1.45874,1.94609 c -3.91865,2.936 -7.76508,6.07414 -11.43164,9.32807 z m 23.91925,-17.916 c 4.207,-2.63673 8.57785,-5.12954 12.98992,-7.40972 l 1.11712,2.16138 c -4.35331,2.24894 -8.66486,4.70792 -12.81488,7.309 z m 26.549,-13.717 c 4.577,-1.90337 9.29688,-3.642 14.02944,-5.16924 l 0.74727,2.31531 c -4.67,1.506 -9.327,3.22217 -13.84258,5.09975 z m 28.99245,-6.81175 -0.55706,-2.36725 c 4.841,-1.13876 9.77987,-2.09 14.67858,-2.82778 l 0.36211,2.4057 c -4.83384,0.72757 -9.70672,1.66599 -14.48363,2.78933 z m 29.14653,-4.3827 -0.16268,-2.42692 c 4.954,-0.33179 9.98245,-0.46019 14.94573,-0.38142 l -0.0383,2.43259 c -4.89688,-0.0783 -9.85762,0.04845 -14.74471,0.37571 z m 29.47031,0.47215 0.24041,-2.42012 c 4.94231,0.49106 9.92687,1.19634 14.81476,2.09613 l -0.44031,2.39236 c -4.82224,-0.88807 -9.7393,-1.58391 -14.61486,-2.06841 z m 91.16375,320.4982 c 3.885,-2.97573 7.69647,-6.15385 11.329,-9.44678 l 1.63365,1.8024 c -3.68218,3.33777 -7.54552,6.55945 -11.48328,9.5753 z M 497.2659,40.59326 l 0.63606,-2.34757 c 4.79046,1.29885 9.5889,2.81468 14.26284,4.50527 l -0.82734,2.28689 C 506.726,43.37028 501.99167,41.87458 497.2659,40.59326 Z m 83.9971,295.3633 c 3.34443,-3.577 6.58251,-7.33855 9.62365,-11.18022 l 1.90741,1.51026 c -3.08284,3.89363 -6.36481,7.70592 -9.75443,11.33083 z M 524.99548,50.624 526.0079,48.41168 c 4.51609,2.06732 9.00078,4.34653 13.33121,6.77572 l -1.18959,2.121 c -4.27279,-2.39634 -8.69815,-4.64559 -13.15404,-6.6844 z m 74.56687,262.2204 c 2.71752,-4.07838 5.29838,-8.3188 7.67126,-12.6039 l 2.12793,1.17859 c -2.40517,4.34258 -5.02077,8.64052 -7.77436,12.7737 z M 550.71128,65.04645 552.0704,63.02987 c 4.11653,2.77448 8.16935,5.75455 12.04545,8.85729 L 562.596,73.786 c -3.82485,-3.06144 -7.82313,-6.0017 -11.88472,-8.73955 z m 63.13623,222.005 c 2.01507,-4.4669 3.86951,-9.07241 5.511,-13.68754 l 2.29225,0.8149 c -1.66434,4.67815 -3.54325,9.34526 -5.58555,13.87262 z M 573.72147,83.4681 l 1.67062,-1.7675 c 3.61,3.41252 7.119,7.01456 10.42992,10.70679 l -1.81113,1.62361 c -3.26609,-3.64248 -6.72809,-7.196 -10.28941,-10.5629 z m 50.00519,175.80176 c 1.25781,-4.743 2.33142,-9.59018 3.19084,-14.40683 l 2.39512,0.42732 c -0.87176,4.88244 -1.96014,9.79548 -3.23434,14.60284 z m -30.33454,-153.86458 1.93851,-1.469 c 2.99687,3.95682 5.86374,8.08614 8.52059,12.27379 l -2.05417,1.30276 c -2.62058,-4.13083 -5.44847,-8.20465 -8.40493,-12.10755 z m 35.51461,124.83587 c 0.458,-4.876 0.71673,-9.834 0.76858,-14.73565 l 2.4319,0.0262 c -0.0524,4.96808 -0.31434,9.99376 -0.77875,14.93711 z m -19.73215,-99.95648 2.15495,-1.12772 c 2.3003,4.39272 4.44683,8.942 6.38061,13.52034 l -2.2408,0.94633 c -1.90799,-4.51689 -4.02555,-9.00441 -6.29476,-13.33895 z m 20.04429,70.47258 c -0.35322,-4.876 -0.916,-9.8074 -1.6734,-14.6568 l 2.40356,-0.37506 c 0.76713,4.915 1.33816,9.91354 1.69577,14.85594 z m -8.57547,-43.32144 2.31087,-0.75962 c 1.54815,4.70932 2.92584,9.563 4.0873,14.38277 l -2.36511,0.57 c -1.14591,-4.75996 -2.50581,-9.54529 -4.03306,-14.19315 z"
       inkscape:connector-curvature="0"
       style="fill:#3f3d56;stroke-width:1.72029555" />
    <path
       id="path1114"
       transform="translate(-125.5,-31.95243)"
       d="m 541.01188,368.11384 c 2.07621,-1.21338 4.156,-2.486 6.18158,-3.78317 l 1.31221,2.048 c -2.05348,1.31485 -4.16178,2.60532 -6.26635,3.83468 z"
       inkscape:connector-curvature="0"
       style="fill:#3f3d56;stroke-width:1.72029555" />
    <polygon
       id="polygon1116"
       points="98,177.205 162,113.205 214.5,166.705 214.5,219.205 27,219.205 27,180.742 64.268,143.474 "
       style="fill:#1652f0;stroke-width:1.72029555;fill-opacity:1" />
    <path
       id="path1118"
       transform="translate(-125.5,-31.95243)"
       d="m 762.5,555.15778 v 241 h 310 v -241 z m 269.5193,64.44946 h -24.0095 v -24.00952 h 24.0095 z"
       inkscape:connector-curvature="0"
       style="fill:#3f3d56;stroke-width:1.72029555" />
    <rect
       id="rect1120"
       height="26"
       width="20"
       y="428.20535"
       x="135"
       style="fill:#3f3d56;stroke-width:1.72029555" />
    <rect
       id="rect1122"
       transform="rotate(45,553.32,466.68966)"
       height="26"
       width="20"
       y="621.15778"
       x="567.5"
       style="fill:#3f3d56;stroke-width:1.72029555" />
    <rect
       id="rect1124"
       transform="rotate(45,494.32,12.689659)"
       height="26"
       width="20"
       y="167.15778"
       x="508.5"
       style="fill:#3f3d56;stroke-width:1.72029555" />
    <path
       id="path1126"
       transform="translate(-125.5,-31.95243)"
       d="m 785.50278,718.40132 c -1.107,2.17185 -2.27191,4.34933 -3.46278,6.4726 l -2.12218,-1.19012 c 1.17635,-2.09555 2.326,-4.24421 3.418,-6.38673 z"
       inkscape:connector-curvature="0"
       style="fill:#3f3d56;stroke-width:1.72029555" />
    <path
       id="path1128"
       transform="translate(-125.5,-31.95243)"
       d="m 774.18622,737.60392 c -2.78133,4.11816 -5.76755,8.16783 -8.87647,12.0363 l -1.89636,-1.52282 c 3.06667,-3.81726 6.01318,-7.81236 8.7567,-11.875 z m -18.72013,23.29525 c -3.42032,3.599 -7.03509,7.09924 -10.74261,10.40377 l -1.61892,-1.81622 c 3.65835,-3.25967 7.22409,-6.71243 10.59807,-10.26267 z m -22.31034,19.88095 c -3.96086,2.98049 -8.101,5.83692 -12.306,8.49166 l -1.29889,-2.05717 c 4.14961,-2.61866 8.23446,-5.43768 12.14225,-8.37794 z m -26.39224,13.79908 1.12754,2.15473 c -4.40649,2.3054 -8.95435,4.45351 -13.51634,6.38479 l -0.94825,-2.24039 c 4.50168,-1.90533 8.9888,-4.02461 13.33705,-6.29913 z m -27.14478,11.4843 0.76033,2.31047 c -4.71639,1.55179 -9.55537,2.925 -14.3827,4.08143 l -0.567,-2.3659 c 4.76286,-1.14039 9.53664,-2.49523 14.18937,-4.026 z m -28.66419,6.862 0.3682,2.404 c -4.90942,0.7518 -9.913,1.3066 -14.87118,1.649 l -0.16766,-2.42676 c 4.8917,-0.33751 9.82751,-0.88469 14.67064,-1.62627 z M 483.04739,525.11109 c -3.02421,3.84738 -5.92693,7.87255 -8.62776,11.96448 l -2.03012,-1.34018 c 2.73783,-4.14771 5.68,-8.228 8.74533,-12.1273 z m 138.48313,289.84807 -0.0331,2.432 c -4.96295,-0.0684 -9.98752,-0.345 -14.93489,-0.82174 l 0.23344,-2.42072 c 4.88116,0.46998 9.8386,0.743 14.73452,0.81046 z M 466.80809,549.71221 c -2.35126,4.2955 -4.55364,8.74346 -6.54537,13.22006 l -2.22274,-0.9892 c 2.01922,-4.5373 4.25152,-9.04525 6.63465,-13.39845 z m 125.37044,262.4175 -0.43124,2.39445 c -4.888,-0.88092 -9.79828,-1.97489 -14.59634,-3.25245 l 0.62555,-2.35 c 4.73407,1.26008 9.57939,2.33975 14.40203,3.208 z M 454.82227,576.64508 c -1.61945,4.62553 -3.06629,9.37407 -4.30056,14.11424 l -2.354,-0.61316 c 1.25127,-4.80387 2.71747,-9.61676 4.35825,-14.30432 z m 108.86421,227.90092 -0.81569,2.29095 c -4.67662,-1.66516 -9.34259,-3.54528 -13.86785,-5.58812 l 1.00061,-2.21684 c 4.46538,2.0156 9.06863,3.8707 13.68293,5.51401 z M 447.39073,605.17779 c -0.84253,4.82741 -1.495,9.74919 -1.93883,14.6274 l -2.42281,-0.22006 c 0.45031,-4.94493 1.11121,-9.93246 1.96509,-14.8252 z m 89.43127,187.23865 -1.17929,2.127 c -4.34444,-2.409 -8.63809,-5.02668 -12.7623,-7.78091 l 1.35113,-2.02261 c 4.06846,2.71727 8.30453,5.29962 12.59046,7.67652 z M 444.721,634.54249 c -0.0404,4.90675 0.12348,9.86873 0.48726,14.7479 l -2.4262,0.18094 c -0.36818,-4.946 -0.53411,-9.97539 -0.49381,-14.94859 z m 67.5983,141.50958 -1.51291,1.90445 c -3.88569,-3.08852 -7.68831,-6.37643 -11.302,-9.773 l 1.66625,-1.77212 c 3.56447,3.35051 7.31553,6.59434 11.14868,9.64067 z M 446.91291,663.94818 c 0.76737,4.837 1.74812,9.70387 2.91529,14.46483 l -2.36222,0.57856 c -1.18316,-4.82541 -2.17759,-9.75869 -2.95548,-14.6625 z m 43.93936,91.92382 -1.80735,1.62759 c -3.31921,-3.68377 -6.52837,-7.55743 -9.53864,-11.512 l 1.93556,-1.47321 c 2.97003,3.9015 6.13578,7.72249 9.41043,11.35762 z m -36.919,-63.28621 c 1.55319,4.63553 3.32307,9.27261 5.26118,13.782 l -2.23511,0.96026 c -1.96379,-4.57047 -3.75838,-9.27057 -5.33229,-13.96929 z m 19.06619,39.83421 -2.0498,1.30974 c -2.66926,-4.17725 -5.20926,-8.5367 -7.53137,-12.917 l 2.14943,-1.13955 c 2.29221,4.32629 4.79798,8.62391 7.43174,12.74681 z"
       inkscape:connector-curvature="0"
       style="fill:#3f3d56;stroke-width:1.72029555" />
    <path
       id="path1130"
       transform="translate(-125.5,-31.95243)"
       d="m 497.81131,508.56564 c -1.70979,1.691 -3.40837,3.44031 -5.0483,5.1999 l -1.77975,-1.658 c 1.66258,-1.78366 3.38432,-3.55732 5.11762,-5.27086 z"
       inkscape:connector-curvature="0"
       style="fill:#3f3d56;stroke-width:1.72029555" />
    <path
       id="path1132"
       transform="translate(-125.5,-31.95243)"
       d="m 1025.6465,567.67926 c -0.2295,-0.375 -5.6406,-9.41015 -7.5166,-28.17187 -1.7207,-17.21289 -0.6143,-46.22656 14.4326,-86.69824 28.5059,-76.6709 -6.5693,-138.53321 -6.9277,-139.14942 l 1.7304,-1.0039 c 0.091,0.15625 9.1416,15.92871 14.4883,41.04394 a 179.06122,179.06122 0 0 1 -7.416,99.80664 c -28.457,76.54 -7.3008,112.77344 -7.084,113.13086 z"
       inkscape:connector-curvature="0"
       style="fill:#3f3d56;stroke-width:1.72029555" />
    <circle
       id="circle1134"
       r="13"
       cy="264.20535"
       cx="889"
       style="fill:#1652f0;stroke-width:1.72029555;fill-opacity:1" />
    <circle
       id="circle1136"
       r="13"
       cy="312.20535"
       cx="930"
       style="fill:#3f3d56;stroke-width:1.72029555" />
    <circle
       id="circle1138"
       r="13"
       cy="344.20535"
       cx="902"
       style="fill:#1652f0;stroke-width:1.72029555;fill-opacity:1" />
    <circle
       id="circle1140"
       r="13"
       cy="371.20535"
       cx="936"
       style="fill:#1652f0;stroke-width:1.72029555;fill-opacity:1" />
    <circle
       id="circle1142"
       r="13"
       cy="413.20535"
       cx="892"
       style="fill:#3f3d56;stroke-width:1.72029555" />
    <path
       id="path1144"
       transform="translate(-125.5,-31.95243)"
       d="m 1033.5,568.15778 c 0,0 -13,-32 26,-56 z"
       inkscape:connector-curvature="0"
       style="fill:#3f3d56;stroke-width:1.72029555" />
    <path
       id="path1146"
       transform="translate(-125.5,-31.95243)"
       d="m 1017.512,567.57731 c 0,0 -5.9164,-34.02934 -51.7085,-33.73768 z"
       inkscape:connector-curvature="0"
       style="fill:#3f3d56;stroke-width:1.72029555" />
    <path
       id="path1148"
       transform="translate(-125.5,-31.95243)"
       d="m 603.98328,770.754 a 12,12 0 1 1 12,-12 12.01375,12.01375 0 0 1 -12,12 z m 0,-22 a 10,10 0 1 0 10,10 10.01114,10.01114 0 0 0 -10,-10 z"
       inkscape:connector-curvature="0"
       style="fill:#2f2e41;stroke-width:1.72029555" />
    <path
       id="path1150"
       transform="translate(-125.5,-31.95243)"
       d="m 735.81092,127.04382 h -19.74115 v -19.74115 h 19.74115 z m -18.2226,-1.51855 h 16.70405 v -16.70405 h -16.70405 z"
       inkscape:connector-curvature="0"
       style="fill:#3f3d56;stroke-width:1.72029555" />
    <path
       id="path1152"
       transform="translate(-125.5,-31.95243)"
       d="m 197.45479,678.1239 -13.4651,-14.43621 14.43621,-13.4651 13.4651,14.43622 z M 186.136,663.76239 197.52954,675.97764 209.74479,664.5841 198.3512,652.36885 Z"
       inkscape:connector-curvature="0"
       style="fill:#2f2e41;stroke-width:1.72029555" />
    <polygon
       id="polygon1154"
       points="602.103,515.335 244.286,515.335 244.286,370.895 541.92,370.895 "
       style="fill:#efefef;stroke-width:1.72029555" />
    <path
       id="path1156"
       transform="translate(-125.5,-31.95243)"
       d="M 729.23805,548.3816 H 326.01672 v -177.267 h 330.099 l 0.2789,0.67695 z M 328.2052,546.19312 h 397.763 L 654.65069,373.30307 H 328.2052 Z"
       inkscape:connector-curvature="0"
       style="fill:#3f3d56;stroke-width:1.72029555" />
    <rect
       id="rect1158"
       height="16.41361"
       width="178.36127"
       y="393.87418"
       x="303.37537"
       style="fill:#1652f0;stroke-width:1.72029555;fill-opacity:1" />
    <rect
       id="rect1160"
       height="16.41361"
       width="178.36127"
       y="427.79565"
       x="303.37537"
       style="fill:#1652f0;stroke-width:1.72029555;fill-opacity:1" />
    <rect
       id="rect1162"
       height="16.41361"
       width="178.36127"
       y="461.71713"
       x="303.37537"
       style="fill:#1652f0;stroke-width:1.72029555;fill-opacity:1" />
    <path
       id="path1164"
       transform="translate(-125.5,-31.95243)"
       d="M 424.93164,275.15778 H 125.5 v -182 h 232.69824 l 0.24072,0.65576 z m -297.43164,-2 h 294.56836 l -65.2666,-178 H 127.5 Z"
       inkscape:connector-curvature="0"
       style="fill:#3f3d56;stroke-width:1.72029555" />
    <path
       id="path1166"
       transform="translate(-125.5,-31.95243)"
       d="m 340.5,252.15778 h -189 v -141 h 189 z m -187,-2 h 185 v -137 h -185 z"
       inkscape:connector-curvature="0"
       style="fill:#3f3d56;stroke-width:1.72029555" />
    <circle
       id="circle1168"
       r="18"
       cy="242.20535"
       cx="298"
       style="fill:#1652f0;stroke-width:1.72029555;fill-opacity:1" />
    <circle
       id="circle1170"
       r="18"
       cy="516.20532"
       cx="600"
       style="fill:#1652f0;stroke-width:1.72029555;fill-opacity:1" />
    <circle
       id="circle1172"
       r="30.28838"
       cy="239.742"
       cx="729.07953"
       style="fill:#a0616a;stroke-width:1.72029555" />
    <path
       id="path1174"
       transform="translate(-125.5,-31.95243)"
       d="m 833.75624,286.20762 c 0,0 10.09613,22.71629 -3.78605,31.5504 -13.88218,8.83411 22.71629,45.43256 22.71629,45.43256 l 40.3845,-42.90853 c 0,0 -21.45427,-13.88218 -17.66822,-36.59846 z"
       inkscape:connector-curvature="0"
       style="fill:#a0616a;stroke-width:1.72029555" />
    <path
       id="path1176"
       transform="translate(-125.5,-31.95243)"
       d="m 764.34538,382.12082 -8.83411,50.48063 c 0,0 -15.14419,30.28837 -15.14419,56.7907 0,26.50233 -2.524,31.5504 -2.524,31.5504 0,0 -25.24032,50.48062 -7.5721,53.00465 17.66822,2.52403 25.24032,-51.74264 25.24032,-51.74264 0,0 23.9783,-59.31474 23.9783,-78.245 l 16.4062,-41.64652 z"
       inkscape:connector-curvature="0"
       style="fill:#a0616a;stroke-width:1.72029555" />
    <path
       id="path1178"
       transform="translate(-125.5,-31.95243)"
       d="m 947.33766,384.64485 2.524,44.17055 c 0,0 8.83411,22.71628 2.524,63.10078 l -5.04806,39.12249 c 0,0 11.35814,44.17055 0,45.43257 -11.35814,1.26202 -25.24032,-27.76435 -17.66822,-44.17055 v -13.88218 c 0,0 -7.5721,-59.31473 -5.04807,-69.41086 l -8.83411,-47.9566 z"
       inkscape:connector-curvature="0"
       style="fill:#a0616a;stroke-width:1.72029555" />
    <polygon
       id="polygon1180"
       points="657.776,702.271 670.396,735.083 698.16,730.035 680.492,694.699 "
       style="fill:#a0616a;stroke-width:1.72029555" />
    <polygon
       id="polygon1182"
       points="777.667,728.773 773.881,776.73 805.431,776.73 804.169,735.083 "
       style="fill:#a0616a;stroke-width:1.72029555" />
    <path
       id="path1184"
       transform="translate(-125.5,-31.95243)"
       d="m 803.46786,472.986 -3.786,18.93023 c 0,0 -7.5721,6.31008 -7.5721,12.62016 0,6.31008 -2.524,8.83411 -2.524,8.83411 0,0 -1.262,0 -2.524,2.524 a 15.61846,15.61846 0 0 1 -2.524,3.786 c 0,0 -74.45893,75.72094 -58.05272,113.58141 16.40621,37.86047 47.95646,114.84346 47.95646,114.84346 0,0 36.5985,-11.35814 36.5985,-20.19225 L 775.70356,628.21388 846.3764,555.017 903.16711,632 c 0,0 -11.35815,135.03568 -3.786,136.29769 7.57215,1.26201 49.21861,10.09613 50.48063,6.31008 1.26202,-3.78605 7.57209,-171.63413 5.04806,-177.94421 -2.52403,-6.31008 -39.12249,-82.031 -39.12249,-82.031 0,0 6.31008,-7.5721 2.524,-10.09613 -3.78608,-2.52403 -10.09614,-26.50243 -10.09614,-26.50243 0,0 -98.43723,-16.40619 -104.74731,-5.048 z"
       inkscape:connector-curvature="0"
       style="fill:#2f2e41;stroke-width:1.72029555" />
    <path
       id="path1186"
       transform="translate(-125.5,-31.95243)"
       d="m 857.73454,331.64019 -25.43806,-15.68876 c 0,0 -14.94648,0.54457 -18.73248,4.33062 -3.786,3.78605 -26.50233,13.88217 -26.50233,13.88217 0,0 5.04806,151.44189 15.14419,146.39382 10.09613,-5.04807 2.524,-8.83411 10.09612,-5.04806 7.57212,3.78605 97.17521,5.04806 98.43723,5.04806 1.26202,0 2.524,-2.524 2.524,-2.524 l 5.04806,-76.983 16.40621,-64.3628 -48.57185,-22.34874 z"
       inkscape:connector-curvature="0"
       style="fill:#d0cde1;stroke-width:1.72029555" />
    <path
       id="path1188"
       transform="translate(-125.5,-31.95243)"
       d="m 797.15779,332.9022 h -10.09613 c 0,0 -13.88217,3.786 -20.19225,23.9783 -6.31008,20.1923 -8.83411,29.02636 -6.31008,31.5504 2.52403,2.52404 36.59846,21.45426 36.59846,21.45426 z"
       inkscape:connector-curvature="0"
       style="fill:#d0cde1;stroke-width:1.72029555" />
    <path
       id="path1190"
       transform="translate(-125.5,-31.95243)"
       d="m 917.04928,335.42624 17.66822,1.262 c 0,0 22.71628,53.00466 16.4062,55.52869 -6.31008,2.52403 -42.90853,21.45427 -42.90853,17.66822 0,-3.78605 8.83411,-74.45891 8.83411,-74.45891 z"
       inkscape:connector-curvature="0"
       style="fill:#d0cde1;stroke-width:1.72029555" />
    <path
       id="path1192"
       transform="translate(-125.5,-31.95243)"
       d="m 798.4198,750.6294 -10.29028,-3.786 -23.78414,31.55039 c 0,0 -44.17055,31.55039 -3.786,30.28838 0,0 31.55039,-5.04807 34.07443,-13.88218 0,0 36.59845,-10.09612 36.59845,-16.4062 0,-6.31008 -8.41079,-23.13166 -11.14648,-23.555 -2.73569,-0.42334 -14.09388,4.62472 -21.66598,-4.20939 z"
       inkscape:connector-curvature="0"
       style="fill:#2f2e41;stroke-width:1.72029555" />
    <path
       id="path1194"
       transform="translate(-125.5,-31.95243)"
       d="m 930.93145,794.8 c 0,0 -30.68074,-0.4988 -30.48456,0.38161 0.19618,0.88041 -8.63793,21.07266 -7.37591,28.64475 1.26202,7.57209 12.62016,17.66822 10.09613,22.71629 -2.52403,5.04807 7.57209,20.19225 27.76434,21.45426 20.19225,1.26201 17.66822,-21.45426 17.66822,-21.45426 l -10.09612,-23.9783 z"
       inkscape:connector-curvature="0"
       style="fill:#2f2e41;stroke-width:1.72029555" />
    <path
       id="path1196"
       transform="translate(-125.5,-31.95243)"
       d="m 836.009,236.63718 a 57.33086,57.33086 0 0 1 -4.73777,3.625 45.04056,45.04056 0 0 0 -5.71151,5.67348 l -1.953,2.18651 c -1.662,1.8607 -3.42545,3.98435 -3.35532,6.47821 0.026,0.92537 0.3104,1.82326 0.42179,2.74227 0.44189,3.64559 -1.78633,7.65254 0.0479,10.83393 0.53029,0.91977 1.35049,1.63893 1.93509,2.52517 a 5.90339,5.90339 0 0 1 0.933,3.8441 c 1.97109,0.0808 3.588,-1.68559 4.2062,-3.559 0.6182,-1.87341 0.53458,-3.89723 0.83565,-5.84688 0.30107,-1.94965 1.14672,-4.01407 2.91826,-4.88206 3.77989,-1.852 8.12034,2.96312 12.15489,1.76321 2.817,-0.83782 4.30263,-4.32993 7.1827,-4.91551 2.06136,-0.41912 4.04577,0.80566 5.96184,1.67376 1.91607,0.8681 4.49888,1.26994 5.85371,-0.33919 0.897,-1.06537 0.99274,-2.7726 2.18248,-3.49657 1.42587,-0.86766 3.21152,0.3404 4.29108,1.61338 1.07956,1.27298 2.272,2.82958 3.94043,2.78325 2.21339,-0.0615 3.90877,-3.00925 6.00968,-2.30992 2.3713,0.78934 1.2807,4.58394 2.71947,6.62748 1.21638,1.72768 3.76367,1.62593 5.85723,1.34049 a 2.09782,2.09782 0 0 0 2.184,-2.80119 l -0.87446,-11.596 a 5.5988,5.5988 0 0 0 -0.51285,-2.31427 c -0.6088,-1.10293 -1.86952,-1.6615 -2.72684,-2.5846 -1.80257,-1.94087 -1.71594,-5.34342 -3.95744,-6.75477 -1.16388,-0.73284 -2.6863,-0.71084 -3.84195,-1.4566 -1.482,-0.95639 -1.95947,-2.87178 -2.99763,-4.29775 -1.48415,-2.03857 -4.0789,-2.98373 -6.58713,-3.24307 -2.50823,-0.25934 -5.03982,0.0534 -7.56036,-0.0288 -5.12423,-0.16717 -10.24831,-1.60932 -15.39753,-0.7651 -4.49259,0.73667 -6.37872,4.54876 -9.42159,7.481 z"
       inkscape:connector-curvature="0"
       style="fill:#2f2e41;stroke-width:1.72029555" />
  </g>
</svg>
