<?xml version="1.0" encoding="UTF-8" standalone="no"?>
<svg
   xmlns:dc="http://purl.org/dc/elements/1.1/"
   xmlns:cc="http://creativecommons.org/ns#"
   xmlns:rdf="http://www.w3.org/1999/02/22-rdf-syntax-ns#"
   xmlns:svg="http://www.w3.org/2000/svg"
   xmlns="http://www.w3.org/2000/svg"
   xmlns:sodipodi="http://sodipodi.sourceforge.net/DTD/sodipodi-0.dtd"
   xmlns:inkscape="http://www.inkscape.org/namespaces/inkscape"
   id="ad97e2e6-c06f-4161-a008-15821dcd6927"
   data-name="Layer 1"
   width="600"
   height="617.57471"
   viewBox="0 0 600 617.57469"
   version="1.1"
   sodipodi:docname="img9.svg"
   inkscape:version="0.92.4 (5da689c313, 2019-01-14)">
  <metadata
     id="metadata93">
    <rdf:RDF>
      <cc:Work
         rdf:about="">
        <dc:format>image/svg+xml</dc:format>
        <dc:type
           rdf:resource="http://purl.org/dc/dcmitype/StillImage" />
        <dc:title>drag</dc:title>
      </cc:Work>
    </rdf:RDF>
  </metadata>
  <defs
     id="defs91" />
  <sodipodi:namedview
     pagecolor="#ffffff"
     bordercolor="#666666"
     borderopacity="1"
     objecttolerance="10"
     gridtolerance="10"
     guidetolerance="10"
     inkscape:pageopacity="0"
     inkscape:pageshadow="2"
     inkscape:window-width="1600"
     inkscape:window-height="837"
     id="namedview89"
     showgrid="false"
     inkscape:zoom="0.5868792"
     inkscape:cx="-97.920435"
     inkscape:cy="363.64942"
     inkscape:window-x="-8"
     inkscape:window-y="-8"
     inkscape:window-maximized="1"
     inkscape:current-layer="ad97e2e6-c06f-4161-a008-15821dcd6927"
     fit-margin-top="0"
     fit-margin-left="0"
     fit-margin-right="0"
     fit-margin-bottom="0.2" />
  <title
     id="title2">drag</title>
  <g
     id="g896"
     transform="matrix(1.1697515,0,0,1.1697515,-116.97515,32.286785)"
     style="stroke-width:0.85488242">
    <path
       id="path4"
       d="m 366.78769,397.27406 c -2.24103,0 -4.50493,-0.0355 -6.72703,-0.10491 l 0.0505,-1.61392 c 3.19077,0.0994 6.447,0.127 9.65275,0.0828 l 0.0221,1.61549 q -1.49679,0.0201 -2.99829,0.0205 z m 12.71808,-0.37469 -0.0947,-1.61234 c 3.19549,-0.18853 6.43201,-0.45356 9.61962,-0.78724 l 0.16882,1.60603 c -3.21208,0.33682 -6.47305,0.60424 -9.69379,0.79355 z m -29.15623,-0.25163 c -3.22232,-0.2469 -6.47855,-0.57031 -9.67878,-0.96314 l 0.19721,-1.60288 c 3.17577,0.38889 6.40676,0.71073 9.60462,0.95526 z m 48.49643,-1.77642 -0.24216,-1.59656 c 3.17498,-0.48196 6.37442,-1.04123 9.50682,-1.66361 l 0.31473,1.58394 c -3.15684,0.62711 -6.37995,1.19112 -9.57939,1.67623 z m -67.79838,-0.59081 c -3.18326,-0.53958 -6.3965,-1.15957 -9.55019,-1.84426 l 0.34274,-1.57922 c 3.12963,0.67997 6.31803,1.29525 9.47723,1.83006 z m 86.87196,-3.20024 -0.38809,-1.56816 c 3.11661,-0.77068 6.25058,-1.6226 9.31513,-2.53131 l 0.45909,1.54926 c -3.08821,0.91578 -6.24584,1.77401 -9.38613,2.55021 z m -105.87651,-0.92606 c -3.12253,-0.83063 -6.26479,-1.74408 -9.33959,-2.71669 l 0.4867,-1.53977 c 3.05153,0.96472 6.16972,1.87107 9.2678,2.69459 z m 124.52101,-4.60511 -0.53008,-1.52558 c 3.02432,-1.05149 6.06599,-2.18819 9.04219,-3.37929 l 0.59951,1.50033 c -2.99832,1.19979 -6.06366,2.34515 -9.11162,3.40454 z m -143.08894,-1.26527 c -3.03261,-1.11459 -6.08414,-2.31754 -9.06902,-3.57491 l 0.62711,-1.48929 c 2.96201,1.24791 5.98987,2.44139 8.99961,3.5481 z m 161.12523,-5.95161 -0.66892,-1.47036 c 2.90442,-1.3197 5.82386,-2.72852 8.67698,-4.18704 l 0.73518,1.4388 c -2.87526,1.46957 -5.81676,2.88861 -8.74327,4.2186 z m -179.08618,-1.61078 c -2.91508,-1.3891 -5.84119,-2.86655 -8.69592,-4.39213 l 0.76121,-1.4246 c 2.83343,1.51372 5.73667,2.98016 8.62965,4.35901 z m 196.37072,-7.22476 -0.79986,-1.40252 c 2.78531,-1.58946 5.56589,-3.26017 8.26285,-4.96639 l 0.86297,1.36466 c -2.7175,1.71961 -5.51859,3.40374 -8.32599,5.00425 z m -213.5492,-1.95314 c -2.77269,-1.64942 -5.54932,-3.38875 -8.2522,-5.16911 l 0.889,-1.34888 c 2.68197,1.76695 5.43731,3.49288 8.18909,5.12968 z m 229.96524,-8.43244 -0.92449,-1.32358 c 2.62281,-1.83242 5.2401,-3.75161 7.7793,-5.70314 l 0.98444,1.28104 c -2.55813,1.96649 -5.19593,3.89987 -7.83925,5.7457 z m -246.22235,-2.27495 c -2.60741,-1.89395 -5.2121,-3.87782 -7.74227,-5.89798 l 1.00811,-1.26211 c 2.51081,2.00439 5.09575,3.97327 7.68307,5.85223 z m 261.63188,-9.56834 -1.04125,-1.23529 c 2.44455,-2.06275 4.87726,-4.21228 7.23188,-6.38942 l 1.09645,1.18638 c -2.37197,2.19373 -4.82361,4.35982 -7.28708,6.43835 z m -276.83787,-2.57312 c -2.42837,-2.12665 -4.84097,-4.33849 -7.17038,-6.57479 l 1.11855,-1.16587 c 2.31201,2.21973 4.70607,4.41501 7.11591,6.52588 z m 291.1131,-10.63088 -1.15009,-1.13432 c 2.25361,-2.28362 4.48284,-4.64692 6.62447,-7.02362 l 1.20058,1.08068 c -2.15823,2.39566 -4.40398,4.77631 -6.67498,7.07728 z M 212.8403,331.22725 c -2.22801,-2.34278 -4.42841,-4.76445 -6.54008,-7.19716 l 1.2203,-1.05859 c 2.09549,2.41456 4.27893,4.8173 6.49039,7.14194 z m 318.16634,-11.61532 -1.2479,-1.02546 c 2.03594,-2.47768 4.04035,-5.03423 5.95951,-7.60025 l 1.29365,0.96709 c -1.93338,2.58577 -3.95354,5.1628 -6.00526,7.65862 z m -330.91083,-3.06692 c -2.00084,-2.52816 -3.97088,-5.13835 -5.85578,-7.75801 l 1.31097,-0.94345 c 1.87068,2.59915 3.82577,5.18963 5.81161,7.69964 z m 342.56562,-12.51773 -1.33625,-0.9071 c 1.80166,-2.65279 3.56621,-5.38288 5.24406,-8.11613 l 1.37726,0.84561 c -1.69203,2.75372 -3.47002,5.50511 -5.28509,8.17762 z M 188.7459,300.77263 c -1.76024,-2.69854 -3.483,-5.47518 -5.121,-8.25496 l 1.39148,-0.82037 c 1.62574,2.75846 3.33551,5.51461 5.08235,8.19185 z m 364.10544,-13.33652 -1.41356,-0.78092 c 1.55081,-2.80661 3.05746,-5.68897 4.47969,-8.56734 l 1.44829,0.71625 c -1.43251,2.89967 -2.95177,5.8041 -4.51442,8.632 z m -373.96367,-3.39664 c -1.50664,-2.84763 -2.96753,-5.7694 -4.34204,-8.6833 l 1.46088,-0.68942 c 1.36429,2.89181 2.81371,5.79149 4.30891,8.61706 z m 382.59095,-14.06774 -1.47979,-0.64842 c 1.28735,-2.93991 2.5234,-5.95082 3.67431,-8.94832 l 1.50822,0.57899 c -1.15959,3.02115 -2.40592,6.05493 -3.70274,9.01773 z m -390.87116,-3.48578 c -1.23844,-2.97227 -2.42443,-6.01315 -3.52482,-9.03905 l 1.51846,-0.55217 c 1.09173,3.00302 2.26865,6.02024 3.49722,8.96963 z m 397.85692,-14.7138 -1.53346,-0.508 c 1.00811,-3.03773 1.95942,-6.14251 2.82712,-9.22915 l 1.55555,0.43699 c -0.87479,3.1103 -1.834,6.23954 -2.84921,9.30015 z m -404.49363,-3.54022 c -0.96117,-3.07875 -1.86436,-6.22376 -2.68434,-9.34905 l 1.56265,-0.41019 c 0.81366,3.10163 1.71015,6.22298 2.66383,9.27806 z m 409.75899,-15.18157 -1.5737,-0.366 c 0.72335,-3.11346 1.38438,-6.29317 1.96574,-9.44923 l 1.58867,0.29185 c -0.5853,3.1813 -1.25185,6.38468 -1.98071,9.52338 z m -414.69303,-3.63015 c -0.67367,-3.15527 -1.2834,-6.36969 -1.81191,-9.55572 l 1.5934,-0.26505 c 0.52497,3.16234 1.12998,6.35235 1.79851,9.48315 z m 418.21351,-15.49551 -1.6013,-0.21929 c 0.43464,-3.16395 0.80144,-6.39021 1.09094,-9.58965 l 1.60919,0.14515 c -0.29187,3.22471 -0.66182,6.47541 -1.09883,9.66381 z m -421.39719,-3.68851 c -0.381,-3.19787 -0.69377,-6.45488 -0.93002,-9.68035 l 1.61156,-0.11833 c 0.23388,3.20181 0.54467,6.43359 0.92291,9.60779 z m 423.15387,-15.67773 -1.61392,-0.0725 c 0.14357,-3.20102 0.21693,-6.44779 0.21693,-9.64959 h 1.6155 c 10e-6,3.22628 -0.0734,6.49751 -0.21849,9.72218 z m -424.57336,-3.7169 c -0.0553,-1.98072 -0.0832,-4.00166 -0.0836,-6.00526 q 0,-1.86476 0.032,-3.72242 l 1.6155,0.0284 q -0.032,1.84346 -0.032,3.69403 c 3.9e-4,1.9886 0.0283,3.99456 0.0828,5.96108 z m 423.16452,-8.25891 c -0.0331,-3.20298 -0.14041,-6.44935 -0.3179,-9.64959 l 1.61235,-0.0899 c 0.17906,3.22468 0.28713,6.49551 0.32105,9.72216 z m -421.21729,-11.08481 -1.61235,-0.10097 c 0.20154,-3.22784 0.48,-6.48802 0.82668,-9.69021 l 1.60603,0.17393 c -0.34432,3.17814 -0.62001,6.41347 -0.82036,9.61725 z m 420.14374,-8.18634 c -0.32263,-3.18485 -0.72413,-6.40716 -1.19269,-9.5782 l 1.59814,-0.23587 c 0.47173,3.19511 0.87641,6.44187 1.20216,9.65077 z m -418.06561,-11.00004 -1.59656,-0.24691 c 0.49498,-3.19588 1.07002,-6.41701 1.70936,-9.57504 l 1.58319,0.32025 c -0.63425,3.13398 -1.20495,6.33066 -1.69599,9.5017 z m 415.24244,-8.09009 c -0.61607,-3.15132 -1.31102,-6.32355 -2.0667,-9.42833 l 1.56974,-0.38179 c 0.76121,3.12841 1.46168,6.32513 2.08248,9.50011 z m -411.41589,-10.82494 -1.56703,-0.39283 c 0.78449,-3.12885 1.65336,-6.28372 2.58259,-9.37746 l 1.54684,0.46462 c -0.92166,3.07007 -1.78384,6.20089 -2.5624,9.30567 z m 406.85025,-7.92682 c -0.90084,-3.07599 -1.88529,-6.17012 -2.92572,-9.1976 l 1.52714,-0.52535 c 1.04913,3.05074 2.04145,6.16933 2.94939,9.26859 z M 167.8466,114.888 l -1.52399,-0.5356 c 1.07358,-3.05391 2.23274,-6.1224 3.44516,-9.12029 l 1.49796,0.60581 c -1.20334,2.97465 -2.35384,6.01988 -3.41913,9.05008 z m 395.01561,-7.66927 c -1.17851,-2.97305 -2.4406,-5.95675 -3.75161,-8.86866 l 1.47351,-0.6634 c 1.32126,2.9344 2.59287,5.94099 3.78001,8.93651 z M 175.0974,96.95824 173.62942,96.28377 c 1.34927,-2.93834 2.78531,-5.88496 4.26828,-8.75783 l 1.43565,0.7407 c -1.47193,2.8512 -2.89693,5.77534 -4.23595,8.6916 z m 379.85851,-7.29853 c -1.44587,-2.85197 -2.97779,-5.70985 -4.55305,-8.493186 l 1.40566,-0.79591 c 1.58789,2.805026 3.13083,5.684596 4.58776,8.558646 z m -370.99182,-9.878342 -1.40014,-0.80617 c 1.61155,-2.79832 3.31106,-5.59941 5.05158,-8.324773 l 1.3615,0.869274 c -1.72712,2.704849 -3.414,5.484639 -5.01294,8.261669 z m 361.50078,-6.89426 c -1.707,-2.717471 -3.49446,-5.424687 -5.31268,-8.046709 l 1.32679,-0.920551 c 1.83241,2.642144 3.63405,5.369869 5.35369,8.108248 z M 194.36227,63.498269 193.0418,62.56746 c 1.86239,-2.641336 3.80958,-5.274021 5.78873,-7.825059 l 1.2763,0.989968 c -1.96376,2.532064 -3.89675,5.14462 -5.74456,7.7659 z m 340.11362,-6.455676 c -1.9468,-2.549851 -3.97406,-5.084709 -6.02735,-7.533987 l 1.23844,-1.03769 c 2.06828,2.468212 4.11131,5.022004 6.0731,7.591216 z m -328.27743,-8.80363 -1.22976,-1.047544 c 2.08997,-2.454795 4.26829,-4.898184 6.47421,-7.262236 l 1.18086,1.10197 c -2.18897,2.346338 -4.35072,4.771553 -6.42531,7.20781 z m 315.88589,-5.983959 c -2.17004,-2.362113 -4.42132,-4.703315 -6.68996,-6.957755 l 1.13906,-1.146146 c 2.28598,2.272195 4.55383,4.630746 6.74043,7.010606 z m -302.7158,-8.129176 -1.12959,-1.154829 c 2.31004,-2.259958 4.70056,-4.49431 7.10447,-6.64065 l 1.07592,1.205305 c -2.38575,2.129838 -4.75811,4.347203 -7.0508,6.590206 z m 289.02667,-5.476362 c -2.37828,-2.157018 -4.83387,-4.284457 -7.29813,-6.323148 l 1.0302,-1.24474 c 2.48241,2.054103 4.95692,4.197689 7.35335,6.371274 z m -274.63393,-7.376218 -1.01994,-1.252647 c 2.49857,-2.034717 5.08073,-4.041495 7.67522,-5.96463 l 0.96235,1.297599 c -2.57513,1.908967 -5.138,3.900341 -7.61763,5.919711 z M 493.51815,16.34038 c -2.56603,-1.932206 -5.20619,-3.828128 -7.84715,-5.634907 l 0.91187,-1.333099 c 2.66147,1.820187 5.32135,3.730309 7.9071,5.677507 z M 249.25562,9.78926 248.354,8.449061 c 2.67408,-1.799291 5.42706,-3.561111 8.18279,-5.237737 l 0.8393,1.380441 c -2.73443,1.66363 -5.46647,3.412437 -8.12047,5.197528 z M 477.57301,5.434602 c -2.7301,-1.689647 -5.53355,-3.336694 -8.33226,-4.896189 l 0.78565,-1.411192 c 2.82081,1.571328 5.64556,3.231388 8.39695,4.933256 z M 265.72373,-0.227889 264.94829,-1.64539 c 2.82909,-1.548049 5.72996,-3.04996 8.62176,-4.464698 l 0.70994,1.451418 c -2.86968,1.403696 -5.74846,2.894169 -8.55626,4.430781 z m 194.96624,-3.742935 c -2.87445,-1.432137 -5.8191,-2.815681 -8.75195,-4.1121 l 0.65313,-1.4774523 c 2.9557,1.306282 5.92322,2.7005123 8.81976,4.1436513 z m -177.66276,-4.7206653 -0.6421,-1.4822187 c 2.95648,-1.281428 5.9808,-2.510408 8.98857,-3.653008 l 0.5735,1.510586 c -2.98491,1.133553 -5.98596,2.3530664 -8.91996,3.6246407 z m 159.97592,-3.0972947 c -2.9912,-1.159926 -6.0526,-2.266662 -9.09979,-3.288964 l 0.51431,-1.531886 c 3.07007,1.030589 6.15513,2.14558 9.1692,3.314998 z m -141.9562,-3.745302 -0.50323,-1.535036 c 3.07008,-1.006526 6.20247,-1.954289 9.30961,-2.816067 l 0.43188,1.556328 c -3.08351,0.855477 -6.19182,1.795745 -9.23825,2.794775 z m 123.63676,-2.401943 c -3.08112,-0.878345 -6.22376,-1.696352 -9.34038,-2.431128 l 0.37076,-1.572112 c 3.14107,0.740301 6.30737,1.564608 9.41295,2.44927 z m -105.0408,-2.758896 -0.3597,-1.574866 c 3.14738,-0.719009 6.35352,-1.374125 9.5289,-1.946802 l 0.28713,1.589462 c -3.15171,0.568728 -6.33301,1.218731 -9.45633,1.932206 z m 86.25747,-1.669526 c -3.1458,-0.590464 -6.34997,-1.115783 -9.52416,-1.561466 l 0.22402,-1.599712 c 3.19869,0.449229 6.42806,0.978522 9.59832,1.573291 z m -67.26553,-1.757878 -0.21377,-1.601296 c 3.19787,-0.426749 6.45015,-0.785664 9.66616,-1.065694 l 0.14041,1.609188 c -3.19155,0.278455 -6.4186,0.634219 -9.5928,1.05781 z m 48.15487,-0.926858 c -3.18208,-0.299748 -6.42096,-0.530877 -9.6275,-0.685875 l 0.0789,-1.613881 c 3.23018,0.156582 6.49354,0.389278 9.70008,0.691432 z m -28.92905,-0.75056 -0.0678,-1.613921 c 2.96911,-0.123844 5.99501,-0.186945 8.99488,-0.187737 l 0.73123,8.08e-4 -0.005,1.615496 -0.7265,-8.08e-4 c -2.97699,8e-4 -5.9808,0.06349 -8.92703,0.18617 z"
       inkscape:connector-curvature="0"
       style="fill:#1652f0;fill-opacity:1;stroke-width:1.05835283" />
    <path
       id="path6"
       d="m 457.18496,63.2958 a 9.6929764,9.6929764 0 1 1 9.69297,-9.69298 9.7040829,9.7040829 0 0 1 -9.69297,9.69298 z m 0,-17.77046 a 8.0774803,8.0774803 0 1 0 8.07748,8.07748 8.0864786,8.0864786 0 0 0 -8.07748,-8.07748 z"
       inkscape:connector-curvature="0"
       style="fill:#1652f0;fill-opacity:1;stroke-width:1.05835283" />
    <path
       id="path8"
       d="m 429.38423,140.07115 v 53.05289 a 1.8547026,1.8547026 0 0 1 -1.84975,1.84974 h -1.31653 v 276.37099 a 28.83822,28.83822 0 0 1 -28.83667,28.8366 H 224.69287 a 28.831322,28.831322 0 0 1 -28.82858,-28.8366 V 204.66676 h -0.95319 a 1.3066213,1.3066213 0 0 1 -1.30855,-1.30048 v -30.19362 a 1.3083176,1.3083176 0 0 1 1.30855,-1.30855 h 0.95319 v -11.37309 h -0.96127 a 1.3703203,1.3703203 0 0 1 -1.36505,-1.37317 v -29.78167 a 1.3685836,1.3685836 0 0 1 1.36505,-1.3651 h 0.96127 v -15.52491 h -0.97744 a 1.2100065,1.2100065 0 0 1 -1.21162,-1.21163 V 94.982653 a 1.2169532,1.2169532 0 0 1 1.21162,-1.2197 h 0.97744 V 60.855298 a 28.829626,28.829626 0 0 1 28.82858,-28.828527 h 172.68838 a 28.836532,28.836532 0 0 1 28.83667,28.828527 V 138.2214 h 1.31653 a 1.8546622,1.8546622 0 0 1 1.84978,1.84975 z"
       inkscape:connector-curvature="0"
       style="fill:#3f3d56;stroke-width:1.05835283" />
    <rect
       id="rect10"
       rx="2.0532067"
       height="6.5317898"
       width="32.167297"
       y="46.814041"
       x="289.24286"
       style="fill:#e6e8ec;stroke-width:1.05835283" />
    <circle
       id="circle12"
       r="3.7048573"
       cy="50.079937"
       cx="329.97876"
       style="fill:#e6e8ec;stroke-width:1.05835283" />
    <path
       id="path14"
       d="M 412.40941,66.557862 V 473.73557 a 18.295873,18.295873 0 0 1 -18.29549,18.28741 H 228.80828 A 18.263684,18.263684 0 0 1 210.51279,473.73557 V 66.557862 a 18.294734,18.294734 0 0 1 18.29549,-18.295493 h 24.74132 v 3.17445 a 15.064638,15.064638 0 0 0 15.06451,15.064501 h 84.07041 a 15.06459,15.06459 0 0 0 15.0645,-15.064501 v -3.17445 h 26.3649 a 18.289564,18.289564 0 0 1 18.29549,18.295493 z"
       inkscape:connector-curvature="0"
       style="fill:#6c63ff;stroke-width:1.05835283" />
    <rect
       id="rect16"
       height="91.275528"
       width="187.39754"
       y="181.74332"
       x="218.58217"
       style="opacity:0.2;stroke-width:1.05835283" />
    <rect
       id="rect20"
       height="91.275528"
       width="187.39754"
       y="320.09381"
       x="218.58217"
       style="fill:#3f3d56;stroke-width:1.05835283" />
    <circle
       id="circle22"
       r="16.154961"
       cy="97.963089"
       cx="386.59375"
       style="fill:#ffffff;stroke-width:1.05835283" />
    <polygon
       transform="matrix(0.80774803,0,0,0.80774803,36.170345,2.8443968e-6)"
       id="polygon24"
       points="433.185,120.636 424.828,120.636 424.828,121.922 433.185,121.922 433.185,130.279 434.47,130.279 434.47,121.922 442.828,121.922 442.828,120.636 434.47,120.636 434.47,112.279 433.185,112.279 "
       style="fill:#3f3d56;stroke-width:1.31025124" />
    <path
       id="path32"
       d="m 294.03281,382.76773 c 4.90559,18.13394 21.70833,29.36482 21.70833,29.36482 0,0 8.84921,-18.17018 3.94363,-36.30412 -4.90559,-18.13395 -21.70833,-29.36487 -21.70833,-29.36487 0,0 -8.84921,18.17017 -3.94363,36.30417 z"
       inkscape:connector-curvature="0"
       style="fill:#ffffff;stroke-width:1.05835283" />
    <path
       id="path34"
       d="m 301.24123,378.87054 c 13.46099,13.10373 15.10516,33.24723 15.10516,33.24723 0,0 -20.18043,-1.10187 -33.64143,-14.2056 -13.461,-13.10373 -15.10515,-33.24723 -15.10515,-33.24723 0,0 20.18042,1.10186 33.64142,14.2056 z"
       inkscape:connector-curvature="0"
       style="fill:#6c63ff;stroke-width:1.05835283" />
    <path
       id="path36"
       d="m 338.65996,382.76773 c -4.90559,18.13394 -21.70832,29.36482 -21.70832,29.36482 0,0 -8.84921,-18.17018 -3.94363,-36.30412 4.90558,-18.13395 21.70832,-29.36487 21.70832,-29.36487 0,0 8.84922,18.17017 3.94363,36.30417 z"
       inkscape:connector-curvature="0"
       style="fill:#ffffff;stroke-width:1.05835283" />
    <path
       id="path38"
       d="m 331.45155,378.87054 c -13.46099,13.10373 -15.10516,33.24723 -15.10516,33.24723 0,0 20.18042,-1.10187 33.64142,-14.2056 13.461,-13.10373 15.10516,-33.24723 15.10516,-33.24723 0,0 -20.18042,1.10186 -33.64142,14.2056 z"
       inkscape:connector-curvature="0"
       style="fill:#6c63ff;stroke-width:1.05835283" />
    <path
       id="path40"
       d="m 533.60391,271.85672 h -15.94588 v -15.94585 h 15.94588 z m -14.71927,-1.22661 h 13.49266 v -13.49262 h -13.49266 z"
       inkscape:connector-curvature="0"
       style="fill:#1652f0;fill-opacity:1;stroke-width:1.05835283" />
    <path
       id="path42"
       d="m 114.90277,370.46669 -10.87639,-11.66082 11.66082,-10.8764 10.87639,11.6608 z m -9.14278,-11.60048 9.20311,9.86685 9.86683,-9.20311 -9.20311,-9.86685 z"
       inkscape:connector-curvature="0"
       style="fill:#1652f0;fill-opacity:1;stroke-width:1.05835283" />
    <circle
       id="circle44"
       r="8.1409779"
       cy="111.43398"
       cx="123.51839"
       style="fill:#1652f0;fill-opacity:1;stroke-width:1.05835283" />
    <path
       id="path46"
       d="m 123.51839,134.95237 a 23.518392,23.518392 0 1 1 23.51839,-23.51839 23.544757,23.544757 0 0 1 -23.51839,23.51839 z m 0,-45.227656 a 21.70927,21.70927 0 1 0 21.70927,21.709266 21.734141,21.734141 0 0 0 -21.70927,-21.709266 z"
       inkscape:connector-curvature="0"
       style="fill:#1652f0;fill-opacity:1;stroke-width:1.05835283" />
    <rect
       id="rect50"
       height="91.275528"
       width="187.39754"
       y="167.20384"
       x="258.96957"
       style="fill:#3f3d56;stroke-width:1.05835283" />
    <rect
       id="rect52"
       height="60.105446"
       width="1.615496"
       y="198.49933"
       x="351.97971"
       style="fill:#ffffff;stroke-width:1.05835283" />
    <circle
       id="circle54"
       r="8.4997873"
       cy="199.30678"
       cx="352.78766"
       style="fill:#6c63ff;stroke-width:1.05835283" />
    <path
       id="path56"
       d="m 352.78765,235.54338 c 0,0 -1.21426,-26.11605 -26.10649,-23.08038"
       inkscape:connector-curvature="0"
       style="fill:#ffffff;stroke-width:1.05835283" />
    <path
       id="path58"
       d="m 612.92945,415.50178 -103.9502,32.52074 -129.31047,-81.59806 -0.006,-0.006 -0.42393,-0.26133 -0.0698,-0.0464 -1.0279,-0.64464 -12.31144,-7.74688 c 0.0233,-0.20905 0.0523,-0.41232 0.0929,-0.60975 a 5.5771286,5.5771286 0 0 1 1.26609,-2.58425 6.2158957,6.2158957 0 0 1 0.73165,-0.73172 h 0.006 c 0.11619,-0.0987 0.23812,-0.19746 0.36586,-0.29036 q 0.19161,-0.14807 0.40065,-0.27874 c 2.38104,-1.597 5.96989,-2.27648 9.70974,-2.47972 a 46.215384,46.215384 0 0 1 23.30466,5.05233 c 14.53562,7.352 45.77865,21.81794 50.65102,12.95603 6.38801,-11.61454 -66.20291,-141.11675 -66.20291,-141.11675 -5.97572,-15.36024 -1.60282,-20.37773 1.1382,-21.95729 0.0814,-0.0465 0.16262,-0.0929 0.23819,-0.1336 a 6.7579997,6.7579997 0 0 1 0.90001,-0.38326 4.1602174,4.1602174 0 0 1 0.49368,-0.14518 1.1236825,1.1236825 0 0 1 0.13355,-0.029 l 9.62851,12.79922 0.14518,0.19165 0.51678,0.69106 0.15681,0.20906 58.36891,77.57358 c 89.43202,-48.20037 120.21057,80.72111 120.21057,80.72111 z"
       inkscape:connector-curvature="0"
       style="fill:#fbbebe;stroke-width:1.05835283" />
    <path
       id="path60"
       d="m 399.50633,218.87906 a 2.5246003,2.5246003 0 0 1 -2.34035,1.42279 3.7092678,3.7092678 0 0 1 -0.95233,-0.12778 c -2.16029,-0.58077 -4.66326,-2.95007 -6.53319,-6.18472 -1.82356,-3.15916 -2.57258,-6.33576 -2.14866,-8.4438 a 6.7579997,6.7579997 0 0 1 0.90001,-0.38326 4.1602174,4.1602174 0 0 1 0.49368,-0.14519 c -0.74916,1.46922 -0.30199,4.80841 1.76543,8.39152 1.68987,2.93267 3.9779,5.15101 5.81891,5.63884 a 1.5809648,1.5809648 0 0 0 2.17769,-1.26017 l 0.14518,0.19165 0.51678,0.69107 z"
       inkscape:connector-curvature="0"
       style="fill:#3f3d56;stroke-width:1.05835283" />
    <path
       id="path62"
       d="m 379.239,366.15732 -0.0698,-0.0465 -1.0279,-0.64464 c 0.006,-1.65507 -1.24851,-4.36704 -4.01858,-7.09065 -2.34036,-2.28226 -5.05812,-3.78055 -6.93386,-3.85023 a 6.2158957,6.2158957 0 0 1 0.73165,-0.73172 h 0.006 c 0.11618,-0.0987 0.23811,-0.19746 0.36586,-0.29036 a 15.141237,15.141237 0 0 1 6.64348,4.04187 c 3.04301,2.99073 4.71558,6.39959 4.30328,8.61216 z"
       inkscape:connector-curvature="0"
       style="fill:#3f3d56;stroke-width:1.05835283" />
  </g>
</svg>
