<?xml version="1.0" encoding="UTF-8" standalone="no"?>
<!-- Created with Inkscape (http://www.inkscape.org/) -->

<svg
   xmlns:dc="http://purl.org/dc/elements/1.1/"
   xmlns:cc="http://creativecommons.org/ns#"
   xmlns:rdf="http://www.w3.org/1999/02/22-rdf-syntax-ns#"
   xmlns:svg="http://www.w3.org/2000/svg"
   xmlns="http://www.w3.org/2000/svg"
   xmlns:sodipodi="http://sodipodi.sourceforge.net/DTD/sodipodi-0.dtd"
   xmlns:inkscape="http://www.inkscape.org/namespaces/inkscape"
   width="44.979168mm"
   height="16.759071mm"
   viewBox="0 0 44.979168 16.759071"
   version="1.1"
   id="svg1173"
   sodipodi:docname="logo2.svg"
   inkscape:version="0.92.4 (5da689c313, 2019-01-14)">
  <defs
     id="defs1167" />
  <sodipodi:namedview
     id="base"
     pagecolor="#ffffff"
     bordercolor="#666666"
     borderopacity="1.0"
     inkscape:pageopacity="0.0"
     inkscape:pageshadow="2"
     inkscape:zoom="0.24748737"
     inkscape:cx="-168.91359"
     inkscape:cy="49.980131"
     inkscape:document-units="mm"
     inkscape:current-layer="layer1"
     showgrid="false"
     inkscape:window-width="1600"
     inkscape:window-height="837"
     inkscape:window-x="-8"
     inkscape:window-y="-8"
     inkscape:window-maximized="1"
     fit-margin-top="0"
     fit-margin-left="0"
     fit-margin-right="0"
     fit-margin-bottom="0" />
  <metadata
     id="metadata1170">
    <rdf:RDF>
      <cc:Work
         rdf:about="">
        <dc:format>image/svg+xml</dc:format>
        <dc:type
           rdf:resource="http://purl.org/dc/dcmitype/StillImage" />
        <dc:title></dc:title>
      </cc:Work>
    </rdf:RDF>
  </metadata>
  <g
     inkscape:label="Layer 1"
     inkscape:groupmode="layer"
     id="layer1"
     transform="translate(251.91765,-296.82851)">
    <g
       transform="matrix(0.14355965,0,0,0.14355965,-267.71728,283.88944)"
       id="g1728"
       style="stroke-width:6.96574545">
      <g
         transform="translate(0,-7.9162348)"
         id="g1156"
         style="stroke-width:6.96574545">
        <path
           inkscape:connector-curvature="0"
           id="path843-1-0"
           d="m 159.51005,214.63731 c -0.56193,-0.11796 -1.69302,-0.61575 -2.51354,-1.1062 -1.71628,-1.02587 -7.43757,-4.3835 -13.00123,-7.62994 l -3.83646,-2.23862 -0.0695,-9.43453 c -0.0382,-5.18899 -0.0184,-9.43452 0.0441,-9.43452 0.1098,0 1.98013,1.08392 9.815,5.68815 8.99094,5.28359 9.4306,5.49117 11.37884,5.37221 1.73786,-0.10611 0.72419,0.42472 14.02116,-7.34254 9.80906,-5.72985 11.58043,-6.76706 14.87838,-8.71192 3.25536,-1.91974 4.1361,-2.74137 4.85694,-4.5309 0.27371,-0.67952 -6.15537,-9.66323 -6.15177,-18.49486 0.004,-9.12948 6.43091,-18.11589 6.14777,-18.8114 -0.59497,-1.46176 -1.31345,-2.35579 -2.49578,-3.1056 -1.07102,-0.67923 -18.65185,-10.99278 -20.60116,-12.0854 -0.54136,-0.30344 -2.66742,-1.54051 -4.72458,-2.74905 -5.77015,-3.38984 -6.83047,-3.43281 -11.8252,-0.47918 -1.56137,0.92331 -3.73182,2.1882 -4.82323,2.81086 -2.2379,1.27676 -2.72675,1.56064 -10.45104,6.06892 -12.58009,7.34237 -12.55892,7.32716 -13.30857,9.55824 -0.239,0.71132 -0.31746,7.91669 -0.31746,29.1547 0,15.51543 -0.0941,28.26803 -0.20913,28.33912 -0.11502,0.0711 -0.79963,-0.23829 -1.52136,-0.68751 -0.72172,-0.44921 -1.66941,-1.02181 -2.10597,-1.27244 -0.43656,-0.25062 -2.2225,-1.28635 -3.96875,-2.30162 -7.00377,-4.07199 -6.7026,-3.85915 -7.77338,-5.49374 l -0.69329,-1.05834 -0.0709,-27.60291 c -0.0474,-18.45156 0.02,-27.9408 0.2035,-28.62207 0.45839,-1.70233 2.1378,-3.08214 7.547,-6.20064 2.76124,-1.59191 5.85387,-3.38745 6.87252,-3.9901 5.21621,-3.08598 12.25656,-7.19857 20.10833,-11.74617 4.80219,-2.78134 8.90984,-5.16711 9.12812,-5.30171 5.05728,-3.118644 6.42174,-3.577894 8.46667,-2.849734 0.77763,0.27691 3.87718,1.942094 5.29167,2.842874 0.34569,0.22014 18.07486,10.55078 24.73854,14.41494 1.30968,0.75946 4.88156,2.84832 7.9375,4.64191 3.05593,1.79359 6.18039,3.60453 6.94323,4.02431 1.60384,0.88259 3.55647,1.8542 4.11297,2.95811 0.0304,0.0603 0.19708,0.87965 0.19629,1.28543 l -0.0352,17.98477 -19.05082,11.03404 18.94606,27.12695 -0.83689,1.20483 c -0.80882,1.16447 -1.69487,1.87857 -3.92561,3.16378 -0.58209,0.33536 -3.20147,1.85873 -5.82085,3.38528 -2.61937,1.52654 -5.95312,3.45574 -7.40833,4.28711 -5.50668,3.14602 -6.64046,3.80372 -7.54062,4.37429 -0.50933,0.32284 -4.67651,2.76443 -9.26042,5.42575 -4.58391,2.66132 -9.16781,5.33681 -10.18646,5.94552 -3.63339,2.17124 -5.07641,2.61581 -7.1071,2.18955 z M 159.34111,179.656 c -1.03529,-0.27037 -3.24329,-1.4717 -9.26042,-5.0384 -0.80036,-0.47442 -2.88395,-1.7017 -4.6302,-2.72729 -1.74625,-1.0256 -3.49611,-2.20311 -3.88857,-2.6167 -1.50941,-1.59067 -1.53591,-1.8133 -1.52958,-12.84818 0.005,-9.2942 0.0462,-10.21602 0.4958,-11.18714 0.81677,-1.76413 1.00171,-1.89305 11.66922,-8.13414 1.23693,-0.72367 3.04601,-1.78881 4.02018,-2.36697 3.93506,-2.33541 5.45985,-2.25472 10.20394,0.53997 1.70835,1.00637 3.52281,2.06581 4.03213,2.3543 8.03208,4.54956 9.86422,6.34404 10.51098,7.15226 l 0.40508,0.68979 0.30033,10.295 c 0,4.7363 0,7.79424 -0.0359,9.86486 -0.0323,1.86286 -0.80614,2.90977 -1.66686,3.72703 -0.58698,0.55732 -1.58414,1.31097 -2.2159,1.67477 -2.30992,1.33017 -10.27326,5.97379 -11.48015,6.69437 -3.28591,1.96184 -4.98548,2.4343 -6.93005,1.92647 z"
           style="fill:#f9f9f9;fill-opacity:1;stroke-width:6.96574545"
           sodipodi:nodetypes="cccccsccsscscccsccscscccsccscccsccccccssccccccccsccccsccccccsccccscsccc" />
        <path
           inkscape:connector-curvature="0"
           id="path841-1-3"
           d="m 159.36384,195.72734 c 1.62578,0.16503 2.7888,0.44317 4.58222,-0.53635 2.26799,-1.23871 26.93548,-15.37208 30.3688,-18.47656 0,0 0.81239,-1.22836 0.81768,-1.79066 0.0557,-5.91431 -6.6534,-17.93615 -6.6534,-17.93615 l 6.70908,-17.67119 c 0,-1.93303 -0.41123,-1.6327 3.62052,-4.02333 0.62993,-0.25459 4.63793,-3.00876 7.88696,-4.94175 2.96494,-1.76398 4.57474,-2.86446 4.99579,-1.92715 0,0.79445 -18.8516,28.66022 -18.8516,28.66022 l 18.84189,10.79711 c 0,0 -0.005,15.20256 -0.0855,16.77967 -0.58911,2.15666 -3.5363,3.90415 -9.24033,7.21888 0,0 -16.80433,9.702 -28.56393,16.49506 -4.89018,2.8197 -10.33484,6.36356 -12.80244,6.41081 -18.25868,-14.73734 -1.62579,-19.05861 -1.62579,-19.05861 z"
           style="fill:#e6e6e6;fill-opacity:1;stroke-width:6.96574545"
           sodipodi:nodetypes="cscscccsccccccccc" />
        <path
           inkscape:connector-curvature="0"
           id="path839-3-2"
           d="m 155.21603,212.47777 c -4.62023,-2.65193 -25.04588,-14.44669 -29.7983,-17.27268 0.078,-6.30739 -0.68692,-13.04559 -0.61518,-19.35345 l 1.75091,-0.87221 c 0,0 0.12063,1.07087 0.48181,1.41335 2.01668,1.91225 15.15494,9.49275 22.93054,14.03215 2.02229,1.18528 4.03409,2.35529 4.47065,2.60003 3.34207,1.87356 4.63517,2.65002 5.64129,2.80701 l 0.91187,0.0604 c -0.10295,6.29809 -0.0482,12.59548 -3e-5,18.89358 l -0.71343,-0.008 c -1.59762,-0.11135 -3.88671,-1.60412 -5.06013,-2.30019 z M 110.26084,184.6612 c 0.0774,-16.1201 -0.56724,-55.26265 0.10392,-56.20809 0,0 0.0331,-0.17249 0.18069,-0.38043 l 1.15783,0.66848 c 0,0 1.70654,0.96594 2.43414,1.40535 l 7.8001,4.50339 c 0,0 2.93751,1.70498 3.52581,2.03562 0.79743,0.44818 1.52618,0.88114 1.52618,0.88114 -1.41481,16.09189 0.84696,43.14585 -1.57178,57.63843 -0.52329,-0.24196 -13.13697,-7.59824 -13.8271,-8.00111 -0.88025,-0.51384 -1.33484,-1.48969 -1.32979,-2.54278 z"
           style="fill:#cccccc;fill-opacity:1;stroke-width:6.96574545"
           sodipodi:nodetypes="ccccsccsccccsscccccccss" />
        <path
           inkscape:connector-curvature="0"
           id="path839-7-9-3"
           d="m 163.52206,179.39127 c 0.43656,-0.19492 7.12694,-3.84219 7.12694,-3.84219 0,0 6.65779,-3.89321 10.97319,-6.44022 0,0 0,-3.50934 0.0204,-5.24354 0.0178,-1.50983 0.15734,-2.76197 0.16809,-5.67631 0.0323,-8.75705 -0.07,-11.94389 -0.50102,-12.7928 -4.67808,2.70089 -11.7207,6.76694 -11.7207,6.76694 0,0 -7.45975,4.30584 -7.47233,4.31416 l -1.18646,0.685 -0.0114,11.89717 v 10.84867 l 0.7276,-0.0104 c 0.52649,-0.0699 1.42131,-0.30896 1.87572,-0.50648 z"
           style="fill:#e6e6e6;fill-opacity:1;stroke-width:6.96574545"
           sodipodi:nodetypes="cccsscccccccc" />
        <path
           inkscape:connector-curvature="0"
           id="path839-7-9-0-2"
           d="m 158.6926,179.53301 c -0.43656,-0.19492 -3.04225,-1.57975 -5.44334,-2.99983 -2.48463,-1.43678 -5.65263,-3.17827 -6.93063,-3.98323 -3.74979,-2.36186 -5.13708,-3.08397 -5.85496,-4.80212 -0.32375,-0.77484 -0.39129,-3.39205 -0.41403,-9.55882 -0.0323,-8.75705 0.07,-11.94389 0.50103,-12.7928 4.67808,2.70089 11.7207,6.76694 11.7207,6.76694 0,0 7.45974,4.30584 7.47233,4.31416 l 1.18645,0.685 0.0114,11.89717 v 10.84867 l -0.72759,-0.0104 c -0.4002,-0.006 -1.0848,-0.16984 -1.52136,-0.36477 z"
           style="fill:#cccccc;fill-opacity:1;stroke-width:6.96574545"
           sodipodi:nodetypes="ccscsccccccccc" />
        <path
           style="fill:#cccccc;fill-opacity:1;stroke:none;stroke-width:1.84302008px;stroke-linecap:butt;stroke-linejoin:miter;stroke-opacity:1"
           d="m 209.6302,185.27929 -28.00801,-16.17043 v -18.63904 l 30.07887,17.36604 c 0,0 0.0709,12.56902 -0.0153,16.31361 -0.0138,0.5984 -0.48103,1.41562 -0.677,1.56512 -0.38313,0.29229 -1.37858,-0.4353 -1.37858,-0.4353 z"
           id="path1043-8"
           inkscape:connector-curvature="0"
           sodipodi:nodetypes="ccccsscc" />
        <path
           style="fill:#e6e6e6;fill-opacity:1;stroke:none;stroke-width:1.84302008px;stroke-linecap:butt;stroke-linejoin:miter;stroke-opacity:1"
           d="m 160.77517,157.07283 50.91632,-28.64863 0.01,18.07601 -34.61909,19.98735 z"
           id="path1039-9"
           inkscape:connector-curvature="0"
           sodipodi:nodetypes="ccccc" />
      </g>
      <text
         id="text1129"
         y="169.50618"
         x="234.00751"
         style="font-style:normal;font-variant:normal;font-weight:300;font-stretch:normal;font-size:59.79242706px;line-height:1.25;font-family:Bahnschrift;-inkscape-font-specification:'Bahnschrift, Light';font-variant-ligatures:normal;font-variant-caps:normal;font-variant-numeric:normal;font-feature-settings:normal;text-align:start;letter-spacing:0px;word-spacing:0px;writing-mode:lr-tb;text-anchor:start;fill:#ffffff;fill-opacity:1;stroke:none;stroke-width:1.84302008"
         xml:space="preserve"><tspan
           style="font-style:normal;font-variant:normal;font-weight:300;font-stretch:normal;font-size:59.79242706px;font-family:Bahnschrift;-inkscape-font-specification:'Bahnschrift, Light';font-variant-ligatures:normal;font-variant-caps:normal;font-variant-numeric:normal;font-feature-settings:normal;text-align:start;writing-mode:lr-tb;text-anchor:start;fill:#ffffff;stroke-width:1.84302008"
           y="169.50618"
           x="234.00751"
           id="tspan1127"
           sodipodi:role="line">DistBIT</tspan></text>
    </g>
    <g
       style="stroke-width:6.96574545"
       id="g843"
       transform="matrix(0.14355965,0,0,0.14355965,-267.71728,283.88944)">
      <g
         style="stroke-width:6.96574545"
         id="g837"
         transform="translate(0,-7.9162348)">
        <path
           sodipodi:nodetypes="cccccsccsscscccsccscscccsccscccsccccccssccccccccsccccsccccccsccccscsccc"
           style="fill:#f9f9f9;fill-opacity:1;stroke-width:6.96574545"
           d="m 159.51005,214.63731 c -0.56193,-0.11796 -1.69302,-0.61575 -2.51354,-1.1062 -1.71628,-1.02587 -7.43757,-4.3835 -13.00123,-7.62994 l -3.83646,-2.23862 -0.0695,-9.43453 c -0.0382,-5.18899 -0.0184,-9.43452 0.0441,-9.43452 0.1098,0 1.98013,1.08392 9.815,5.68815 8.99094,5.28359 9.4306,5.49117 11.37884,5.37221 1.73786,-0.10611 0.72419,0.42472 14.02116,-7.34254 9.80906,-5.72985 11.58043,-6.76706 14.87838,-8.71192 3.25536,-1.91974 4.1361,-2.74137 4.85694,-4.5309 0.27371,-0.67952 -6.15537,-9.66323 -6.15177,-18.49486 0.004,-9.12948 6.43091,-18.11589 6.14777,-18.8114 -0.59497,-1.46176 -1.31345,-2.35579 -2.49578,-3.1056 -1.07102,-0.67923 -18.65185,-10.99278 -20.60116,-12.0854 -0.54136,-0.30344 -2.66742,-1.54051 -4.72458,-2.74905 -5.77015,-3.38984 -6.83047,-3.43281 -11.8252,-0.47918 -1.56137,0.92331 -3.73182,2.1882 -4.82323,2.81086 -2.2379,1.27676 -2.72675,1.56064 -10.45104,6.06892 -12.58009,7.34237 -12.55892,7.32716 -13.30857,9.55824 -0.239,0.71132 -0.31746,7.91669 -0.31746,29.1547 0,15.51543 -0.0941,28.26803 -0.20913,28.33912 -0.11502,0.0711 -0.79963,-0.23829 -1.52136,-0.68751 -0.72172,-0.44921 -1.66941,-1.02181 -2.10597,-1.27244 -0.43656,-0.25062 -2.2225,-1.28635 -3.96875,-2.30162 -7.00377,-4.07199 -6.7026,-3.85915 -7.77338,-5.49374 l -0.69329,-1.05834 -0.0709,-27.60291 c -0.0474,-18.45156 0.02,-27.9408 0.2035,-28.62207 0.45839,-1.70233 2.1378,-3.08214 7.547,-6.20064 2.76124,-1.59191 5.85387,-3.38745 6.87252,-3.9901 5.21621,-3.08598 12.25656,-7.19857 20.10833,-11.74617 4.80219,-2.78134 8.90984,-5.16711 9.12812,-5.30171 5.05728,-3.118644 6.42174,-3.577894 8.46667,-2.849734 0.77763,0.27691 3.87718,1.942094 5.29167,2.842874 0.34569,0.22014 18.07486,10.55078 24.73854,14.41494 1.30968,0.75946 4.88156,2.84832 7.9375,4.64191 3.05593,1.79359 6.18039,3.60453 6.94323,4.02431 1.60384,0.88259 3.55647,1.8542 4.11297,2.95811 0.0304,0.0603 0.19708,0.87965 0.19629,1.28543 l -0.0352,17.98477 -19.05082,11.03404 18.94606,27.12695 -0.83689,1.20483 c -0.80882,1.16447 -1.69487,1.87857 -3.92561,3.16378 -0.58209,0.33536 -3.20147,1.85873 -5.82085,3.38528 -2.61937,1.52654 -5.95312,3.45574 -7.40833,4.28711 -5.50668,3.14602 -6.64046,3.80372 -7.54062,4.37429 -0.50933,0.32284 -4.67651,2.76443 -9.26042,5.42575 -4.58391,2.66132 -9.16781,5.33681 -10.18646,5.94552 -3.63339,2.17124 -5.07641,2.61581 -7.1071,2.18955 z M 159.34111,179.656 c -1.03529,-0.27037 -3.24329,-1.4717 -9.26042,-5.0384 -0.80036,-0.47442 -2.88395,-1.7017 -4.6302,-2.72729 -1.74625,-1.0256 -3.49611,-2.20311 -3.88857,-2.6167 -1.50941,-1.59067 -1.53591,-1.8133 -1.52958,-12.84818 0.005,-9.2942 0.0462,-10.21602 0.4958,-11.18714 0.81677,-1.76413 1.00171,-1.89305 11.66922,-8.13414 1.23693,-0.72367 3.04601,-1.78881 4.02018,-2.36697 3.93506,-2.33541 5.45985,-2.25472 10.20394,0.53997 1.70835,1.00637 3.52281,2.06581 4.03213,2.3543 8.03208,4.54956 9.86422,6.34404 10.51098,7.15226 l 0.40508,0.68979 0.30033,10.295 c 0,4.7363 0,7.79424 -0.0359,9.86486 -0.0323,1.86286 -0.80614,2.90977 -1.66686,3.72703 -0.58698,0.55732 -1.58414,1.31097 -2.2159,1.67477 -2.30992,1.33017 -10.27326,5.97379 -11.48015,6.69437 -3.28591,1.96184 -4.98548,2.4343 -6.93005,1.92647 z"
           id="path823"
           inkscape:connector-curvature="0" />
        <path
           sodipodi:nodetypes="cscscccsccccccccc"
           style="fill:#e6e6e6;fill-opacity:1;stroke-width:6.96574545"
           d="m 159.36384,195.72734 c 1.62578,0.16503 2.7888,0.44317 4.58222,-0.53635 2.26799,-1.23871 26.93548,-15.37208 30.3688,-18.47656 0,0 0.81239,-1.22836 0.81768,-1.79066 0.0557,-5.91431 -6.6534,-17.93615 -6.6534,-17.93615 l 6.70908,-17.67119 c 0,-1.93303 -0.41123,-1.6327 3.62052,-4.02333 0.62993,-0.25459 4.63793,-3.00876 7.88696,-4.94175 2.96494,-1.76398 4.57474,-2.86446 4.99579,-1.92715 0,0.79445 -18.8516,28.66022 -18.8516,28.66022 l 18.84189,10.79711 c 0,0 -0.005,15.20256 -0.0855,16.77967 -0.58911,2.15666 -3.5363,3.90415 -9.24033,7.21888 0,0 -16.80433,9.702 -28.56393,16.49506 -4.89018,2.8197 -10.33484,6.36356 -12.80244,6.41081 -18.25868,-14.73734 -1.62579,-19.05861 -1.62579,-19.05861 z"
           id="path825"
           inkscape:connector-curvature="0" />
        <path
           sodipodi:nodetypes="ccccsccsccccsscccccccss"
           style="fill:#cccccc;fill-opacity:1;stroke-width:6.96574545"
           d="m 155.21603,212.47777 c -4.62023,-2.65193 -25.04588,-14.44669 -29.7983,-17.27268 0.078,-6.30739 -0.68692,-13.04559 -0.61518,-19.35345 l 1.75091,-0.87221 c 0,0 0.12063,1.07087 0.48181,1.41335 2.01668,1.91225 15.15494,9.49275 22.93054,14.03215 2.02229,1.18528 4.03409,2.35529 4.47065,2.60003 3.34207,1.87356 4.63517,2.65002 5.64129,2.80701 l 0.91187,0.0604 c -0.10295,6.29809 -0.0482,12.59548 -3e-5,18.89358 l -0.71343,-0.008 c -1.59762,-0.11135 -3.88671,-1.60412 -5.06013,-2.30019 z M 110.26084,184.6612 c 0.0774,-16.1201 -0.56724,-55.26265 0.10392,-56.20809 0,0 0.0331,-0.17249 0.18069,-0.38043 l 1.15783,0.66848 c 0,0 1.70654,0.96594 2.43414,1.40535 l 7.8001,4.50339 c 0,0 2.93751,1.70498 3.52581,2.03562 0.79743,0.44818 1.52618,0.88114 1.52618,0.88114 -1.41481,16.09189 0.84696,43.14585 -1.57178,57.63843 -0.52329,-0.24196 -13.13697,-7.59824 -13.8271,-8.00111 -0.88025,-0.51384 -1.33484,-1.48969 -1.32979,-2.54278 z"
           id="path827"
           inkscape:connector-curvature="0" />
        <path
           sodipodi:nodetypes="cccsscccccccc"
           style="fill:#e6e6e6;fill-opacity:1;stroke-width:6.96574545"
           d="m 163.52206,179.39127 c 0.43656,-0.19492 7.12694,-3.84219 7.12694,-3.84219 0,0 6.65779,-3.89321 10.97319,-6.44022 0,0 0,-3.50934 0.0204,-5.24354 0.0178,-1.50983 0.15734,-2.76197 0.16809,-5.67631 0.0323,-8.75705 -0.07,-11.94389 -0.50102,-12.7928 -4.67808,2.70089 -11.7207,6.76694 -11.7207,6.76694 0,0 -7.45975,4.30584 -7.47233,4.31416 l -1.18646,0.685 -0.0114,11.89717 v 10.84867 l 0.7276,-0.0104 c 0.52649,-0.0699 1.42131,-0.30896 1.87572,-0.50648 z"
           id="path829"
           inkscape:connector-curvature="0" />
        <path
           sodipodi:nodetypes="ccscsccccccccc"
           style="fill:#cccccc;fill-opacity:1;stroke-width:6.96574545"
           d="m 158.6926,179.53301 c -0.43656,-0.19492 -3.04225,-1.57975 -5.44334,-2.99983 -2.48463,-1.43678 -5.65263,-3.17827 -6.93063,-3.98323 -3.74979,-2.36186 -5.13708,-3.08397 -5.85496,-4.80212 -0.32375,-0.77484 -0.39129,-3.39205 -0.41403,-9.55882 -0.0323,-8.75705 0.07,-11.94389 0.50103,-12.7928 4.67808,2.70089 11.7207,6.76694 11.7207,6.76694 0,0 7.45974,4.30584 7.47233,4.31416 l 1.18645,0.685 0.0114,11.89717 v 10.84867 l -0.72759,-0.0104 c -0.4002,-0.006 -1.0848,-0.16984 -1.52136,-0.36477 z"
           id="path831"
           inkscape:connector-curvature="0" />
        <path
           sodipodi:nodetypes="ccccsscc"
           inkscape:connector-curvature="0"
           id="path833"
           d="m 209.6302,185.27929 -28.00801,-16.17043 v -18.63904 l 30.07887,17.36604 c 0,0 0.0709,12.56902 -0.0153,16.31361 -0.0138,0.5984 -0.48103,1.41562 -0.677,1.56512 -0.38313,0.29229 -1.37858,-0.4353 -1.37858,-0.4353 z"
           style="fill:#cccccc;fill-opacity:1;stroke:none;stroke-width:1.84302008px;stroke-linecap:butt;stroke-linejoin:miter;stroke-opacity:1" />
        <path
           sodipodi:nodetypes="ccccc"
           inkscape:connector-curvature="0"
           id="path835"
           d="m 160.77517,157.07283 50.91632,-28.64863 0.01,18.07601 -34.61909,19.98735 z"
           style="fill:#e6e6e6;fill-opacity:1;stroke:none;stroke-width:1.84302008px;stroke-linecap:butt;stroke-linejoin:miter;stroke-opacity:1" />
      </g>
      <text
         xml:space="preserve"
         style="font-style:normal;font-variant:normal;font-weight:300;font-stretch:normal;font-size:59.79242706px;line-height:1.25;font-family:Bahnschrift;-inkscape-font-specification:'Bahnschrift, Light';font-variant-ligatures:normal;font-variant-caps:normal;font-variant-numeric:normal;font-feature-settings:normal;text-align:start;letter-spacing:0px;word-spacing:0px;writing-mode:lr-tb;text-anchor:start;fill:#ffffff;fill-opacity:1;stroke:none;stroke-width:1.84302008"
         x="234.00751"
         y="169.50618"
         id="text841"><tspan
           sodipodi:role="line"
           id="tspan839"
           x="234.00751"
           y="169.50618"
           style="font-style:normal;font-variant:normal;font-weight:300;font-stretch:normal;font-size:59.79242706px;font-family:Bahnschrift;-inkscape-font-specification:'Bahnschrift, Light';font-variant-ligatures:normal;font-variant-caps:normal;font-variant-numeric:normal;font-feature-settings:normal;text-align:start;writing-mode:lr-tb;text-anchor:start;fill:#ffffff;stroke-width:1.84302008">DistBIT</tspan></text>
    </g>
  </g>
</svg>
