<?xml version="1.0" encoding="UTF-8" standalone="no"?>
<!-- Created with Inkscape (http://www.inkscape.org/) -->

<svg
   xmlns:dc="http://purl.org/dc/elements/1.1/"
   xmlns:cc="http://creativecommons.org/ns#"
   xmlns:rdf="http://www.w3.org/1999/02/22-rdf-syntax-ns#"
   xmlns:svg="http://www.w3.org/2000/svg"
   xmlns="http://www.w3.org/2000/svg"
   xmlns:sodipodi="http://sodipodi.sourceforge.net/DTD/sodipodi-0.dtd"
   xmlns:inkscape="http://www.inkscape.org/namespaces/inkscape"
   width="66.145836mm"
   height="28.146927mm"
   viewBox="0 0 66.145836 28.146927"
   version="1.1"
   id="svg1028"
   inkscape:version="0.92.4 (5da689c313, 2019-01-14)"
   sodipodi:docname="logo-dist.svg">
  <defs
     id="defs1022" />
  <sodipodi:namedview
     id="base"
     pagecolor="#ffffff"
     bordercolor="#666666"
     borderopacity="1.0"
     inkscape:pageopacity="0.0"
     inkscape:pageshadow="2"
     inkscape:zoom="0.175"
     inkscape:cx="-1526.1118"
     inkscape:cy="284.08001"
     inkscape:document-units="mm"
     inkscape:current-layer="layer1"
     showgrid="false"
     inkscape:window-width="1440"
     inkscape:window-height="837"
     inkscape:window-x="-8"
     inkscape:window-y="-8"
     inkscape:window-maximized="1"
     fit-margin-top="0"
     fit-margin-left="0"
     fit-margin-right="0"
     fit-margin-bottom="0"
     showguides="false" />
  <metadata
     id="metadata1025">
    <rdf:RDF>
      <cc:Work
         rdf:about="">
        <dc:format>image/svg+xml</dc:format>
        <dc:type
           rdf:resource="http://purl.org/dc/dcmitype/StillImage" />
        <dc:title></dc:title>
      </cc:Work>
    </rdf:RDF>
  </metadata>
  <g
     inkscape:label="Layer 1"
     inkscape:groupmode="layer"
     id="layer1"
     transform="translate(-246.75131,-156.75462)">
    <g
       id="g1363"
       transform="matrix(0.38661769,0,0,0.38661769,151.35289,113.41534)"
       style="stroke-width:2.5865345">
      <g
         style="stroke-width:7.79359055"
         id="g1218"
         transform="matrix(0.33187971,0,0,0.33187971,243.46938,101.77284)">
        <path
           style="fill:#1652f0;fill-opacity:1;stroke-width:7.79359055"
           d="m 202.59534,87.092742 -30.3917,-17.764546 -0.005,106.601784 -3.16328,2.93317 27.30475,19.33439 6.25018,-3.69907 z"
           id="path943-08-7-6-3-0"
           inkscape:connector-curvature="0"
           sodipodi:nodetypes="ccccccc" />
        <path
           style="fill:#0d3396;fill-opacity:1;stroke-width:7.79359055"
           d="m 9.8890295,194.77732 0.2396155,-4.48891 26.315501,-16.42846 3.836474,2.34888 66.09768,37.72257 0.10405,36.54702 z"
           id="path943-08-7-1-7-5-3-0-3"
           inkscape:connector-curvature="0"
           sodipodi:nodetypes="ccccccc" />
        <path
           style="fill:#1666f0;fill-opacity:1;stroke-width:7.79359055"
           d="m 202.59029,194.49847 -30.3866,-18.57137 -65.73252,38.01054 -2.40075,-1.0599 -0.70678,35.64685 3.11873,1.95383 z"
           id="path943-08-7-1-7-5-3-0-3-9-2"
           inkscape:connector-curvature="0"
           sodipodi:nodetypes="ccccccc" />
        <path
           style="fill:#1140bc;fill-opacity:1;stroke-width:7.79359055"
           d="m 9.8889714,194.71641 30.3916486,-18.50758 5e-6,-70.54471 2.413339,-3.38083 -30.368548,-16.531666 -2.4363888,1.343997 z"
           id="path943-08-7-6"
           inkscape:connector-curvature="0"
           sodipodi:nodetypes="ccccccc" />
        <path
           style="fill:#169af0;fill-opacity:1;stroke-width:7.79359055"
           d="M 145.53325,53.930039 V 90.423157 L 106.106,67.659818 l -4.84006,-0.24726 4.62904,-36.29976 z"
           id="path943-08"
           inkscape:connector-curvature="0"
           sodipodi:nodetypes="cccccc" />
        <path
           style="fill:#16aaf0;fill-opacity:1;stroke-width:7.79359055"
           d="M 36.373147,71.705454 40.28062,105.66412 106.106,67.659822 106.36034,35.499356 105.89498,31.112798 Z"
           id="path943-08-7"
           inkscape:connector-curvature="0"
           sodipodi:nodetypes="cccccc" />
        <path
           style="fill:#169af0;fill-opacity:1;stroke-width:7.79359055"
           d="m 106.37332,184.7468 39.38255,-22.73752 -0.0675,-42.63811 -39.31505,-22.69855 -39.582368,22.69855 -0.0335,42.65772 z"
           id="path832-67"
           inkscape:connector-curvature="0"
           sodipodi:nodetypes="ccccccc" />
        <path
           inkscape:connector-curvature="0"
           style="fill:#165df0;fill-opacity:1;stroke-width:7.79359055"
           d="m 106.37332,184.7468 39.38255,-22.73752 -0.0675,-42.63811 -39.47516,22.76045 -39.422258,-22.76045 -0.0335,42.65772 z"
           id="path832-8-5"
           sodipodi:nodetypes="ccccccc" />
        <path
           inkscape:connector-curvature="0"
           style="fill:#103cae;fill-opacity:1;stroke-width:7.79359055"
           d="M 106.37332,184.7468 H 106.106 v -42.55328 0 l -39.315046,-22.82235 -0.0335,42.65772 z"
           id="path832-0-7"
           sodipodi:nodetypes="ccccccc" />
        <path
           style="fill:#16b6f0;fill-opacity:1;stroke-width:7.79359055"
           d="M 106.106,67.659822 71.992464,87.304114 74.529926,49.459319 Z"
           id="path943-08-7-1"
           inkscape:connector-curvature="0"
           sodipodi:nodetypes="cccc" />
        <path
           style="fill:#168ff0;fill-opacity:1;stroke-width:7.79359055"
           d="M 40.49164,69.300182 71.992464,87.304114 74.529926,49.459319 Z"
           id="path943-08-7-1-7"
           inkscape:connector-curvature="0"
           sodipodi:nodetypes="cccc" />
        <path
           style="fill:#169af0;fill-opacity:1;stroke-width:7.79359055"
           d="M 71.992464,87.304114 40.49164,69.300182 c 0,0 -0.211015,36.363938 -0.21102,36.363938 z"
           id="path943-08-7-1-7-5"
           inkscape:connector-curvature="0"
           sodipodi:nodetypes="cccc" />
        <path
           style="fill:#16aaf0;fill-opacity:1;stroke-width:7.79359055"
           d="M 9.8890272,87.095621 40.28062,105.66412 40.49164,69.300182 Z"
           id="path943-08-7-1-7-5-8"
           inkscape:connector-curvature="0"
           sodipodi:nodetypes="cccc" />
        <path
           style="fill:#0f38a5;fill-opacity:1;stroke-width:7.79359055"
           d="M 9.8889795,158.6622 40.28062,176.20883 9.8890295,194.77732 Z"
           id="path943-08-7-6-3"
           inkscape:connector-curvature="0"
           sodipodi:nodetypes="cccc" />
        <path
           style="fill:#0d359c;fill-opacity:1;stroke-width:7.79359055"
           d="M 40.280619,140.75738 9.8889288,159.32587 40.28062,176.20883 Z"
           id="path943-08-7-6-3-6"
           inkscape:connector-curvature="0"
           sodipodi:nodetypes="cccc" />
        <path
           style="fill:#0f3aa9;fill-opacity:1;stroke-width:7.79359055"
           d="M 9.8889288,159.32587 40.280577,141.77924 9.8889778,123.21075 Z"
           id="path943-08-7-6-2"
           inkscape:connector-curvature="0"
           sodipodi:nodetypes="cccc" />
        <path
           style="fill:#1666f0;fill-opacity:1;stroke-width:7.79359055"
           d="m 202.59034,158.38335 -30.39169,-18.56849 30.3916,-18.56849 z"
           id="path943-08-7-6-2-5"
           inkscape:connector-curvature="0"
           sodipodi:nodetypes="cccc" />
        <path
           style="fill:#0f3aa9;fill-opacity:1;stroke-width:7.79359055"
           d="m 106.47117,213.93764 -33.241112,-18.91751 0.311246,36.41338 z"
           id="path943-08-7-1-7-5-3"
           inkscape:connector-curvature="0"
           sodipodi:nodetypes="cccc" />
        <path
           style="fill:#103cae;fill-opacity:1;stroke-width:7.79359055"
           d="m 41.762643,213.14032 31.467415,-18.12019 0.311246,36.41338 z"
           id="path943-08-7-1-7-5-3-0"
           inkscape:connector-curvature="0"
           sodipodi:nodetypes="cccc" />
        <path
           style="fill:#0e369f;fill-opacity:1;stroke-width:7.79359055"
           d="m 73.230058,195.02013 -32.949438,-18.8113 1.482023,36.93149 z"
           id="path943-08-7-1-7-5-3-1"
           inkscape:connector-curvature="0"
           sodipodi:nodetypes="cccc" />
        <path
           style="fill:#1140bc;fill-opacity:1;stroke-width:7.79359055"
           d="m 73.541304,231.43351 32.929866,-17.49587 0.0112,36.54078 z"
           id="path943-08-7-1-7-5-3-0-3-9"
           inkscape:connector-curvature="0"
           sodipodi:nodetypes="cccc" />
        <path
           style="fill:#165df0;fill-opacity:1;stroke-width:7.79359055"
           d="m 106.50458,213.93764 32.81649,-18.99879 0.10232,36.32762 z"
           id="path943-08-7-1-7-5-3-4"
           inkscape:connector-curvature="0"
           sodipodi:nodetypes="cccc" />
        <path
           style="fill:#1652f0;fill-opacity:1;stroke-width:7.79359055"
           d="m 170.72167,213.02563 -31.4006,-18.08678 0.10232,36.32762 z"
           id="path943-08-7-1-7-5-3-0-1"
           inkscape:connector-curvature="0"
           sodipodi:nodetypes="cccc" />
        <path
           style="fill:#165df0;fill-opacity:1;stroke-width:7.79359055"
           d="m 139.31608,194.94173 32.88262,-19.01175 -1.48202,37.09853 z"
           id="path943-08-7-1-7-5-3-1-5"
           inkscape:connector-curvature="0"
           sodipodi:nodetypes="cccc" />
        <path
           style="fill:#000000;fill-opacity:0;stroke-width:7.79359055"
           d="m 202.59029,194.49847 -30.3866,-18.57137 -1.48202,37.09853 z"
           id="path943-08-7-1-7-5-3-0-3-7"
           inkscape:connector-curvature="0"
           sodipodi:nodetypes="cccc" />
        <path
           style="fill:#16b6f0;fill-opacity:1;stroke-width:7.79359055"
           d="m 106.106,67.659822 39.42725,22.763335 c 0,0 -0.21102,-36.48884 0,-36.493118 z"
           id="path943-08-7-1-8"
           inkscape:connector-curvature="0"
           sodipodi:nodetypes="cccc" />
        <path
           inkscape:connector-curvature="0"
           style="fill:#1140bc;fill-opacity:1;stroke-width:7.79359055"
           d="m 106.37332,184.7468 -0.16011,-42.61518 -39.455756,19.89727 z"
           id="path832-0-8"
           sodipodi:nodetypes="cccc" />
        <path
           inkscape:connector-curvature="0"
           style="fill:#1652f0;fill-opacity:1;stroke-width:7.79359055"
           d="m 145.75587,162.00928 -0.0675,-42.63811 -39.47516,22.76045 z"
           id="path832-0-8-8"
           sodipodi:nodetypes="cccc" />
        <path
           inkscape:connector-curvature="0"
           style="fill:#16aaf0;fill-opacity:1;stroke-width:7.79359055"
           d="m 106.106,142.19352 c 0,0 0.23823,-37.36177 0.26732,-45.6447 v 0 l -39.582366,22.82235 19.657523,11.41118 z"
           id="path832-0-8-8-1"
           sodipodi:nodetypes="cccccc" />
        <path
           style="fill:#103db2;fill-opacity:1;stroke-width:7.79359055"
           d="M 40.28062,105.66412 9.8889778,123.21075 40.28057,141.77924 Z"
           id="path943-08-7-6-3-6-1"
           inkscape:connector-curvature="0"
           sodipodi:nodetypes="cccc" />
        <path
           style="fill:#165df0;fill-opacity:1;stroke-width:7.79359055"
           d="m 172.19865,139.81486 30.39169,18.56849 c 0,0 -30.3917,17.54663 -30.39164,17.54663 z"
           id="path943-08-7-6-3-6-3"
           inkscape:connector-curvature="0"
           sodipodi:nodetypes="cccc" />
        <path
           style="fill:#1652f0;fill-opacity:1;stroke-width:7.79359055"
           d="m 172.19864,104.03491 30.39675,19.17296 -30.39674,16.60699 z"
           id="path943-08-7-6-3-6-1-8"
           inkscape:connector-curvature="0"
           sodipodi:nodetypes="cccc" />
        <path
           style="fill:#165df0;fill-opacity:1;stroke-width:7.79359055"
           d="m 202.59539,123.20787 -30.39675,-19.17296 30.3967,-16.942168 z"
           id="path943-08-7-6-9"
           inkscape:connector-curvature="0"
           sodipodi:nodetypes="cccc" />
        <path
           style="fill:#1698f0;fill-opacity:1;stroke-width:7.79359055"
           d="m 202.59534,87.092742 -30.3917,-17.764546 -0.005,34.706714 z"
           id="path943-08-7-1-7-5-1"
           inkscape:connector-curvature="0"
           sodipodi:nodetypes="cccc" />
      </g>
      <g
         style="stroke-width:3.89077711"
         transform="matrix(0.6647861,0,0,0.6647861,277.87323,-224.34298)"
         id="g2183-7-6">
        <path
           inkscape:connector-curvature="0"
           style="fill:#0c0a0c;stroke-width:3.89077711"
           d="m 111.36458,579.9175 c -1.3607,-0.11133 -2.87875,-0.27835 -3.37344,-0.37116 l -0.89945,-0.16874 v -1.7078 c 0,-1.99295 -0.26875,-1.89483 3.59493,-1.31249 3.12114,0.47043 7.08567,0.51665 8.33799,0.0972 2.09278,-0.70095 2.74965,-2.15519 1.83082,-4.05324 -0.67454,-1.39341 -1.9801,-2.32116 -6.33376,-4.50083 -5.68297,-2.8452 -7.29625,-4.5805 -7.24938,-7.79764 0.0139,-0.95458 0.14958,-2.0498 0.3015,-2.43381 0.47484,-1.20031 1.8394,-2.517 3.28629,-3.17098 1.31164,-0.59286 1.6853,-0.62873 6.55036,-0.62873 2.83766,0 5.84399,0.0979 6.68073,0.21748 l 1.52136,0.21747 v 1.59295 1.59295 l -1.38906,-0.11549 c -0.76399,-0.0635 -2.82509,-0.27491 -4.58023,-0.46975 -2.63836,-0.29288 -3.40565,-0.29419 -4.42941,-0.008 -3.16075,0.88495 -3.7035,4.09559 -1.02087,6.03888 0.58111,0.42095 2.61526,1.5794 4.52034,2.57432 5.54935,2.89815 7.42599,4.71938 7.80471,7.5743 0.2235,1.68482 -0.19777,3.18456 -1.22229,4.35142 -2.10856,2.40151 -6.13682,3.11897 -13.93114,2.48123 z"
           id="path1942-8-8" />
        <path
           inkscape:connector-curvature="0"
           style="fill:#0c0a0c;stroke-width:3.89077711"
           d="m 137.58198,579.8422 c -1.262,-0.45769 -2.63846,-1.64623 -3.21475,-2.77585 -0.9697,-1.90076 -1.08179,-3.70619 -1.08179,-17.42477 v -13.31286 h 2.63877 2.63875 l 0.0732,3.9026 0.0732,3.9026 3.50573,0.0738 3.50573,0.0738 v 1.71211 1.71211 h -3.58562 -3.58563 l 0.0799,8.40052 c 0.0892,9.38052 0.11594,9.52711 1.94312,10.65637 0.76203,0.47096 1.18213,0.55455 2.12308,0.42241 0.64519,-0.0906 1.70885,-0.23973 2.36369,-0.33142 l 1.19063,-0.1667 v 1.58729 1.58729 l -0.99219,0.164 c -1.64952,0.27265 -6.75476,0.1507 -7.67586,-0.18336 z"
           id="path1940-04-3" />
        <path
           inkscape:connector-curvature="0"
           style="fill:#0c0a0c;stroke-width:3.89077711"
           d="m 201.87574,579.8422 c -1.26201,-0.45769 -2.63848,-1.64623 -3.21477,-2.77585 -0.9697,-1.90076 -1.08178,-3.70619 -1.08178,-17.42477 v -13.31286 h 2.63877 2.63875 l 0.0732,3.9026 0.0732,3.9026 3.50573,0.0738 3.50573,0.0738 v 1.71211 1.71211 h -3.58563 -3.58561 l 0.0799,8.40052 c 0.0892,9.38052 0.11597,9.52711 1.94313,10.65637 0.76202,0.47096 1.18213,0.55455 2.12309,0.42241 0.64519,-0.0906 1.70884,-0.23973 2.36368,-0.33142 l 1.19063,-0.1667 v 1.58729 1.58729 l -0.99219,0.164 c -1.64952,0.27265 -6.75476,0.1507 -7.67585,-0.18336 z"
           id="path1938-4-1" />
        <path
           inkscape:connector-curvature="0"
           id="path1934-9-1"
           style="fill:#0c0a0c;stroke-width:3.89077711"
           d="m 78.252105,575.6384 c 1.53192,-0.75847 2.47369,-1.85778 2.91763,-3.40572 0.33919,-1.18267 0.33919,-20.99202 0,-22.17469 -0.44394,-1.54795 -1.38571,-2.64726 -2.91763,-3.40572 -1.39594,-0.69113 -1.65188,-0.7242 -6.28386,-0.81186 l -4.82864,-0.0914 v 15.3963 15.39631 l 4.82864,-0.0914 c 4.63198,-0.0876 4.88792,-0.12072 6.28386,-0.81185 z M 61.847935,561.14533 V 542.6245 l 6.54844,0.005 c 3.60164,0.003 7.64,0.1196 8.97414,0.26018 5.33012,0.56163 7.99435,2.57872 8.97157,6.79239 0.34127,1.47152 0.39457,3.51666 0.32237,12.36805 -0.0842,10.32859 -0.10227,10.64429 -0.69134,12.11241 -0.42366,1.05586 -1.02209,1.88807 -1.99771,2.77813 -2.53868,2.31603 -4.69707,2.7058 -15.04986,2.71775 l -7.07761,0.008 z" />
        <path
           inkscape:connector-curvature="0"
           style="fill:#0c0a0c;stroke-width:3.89077711"
           d="m 94.391685,566.83387 v -12.83229 h 2.64584 2.64583 v 12.83229 12.8323 h -2.64583 -2.64584 z"
           id="path1932-5-3" />
        <path
           inkscape:connector-curvature="0"
           id="path1926-6-8"
           style="fill:#0c0a0c;stroke-width:3.89077711"
           d="m 165.62608,558.77718 c 2.12955,-0.3488 3.31295,-0.98431 4.12891,-2.2173 0.63563,-0.96051 0.71259,-1.34715 0.79693,-4.00407 0.10846,-3.41664 -0.19217,-4.44879 -1.61096,-5.53095 -1.15352,-0.87984 -3.91475,-1.2842 -8.00656,-1.17251 l -2.91041,0.0794 -0.0712,6.21224 c -0.0392,3.41672 -0.0131,6.36352 0.0578,6.54843 0.15716,0.40957 5.28393,0.4666 7.61542,0.0847 z m 2.0552,17.43191 c 2.09537,-0.33881 3.11862,-0.90257 3.8271,-2.10853 0.46403,-0.78989 0.53852,-1.37415 0.53852,-4.22398 0,-3.75392 -0.26901,-4.81368 -1.52634,-6.01297 -1.44598,-1.37923 -2.8002,-1.65994 -8.0079,-1.65994 h -4.62097 v 6.96736 c 0,3.83205 0.0794,7.04673 0.17639,7.14375 0.28166,0.28165 7.72369,0.19983 9.6132,-0.10569 z m -15.08125,-15.09308 v -18.55014 l 8.53281,0.12184 c 7.84821,0.11207 8.67497,0.16799 10.30469,0.69706 3.3172,1.07689 4.49012,2.98074 4.66342,7.5695 0.14623,3.87182 -0.26866,6.11713 -1.44681,7.82986 l -0.91405,1.32879 0.60861,0.50741 c 0.33474,0.27907 0.68209,0.51136 0.7719,0.5162 0.35822,0.0193 1.53741,2.13019 1.93174,3.45802 0.57717,1.94356 0.57118,7.48138 -0.0104,9.5539 -0.85528,3.04821 -3.20429,4.75012 -7.23711,5.24345 -1.23311,0.15085 -5.60866,0.27427 -9.72344,0.27427 h -7.48141 z" />
        <path
           inkscape:connector-curvature="0"
           style="fill:#0c0a0c;stroke-width:3.89077711"
           d="m 184.35003,566.83387 v -12.83229 h 2.64583 2.64583 v 12.83229 12.8323 h -2.64583 -2.64583 z"
           id="path1924-1-1" />
        <path
           inkscape:connector-curvature="0"
           style="fill:#0c0a0c;stroke-width:3.89077711"
           d="m 94.391685,544.87346 v -3.30729 h 2.64584 2.64583 v 3.30729 3.30729 h -2.64583 -2.64584 z"
           id="path1910-5-3" />
        <path
           inkscape:connector-curvature="0"
           style="fill:#0c0a0c;stroke-width:3.89077711"
           d="m 184.35003,544.87346 v -3.30729 h 2.64583 2.64583 v 3.30729 3.30729 h -2.64583 -2.64583 z"
           id="path1908-2-3" />
      </g>
    </g>
  </g>
</svg>
