<?xml version="1.0" encoding="UTF-8" standalone="no"?>
<!-- Created with Inkscape (http://www.inkscape.org/) -->

<svg
   xmlns:dc="http://purl.org/dc/elements/1.1/"
   xmlns:cc="http://creativecommons.org/ns#"
   xmlns:rdf="http://www.w3.org/1999/02/22-rdf-syntax-ns#"
   xmlns:svg="http://www.w3.org/2000/svg"
   xmlns="http://www.w3.org/2000/svg"
   xmlns:sodipodi="http://sodipodi.sourceforge.net/DTD/sodipodi-0.dtd"
   xmlns:inkscape="http://www.inkscape.org/namespaces/inkscape"
   width="45.201569mm"
   height="16.536449mm"
   viewBox="0 0 36.161254 13.22916"
   version="1.1"
   id="svg8"
   inkscape:version="0.92.4 (5da689c313, 2019-01-14)"
   sodipodi:docname="logo2.svg">
  <defs
     id="defs2" />
  <sodipodi:namedview
     id="base"
     pagecolor="#ffffff"
     bordercolor="#666666"
     borderopacity="1.0"
     inkscape:pageopacity="0.0"
     inkscape:pageshadow="2"
     inkscape:zoom="1.979899"
     inkscape:cx="-2.9224315"
     inkscape:cy="37.965697"
     inkscape:document-units="mm"
     inkscape:current-layer="layer1"
     showgrid="false"
     showguides="false"
     inkscape:guide-bbox="true"
     fit-margin-top="0"
     fit-margin-left="0"
     fit-margin-right="0"
     fit-margin-bottom="0"
     inkscape:window-width="1600"
     inkscape:window-height="837"
     inkscape:window-x="-8"
     inkscape:window-y="-8"
     inkscape:window-maximized="1"
     scale-x="0.8">
    <sodipodi:guide
       position="72.475848,-200.14648"
       orientation="0,1"
       id="guide846"
       inkscape:locked="false" />
    <sodipodi:guide
       position="37.199696,-170.14964"
       orientation="0,1"
       id="guide848"
       inkscape:locked="false" />
    <sodipodi:guide
       position="28.322921,-158.77315"
       orientation="1,0"
       id="guide850"
       inkscape:locked="false" />
    <sodipodi:guide
       position="28.322929,-158.77315"
       orientation="0,1"
       id="guide852"
       inkscape:locked="false" />
  </sodipodi:namedview>
  <metadata
     id="metadata5">
    <rdf:RDF>
      <cc:Work
         rdf:about="">
        <dc:format>image/svg+xml</dc:format>
        <dc:type
           rdf:resource="http://purl.org/dc/dcmitype/StillImage" />
        <dc:title></dc:title>
      </cc:Work>
    </rdf:RDF>
  </metadata>
  <g
     inkscape:label="Layer 1"
     inkscape:groupmode="layer"
     id="layer1"
     transform="translate(280.0889,-183.07993)">
    <path
       style="opacity:1;fill:#ffffff;fill-opacity:1;stroke:none;stroke-width:11.90625;stroke-linecap:round;stroke-linejoin:round;stroke-miterlimit:4;stroke-dasharray:none;stroke-dashoffset:0;stroke-opacity:1"
       d="m -279.58376,192.15499 3.61494,-2.85916 c 0.19253,-0.15228 0.42717,4.73569 0.67839,4.73956 0.23875,0.004 0.49424,-4.88429 0.67722,-4.73956 l 3.61493,2.85916 c 0.37551,0.297 0.37551,0.77519 0,1.07219 l -3.61493,2.85916 c -0.37551,0.297 -0.9801,0.297 -1.35561,0 l -3.61494,-2.85916 c -0.3755,-0.297 -0.3755,-0.77519 0,-1.07219 z"
       id="rect854"
       inkscape:connector-curvature="0"
       sodipodi:nodetypes="ssssssssss" />
    <path
       inkscape:connector-curvature="0"
       id="path830"
       d="m -277.7783,192.68932 -2.3106,-1.35307 v -2.66276 -2.66275 0 c 0.0592,0.0316 0.18034,0.0685 0.18034,0.0685 0,0 0.8275,0.50636 1.02895,0.62588 0.45132,0.26778 1.37448,0.81014 2.05146,1.20523 0.67699,0.3951 1.23089,0.75342 1.23089,0.79628 0,0.0429 -0.0932,0.1204 -0.20716,0.17231 -0.18431,0.084 -0.38451,-0.008 -1.81558,-0.83165 -1.32592,-0.76339 -1.63089,-0.90739 -1.73634,-0.81987 -0.17227,0.14297 -0.19029,3.5138 -0.0199,3.7314 0.0594,0.0759 0.7989,0.53424 1.64336,1.01862 1.26203,0.72391 1.55806,0.86188 1.66277,0.77498 0.10476,-0.087 0.12739,-0.42353 0.12739,-1.89522 v -1.78949 l 0.22,-0.10024 c 0.12101,-0.0551 0.24734,-0.10012 0.28073,-0.1 0.0334,1.4e-4 0.0649,1.16625 0.0699,2.59133 0.005,1.42509 0.10992,2.58937 0.0811,2.58729 -0.0288,-0.002 -1.21645,-0.61265 -2.48728,-1.35684 z m 2.48728,1.35684 c 0.0453,-0.24905 0.142,-5.13766 0.16601,-5.16167 0.0171,-0.0171 0.13081,0.0344 0.25277,0.11428 l 0.22175,0.14529 0.0233,1.82557 c 0.0197,1.54187 0.0434,1.82935 0.15286,1.84986 0.0713,0.0134 0.63644,-0.27766 1.25596,-0.64671 l 1.96509,-1.15637 0.042,-2.38854 c 0.0203,-1.12454 0.004,-1.32665 -0.10958,-1.3703 -0.1274,-0.0489 -1.28268,0.55323 -2.70226,1.40839 -0.6195,0.37319 -0.63158,0.37643 -0.83947,0.22518 -0.116,-0.0844 -0.21214,-0.17704 -0.21363,-0.20588 -0.002,-0.0288 0.454,-0.31577 1.01222,-0.63762 1.36232,-0.78548 3.39053,-2.05943 3.3474,-2.10256 -0.0523,-0.0523 -1.47768,0.72718 -2.95577,1.61639 -0.72288,0.43488 -1.36593,0.8105 -1.42901,0.8347 -0.0798,0.0306 -0.12085,-0.0475 -0.13496,-0.25711 -0.0157,-0.23315 0.0242,-0.3286 0.17653,-0.42282 0.10825,-0.0669 0.80902,-0.48288 1.55726,-0.92435 0.86942,-0.51295 1.35886,-0.85224 1.35604,-0.94004 -0.003,-0.0821 -0.44108,-0.3958 -1.08874,-0.77908 -1.36634,-0.80864 -2.06376,-1.04689 -2.06376,-1.04689 -0.71531,0.21278 -1.53769,0.69639 -2.12564,1.02412 -0.84595,0.47413 -1.06621,0.63578 -1.06621,0.78251 0,0.14918 0.30064,0.35706 1.5548,1.07511 1.54346,0.88368 1.555,0.8925 1.58161,1.20895 0.0167,0.19847 -0.0107,0.31877 -0.0727,0.31877 -0.0547,0 -0.59154,-0.30394 -1.19291,-0.67543 -1.65719,-1.03211 -3.46879,-1.74917 -3.46879,-1.74917 0,0 1.82253,-1.2395 2.83597,-1.83964 1.01345,-0.60015 1.87999,-1.09117 1.92564,-1.09117 l 4.7602,2.71675 c 0.0349,0.0498 0.0627,1.33436 0.0618,2.8546 l -0.002,2.76409 -1.09034,0.60464 c -0.59968,0.33256 -1.62911,0.92532 -2.28761,1.31726 -1.23609,0.73572 -1.40309,0.70216 -1.40309,0.70216 z"
       style="fill:#232323;fill-opacity:1;stroke-width:1"
       sodipodi:nodetypes="ccccccsccscccccsccccccccscccccccssscscccccccccssssccccccsscsc" />
    <text
       xml:space="preserve"
       style="font-style:normal;font-variant:normal;font-weight:normal;font-stretch:normal;font-size:7.14669085px;line-height:1.25;font-family:'Arial Rounded MT Bold';-inkscape-font-specification:'Arial Rounded MT Bold, Normal';font-variant-ligatures:normal;font-variant-caps:normal;font-variant-numeric:normal;font-feature-settings:normal;text-align:start;letter-spacing:0px;word-spacing:0px;writing-mode:lr-tb;text-anchor:start;fill:#ffffff;fill-opacity:1;stroke:none;stroke-width:0.26458332"
       x="-269.34586"
       y="192.25238"
       id="text858"><tspan
         sodipodi:role="line"
         id="tspan856"
         x="-269.34586"
         y="192.25238"
         style="font-style:normal;font-variant:normal;font-weight:normal;font-stretch:normal;font-size:7.14669085px;font-family:'Arial Rounded MT Bold';-inkscape-font-specification:'Arial Rounded MT Bold, Normal';font-variant-ligatures:normal;font-variant-caps:normal;font-variant-numeric:normal;font-feature-settings:normal;text-align:start;writing-mode:lr-tb;text-anchor:start;fill:#ffffff;fill-opacity:1;stroke-width:0.26458332">DistBIT</tspan></text>
  </g>
</svg>
